<svg width="226" height="16" viewBox="0 0 226 16" fill="none" xmlns="http://www.w3.org/2000/svg">
<path d="M5.80127 1.87434C8.69249 1.78802 12.4839 1.7679 15.3641 1.77827C16.2678 1.78132 15.8117 1.86829 16.4354 1.87397C17.6554 1.88499 18.7884 1.82752 19.9937 1.84471C20.3935 1.85079 19.8982 1.98483 20.3173 1.98832C22.6137 2.00658 24.7805 1.93922 27.1057 1.9282C38.5531 1.87426 49.8022 1.73987 61.3863 1.6136C65.2069 1.57183 69.8567 1.61294 73.7944 1.50155C74.2528 1.48846 73.9781 1.38218 74.0654 1.3717C75.4437 1.21072 74.9881 1.44102 75.8874 1.45669C79.4374 1.51857 83.4222 1.46735 86.8328 1.3727C88.2983 1.3319 86.8269 1.13469 88.3016 1.23552C88.4038 1.2423 88.035 1.36531 88.4357 1.37174C89.3474 1.38604 91.0505 1.33928 91.7645 1.33783C93.1235 1.33586 93.3471 1.33132 94.6221 1.31354C96.3859 1.28996 98.4449 1.31768 100.341 1.2631C100.743 1.25115 100.21 1.13866 100.85 1.10874C101.494 1.07879 103.17 1.06441 103.753 1.08428C104.327 1.10429 104.084 1.20243 104.186 1.22263C105.028 1.39334 106.962 1.11184 107.223 1.10182C111.81 0.92882 115.771 1.01737 120.084 0.957919C123.355 0.91254 126.861 0.818195 129.979 0.784643C131.818 0.765104 133.559 0.761474 135.231 0.756792C136.965 0.751424 138.631 0.74498 140.449 0.71814C140.827 0.712689 140.382 0.576354 140.844 0.56943C145.766 0.495804 150.704 0.458645 155.608 0.508594C156.107 0.513672 155.465 0.64385 155.963 0.656369C158.981 0.729998 163.762 0.937012 165.548 0.383952C167.579 0.390463 170.076 0.396667 171.904 0.496054C173.082 0.560075 171.929 0.701283 173.385 0.636255C173.714 0.621798 173.286 0.505325 173.778 0.492642C175.839 0.439436 178.091 0.469733 180.131 0.403921C180.551 0.390249 180.435 0.284317 180.553 0.264939C181.528 0.107838 183.179 0.362071 183.546 0.380596C186.27 0.517993 188.279 0.466215 190.813 0.479667C191.411 0.483056 190.708 0.337361 191.279 0.335559C192.719 0.332064 194.188 0.339139 195.641 0.359667C197.171 0.381189 198.694 0.41953 200.164 0.477262C200.812 0.503078 200.214 0.614053 200.523 0.632664C201.876 0.714245 202.176 0.491118 203.476 0.571893C203.75 0.588868 203.593 0.689022 203.643 0.701689C204.417 0.900422 205.107 0.666004 205.303 0.666062C207.849 0.663329 209.463 0.994465 211.913 1.04176C212.206 1.04689 211.55 0.893233 212.373 0.915376C213.391 0.942082 214.417 0.966684 215.451 0.9822C218.548 1.03997 221.634 1.43623 224.662 1.69084C224.723 1.69608 224.776 1.70168 224.848 1.7137C224.88 1.71934 224.92 1.72674 224.968 1.74007C225.009 1.75469 225.079 1.76195 225.207 1.85511C225.243 1.88263 225.32 1.94996 225.369 2.05855C225.424 2.1642 225.426 2.33671 225.398 2.41736C225.344 2.60602 225.221 2.6899 225.199 2.70905C225.133 2.76004 225.064 2.7913 225.034 2.80464C224.969 2.83304 224.892 2.85788 224.847 2.87079C224.623 2.9351 224.452 2.96656 224.245 3.00565C223.859 3.07518 223.508 3.12505 223.117 3.17768C222.372 3.27607 221.642 3.35529 220.917 3.42819C220.051 3.51431 220.654 3.34346 220.601 3.33753C219.729 3.24795 219.197 3.56165 218.916 3.60188C216.759 3.9042 214.719 3.88192 213.271 4.3215C208.116 4.73738 203.026 5.17713 197.865 5.56678C193.853 5.86856 189.826 6.13762 185.802 6.31631C185.687 6.32168 185.883 6.18109 185.654 6.19234C182.872 6.32775 183.404 6.4841 181.593 6.857C181.138 6.95059 179.677 6.76856 179.565 6.75555C179.109 6.71082 179.562 6.49015 179.41 6.48614C178.149 6.4596 178.404 7.06107 176.687 7.18638C176.633 7.18927 176.851 7.05929 176.706 7.05852C176.254 7.05581 175.829 7.13204 175.393 7.12451C174.399 7.10582 174.01 6.83284 172.508 7.11687C172.318 7.15335 172.639 7.48185 171.121 7.5749C170.509 7.61222 167.835 7.81073 167.08 7.84207C166.326 7.87346 166.834 7.72362 166.78 7.72259C164.734 7.71949 165.511 7.60166 164.482 7.45353C163.455 7.306 163.772 7.81039 163.363 7.89847C162.952 7.98655 161.457 7.96958 161.093 7.95248C160.727 7.93558 161.175 7.83167 160.85 7.83047C158.694 7.8251 159.927 8.15786 159.224 8.29151C157.563 8.60775 156.25 8.30997 154.712 8.38057C154.297 8.39962 154.641 8.46429 154.275 8.49855C152.825 8.63293 151.936 8.57374 150.286 8.80194C150.017 8.83915 148.695 9.16733 147.814 9.05679C147.69 9.0407 148.032 8.91919 147.409 8.94121C146.478 8.97397 144.807 9.06999 143.812 9.17234C143.077 9.24793 143.932 9.34849 143.002 9.36383C142.588 9.37054 143.345 9.22362 142.569 9.24401C141.797 9.26415 139.83 9.40588 139.082 9.46134C138.333 9.51691 138.752 9.60945 138.692 9.62184C138.329 9.69418 136.898 9.85272 136.772 9.86138C130.382 10.3218 124.467 10.5262 118.244 11.0227C117.757 11.0614 118.091 11.1668 118.016 11.174C116.354 11.3422 117.646 10.912 116.473 10.8784C116.662 11.1259 115.959 11.1271 114.783 11.2365C114.217 11.2894 114.533 11.3686 114.482 11.3824C113.651 11.5927 113.063 11.4351 112.904 11.4056C112.33 11.296 111.733 11.5129 111.347 11.4399C110.961 11.3675 111.822 11.1621 110.695 11.2412C110.386 11.3556 111.237 11.541 110.387 11.6388C107.154 12.0098 101.1 12.2316 98.4959 12.3884C95.9266 12.5431 95.0358 12.6206 93.5572 12.687C90.7741 12.8143 91.854 12.9221 90.1286 13.1213C88.4219 13.3192 89.2285 12.8199 88.9759 12.7414C88.7317 12.6622 88.4804 12.7775 88.1863 12.7448C88.1538 12.7412 88.1325 12.7366 88.1196 12.7314C88.0914 12.721 88.0997 12.7077 88.1171 12.6943C88.1494 12.6676 88.2156 12.6401 88.1128 12.6306C88.0613 12.6264 87.9698 12.6263 87.817 12.6324C87.0793 12.6624 85.2349 12.9563 84.96 13.0748C84.4496 13.3209 85.3064 13.4856 83.4788 13.5302C83.3752 13.5326 83.7024 13.3936 83.3064 13.4084C80.0338 13.5386 76.6864 13.7558 73.4225 13.9063C72.9789 13.9266 73.3644 13.7691 73.1085 13.7793C70.4154 13.8909 71.3909 14.0392 69.9235 14.3977C70.2124 14.0692 69.4476 13.8457 67.3113 14.1594C67.2997 14.1633 67.2881 14.1677 67.2757 14.1732C67.2631 14.1797 67.284 14.1669 67.2372 14.1937C67.2119 14.2116 67.1159 14.2697 67.135 14.4176C67.1701 14.5506 67.2394 14.5628 67.2658 14.5804C67.2928 14.5921 67.2852 14.5884 67.2944 14.5919C67.3065 14.596 67.3176 14.5992 67.3286 14.602C67.3719 14.6129 67.4158 14.6191 67.468 14.6251C67.5326 14.6319 67.5844 14.6348 67.6481 14.6376C67.7903 14.644 67.8621 14.6412 67.9468 14.638C68.1119 14.631 68.2541 14.6147 68.337 14.5935C68.5175 14.5513 68.7192 14.4964 69.0833 14.4529C69.3425 14.4282 70.1825 14.5342 70.3704 14.4688C70.8722 14.2545 70.0629 14.0093 72.1769 14.1144C72.2728 14.1193 71.9667 14.2373 72.2989 14.2455C74.3818 14.297 74.6083 14.0687 76.8643 14.0405C78.6293 14.0178 81.7545 14.1535 83.755 14.1759C83.746 14.2523 83.8241 14.309 83.9615 14.3485C84.4386 14.4972 85.768 14.4038 86.3709 14.2059C87.6548 14.2166 89.0642 14.2035 90.3281 14.2394C90.7674 14.2517 90.4787 14.3567 90.5341 14.3682C91.3687 14.5476 91.9237 14.3042 92.2077 14.295C95.2417 14.2058 97.7447 14.3952 100.631 14.2204C100.732 14.2141 100.914 13.9617 101.677 14.1479C101.727 14.1607 100.775 14.2736 102.131 14.2854C103.498 14.2973 106.077 14.4389 107.965 14.3267C108.419 14.2997 109.598 14.0977 110.516 14.2605C110.64 14.2827 110.504 14.3548 110.683 14.3956C111.26 14.5257 111.577 14.2712 112.259 14.4901C112.944 14.7091 114.349 14.8757 116.265 14.7319C116.326 14.7277 116.777 14.5267 117.378 14.5318C118.341 14.5401 119.7 14.5867 120.702 14.5887C121.182 14.5896 120.876 14.4629 120.959 14.4609C124.184 14.4013 126.48 14.5216 129.935 14.5834C130.567 14.5949 132.391 14.4306 133.615 14.5711C134.958 14.7249 133.577 15.3364 136.67 15.2021C137.92 15.1485 139.496 14.3721 141.745 14.7877C146.096 14.7066 150.12 14.9334 154.479 14.8126C154.671 14.8073 155.296 14.592 155.761 14.5975C156.448 14.606 156.822 14.7101 157.307 14.7195C159.362 14.7615 161.243 14.6848 163.203 14.71C163.962 14.7195 163.698 14.8235 164.592 14.8349C165.469 14.8461 166.091 14.7109 167.292 14.7857C168.175 14.8426 169.144 15.1332 170.324 15.1745C170.368 14.9076 171.161 14.9056 172.482 14.851C172.551 14.8484 172.621 14.8456 172.693 14.8426C172.984 14.8304 172.673 14.7305 172.81 14.7197C173.37 14.6735 173.876 14.7582 174.384 14.7073C174.509 14.6951 174.511 14.5994 174.618 14.584C175.533 14.45 176.94 14.6769 177.21 14.7167C178.162 14.8671 178.605 14.7464 179.343 14.8091C180.067 14.8717 178.986 14.932 179.827 14.9737C181.606 15.0602 183.875 15.0676 185.671 15.0934C186.378 15.103 185.897 14.9694 185.998 14.9678C187.477 14.953 188.984 15.11 189.814 14.8683C190.824 15.5432 190.711 14.8162 192.826 14.9896C192.992 15.0038 193.206 15.3195 192.551 15.3518C191.915 15.3846 190.952 15.27 190.053 15.3273C189.85 15.3406 188.639 15.6145 188.468 15.63C187.19 15.7505 186.988 15.2833 186.931 15.2569C186.17 14.9713 184.672 15.2684 184.296 15.2861C182.509 15.366 181.016 15.2863 179.526 15.3438C178.559 15.381 178.437 15.6847 177.694 15.6691C175.367 15.6215 174.468 15.2601 172.478 15.4599C172.29 15.4797 172.091 15.505 171.879 15.5366C171.368 15.6116 171.881 15.9481 170.031 15.6735C169.924 15.6562 168.561 15.4074 167.763 15.5538C167.666 15.5723 167.668 15.6694 167.539 15.6767C166.68 15.7239 166.071 15.6427 165.127 15.6739C164.192 15.7051 163.012 15.7533 161.944 15.7141C161.295 15.6906 160.431 15.5048 160.128 15.4588C159.254 15.3263 158.296 15.5301 157.74 15.3726C157.191 15.2144 158.267 14.9845 156.827 14.8764C156.772 15.1283 156.647 15.3864 156.56 15.6396C153.376 15.6136 150.236 15.5163 147.051 15.5123C146.653 15.512 147.059 15.6495 146.633 15.6528C144.848 15.6659 143.276 15.5621 141.424 15.5924C139.978 15.6163 138.413 15.7531 136.905 15.783C135.992 15.4905 133.757 15.5794 132.139 15.5466C131.571 15.5353 131.609 15.4584 131.205 15.4317C129.683 15.3328 130.396 15.5906 129.978 15.6291C128.187 15.7936 128.035 15.2158 125.924 15.2223C125.812 15.2225 124.445 15.5253 124.255 15.5438C123.057 15.6645 124.057 15.436 123.308 15.4106C121.944 15.3643 120.989 15.2876 119.387 15.3725C118.923 15.3976 117.794 15.5858 116.888 15.4346C116.768 15.4148 116.835 15.3133 116.739 15.307C115.007 15.2024 114.947 15.5218 113.955 15.627C112.966 15.7323 111.421 15.5073 111.11 15.4429C110.293 15.2761 111.737 15.3743 111.783 15.3583C112.306 15.1678 111.179 15.1976 110.328 15.179C110.208 14.8654 109.006 14.8809 109.441 15.161C109.493 15.1917 110.157 15.1642 110.328 15.179C109.586 15.4844 108.246 15.5201 106.809 15.2292C106.126 15.0929 106.764 14.9374 104.7 14.9899C103.768 15.0136 104.13 15.2302 103.296 15.2871C101.399 15.4169 98.9637 15.2107 96.993 15.239C96.2876 15.2493 96.974 15.3685 96.4929 15.3796C95.2215 15.4095 94.0742 15.3192 92.7899 15.3629C92.6718 15.367 92.9601 15.491 92.5549 15.492C89.6021 15.5023 87.02 15.4255 83.9616 15.4197C83.8747 15.4195 83.7878 15.4194 83.7008 15.4194C82.1646 15.4185 79.4128 15.4888 77.8339 15.4763C75.064 15.4538 71.7224 15.2825 69.3322 15.2943C67.7557 15.2899 68.1577 15.4304 67.3817 15.4556C67.295 15.4495 67.2216 15.4476 67.0789 15.4125C67.0603 15.4077 67.04 15.4019 67.0172 15.3945C67.0057 15.3908 66.9936 15.3867 66.9807 15.382C66.9641 15.375 66.972 15.3825 66.8745 15.3359C66.7955 15.2935 66.6829 15.2397 66.5317 15.0671C66.382 14.9109 66.2139 14.5057 66.304 14.1525C66.3864 13.8039 66.5669 13.6436 66.6682 13.555C66.769 13.4702 66.8764 13.4186 66.8832 13.4148C66.9916 13.3601 67.0525 13.3417 67.1089 13.3231C67.3576 13.2532 67.378 13.2542 67.5057 13.2291C67.7559 13.1862 67.8892 13.1704 68.1328 13.1471C68.3099 13.1312 68.5232 13.1176 68.7422 13.1077C68.9247 13.1011 69.1218 13.097 69.3257 13.0944C70.0734 13.0901 70.7374 13.1251 70.8794 13.1369C70.8804 13.1376 70.5686 13.169 70.3323 13.2029C70.0767 13.2384 69.9205 13.274 70.2921 13.2766C70.7104 13.3765 70.8611 13.1389 70.8794 13.1369C71.1324 13.1451 73.6931 12.9886 74.2452 12.9275C74.5195 12.8955 74.3573 12.7893 74.5018 12.7747C78.058 12.4229 81.5129 12.1635 85.1114 11.9763C85.1758 11.9744 85.0877 12.1116 85.2393 12.1054C86.3327 12.0628 87.1884 11.975 88.0613 11.8668C88.789 11.7736 89.5 11.6661 90.3167 11.566C91.9894 11.3577 93.3982 11.2943 94.3844 11.453C95.6647 11.3379 97.5159 11.312 98.5828 11.2999C99.6614 11.2871 99.7881 11.0228 99.8793 11.0115C102.763 10.6535 104.477 10.683 107.487 10.5C108.935 10.4123 111.765 10.1813 113.33 10.0459C114.548 9.93976 115.294 9.94841 116.433 9.83174C116.587 9.81601 116.423 9.71345 116.47 9.70584C117.717 9.48389 117.132 9.80238 117.395 9.834C118.348 9.94915 118.945 10.0043 120.56 9.80796C120.929 9.76304 121.985 9.28944 122.666 9.21896C123.55 9.12813 123.23 9.29391 124.152 9.19535C124.231 9.18706 124.208 9.10005 124.778 9.06454C127.432 8.89799 130.333 8.74834 133.086 8.54801C133.462 8.52095 132.97 8.41466 133.513 8.37324C136.071 8.17868 138.866 7.9888 141.358 7.88018C141.972 7.85387 141.595 7.97868 141.73 7.99845C142.558 8.11728 143.698 7.78048 143.888 7.76222C148.433 7.31993 151.937 7.30557 156.572 6.86618C156.824 6.8418 158.745 6.43001 159.634 6.60289C159.695 6.61429 160.572 6.79357 161.316 6.57528C161.362 6.56165 160.821 6.47582 161.751 6.42219C162.687 6.36808 164.192 6.17748 165.474 6.22229C165.88 6.23624 166.871 6.40634 168.064 6.12836C168.141 6.10947 169.976 5.54282 170.672 5.79241C170.783 5.83374 170.697 6.1573 172.125 5.8914C172.397 5.84019 171.894 5.80578 172.613 5.70959C173.728 5.5608 175.218 5.53774 176.568 5.29805C176.808 5.25551 177.819 4.96645 178.643 5.0697C178.772 5.08587 178.538 5.20888 178.967 5.18935C181.024 5.09578 183.157 4.86789 185.252 4.7858C185.986 4.7571 185.621 4.95549 186.388 4.94432C187.18 4.93134 188.721 4.86041 189.511 4.72277C190.322 4.58354 189.414 4.37884 190.627 4.26577C192.96 4.0469 195.402 3.87035 197.721 3.71568C200.583 3.52397 203.425 3.35031 206.274 3.12451C207.035 3.06399 206.38 3.02169 207.542 2.9214C211.748 2.55721 218.991 1.81914 222.588 1.51286C225.396 1.23095 221.919 1.93739 224.05 1.63661C224.206 1.61036 224.371 1.56808 224.455 1.52921C224.471 1.52252 224.493 1.50531 224.427 1.53549C224.407 1.54522 224.381 1.55982 224.342 1.58726C224.33 1.59997 224.19 1.67943 224.079 1.91824C224.026 2.04128 223.978 2.19615 224.013 2.42622C224.048 2.63933 224.156 2.79819 224.241 2.88706C224.413 3.05381 224.435 3.0389 224.494 3.07452C224.653 3.14319 224.614 3.12108 224.615 3.13029C224.603 3.13323 224.582 3.1357 224.555 3.1388C223.846 3.1709 223.241 3.26677 223.063 3.25874C220.496 3.14552 218.748 2.81804 216.499 2.7567C216.036 2.7468 216.484 2.89266 216.091 2.88433C215.869 2.88038 215.643 2.87591 215.419 2.87212C214.243 2.85242 213.046 2.77844 211.944 2.74978C211.351 2.7345 211.455 2.83606 210.911 2.80922C209.609 2.74564 208.459 2.66175 207.196 2.52819C207.082 2.51604 207.865 2.41993 206.903 2.38375C205.347 2.32575 203.42 2.18223 201.625 2.2395C201.096 2.25714 201.07 2.4797 199.93 2.30533C199.695 2.26938 199.995 2.00422 198.667 2.21684C198.474 2.24685 196.788 2.46116 195.623 2.38865C195.438 2.37678 195.264 2.35715 195.11 2.32764C194.814 2.27201 194.079 2.04634 193.443 2.07685C193.356 2.08182 193.703 2.20428 193.173 2.21265C191.288 2.24018 189.353 2.22044 187.424 2.2549C186.906 2.26438 187.674 2.38998 186.908 2.40024C184.815 2.42865 182.183 2.39905 180.127 2.36499C179.365 2.35219 179.891 2.24785 179.834 2.23677C178.965 2.0564 178.42 2.30442 178.13 2.31967C176.304 2.41147 174.908 2.30166 173.22 2.34051C172.747 2.35099 173.083 2.46676 172.989 2.4777C172.038 2.58485 172.747 2.37032 172.142 2.35022C170.418 2.29346 168.55 2.31431 166.804 2.34123C166.18 2.3512 166.884 2.48253 166.321 2.48994C162.961 2.53669 159.46 2.55256 156.177 2.50769C155.553 2.49905 155.944 2.39059 155.814 2.36784C154.912 2.20858 153.636 2.44939 153.326 2.4742C151.952 2.58701 151.452 2.49932 150.228 2.5291C145.602 2.64427 140.106 2.68296 135.255 2.71113C133.986 2.71828 132.718 2.72514 131.554 2.73194C124.335 2.77526 118.719 2.75262 111.827 2.87611C111.387 2.88387 111.832 3.01704 111.453 3.02553C106.579 3.12848 101.78 3.14411 96.8949 3.25716C96.4936 3.2662 97.0743 3.3898 96.4299 3.40876C95.0978 3.44874 93.4444 3.46635 92.1025 3.44435C91.4489 3.43386 92.3236 3.30718 91.6655 3.29895C90.1319 3.27954 88.5142 3.29466 86.9342 3.33994C86.2675 3.35942 87.2723 3.47936 86.4101 3.49407C80.5081 3.59757 74.71 3.71089 68.7412 3.62949C68.333 3.62388 67.9709 3.35465 67.1015 3.42106C67.0371 3.49837 67.0421 3.58804 67.0148 3.67001C58.4134 3.84939 49.9081 3.89017 41.2914 4.01444C40.9283 4.01971 41.5583 4.15521 40.8551 4.16615C36.7774 4.22981 32.8326 4.33407 28.66 4.25707C28.247 4.24962 28.455 3.98998 27.2385 4.04851C27.0242 4.05906 25.1899 4.12307 24.7156 4.18641C24.6512 4.19585 24.9883 4.30998 24.3964 4.32309C20.9653 4.39709 17.3629 4.42851 13.9328 4.4114C13.3794 4.40841 13.9664 4.27146 13.5722 4.26822C10.775 4.24626 7.7358 4.39272 5.06163 4.32077C3.27227 4.27213 3.93065 4.0412 2.97685 3.84005C2.84195 3.81168 1.73444 3.82493 1.67511 3.6998C1.5229 3.38521 2.05364 3.02933 1.82801 2.69504C1.78033 2.62302 0.298436 2.72564 1.17369 2.53542C1.23485 2.52264 2.3092 2.4467 2.57305 2.38271C2.75677 2.33845 2.4224 2.21567 2.79775 2.15672C3.17306 2.09782 3.58818 2.19854 4.2108 2.12631C4.83315 2.05332 4.55655 1.91195 5.80127 1.87434ZM103.383 11.2435C104.366 11.2992 104.48 10.8417 103.432 11.0208C103.381 11.03 103.332 11.2409 103.383 11.2435ZM150.265 15.1783C148.966 14.974 148.1 15.2608 148.999 15.418C149.908 15.5751 150.658 15.2402 150.265 15.1783ZM163.613 15.1064C162.101 14.9413 161.868 15.5762 163.48 15.4571C163.575 15.4504 163.702 15.116 163.613 15.1064ZM7.38296 3.70635C7.36929 3.70062 6.57303 3.70782 6.55408 3.71403C6.13247 3.86343 7.72467 3.84893 7.38296 3.70635ZM176.857 15.0411C176.374 14.951 175.05 15.0399 175.625 15.1515C176.083 15.2411 177.448 15.1531 176.857 15.0411ZM154.655 8.16505C154.672 8.17062 155.243 8.13617 155.229 8.09929C155.182 7.98062 154.389 8.07119 154.655 8.16505ZM199.349 15.4861C198.742 15.47 198.178 15.4243 197.687 15.3573C195.502 15.0781 194.687 14.7028 197.659 14.9202C197.682 14.9224 197.702 14.9244 197.718 14.9264C197.819 14.9382 197.799 14.9481 197.716 14.9575C197.44 14.9844 196.447 15.0209 197.064 15.0933C197.286 15.1196 197.5 15.1405 197.702 15.1531C198.894 15.2227 199.823 15.0045 201.153 15.1562C201.436 15.1896 199.542 15.499 199.343 15.4867C199.345 15.4865 199.347 15.4863 199.349 15.4861ZM103.981 11.7428C104 11.7475 104.788 11.6993 104.808 11.6921C105.225 11.5209 103.636 11.6178 103.981 11.7428ZM187.908 6.03645C187.961 6.04527 189.754 5.92288 189.833 5.90516C190.764 5.60183 187.083 5.85291 187.908 6.03645ZM83.7873 14.1856C83.8445 14.1763 83.9026 14.1676 83.9615 14.1594C84.7568 14.0408 85.7304 14.0372 86.3671 14.2057C85.5685 14.1965 84.7393 14.1945 83.9615 14.1872C83.9033 14.1867 83.8452 14.1862 83.7873 14.1856Z" fill="#57718C"/>
</svg>
