<svg width="525" height="39" viewBox="0 0 525 39" fill="none" xmlns="http://www.w3.org/2000/svg">
<path d="M6.89575 5.69646C10.9278 5.58428 16.2142 5.56038 20.222 5.57641C21.4846 5.58108 20.8437 5.69678 21.7394 5.70441C23.3688 5.72104 25.1004 5.64289 26.6789 5.66814C27.2298 5.67661 26.5455 5.8549 27.1254 5.8599C30.3936 5.88472 33.3446 5.79729 36.6018 5.78367C52.5637 5.7181 68.331 5.54176 84.3919 5.37432C85.6461 5.36117 86.9829 5.35381 88.3794 5.34809C92.6322 5.33381 97.5785 5.33579 101.707 5.2221C102.352 5.20437 101.965 5.06283 102.088 5.04881C104.017 4.83351 103.379 5.14079 104.653 5.161C109.557 5.24261 115.207 5.17042 119.903 5.04228C121.94 4.98673 119.889 4.72505 121.951 4.85811C122.095 4.86704 121.577 5.03144 122.139 5.0396C123.42 5.05773 125.848 4.99294 126.798 4.99093C128.669 4.98727 128.981 4.98096 130.77 4.95563C133.227 4.92221 136.164 4.95554 138.748 4.88095C139.305 4.86448 138.565 4.71521 139.454 4.67445C140.342 4.63374 142.713 4.61146 143.52 4.63709C144.326 4.66275 143.985 4.79404 144.128 4.82079C145.329 5.04664 148.009 4.66815 148.363 4.65444C154.77 4.41519 160.248 4.52504 166.307 4.43319C170.873 4.36354 175.742 4.22671 180.115 4.16972C185.238 4.10374 189.732 4.12327 194.705 4.03382C195.235 4.02449 194.611 3.84515 195.258 3.83337C202.171 3.70788 208.98 3.62668 215.871 3.65138C216.556 3.6541 215.675 3.83289 216.361 3.84552C220.546 3.91927 227.26 4.14652 229.724 3.38867C232.57 3.37459 236.035 3.35231 238.597 3.45978C240.245 3.52897 238.649 3.73305 240.665 3.62621C241.12 3.60233 240.526 3.45306 241.208 3.42919C244.079 3.32885 247.224 3.33377 250.074 3.21007C250.654 3.18454 250.493 3.04528 250.657 3.01736C252.036 2.7905 254.33 3.0981 254.831 3.11552C258.642 3.2444 261.426 3.13067 264.976 3.08309C265.799 3.07213 264.823 2.89623 265.615 2.87886C269.726 2.79128 273.98 2.74535 278.009 2.77093C278.905 2.77707 278.084 2.95111 278.512 2.96233C280.401 3.00987 280.815 2.69779 282.625 2.73753C283.006 2.74551 282.794 2.88733 282.863 2.90155C283.956 3.12478 284.896 2.77223 285.176 2.76068C288.709 2.60703 290.99 2.92763 294.411 2.82792C294.82 2.81564 293.895 2.65354 295.045 2.62974C302.697 2.47036 310.801 2.40173 318.417 2.43302C319.598 2.4377 318.757 2.58159 318.832 2.59677C320.046 2.83335 320.823 2.48196 321.207 2.46365C324.227 2.32821 327.075 2.57296 329.139 2.13828C341.979 2.09614 354.782 1.6884 367.55 1.87489C367.712 1.87686 367.425 2.04842 367.747 2.05163C371.633 2.09205 370.84 1.84255 373.45 1.48808C374.105 1.39907 376.095 1.75635 376.269 1.78216C376.909 1.87727 376.25 2.13562 376.464 2.15281C378.232 2.28657 377.936 1.46608 380.302 1.43349C380.376 1.43385 380.067 1.58983 380.266 1.60221C380.883 1.64116 381.492 1.57255 382.093 1.6166C383.455 1.71892 383.999 2.11216 386.125 1.85013C386.394 1.81623 385.979 1.35412 388.108 1.3474C388.96 1.34503 392.683 1.2868 393.714 1.30329C394.78 1.31925 394.05 1.47977 394.126 1.48527C396.993 1.64611 395.907 1.74329 397.338 2.01919C398.764 2.29407 398.359 1.5984 398.936 1.51244C399.516 1.42668 401.58 1.56364 402.083 1.61413C402.588 1.66462 401.961 1.76871 402.409 1.79512C405.373 1.96726 403.7 1.43002 404.694 1.30558C407.06 1.01083 408.89 1.50668 411.012 1.52985C411.586 1.53611 411.117 1.42383 411.627 1.40609C413.632 1.3376 414.866 1.48375 417.212 1.30464C417.595 1.27543 419.473 0.93859 420.678 1.15253C420.849 1.18342 420.367 1.31917 421.228 1.33714C422.505 1.36429 424.827 1.36299 426.256 1.30158C427.295 1.25636 426.102 1.05798 427.409 1.10776C427.988 1.13006 426.917 1.26848 428.004 1.29996C429.089 1.33143 431.813 1.29176 432.831 1.2748C433.871 1.25744 433.304 1.10256 433.385 1.09063C433.912 1.02156 435.947 0.918263 436.123 0.916303C438.123 0.887234 440.053 0.873644 441.926 0.8682C448.845 0.845083 455.142 0.921183 462.018 0.776938C462.698 0.762801 462.243 0.596904 462.347 0.592987C464.657 0.496878 462.846 0.970107 464.447 1.10521C464.221 0.761074 465.122 0.814229 466.834 0.758751C467.642 0.731944 467.2 0.602257 467.274 0.58777C468.467 0.371877 469.281 0.627126 469.491 0.678899C470.267 0.869342 471.094 0.627302 471.61 0.754797C472.133 0.881244 470.917 1.08758 472.499 1.07011C472.955 0.941786 471.743 0.628989 472.978 0.564873C477.513 0.321963 486.021 0.51094 489.568 0.521302C493.334 0.528756 494.305 0.503893 496.534 0.543344C500.31 0.618737 498.93 0.38021 501.33 0.271233C503.68 0.164994 502.528 0.755163 502.865 0.882918C503.18 1.01086 503.554 0.881026 503.991 0.952488C504.421 1.02397 503.492 1.10693 504.499 1.13705C505.506 1.16616 508.125 0.958388 508.512 0.83011C509.244 0.555991 508.073 0.245703 510.602 0.379416C510.759 0.387629 510.248 0.536557 510.848 0.560153C515.418 0.864213 520.131 0.452693 524.596 1.79431C524.686 1.88429 524.684 2.02922 524.643 2.09149C524.604 2.15765 524.585 2.1578 524.563 2.17198C524.521 2.19099 524.505 2.17273 524.494 2.15132C524.466 2.10825 524.48 2.04895 524.344 2.1494C520.868 3.3467 522.087 3.0662 520.182 3.89033C520.546 3.36629 519.373 3.3714 516.561 3.9073C514.851 4.23037 515.218 4.35122 514.106 4.69237C513.801 4.78966 512.585 4.87976 512.372 5.00821C512.041 5.21059 512.155 5.34072 512.019 5.46802C511.879 5.60158 511.495 5.73174 509.947 5.92395C509.815 5.93974 510.207 5.71377 509.752 5.77975C506.906 6.17689 506.581 6.53006 503.492 7.00019C501.057 7.36954 496.691 7.72307 493.913 8.00606C493.907 7.51946 491.317 7.9234 490.279 8.37114C488.482 8.5529 486.533 8.77664 484.78 8.91001C484.175 8.9562 484.557 8.77583 484.479 8.76854C483.301 8.64984 482.548 9.05247 482.159 9.10442C477.95 9.65122 474.486 9.73589 470.479 10.3618C470.337 10.3841 470.137 10.7417 469.037 10.5997C468.966 10.5895 470.281 10.3097 468.385 10.479C466.484 10.6488 462.904 10.8093 460.28 11.222C459.652 11.3208 458.059 11.7514 456.751 11.6667C456.577 11.6549 456.755 11.5401 456.502 11.5111C455.692 11.4197 455.271 11.804 454.301 11.6112C453.335 11.4185 451.344 11.4016 448.709 11.8848C448.625 11.8997 448.024 12.2355 447.2 12.3214C445.85 12.4617 443.978 12.6167 442.578 12.7844C441.918 12.8637 442.36 12.98 442.246 12.9966C437.816 13.6285 434.575 13.8817 429.843 14.6207C428.937 14.7626 426.534 15.4382 424.813 15.677C424.589 15.7063 424.422 15.7139 424.289 15.7067C423.208 15.7114 424.092 14.7491 420.459 16.0426C419.96 16.2333 419.651 16.4251 419.145 16.7561C419.023 16.8378 418.911 16.9207 418.808 17.0042C418.703 17.0901 418.627 17.1605 418.474 17.2922C418.344 17.4105 418.239 17.5297 418.162 17.6541C418.03 17.8307 417.945 18.0935 418.05 18.3094C418.099 18.4146 418.176 18.4942 418.266 18.5604C418.348 18.6168 418.4 18.6376 418.477 18.6718C418.615 18.7316 418.83 18.7999 418.948 18.8232C419.228 18.89 419.609 18.9644 419.904 19.0196C420.067 19.0509 420.241 19.0858 420.43 19.1249C420.605 19.1613 420.756 19.1955 420.934 19.2381C421.282 19.3218 421.686 19.4271 422.037 19.5451C428.098 20.1942 433.669 20.8041 439.713 21.4925C439.985 21.5227 440.891 21.3629 441.523 21.4699C442.465 21.6299 442.969 21.8587 443.628 21.991C446.41 22.5699 449.037 23.0491 451.573 24.1735C452.482 24.6116 452.171 24.5857 453.192 25.2084C454.093 25.836 454.863 26.1919 455.406 27.4546C455.472 27.6321 455.513 27.8194 455.509 28.0209C455.313 29.4444 453.695 29.5461 452.203 30.0452C452.267 30.4163 451.162 30.787 449.163 31.3197C448.776 31.4234 449.223 31.4595 449.041 31.5151C448.306 31.7424 447.589 31.7751 446.887 31.9853C446.718 32.0359 446.734 32.1628 446.596 32.2112C445.418 32.628 443.38 32.7132 443.029 32.731C441.858 32.7858 441.268 33.0102 440.466 33.1563C440.35 33.1775 440.228 33.1968 440.097 33.2136C439.07 33.3418 440.559 32.9517 439.381 33.1373C436.94 33.5156 433.81 34.0212 431.327 34.3815C430.338 34.5256 431.037 34.5949 430.896 34.6194C428.852 34.963 426.756 35.0747 425.666 35.5718C424.122 34.904 424.443 35.8287 421.487 36.0732C421.255 36.0922 420.902 35.7234 421.78 35.5361C422.657 35.349 424.02 35.2872 425.236 35.0196C425.524 34.9565 427.137 34.3355 427.36 34.2797C429.116 33.844 429.454 34.4206 429.554 34.4407C430.675 34.6515 432.648 33.9344 433.18 33.8223C435.608 33.3156 437.696 33.061 439.697 32.5689C439.943 32.5084 440.14 32.4445 440.304 32.3794C441.061 32.0875 441.256 31.7757 442.115 31.6189C445.607 30.9839 446.955 31.3776 450.051 30.1585C450.69 29.8731 449.968 29.684 452.355 29.2875C452.427 29.2717 452.917 29.1968 453.436 29.0045C453.952 28.8308 454.479 28.4358 454.449 28.2127C454.446 28.1617 454.325 28.113 454.32 28.0924C454.306 28.063 454.307 28.0313 454.26 27.9078C454.08 27.4625 453.788 27.0015 453.132 26.5286C452.214 25.8674 450.828 25.3118 449.487 24.8007C448.648 24.4766 447.661 23.9509 447.231 23.7786C446.125 23.3091 444.769 23.3064 444.068 22.9596C443.352 22.6114 444.883 22.578 442.933 22.0795C442.8 22.3973 442.571 22.7072 442.396 23.0198C438.078 22.2597 433.753 21.7089 429.327 21.2836C428.77 21.2307 429.32 21.4667 428.726 21.415C426.237 21.1917 424.053 20.8723 421.456 20.5461C420.345 20.3606 419.463 20.4154 417.933 19.7723C417.713 19.6375 417.539 19.614 417.146 19.1084C416.767 18.6492 416.765 17.7057 417.067 17.2658C417.134 17.1471 417.206 17.0456 417.28 16.956C417.354 16.8683 417.377 16.844 417.426 16.793C417.514 16.702 417.604 16.6226 417.695 16.5492C417.864 16.4102 418.118 16.2538 418.212 16.1962C418.47 16.04 418.775 15.8872 419.083 15.7506C419.317 15.644 419.572 15.5391 419.848 15.4351C420.817 15.3541 422.264 14.9614 423.99 14.5274C424.826 14.3156 425.783 14.0942 426.548 13.949C427.34 13.799 427.338 13.9062 427.878 13.8358C430 13.5672 428.98 13.414 429.54 13.2585C431.971 12.6137 432.33 13.3368 435.234 12.8992C435.395 12.8739 437.232 12.2094 437.49 12.1514C439.143 11.7677 437.786 12.256 438.839 12.1509C440.723 11.9676 442.058 11.905 444.287 11.528C444.913 11.4201 446.475 10.9874 447.741 11.0495C447.909 11.0573 447.832 11.202 447.966 11.1955C450.408 11.0661 450.414 10.6393 451.786 10.3514C453.169 10.0627 455.312 10.1427 455.768 10.1827C456.925 10.2875 454.903 10.3633 454.841 10.3914C454.138 10.7196 455.71 10.5166 456.889 10.4217C457.1 10.8203 458.765 10.6311 458.125 10.3205C458.051 10.2868 457.128 10.417 456.889 10.4217C457.893 9.91014 459.714 9.67834 461.776 9.86389C462.742 9.95102 461.861 10.2457 464.728 9.89334C466.031 9.73369 465.496 9.496 466.639 9.30788C469.252 8.8782 472.688 8.82008 475.392 8.51559C476.374 8.40499 475.401 8.34115 476.071 8.26012C477.845 8.04481 479.436 8.0075 481.211 7.76942C481.373 7.74749 480.959 7.62325 481.517 7.5653C485.731 7.12301 489.405 6.84831 493.799 6.35034C495.921 6.11204 499.712 5.55993 501.88 5.28556C505.021 4.89498 508.757 4.51182 511.752 3.99256C512.412 3.87867 513.018 3.7673 513.563 3.65703C515.683 3.22809 515.152 3.15705 516.04 2.87526C517.722 2.34349 520.815 2.09042 521.258 2.03146C521.272 2.02931 520.81 2.14919 520.496 2.23981C520.194 2.32815 519.998 2.40272 520.463 2.34333C521.047 2.39332 521.245 2.03488 521.258 2.03146C521.379 2.0188 522.35 1.82629 523.248 1.53049C523.343 1.4986 523.45 1.46031 523.554 1.4173C523.651 1.37686 523.714 1.34563 523.746 1.32692C523.765 1.31655 523.753 1.31848 523.702 1.3685C523.677 1.39394 523.643 1.43253 523.604 1.49344C523.571 1.53991 523.469 1.73841 523.465 1.9478C523.453 2.16337 523.533 2.38288 523.617 2.50555C523.72 2.6496 523.73 2.64069 523.769 2.67927C523.834 2.73371 523.862 2.74355 523.862 2.74448C523.777 2.69661 523.292 2.6009 523.193 2.59528C522.845 2.55624 523.016 2.74196 522.82 2.71921C518.154 2.34908 513.149 2.42 508.187 2.275C508.098 2.27107 508.234 2.09752 508.023 2.09047C505.157 1.9895 503.258 2.1989 500.926 2.32306C498.411 2.44807 496.734 2.40963 495.224 2.11366C493.447 2.15606 490.881 2.03471 489.361 1.9626C487.926 1.88991 487.709 2.23158 487.583 2.239C483.427 2.47969 481.171 2.30247 476.931 2.3082C474.972 2.30979 470.904 2.39718 468.787 2.45573C467.088 2.50262 465.934 2.43477 464.419 2.50158C464.21 2.51057 464.423 2.65978 464.359 2.66627C462.632 2.86564 463.457 2.48677 463.098 2.42444C461.786 2.19799 460.979 2.07849 458.661 2.21713C458.087 2.24936 456.66 2.79829 455.709 2.84022C454.485 2.89362 454.948 2.69729 453.652 2.75837C453.54 2.76344 453.567 2.88099 452.759 2.88507C449.171 2.90545 445.71 2.8861 441.951 2.9322C441.673 2.93562 441.395 2.93942 441.117 2.94367C440.602 2.9511 441.266 3.12999 440.52 3.14382C437.037 3.20834 432.959 3.25199 429.578 3.20703C428.725 3.19563 429.258 3.05802 429.073 3.02148C427.933 2.80063 426.303 3.16301 426.032 3.17297C419.686 3.4178 414.738 3.17265 408.309 3.40434C407.959 3.41755 405.212 3.8201 403.981 3.52223C403.899 3.50241 402.714 3.19667 401.664 3.4304C401.598 3.44502 402.343 3.6006 401.048 3.60096C399.752 3.60136 397.653 3.73987 395.837 3.58238C395.269 3.53271 393.875 3.23075 392.222 3.50861C392.115 3.52788 389.527 4.14073 388.585 3.75472C388.432 3.69116 388.589 3.26703 386.562 3.51086C386.174 3.55807 386.881 3.6426 385.857 3.71526C384.283 3.8272 382.201 3.74251 380.312 3.95629C379.98 3.99409 378.569 4.29979 377.423 4.0981C377.244 4.06651 377.582 3.921 376.978 3.9135C374.104 3.87726 371.07 4.01326 368.19 3.9556C367.161 3.93557 367.684 3.70059 366.61 3.65443C365.536 3.60828 363.361 3.57974 362.228 3.69958C361.095 3.81945 362.341 4.1651 360.639 4.21782C353.369 4.44514 346.077 4.33461 338.746 4.4072C337.655 4.41799 338.558 4.53508 336.953 4.56026C331.098 4.65277 320.892 4.92019 315.77 4.71777C311.653 4.55582 316.829 4.31322 313.683 4.26845C312.166 4.24732 310.549 4.69258 310.183 4.71113C306.627 4.89726 304.143 4.74617 300.924 4.85005C300.263 4.87151 300.914 5.03314 300.352 5.04951C298.431 5.10694 296.408 5.05989 294.568 5.10054C293.742 5.11917 293.896 5.24757 293.136 5.24852C291.317 5.25229 289.702 5.22084 287.929 5.12419C287.767 5.11538 288.852 4.93709 287.509 4.95058C285.335 4.97288 282.633 4.89146 280.129 5.05273C279.385 5.1011 279.361 5.40001 277.759 5.21721C277.423 5.17906 277.845 4.81437 275.988 5.15128C275.676 5.20731 272.557 5.67074 271.019 5.42394C270.613 5.359 269.576 5.08082 268.683 5.14001C268.562 5.14915 269.05 5.30236 268.31 5.32886C265.701 5.41944 262.965 5.44249 260.283 5.53215C259.567 5.55641 260.636 5.70664 259.569 5.73749C256.632 5.82261 252.976 5.83421 250.101 5.82468C249.042 5.82085 249.772 5.67261 249.695 5.65879C248.451 5.43381 247.724 5.77299 247.313 5.79821C244.758 5.95061 242.811 5.82512 240.46 5.90072C239.812 5.92117 240.274 6.07093 240.145 6.0868C238.808 6.24303 239.803 5.94707 238.953 5.92865C236.564 5.87623 233.908 5.92819 231.504 5.98387C230.621 6.00455 231.616 6.17137 230.824 6.18783C226.157 6.28838 221.227 6.34433 216.668 6.31215C215.808 6.30578 216.347 6.15793 216.168 6.12867C214.936 5.92358 213.11 6.25558 212.692 6.29084C210.787 6.45182 210.046 6.33923 208.368 6.38736C200.207 6.62411 190.047 6.69443 182.31 6.76007C172.22 6.84654 164.371 6.83179 154.786 7.01105C154.17 7.02238 154.794 7.19896 154.263 7.21111C147.456 7.35875 140.729 7.38782 133.958 7.54411C133.391 7.55677 134.21 7.7207 133.302 7.74694C131.439 7.80198 129.104 7.82778 127.262 7.7994C126.363 7.7859 127.565 7.61636 126.661 7.60585C124.607 7.58026 122.206 7.60411 120.041 7.66523C119.112 7.69174 120.516 7.85078 119.309 7.87118C111.117 8.01337 102.95 8.16851 94.6617 8.06089C94.0836 8.05364 93.5694 7.69491 92.3579 7.78361C92.2682 7.88669 92.275 8.00625 92.2369 8.11556C90.9466 8.14148 89.6751 8.16496 88.4225 8.18636C77.763 8.36787 67.0946 8.42686 56.3629 8.57213C55.8574 8.57902 56.7326 8.75995 55.7562 8.77423C50.0671 8.85766 44.624 8.99399 38.7666 8.88967C38.1832 8.87962 38.5565 8.53231 36.7851 8.6108C36.4629 8.62511 33.9127 8.70928 33.2976 8.79276C33.2023 8.80539 33.6935 8.95743 32.8358 8.97506C28.0794 9.07125 23.0408 9.11101 18.2261 9.08614C17.4413 9.08193 18.272 8.89958 17.7165 8.89506C13.8205 8.8636 9.57862 9.05652 5.85779 8.95761C3.36599 8.89071 4.27499 8.58368 2.96386 8.31395C2.76264 8.27619 1.22632 8.29186 1.14962 8.12466C0.940911 7.70483 1.67087 7.23165 1.36463 6.78533C1.27525 6.69123 -0.702371 6.81664 0.458298 6.57057C0.544107 6.55422 2.02007 6.45549 2.40883 6.37017C2.65178 6.31163 2.20186 6.14719 2.71203 6.06935C3.26185 5.99098 3.83283 6.12593 4.68077 6.03065C5.58681 5.93347 5.15433 5.7454 6.89575 5.69646ZM482.715 1.64554C481.358 1.49232 481.16 2.09205 482.628 1.93794C482.699 1.92979 482.785 1.65304 482.715 1.64554ZM433.826 21.2784C432.059 20.8211 430.82 21.0893 432.045 21.4189C433.277 21.7508 434.36 21.4177 433.826 21.2784ZM451.848 24.8814C450.068 23.8562 449.468 24.5502 451.491 25.23C451.596 25.2686 451.955 24.9476 451.848 24.8814ZM9.09798 8.14066C9.06671 8.13318 7.97369 8.14178 7.96039 8.14985C7.3841 8.34846 9.55914 8.33131 9.09798 8.14066ZM443.419 32.2127C444.084 32.2039 445.915 31.7274 445.089 31.7367C444.424 31.7436 442.59 32.2238 443.419 32.2127ZM411.073 1.82107C411.052 1.81243 410.26 1.81477 410.276 1.86495C410.333 2.02651 411.433 1.9663 411.073 1.82107ZM412.419 37.1604C417.003 36.4073 419.89 36.7133 414.892 37.4055C413.985 37.5362 416.804 36.8743 415.642 36.9951C413.525 37.2178 412.203 37.8806 410.037 38.0755C409.633 38.1061 412.149 37.1956 412.427 37.158C412.424 37.1588 412.421 37.1596 412.419 37.1604ZM481.929 0.932879C481.903 0.925125 480.8 0.926107 480.772 0.934207C480.175 1.12872 482.399 1.1268 481.929 0.932879ZM364.603 2.07931C364.543 2.06327 361.97 2.08322 361.885 2.09995C360.547 2.42911 365.749 2.38966 364.603 2.07931ZM493.867 7.99824C492.699 8.32416 491.265 8.50565 490.284 8.3708C491.478 8.25381 492.676 8.12244 493.867 7.99824Z" fill="#57718C"/>
</svg>
