<svg width="85" height="3" viewBox="0 0 85 3" fill="none" xmlns="http://www.w3.org/2000/svg">
<path class='hover-path' d="M1.67377 0.578285C2.14227 0.552232 2.74752 0.580089 3.21297 0.618324C3.36034 0.630183 3.28988 0.683191 3.38802 0.693763C3.57746 0.714374 3.76814 0.688376 3.95904 0.712928C4.02443 0.721324 3.94285 0.805289 4.01172 0.812171C4.3802 0.849279 4.72727 0.827892 5.10754 0.84574C6.94764 0.9338 8.76099 0.96532 10.6372 1.00358C11.2444 1.01612 11.9924 1.09232 12.6386 1.059C12.7149 1.05503 12.6694 0.981331 12.6839 0.975256C12.9062 0.882265 12.8297 1.03105 12.9726 1.05082C13.5427 1.12887 14.1818 1.13566 14.7381 1.10721C14.9778 1.0949 14.7368 0.94851 14.9795 1.03068C14.9964 1.03623 14.935 1.11449 15.0014 1.12284C15.1466 1.14161 15.4168 1.12762 15.5306 1.13383C15.7483 1.14617 15.7847 1.14538 15.9943 1.14628C16.0871 1.14689 16.1861 1.15137 16.2887 1.15655C16.4913 1.16741 16.7084 1.18135 16.9134 1.16935C16.978 1.16533 16.8923 1.0851 16.9956 1.07145C17.0987 1.05782 17.3754 1.06462 17.47 1.08353C17.5642 1.10245 17.5241 1.16551 17.5408 1.17997C17.6792 1.30196 17.9841 1.133 18.0261 1.12882C18.7677 1.05762 19.4009 1.15387 20.1003 1.1536C20.6481 1.15319 21.1823 1.12141 21.6975 1.12577C22.3095 1.13127 22.7932 1.17475 23.3874 1.16727C23.4497 1.16658 23.3767 1.07224 23.4528 1.0712C24.2411 1.06023 25.0514 1.07051 25.8317 1.13419C25.9107 1.14066 25.8089 1.22348 25.8879 1.2349C26.3681 1.30296 27.1581 1.46647 27.4357 1.10587C27.7621 1.11995 28.1626 1.1345 28.4604 1.20719C28.6526 1.25397 28.4657 1.3442 28.7022 1.3057C28.7556 1.29712 28.6862 1.21811 28.7663 1.21122C29.0999 1.18229 29.4558 1.20798 29.786 1.16715C29.853 1.15866 29.8347 1.08786 29.8537 1.07511C30.0131 0.971857 30.2803 1.14254 30.3388 1.15494C30.7888 1.24743 31.0983 1.21103 31.5094 1.21329C31.6044 1.21386 31.492 1.11875 31.5835 1.11588C32.0554 1.10225 32.5646 1.11042 33.0191 1.15262C33.1218 1.16224 33.0274 1.24325 33.0765 1.25199C33.2931 1.28954 33.3413 1.13653 33.5502 1.16959C33.5943 1.17636 33.5694 1.24572 33.5775 1.25333C33.7033 1.37289 33.813 1.20348 33.8455 1.19974C34.255 1.14864 34.5276 1.32549 34.9155 1.30045C34.9625 1.29728 34.8566 1.20953 34.9886 1.20597C35.8683 1.18174 36.8174 1.20585 37.6884 1.27604C37.825 1.28683 37.7275 1.35275 37.736 1.36088C37.8762 1.48784 37.9671 1.31772 38.0117 1.31131C38.3634 1.2652 38.6984 1.40786 38.9318 1.20524C40.4127 1.27555 41.8953 1.16177 43.3712 1.3433C43.3899 1.3454 43.3565 1.42918 43.3937 1.43302C43.8419 1.48006 43.7559 1.34985 44.0536 1.19059C44.1286 1.1506 44.3574 1.34288 44.3777 1.35697C44.4515 1.40891 44.3749 1.53356 44.3997 1.54361C44.6043 1.6226 44.5708 1.21037 44.8476 1.21024C44.8563 1.21093 44.8199 1.2868 44.8432 1.29435C44.9154 1.31803 44.9871 1.28788 45.0578 1.314C45.2202 1.37444 45.2747 1.57474 45.5191 1.45817C45.55 1.44304 45.5027 1.2092 45.7473 1.22025C45.8446 1.22485 46.2774 1.22084 46.3992 1.236C46.5207 1.25113 46.4373 1.32648 46.4459 1.32975C46.7735 1.42939 46.6494 1.47068 46.8137 1.6182C46.9783 1.76516 46.9327 1.41465 46.9998 1.37552C47.067 1.33651 47.3084 1.41872 47.3678 1.4473C47.4266 1.47589 47.3535 1.52377 47.4055 1.53995C47.7501 1.64566 47.5568 1.36597 47.6704 1.31034C47.9384 1.17861 48.1478 1.43855 48.3944 1.46402C48.4612 1.4709 48.4067 1.4117 48.4662 1.40616C48.7017 1.38502 48.8436 1.46613 49.1126 1.39176C49.1566 1.37964 49.3743 1.22336 49.5156 1.33805C49.5356 1.35459 49.4788 1.41936 49.5799 1.43387C49.7309 1.45565 49.9979 1.46981 50.1589 1.44816C50.2774 1.43214 50.1415 1.3254 50.2908 1.35856C50.3571 1.37336 50.2341 1.4358 50.3588 1.45841C50.4828 1.48101 50.8006 1.47827 50.9219 1.47611C51.0428 1.47391 50.9766 1.39294 50.9864 1.38749C51.0455 1.35624 51.278 1.3172 51.2986 1.3173C52.3407 1.30741 53.2792 1.44389 54.2953 1.39872C54.3739 1.39529 54.3215 1.30991 54.3335 1.30851C54.6023 1.27274 54.3903 1.49974 54.5782 1.57572C54.5511 1.40246 54.662 1.43383 54.8518 1.41483C54.9433 1.40553 54.8935 1.33845 54.9018 1.33158C55.0375 1.22968 55.1321 1.36129 55.1565 1.38822C55.2465 1.48726 55.3445 1.37024 55.4058 1.43644C55.4671 1.50214 55.326 1.59955 55.5087 1.5983C55.5599 1.53628 55.4243 1.3742 55.563 1.34794C56.087 1.24858 57.0662 1.37574 57.4843 1.38895C57.9035 1.40215 58.0395 1.39071 58.2845 1.41312C58.7276 1.45365 58.5652 1.3334 58.8407 1.27836C59.1173 1.22332 58.9828 1.51919 59.0226 1.5828C59.0618 1.64637 59.1039 1.58093 59.152 1.61588C59.1999 1.65082 59.0962 1.69407 59.2089 1.70719C59.3216 1.7203 59.6304 1.60719 59.6705 1.54068C59.7552 1.39979 59.6159 1.25191 59.9151 1.30387C59.9323 1.30695 59.8765 1.38475 59.9424 1.39261C60.4659 1.45251 61.0124 1.45622 61.5381 1.50919C61.6098 1.5166 61.5457 1.60314 61.5874 1.60843C62.0223 1.66379 61.8669 1.51786 62.1055 1.35575C62.0519 1.57148 62.1837 1.70347 62.5148 1.70475C62.7138 1.70559 62.6796 1.61137 62.8084 1.54496C62.8471 1.52494 62.9881 1.58963 63.0137 1.54532C63.098 1.40047 62.965 1.23833 63.3073 1.30289C63.3223 1.30596 63.2745 1.38525 63.3264 1.39005C63.6616 1.42148 63.7033 1.26997 64.0646 1.25162C64.3471 1.23723 64.8505 1.32961 65.1736 1.34464C65.1668 1.58719 65.4719 1.53165 65.5959 1.36442C65.8058 1.37126 66.0327 1.36181 66.236 1.38492C66.3059 1.3928 66.26 1.46303 66.2688 1.47062C66.4043 1.58965 66.495 1.42695 66.5401 1.42057C67.0288 1.35856 67.4278 1.48188 67.8961 1.36136C67.9127 1.35702 67.9396 1.18854 68.0648 1.31156C68.073 1.32004 67.9182 1.3967 68.1386 1.40262C68.3586 1.40856 68.7764 1.49888 69.0808 1.42081C69.1545 1.40202 69.3412 1.26524 69.4911 1.37211C69.5111 1.38662 69.4892 1.43494 69.518 1.46183C69.6112 1.54751 69.6621 1.37721 69.7717 1.52189C69.8813 1.66655 70.1094 1.7749 70.4178 1.67508C70.4276 1.67218 70.5006 1.53721 70.5977 1.53934C70.7526 1.54286 70.9726 1.57098 71.1346 1.5701C71.2121 1.56963 71.1625 1.48582 71.176 1.48429C71.6974 1.43732 72.065 1.51204 72.6225 1.54447C72.7247 1.55058 73.0183 1.43629 73.2163 1.52665C73.4338 1.62556 73.2102 2.03703 73.7103 1.939C73.9125 1.89979 74.1663 1.37777 74.5277 1.64823C75.2284 1.58121 75.8784 1.71963 76.5826 1.62394C76.6141 1.6197 76.714 1.474 76.7883 1.47599C76.8986 1.47921 76.9592 1.54731 77.0379 1.55179C77.368 1.5723 77.6703 1.51404 77.989 1.52311C78.11 1.5264 78.0676 1.59681 78.212 1.60074C78.3562 1.60461 78.4524 1.5119 78.648 1.55668C78.7956 1.59081 78.9439 1.78031 79.1393 1.8024C79.1467 1.61548 79.2811 1.61933 79.5199 1.56998C79.5658 1.56041 79.5166 1.49535 79.5383 1.48746C79.6267 1.45393 79.7085 1.50785 79.7925 1.47135C79.8129 1.46258 79.8139 1.39875 79.8306 1.38797C79.9726 1.29396 80.2066 1.43756 80.2468 1.46256C80.4008 1.55751 80.4728 1.47448 80.591 1.51188C80.709 1.54926 80.5326 1.596 80.6704 1.61869C80.9561 1.66561 81.3236 1.6553 81.6138 1.65824C81.7295 1.65901 81.6506 1.5738 81.6671 1.57193C81.9063 1.55032 82.1482 1.64096 82.2809 1.47123C82.4468 1.9101 82.4251 1.42866 82.7672 1.51651C82.7942 1.52362 82.8285 1.73116 82.725 1.76163C82.6215 1.79207 82.4647 1.7272 82.3212 1.77469C82.2872 1.78584 82.0926 1.98032 82.066 1.9921C81.858 2.08417 81.8285 1.77403 81.8175 1.75699C81.6928 1.57316 81.4549 1.78268 81.3921 1.79715C81.1051 1.86349 80.8614 1.81987 80.6215 1.86722C80.4646 1.89782 80.4493 2.10098 80.3261 2.09476C79.9168 2.07421 79.774 1.7908 79.3886 2.03653C79.306 2.08894 79.388 2.31098 79.092 2.13639C79.0736 2.12538 78.8532 1.96565 78.7259 2.06668C78.7099 2.07942 78.7104 2.14413 78.6894 2.14957C78.5481 2.18473 78.4538 2.13318 78.3 2.15787C78.1462 2.18256 77.9612 2.21937 77.7857 2.19742C77.6799 2.1843 77.5442 2.06373 77.4936 2.03421C77.3507 1.94918 77.1975 2.0886 77.109 1.98563C77.0198 1.88214 77.1942 1.72498 76.9602 1.65812C76.9516 1.82624 76.9316 1.9988 76.9177 2.16788C76.406 2.16196 75.8985 2.1076 75.3837 2.11502C75.3198 2.11611 75.3852 2.2065 75.3167 2.20999C75.0279 2.22435 74.7757 2.15992 74.4766 2.18558C74.2448 2.20579 73.9924 2.30148 73.7488 2.32559C73.6003 2.13321 73.24 2.19852 72.9786 2.18094C72.887 2.17487 72.8931 2.12349 72.828 2.10672C72.5824 2.04473 72.6975 2.21473 72.6302 2.24149C72.3414 2.35567 72.3167 1.97087 71.9766 1.98038C71.9585 1.98075 71.7384 2.18587 71.7081 2.19864C71.5155 2.28193 71.6762 2.12725 71.5557 2.11209C71.3362 2.0844 71.1813 2.03541 70.9224 2.09549C70.8468 2.11329 70.6655 2.24113 70.5189 2.14224C70.4996 2.1293 70.5102 2.0615 70.4947 2.05753C70.2137 1.99134 70.2064 2.20437 70.0459 2.27652C69.8854 2.34865 69.6378 2.2016 69.5875 2.15921C69.4557 2.04957 69.6885 2.11235 69.6956 2.1016C69.7795 1.97355 69.5989 1.99559 69.461 1.98477C69.441 1.7759 69.2482 1.78843 69.318 1.9744C69.326 1.99471 69.4333 1.97523 69.461 1.98477C69.3399 2.18971 69.1281 2.21596 68.8942 2.02445C68.7841 1.93469 68.8881 1.83003 68.5538 1.86832C68.4021 1.8856 68.4607 2.02943 68.3269 2.06864C68.0212 2.1581 67.6245 2.02394 67.3103 2.04508C67.1963 2.05275 67.3074 2.13148 67.2294 2.13944C67.0227 2.1608 66.8404 2.10173 66.6331 2.13199C66.6143 2.13483 66.6602 2.21724 66.5958 2.21829C66.1063 2.22787 65.6764 2.17508 65.165 2.17362C64.9176 2.17295 64.4762 2.2184 64.2209 2.20926C63.7795 2.19391 63.2283 2.07407 62.8497 2.10318C62.6023 2.12182 62.6566 2.20425 62.5506 2.26041C62.3461 2.36927 61.9849 2.17427 61.9364 2.14408C61.9348 2.14308 62.1472 2.12364 62.0339 2.08133C61.968 1.99317 61.9387 2.14369 61.9364 2.14408C61.904 2.12457 61.4818 2.10586 61.3958 2.12162C61.3498 2.13023 61.3755 2.20832 61.3515 2.21134C60.7804 2.28123 60.2102 2.30107 59.635 2.26456C59.6249 2.26298 59.6402 2.17563 59.6164 2.17301C59.2832 2.13417 59.0718 2.24103 58.7942 2.30448C58.5177 2.36789 58.2989 2.34665 58.1357 2.19669C57.9276 2.21557 57.6298 2.14927 57.4586 2.10904C57.2875 2.06881 57.2637 2.23886 57.2486 2.24222C56.7803 2.34982 56.5074 2.25249 56.0172 2.23734C55.7842 2.22984 55.3235 2.25451 55.0728 2.2731C54.8746 2.28808 54.7554 2.24823 54.5732 2.27371C54.5485 2.27712 54.5734 2.35283 54.5659 2.35575C54.3627 2.44633 54.4604 2.26124 54.4184 2.22818C54.2673 2.10797 54.1704 2.04395 53.908 2.1005C53.8473 2.11345 53.6709 2.37995 53.5606 2.39554C53.4173 2.41532 53.4714 2.31979 53.3214 2.34293C53.3086 2.34482 53.3113 2.40375 53.2188 2.40116C52.7891 2.38987 52.3245 2.35558 51.8797 2.36148C51.8184 2.36206 51.8969 2.45554 51.8084 2.45792C51.3929 2.469 50.9393 2.46554 50.5378 2.42179C50.439 2.41072 50.501 2.34527 50.4795 2.32584C50.3478 2.20825 50.1614 2.3791 50.1307 2.38236C49.402 2.46446 48.8253 2.30984 48.0791 2.38346C48.0383 2.38778 47.7251 2.57093 47.5858 2.41385C47.5759 2.4034 47.4395 2.24269 47.3157 2.35257C47.308 2.35945 47.3951 2.44218 47.243 2.43375C47.0909 2.42533 46.8465 2.48058 46.6385 2.38968C46.5726 2.36104 46.4169 2.20073 46.221 2.32852C46.2082 2.33744 45.906 2.6264 45.7985 2.42703C45.7811 2.39422 45.7992 2.18325 45.5665 2.29141C45.5221 2.31238 45.6027 2.35944 45.4857 2.38883C45.3066 2.43411 45.0691 2.37761 44.8448 2.47159C44.8058 2.48823 44.6402 2.63142 44.5077 2.52274C44.4869 2.50572 44.5263 2.43528 44.4564 2.4274C44.1236 2.38959 43.7766 2.4367 43.4417 2.38797C43.3231 2.37085 43.3837 2.25699 43.2602 2.22647C43.1366 2.19597 42.8887 2.16663 42.7561 2.21866C42.625 2.27072 42.7682 2.45219 42.5719 2.46671C41.716 2.52977 40.8946 2.42332 40.0369 2.40775C39.9111 2.40542 40.0153 2.47036 39.8301 2.47159C39.1512 2.47642 37.9703 2.5373 37.3795 2.39932C36.9074 2.28881 37.5013 2.20467 37.1408 2.1597C36.9669 2.13825 36.7796 2.34923 36.7379 2.35587C36.3264 2.42334 36.0338 2.32988 35.6633 2.35855C35.5866 2.3645 35.6618 2.45001 35.5966 2.45413C35.3738 2.46896 35.1407 2.43079 34.9297 2.43778C34.835 2.44111 34.8525 2.50642 34.7655 2.50137C34.5602 2.49007 34.3672 2.46261 34.1619 2.4014C34.1431 2.39582 34.2699 2.31458 34.1133 2.31156C33.8598 2.3069 33.5468 2.24651 33.2586 2.30887C33.1731 2.32763 33.1696 2.4769 32.9864 2.37381C32.948 2.35228 32.9968 2.17305 32.7839 2.32791C32.7505 2.35365 32.3849 2.56254 32.206 2.42789C32.1589 2.39245 32.0386 2.24578 31.9349 2.26883C31.9208 2.27251 31.9771 2.35269 31.8912 2.36051C31.5884 2.38667 31.2732 2.37812 30.9665 2.40323C30.8846 2.41009 31.0065 2.49306 30.8845 2.50064C30.5491 2.52161 30.1148 2.50049 29.7848 2.47452C29.6625 2.46479 29.747 2.39606 29.7381 2.38858C29.5951 2.26693 29.5109 2.43113 29.4636 2.44071C29.1678 2.49804 28.9543 2.42091 28.6742 2.44132C28.5981 2.44674 28.6521 2.52503 28.6369 2.53201C28.48 2.60022 28.5969 2.45962 28.4976 2.44412C28.2197 2.40024 27.9124 2.40653 27.6358 2.41654C27.5342 2.42033 27.6484 2.51111 27.5573 2.51346C27.0276 2.5291 26.4428 2.52042 25.9191 2.47037C25.8199 2.46078 25.8823 2.39088 25.8617 2.37491C25.7192 2.26321 25.5119 2.41557 25.4643 2.43009C25.2505 2.49636 25.1567 2.43454 24.962 2.44608C24.0128 2.50353 22.8347 2.46258 21.9523 2.43729C20.7738 2.40473 19.8739 2.33823 18.766 2.3555C18.6942 2.35651 18.7665 2.44951 18.7047 2.45157C17.9167 2.47399 17.1326 2.43765 16.36 2.46451C16.2974 2.46654 16.3865 2.55356 16.2887 2.56081C16.288 2.56086 16.2873 2.5609 16.2866 2.56094C16.0671 2.57435 15.7938 2.56956 15.5795 2.54141C15.475 2.52785 15.6151 2.4522 15.5101 2.4401C15.2647 2.41173 15.0128 2.40545 14.7497 2.41959C14.6405 2.42579 14.8051 2.51596 14.6634 2.517C13.7229 2.52594 12.7729 2.54147 11.8173 2.42471C11.753 2.4167 11.6977 2.23345 11.5524 2.26859C11.5416 2.31944 11.5422 2.37927 11.5375 2.43363C10.1499 2.46291 8.77186 2.39938 7.39069 2.38956C7.33023 2.38917 7.43453 2.48626 7.3178 2.48599C6.66674 2.48456 6.01766 2.51146 5.34948 2.41495C5.28292 2.40551 5.31499 2.2347 5.12293 2.26053C5.096 2.26524 4.78608 2.28803 4.71415 2.32511C4.704 2.3307 4.75683 2.41043 4.66342 2.41275C4.10688 2.42486 3.53248 2.40666 2.97707 2.35794C2.8853 2.34993 2.98273 2.26502 2.91783 2.25858C2.46661 2.21351 1.97786 2.27805 1.54886 2.20096C1.2581 2.14905 1.36616 2.00229 1.21375 1.85782C1.18966 1.83744 1.01481 1.83421 1.00394 1.75016C0.980007 1.5388 1.06734 1.30736 1.03157 1.08207C1.02311 1.03354 0.785445 1.08581 0.926432 0.968543C0.936705 0.960695 1.10953 0.921775 1.15171 0.881995C1.18137 0.854492 1.12749 0.769009 1.18874 0.733802C1.24949 0.698628 1.31393 0.770284 1.41722 0.728919C1.51389 0.687042 1.47405 0.589797 1.67377 0.578285ZM56.6893 1.92923C56.53 1.84757 56.5062 2.14667 56.6789 2.07511C56.6872 2.07129 56.6974 1.93324 56.6893 1.92923ZM75.902 1.88199C75.6942 1.75007 75.552 1.94405 75.6986 2.04593C75.8451 2.14771 75.9653 1.92198 75.902 1.88199ZM78.0547 1.78568C77.812 1.68166 77.7738 2.10579 78.0338 2.02005C78.0489 2.01521 78.0689 1.79172 78.0547 1.78568ZM1.92218 1.81668C1.92053 1.81271 1.79302 1.80884 1.78881 1.81278C1.72048 1.90777 1.97705 1.91545 1.92218 1.81668ZM80.1912 1.68082C80.1155 1.62345 79.8974 1.68968 79.9915 1.76102C80.0673 1.81841 80.2855 1.75219 80.1912 1.68082ZM48.4011 1.61002C48.3986 1.60556 48.3066 1.60155 48.3085 1.62674C48.3147 1.70789 48.4427 1.68499 48.4011 1.61002ZM83.8227 1.67594C83.2859 1.65997 82.9606 1.30962 83.545 1.34916C83.6508 1.35631 83.3169 1.46088 83.4516 1.49247C83.6981 1.55001 83.8618 1.33003 84.1134 1.44791C84.159 1.46949 83.8533 1.67763 83.8217 1.67643C83.822 1.67626 83.8223 1.6761 83.8227 1.67594ZM56.5975 1.56998C56.5943 1.56603 56.4662 1.56228 56.4631 1.5662C56.3937 1.66115 56.6519 1.66876 56.5975 1.56998ZM43.0326 1.42508C43.0271 1.41666 42.7287 1.40877 42.719 1.41654C42.564 1.57181 43.1649 1.58821 43.0326 1.42508ZM65.1787 1.35111C65.3177 1.25559 65.4842 1.24434 65.5952 1.36429C65.4568 1.35793 65.3176 1.35699 65.1787 1.35111Z" fill="#57718C"/>
</svg>
