<svg width="459" height="444" viewBox="0 0 459 444" fill="none" xmlns="http://www.w3.org/2000/svg">
<path d="M459 173.8H238.165V207.35H244.388C250.759 193.224 255.89 178.435 290.784 178.435C307.8 178.435 317.344 177.894 334.359 178.435V428.09C334.359 436.382 332.332 439.817 323.387 444H372.291C362.752 438.29 361.602 434.983 361.602 428.09L362.737 178.435C382.675 178.276 396.187 177.382 416.67 178.435C442.264 178.435 450.396 196.224 453.899 207.35H459V173.8Z" fill="white"/>
<path d="M33.786 268.053H1.28964C10.8336 257.327 13.1912 248.724 13.7739 230.217V28.1355L0 0H33.3478L148.373 239.031L264.366 0H304.721C299.421 4.04975 297.083 6.59455 295.539 12.2642V251.296C295.701 259.07 297.614 262.736 304.238 268.053H256.391C262.084 262.312 263.976 258.693 264.366 251.296V12.2642L150.053 245.541L163.114 268.053H130.491L21.329 43.5186V230.217C22.8501 250.944 25.9359 258.584 33.786 268.053Z" fill="white"/>
<path d="M249.567 362.226V324.027H255.232L254.867 362.226C254.867 372.633 261.497 382.504 275.449 382.504C289.401 382.504 294.889 372.809 294.889 361.992V324.027H300.221V362.226C300.221 374.914 293.933 387.434 275.449 387.7C256.965 387.965 249.567 374.92 249.567 362.226Z" fill="white"/>
<path d="M213.961 387.094H219.738V328.782H241.857V323.537H190.79V328.782H213.961V387.094Z" fill="white"/>
<path d="M163.083 323.965C175.035 323.718 187.389 329.464 187.389 345.374C187.389 351.549 187.776 359.325 174.13 364.968L189.017 386.836H182.637L168.725 366.467H144.889V386.836H139.573V323.965H163.083ZM145.067 328.462V361.97H164.208C174.8 361.97 182.69 356.59 182.548 346.009C182.406 335.428 175.785 328.462 164.724 328.462H145.067Z" fill="white"/>
<path d="M104.755 323.913L133.365 386.684H126.982L119.474 369.497H84.1044L76.4452 386.684H69.912L99.4237 323.913H104.755ZM86.2821 364.639H117.597L101.827 330.19L86.2821 364.639Z" fill="white"/>
<path d="M0 323.913V386.684H5.03124V335.197L29.8871 378.613H33.4165L59.0983 334.3V386.684H64.2047V323.913H59.0983L31.6142 370.991L4.20522 323.913H0Z" fill="white"/>
</svg>
