<svg width="70" height="5" viewBox="0 0 70 5" fill="none" xmlns="http://www.w3.org/2000/svg">
<path d="M5.80477 4.37396C5.84689 4.36867 6.01712 4.37193 6.09059 4.36773C6.00868 4.41089 5.65286 4.39314 5.80477 4.37396ZM13.2489 1.18859C13.1883 1.20066 13.1275 1.21273 13.0668 1.22481C13.2406 1.22521 13.4734 1.20978 13.6344 1.21362C13.6608 1.21429 13.5936 1.24545 13.6558 1.24457C13.7181 1.24368 13.7047 1.20476 13.795 1.1974C13.8954 1.18929 14.364 1.20041 14.5249 1.19415C15.1274 1.17053 15.7352 1.12693 16.3399 1.12234C15.7173 1.17306 16.347 1.18089 16.5208 1.16225C16.5599 1.15797 16.5488 1.08511 17.1771 1.08183C17.5757 1.07976 17.2121 1.197 17.8736 1.12173C17.361 1.06618 17.8632 1.05397 18.2618 1.03781C18.3302 1.03501 18.8898 1.02675 19.1352 1.01509C19.2193 1.01107 19.3461 0.968356 19.4575 0.963528C19.5341 0.960234 19.5928 0.979191 19.7064 0.974226C20.24 0.951205 20.7624 0.93171 21.2946 0.920655C20.9853 1.02977 21.5415 0.954247 21.5665 0.958113C21.6948 0.980503 21.1189 1.00774 21.3474 1.0167C21.6658 1.00279 21.9832 0.988936 22.2996 0.975139C22.0399 0.971854 22.6391 0.880609 22.7536 0.908988C22.7041 0.823532 24.1998 0.935886 24.4301 0.899102C24.4771 0.891381 24.1657 0.858785 24.8863 0.854278C24.9642 0.853851 24.9357 0.881088 24.9764 0.877272C25.0008 0.874981 25.1459 0.786592 25.3046 0.827431C25.3638 0.842301 24.9931 0.909538 25.8064 0.860301C25.4824 0.786089 26.9243 0.776979 27.1953 0.789358C27.1416 0.779716 27.0879 0.770076 27.0342 0.760439C27.2992 0.782459 27.3455 0.75203 27.4048 0.751638C27.6443 0.750036 27.9712 0.768372 28.1937 0.758387C28.4553 0.746717 28.4546 0.693874 28.7591 0.704441C28.6867 0.695153 28.6142 0.68587 28.5416 0.67659C28.7518 0.672491 28.9614 0.668428 29.1703 0.664402C28.6885 0.750156 29.2749 0.66431 29.3133 0.661557C29.3748 0.656997 29.2872 0.688511 29.3902 0.681579C29.4012 0.680633 29.3833 0.654234 29.5443 0.64595C29.8799 0.628763 29.8277 0.664393 29.9682 0.659432C29.9811 0.658841 29.9354 0.636015 30.1774 0.622401C30.9446 0.579206 30.1746 0.64111 30.1448 0.645447C30.1059 0.651149 30.3743 0.743968 29.7175 0.72934C29.9383 0.73361 29.9616 0.777801 29.9865 0.778108C30.0086 0.7783 30.3885 0.75963 30.4091 0.757416C30.5949 0.736129 30.43 0.710761 30.4662 0.704086C30.4955 0.698692 30.9536 0.723892 31.0597 0.628094C31.2835 0.706091 30.9326 0.709586 30.5684 0.734481C30.5155 0.753679 30.9181 0.757654 30.9406 0.756886C31.4637 0.739851 31.1717 0.679182 31.2845 0.630737C31.3437 0.605386 31.5575 0.646329 31.3595 0.58985C31.8318 0.568025 31.5464 0.613627 31.5771 0.618027C31.6234 0.624456 31.7877 0.601171 31.8083 0.602909C31.8387 0.605487 31.7343 0.630597 31.8538 0.63443C31.8736 0.634907 32.0644 0.591346 31.8162 0.581404C32.1468 0.576131 32.1195 0.545085 32.2349 0.605742C32.4614 0.476771 32.4043 0.672292 32.495 0.676217C32.736 0.686517 32.6631 0.593265 32.6757 0.588203C32.7637 0.555519 33.4219 0.567474 33.5901 0.548409C33.5257 0.619277 33.064 0.565797 32.9616 0.582411C32.6201 0.63768 33.4455 0.601484 33.1994 0.695784C33.3026 0.66876 33.4063 0.641725 33.5114 0.61465C33.7062 0.664121 33.4339 0.696942 33.9514 0.660325C34.0347 0.609698 33.5853 0.679435 33.6745 0.638814C33.7275 0.61495 34.0275 0.600744 34.0329 0.588879C34.0385 0.574618 33.7677 0.599826 33.8098 0.576844C33.9031 0.527133 34.8881 0.540775 34.1398 0.589737C34.3491 0.582368 34.459 0.671902 34.6392 0.637308C34.7568 0.614843 34.0873 0.507292 35.0866 0.499709C35.1095 0.542895 34.6882 0.525072 34.6771 0.528768C34.6618 0.534106 34.7412 0.630699 34.7545 0.635173C34.8045 0.649673 35.8121 0.565377 36.03 0.608505C35.944 0.553867 36.7984 0.574746 36.8884 0.554603C36.9127 0.549045 36.82 0.516793 36.8461 0.512287C37.0062 0.485312 37.4595 0.534198 37.6651 0.529646C37.8961 0.524539 37.8657 0.49517 37.8786 0.494837C37.98 0.493488 37.8997 0.51643 37.9615 0.514518C38.0526 0.511666 38.7022 0.496531 38.7342 0.491324C38.7436 0.489709 38.637 0.458263 38.7778 0.447531C38.8019 0.445689 38.789 0.487063 39.203 0.457162C39.7003 0.421251 38.8553 0.416363 39.061 0.367361C39.3838 0.419034 39.3695 0.358855 39.4583 0.361011C39.489 0.361847 39.7182 0.406678 39.9629 0.396324C39.7874 0.409778 39.611 0.423285 39.4336 0.436842C39.6088 0.440745 39.9451 0.419776 40.0871 0.425883C40.1564 0.428848 40.1008 0.472792 40.2508 0.467318C40.2823 0.465939 40.4065 0.359188 40.0138 0.416829C39.9813 0.380941 40.1697 0.399469 40.256 0.386565C40.269 0.384566 40.319 0.32159 40.4304 0.356626C40.4593 0.365224 40.1668 0.553035 40.9201 0.4016C40.9443 0.396724 40.8592 0.37667 40.8828 0.371337C40.8991 0.367716 41.0914 0.371338 41.1124 0.367557C41.134 0.363523 41.0407 0.341631 41.0664 0.336074C41.1979 0.307458 41.3737 0.399812 41.1013 0.400112C41.1928 0.409546 41.2839 0.418996 41.3748 0.428461C41.2758 0.357901 41.5166 0.403818 41.6409 0.398077C42.4543 0.360918 41.908 0.328472 42.0472 0.299902C42.2699 0.254092 42.1031 0.384225 42.4326 0.337413C42.4631 0.333064 42.0622 0.290742 42.8427 0.299427C42.7242 0.304733 42.6128 0.309861 42.4976 0.315107C42.5648 0.384193 42.9129 0.298863 42.9412 0.29711C43.25 0.278994 43.0433 0.310135 43.4975 0.261389C43.5379 0.257025 43.6265 0.272163 43.7124 0.261141C43.7581 0.25531 43.7842 0.250825 43.7951 0.247374C43.8038 0.244696 43.8031 0.242644 43.795 0.241075C43.7344 0.228766 43.233 0.245606 43.2139 0.223957C43.2072 0.215656 43.5321 0.204802 43.7939 0.198999C43.9722 0.195013 44.1228 0.193215 44.1353 0.195544C44.2688 0.22164 43.7231 0.219479 43.8278 0.253494C43.8715 0.26524 45.1504 0.205109 45.4114 0.213045C45.7084 0.222224 45.8405 0.315163 45.8416 0.207055C45.9295 0.310961 46.0026 0.236781 46.041 0.236567C46.5049 0.235025 46.499 0.236259 46.8955 0.216643C46.9837 0.212343 47.0584 0.242769 47.0893 0.236609C47.1072 0.232905 47.0728 0.199267 47.1607 0.186576C47.2828 0.169091 48.0147 0.187769 48.0718 0.205607C48.1273 0.223389 47.76 0.220894 47.8264 0.250706C48.0934 0.24781 48.3448 0.234473 48.6069 0.23207C48.7189 0.231102 48.6618 0.254252 48.7101 0.253641C48.7314 0.253427 49.1133 0.225984 49.0964 0.218279C49.0574 0.200093 47.8829 0.238525 48.1914 0.193411C48.2512 0.184663 48.4615 0.230518 48.4268 0.169887C49.4791 0.160689 50.5302 0.153532 51.5819 0.149274C50.9707 0.205732 50.2988 0.17738 49.6651 0.194586C49.5763 0.196905 49.2844 0.197029 49.3209 0.227308C49.8605 0.224067 50.5309 0.194777 51.0432 0.205718C51.0595 0.20609 51.0002 0.235049 51.0613 0.238354C51.1767 0.244467 51.5574 0.192795 51.6192 0.203389C51.6303 0.205899 51.4166 0.246366 51.4822 0.268582C51.6506 0.32559 51.6903 0.192163 51.8324 0.191336C51.9475 0.190543 52.6877 0.242909 52.8807 0.199667C53.0787 0.15345 52.3276 0.182927 52.3839 0.146818C52.8878 0.103348 53.4039 0.133938 53.8841 0.123532C53.8925 0.123316 53.8194 0.0965315 53.9255 0.091338C54.1082 0.082346 54.1606 0.121032 54.2518 0.126254C54.3515 0.131746 54.6951 0.122407 54.7399 0.136308C54.7457 0.138125 54.6772 0.177795 54.6667 0.179002C54.5181 0.196621 54.4636 0.146675 54.45 0.146172C54.3986 0.144823 54.3481 0.16476 54.3008 0.164148C54.2229 0.163118 54.1793 0.145702 54.0759 0.145357C54.0067 0.145034 54.074 0.178633 54.0071 0.17787C53.983 0.177424 53.7149 0.102213 53.6904 0.182764C53.6764 0.206834 55.8842 0.216471 56.0989 0.19688C55.9102 0.188386 55.7254 0.180043 55.5338 0.171917C55.9187 0.192246 56.3777 0.125733 56.4108 0.22042C57.831 0.221317 59.255 0.231668 60.6805 0.265964C60.935 0.279089 60.7971 0.336822 61.2144 0.328584C61.1047 0.306567 61.0007 0.284849 60.8912 0.263168C61.102 0.279895 62.0574 0.332759 62.2157 0.327099C62.2366 0.326252 62.2618 0.271634 62.5054 0.276188C62.7168 0.280289 62.7502 0.32323 62.8642 0.336082C62.9598 0.346805 63.0644 0.340876 63.0946 0.344609C63.1166 0.347489 63.1242 0.373132 63.1767 0.380105C63.3412 0.401936 63.2118 0.324157 63.3696 0.414075C63.3302 0.415132 63.2906 0.416216 63.2506 0.417325C63.4465 0.43892 63.7224 0.491688 63.4247 0.49364C63.3732 0.494064 63.4187 0.471998 63.3803 0.470012C61.9065 0.406511 63.0816 0.504016 63.6007 0.496173C63.6192 0.502384 63.6499 0.508116 63.6888 0.513438C63.9305 0.544835 64.4846 0.569145 64.5051 0.577673C64.5385 0.590663 64.4095 0.609564 64.5738 0.647549C64.6103 0.6519 65.6152 0.729377 65.25 0.741825C65.1727 0.742911 64.6952 0.689003 64.5771 0.681978C64.8406 0.777915 65.4965 0.733612 65.5671 0.746399C65.8596 0.791642 64.9996 0.749491 65.6566 0.832775C66.1631 0.902631 65.6924 0.791947 65.8911 0.795082C66.0014 0.794224 66.5758 0.939574 66.5706 0.866936C66.7755 0.894644 66.6493 0.912084 66.674 0.91918C66.6952 0.924083 67.0991 0.979602 67.2263 1.02658C67.2413 1.03195 67.1842 1.05796 67.1995 1.06463C67.2301 1.07488 67.6191 1.16468 67.6352 1.16802C67.6459 1.16855 67.5623 1.11134 67.6024 1.11387C67.6486 1.11421 68.0242 1.23586 68.0463 1.23564C68.0813 1.2288 67.6131 1.09739 67.7003 1.08579C67.9136 1.15322 68.2707 1.249 68.4194 1.27573C68.3836 1.27048 68.1754 1.19599 68.1044 1.16991C68.1567 1.12635 68.6006 1.29382 68.4336 1.27705C68.5369 1.29214 68.4766 1.2556 68.5377 1.25603C68.5545 1.25643 68.6871 1.30895 68.7153 1.31074C68.72 1.31038 68.5913 1.23565 68.6227 1.23656C68.6852 1.23815 69.065 1.40693 69.0864 1.42289C69.1639 1.47311 68.8614 1.36005 68.8226 1.3691C68.8201 1.37136 69.0577 1.52411 69.0574 1.52857C69.0571 1.57481 68.7858 1.42296 68.8017 1.4721C68.8708 1.51057 68.9376 1.54865 69.0023 1.58598C68.7326 1.50411 68.1782 1.2656 68.0167 1.26558C68.4803 1.40259 68.9081 1.60296 68.8632 1.69014C68.8469 1.72863 68.6629 1.67592 68.6652 1.68877C68.6778 1.73513 68.9315 1.80068 68.9378 1.80584C68.9439 1.81106 68.9462 1.81454 68.9453 1.81656C68.9453 1.81656 68.9453 1.81656 68.9453 1.81656C68.939 1.8378 68.5924 1.70449 68.5678 1.70651C68.5316 1.71084 68.6577 1.84519 68.6504 1.86027C68.6447 1.86072 68.3891 1.77336 68.4622 1.83497C68.5372 1.8968 68.7475 1.989 68.7529 1.99483C68.7875 2.02818 68.4105 1.88335 68.3926 1.88899C68.3858 1.89126 68.5749 2.00509 68.5763 2.0162C68.5776 2.02662 68.4185 1.98075 68.3462 1.98315C68.2931 1.98481 68.4179 2.05379 68.3935 2.0475C68.3775 2.04111 68.0186 1.90149 67.9986 1.90094C67.9703 1.89676 68.0461 1.9514 68.0314 1.95304C68.0117 1.95542 67.8967 1.90529 67.9092 1.9199C67.9216 1.92781 68.334 2.18115 68.3194 2.20412C68.2996 2.23784 67.872 1.97011 68.2417 2.2882C68.2446 2.29035 68.3515 2.32249 68.3542 2.32483C68.4056 2.37867 68.0609 2.28156 68.4638 2.44451C67.699 2.18143 68.3486 2.46046 68.2118 2.47785C68.1595 2.48294 67.8703 2.38299 67.8668 2.38751C67.8837 2.42884 67.9832 2.43859 68.0086 2.46612C68.0219 2.4799 67.7552 2.41911 67.8049 2.46195C67.8305 2.48195 68.1002 2.58165 68.1098 2.58938C68.2078 2.65303 68.0688 2.62119 68.0863 2.64505C68.0981 2.66057 68.2579 2.72865 68.2616 2.73257C68.2664 2.73836 68.0329 2.68553 67.983 2.68248C67.9448 2.67932 68.0662 2.747 68.0404 2.74203C67.8873 2.70997 67.6102 2.5308 67.8653 2.73688C67.881 2.7495 67.9915 2.79037 67.9944 2.79311C68.0509 2.84784 67.8481 2.76941 67.8039 2.77982C67.7279 2.79567 68.0229 2.88334 67.7741 2.82008C67.9426 2.91301 68.0402 2.95236 68.26 3.03961C67.6586 2.80652 67.4327 2.8457 68.0655 3.09444C67.8613 3.00671 67.8626 3.0754 67.8026 3.05248C67.7655 3.03663 67.4986 2.87677 67.5848 3.05279C67.5949 3.07381 67.7749 3.11833 67.7084 3.13072C67.2993 2.9727 67.6927 3.14705 67.6905 3.15271C67.6645 3.20681 66.6664 2.85003 66.4541 2.83978C66.231 2.80823 66.0189 2.84066 65.9706 2.83342C65.8064 2.80914 65.9472 2.79731 65.9122 2.78014C65.8799 2.76184 65.4022 2.76234 65.3785 2.75758C65.287 2.73329 65.386 2.70617 65.3765 2.70315C65.2686 2.66475 64.6192 2.6314 64.4394 2.61007C64.4459 2.63509 64.803 2.66771 64.5766 2.68828C64.3068 2.71245 64.3028 2.60329 64.2955 2.59772C64.052 2.57941 63.8163 2.56403 63.5699 2.54982C62.588 2.49358 61.5922 2.46433 60.594 2.44651C60.6053 2.50422 61.4238 2.47852 61.439 2.4874C61.5493 2.53384 60.1728 2.50372 60.0075 2.48307C60.1363 2.49742 60.2593 2.51186 60.3905 2.52663C60.169 2.58966 59.6913 2.49625 59.3702 2.523C59.266 2.53161 59.4656 2.5593 59.4611 2.56105C59.3425 2.58584 59.163 2.56432 59.2988 2.53059C59.0211 2.56168 59.0615 2.52516 58.843 2.52096C58.8325 2.52079 58.9228 2.54832 58.7551 2.55854C58.6787 2.56319 58.2455 2.56157 58.1924 2.58518C58.1695 2.59504 58.3818 2.7004 58.4111 2.6104C58.8766 2.65636 58.5604 2.56996 58.7397 2.57292C58.7676 2.57364 58.7014 2.62313 59.1574 2.60283C59.0701 2.69265 58.5504 2.62173 58.4592 2.63256C58.2751 2.65424 59.0343 2.70468 59.1746 2.63556C59.1099 2.70586 59.2264 2.64544 59.3966 2.64997C59.5839 2.65496 59.502 2.67524 59.6024 2.67642C59.874 2.68004 59.7613 2.62871 59.9885 2.67674C59.7703 2.53423 60.374 2.66361 60.5507 2.70377C60.2619 2.70562 59.9756 2.70857 59.688 2.71235C59.7042 2.71986 59.7203 2.72737 59.7365 2.73489C59.6618 2.73297 59.5864 2.7311 59.5102 2.72928C59.5225 2.72239 59.5348 2.71549 59.547 2.7086C59.1508 2.75023 59.0625 2.69871 59.0287 2.69781C58.6165 2.68884 58.1455 2.68768 57.7261 2.68741C57.6633 2.68745 57.7113 2.73275 57.2505 2.69764C57.107 2.68654 57.2426 2.65073 57.0798 2.65643C56.8754 2.75347 56.8781 2.67655 56.8166 2.67663C56.637 2.67728 56.5341 2.7017 56.5173 2.70202C56.3026 2.70672 55.98 2.70465 55.7444 2.70997C55.7399 2.71037 55.8643 2.73911 55.7092 2.73147C55.6522 2.72872 55.1684 2.6059 54.7366 2.65171C54.8461 2.65912 54.9614 2.66653 55.0722 2.67403C54.9369 2.66305 54.027 2.70512 54.2497 2.73654C54.3896 2.75557 54.721 2.67043 54.7573 2.74855C54.456 2.72719 52.7752 2.78476 52.6393 2.76936C52.6212 2.76704 52.7314 2.73989 52.7066 2.73702C52.6871 2.7348 52.306 2.74678 52.2533 2.73789C52.2228 2.73257 52.393 2.71424 52.3789 2.7053C52.369 2.69886 51.8787 2.69597 51.8559 2.72832C51.9712 2.71354 52.3101 2.71921 52.134 2.74898C52.1115 2.75268 51.9935 2.73405 51.9658 2.73875C51.7105 2.78206 52.4752 2.76006 52.5868 2.75881C52.1174 2.80662 51.3754 2.77133 50.8307 2.80807C50.6089 2.78564 51.1574 2.76139 50.9072 2.74402C50.3853 2.70817 50.7695 2.78332 50.7534 2.78699C50.6246 2.81616 50.1767 2.68123 50.181 2.79048C49.993 2.77774 50.0542 2.76272 49.7867 2.78241C49.8222 2.78926 49.8576 2.79612 49.8929 2.80298C49.5926 2.87225 48.9693 2.72567 49.014 2.71256C49.1407 2.67723 49.4652 2.72133 49.4922 2.71957C49.532 2.71696 49.6503 2.60348 50.102 2.69369C50.2866 2.61556 49.3827 2.65794 49.794 2.59893C49.5122 2.6127 48.3748 2.58532 48.2133 2.62178C48.1936 2.62649 48.2873 2.69849 48.0034 2.66715C47.8684 2.65223 48.1928 2.64406 48.1308 2.62857C47.9361 2.58023 45.3859 2.67453 44.8914 2.69086C44.8597 2.69176 44.871 2.66846 44.8403 2.66946C44.7468 2.6725 44.4029 2.71574 44.2307 2.70969C44.5196 2.73674 44.1201 2.75585 43.862 2.76223C43.8045 2.76365 43.7545 2.76438 43.7222 2.76437C43.4593 2.76426 43.4739 2.72339 43.3595 2.71786C42.9124 2.69668 42.239 2.81137 41.8887 2.73132C41.9065 2.81999 41.2978 2.70415 41.0173 2.71138C40.7986 2.71696 40.4799 2.78514 40.7784 2.81254C40.3999 2.81925 40.0105 2.84716 39.6533 2.86301C39.5945 2.86564 39.6748 2.83691 39.5743 2.84223C39.5654 2.8429 39.5529 2.86911 39.4675 2.8743C38.7676 2.91739 39.1062 2.85253 38.9745 2.84026C38.9004 2.8334 38.8457 2.83052 38.8055 2.83023C39.2171 2.81298 39.6881 2.78907 39.8176 2.78458C39.7037 2.73077 38.9085 2.82215 38.6701 2.81391C38.6619 2.81359 38.6895 2.78131 38.6812 2.78134C38.681 2.78134 38.6808 2.78135 38.6807 2.78135C38.5911 2.78158 38.0294 2.80996 38.1466 2.84398C38.1769 2.85309 38.436 2.84532 38.7444 2.83277C38.6614 2.84227 38.7246 2.87564 38.7099 2.87758C38.5311 2.90029 38.0952 2.8789 37.9421 2.87886C37.9069 2.8789 37.9101 2.90138 37.9043 2.90161C37.7641 2.9007 37.8197 2.83455 37.6776 2.90531C37.421 2.83267 38.1532 2.87909 38.0995 2.82853C38.0613 2.78936 36.4365 2.86015 36.4441 2.92334C36.4383 2.91675 36.4157 2.90904 36.3695 2.9009C36.2675 2.88277 35.812 2.90342 35.7369 2.91742C35.7239 2.92011 35.731 2.98133 35.7148 2.9824C35.6748 2.98504 35.1223 2.95397 34.9153 2.99676C35.0276 3.00187 35.1396 3.007 35.2514 3.01214C34.5767 3.03365 34.6801 3.04875 34.9068 3.06004C34.9181 3.05986 34.9291 3.06185 34.9399 3.06176C35.1151 3.06989 35.3382 3.07605 35.3416 3.08079C35.3553 3.0988 34.2121 3.14477 34.4309 3.08095C34.4602 3.07224 34.9895 3.08109 34.7257 3.04865C34.6794 3.04297 34.3435 3.06509 34.3252 3.06118C34.2056 3.03511 34.9416 2.9725 34.8514 2.93298C34.6697 2.97897 34.4433 2.96481 34.2372 2.98169C34.1438 2.98932 34.1217 3.02082 34.1101 3.02177C33.9375 3.03524 34.0335 2.99992 33.9757 3.00254C33.945 3.00406 33.6049 3.08352 33.6666 2.98682C32.5478 3.09195 33.3546 3.06625 34.0478 3.03911C33.8321 3.0804 33.3995 3.07737 33.2118 3.09134C33.1435 3.09641 33.1851 3.12671 33.0697 3.1367C32.8325 3.15719 31.6894 3.15741 31.3929 3.15844C31.5751 3.1414 31.5206 3.10871 31.3797 3.11563C31.2387 3.12257 31.3587 3.16467 31.3313 3.1705C31.302 3.17655 30.6383 3.17629 30.5305 3.18576C31.0248 3.1531 30.9123 3.12239 30.4919 3.13242C30.5524 3.12056 30.6128 3.10871 30.6732 3.09686C30.428 3.1187 29.9055 3.08329 29.7619 3.10357C29.7394 3.10681 29.8213 3.13302 29.8087 3.13484C29.682 3.15124 29.2558 3.13571 29.2364 3.1462C29.2199 3.15495 29.402 3.1732 29.3351 3.18731C29.3212 3.19028 29.1452 3.157 28.9727 3.17225C28.9087 3.17788 28.9482 3.20389 28.9321 3.20601C28.7979 3.22355 28.8761 3.17498 28.6297 3.19047C28.4497 3.20185 28.3135 3.2513 28.0659 3.24457C28.8877 3.27483 28.1949 3.27368 27.8567 3.30223C27.802 3.3068 27.8509 3.35477 27.5226 3.34148C28.216 3.2289 27.323 3.30068 27.1382 3.30585C27.1281 3.30588 27.1236 3.27333 27.0333 3.2758C27.0257 3.27608 27.0374 3.29779 26.9535 3.30227C26.1633 3.34451 26.6681 3.30277 26.5172 3.28599C26.4531 3.27884 26.0692 3.32288 25.9651 3.32711C25.9411 3.32799 25.9514 3.30469 25.8589 3.30868C25.6953 3.31579 25.5483 3.34515 25.441 3.35068C25.4284 3.35122 25.4268 3.31504 25.2236 3.33359C25.1665 3.3388 25.1026 3.3538 25.1843 3.36148C25.4531 3.38672 25.9692 3.31017 26.2752 3.33418C26.5553 3.35598 25.6755 3.38826 25.6287 3.39002C25.6118 3.3907 25.7838 3.36696 25.6083 3.36927C25.4573 3.37135 25.1903 3.44287 24.9675 3.43672C24.9506 3.43628 24.7714 3.38924 24.7795 3.38587C24.7869 3.38336 25.0588 3.36272 25.0187 3.34871C25.0139 3.34712 24.8409 3.35328 24.8179 3.34263C24.7898 3.32965 24.7105 3.19576 24.6734 3.19358C24.578 3.18832 24.6409 3.21736 24.5794 3.21726C24.4477 3.21711 23.987 3.19225 23.9751 3.23999C24.0502 3.24026 24.1256 3.24053 24.2017 3.24078C23.7819 3.25979 23.9621 3.27387 23.9028 3.28475C23.8393 3.29649 23.8559 3.25433 23.7147 3.25519C23.6843 3.25535 23.0924 3.28404 23.1035 3.30113C23.4305 3.26228 23.3106 3.31776 23.3258 3.31816C23.3833 3.31957 23.4556 3.28828 23.5325 3.28626C24.0729 3.27252 23.5296 3.33639 23.6576 3.34378C23.7016 3.34623 23.7882 3.31869 23.8068 3.31932C23.8674 3.32135 23.8695 3.35352 23.9097 3.34956C24.0035 3.34034 23.8922 3.29847 23.8996 3.29585C23.982 3.26452 24.3147 3.28883 24.1098 3.34538C24.2346 3.35906 24.2471 3.29831 24.3462 3.31909C24.5432 3.36022 24.2501 3.35782 24.1709 3.36842C23.8881 3.40656 23.8048 3.3862 23.4037 3.40769C23.2592 3.41536 23.0886 3.45045 23.0214 3.45433C22.9791 3.45677 22.5752 3.3685 22.5698 3.52827C22.4148 3.51809 22.1685 3.42129 22.0088 3.43153C21.8655 3.44079 21.913 3.49563 21.8997 3.49827C21.8793 3.50239 21.7055 3.50386 21.647 3.51384C21.5784 3.5256 21.6135 3.54595 21.5044 3.55845C21.2325 3.58951 21.2383 3.53169 21.2103 3.5289C20.886 3.49668 21.0301 3.57373 20.9587 3.58275C20.8931 3.59101 19.9527 3.59164 19.7561 3.61914C19.8355 3.60487 19.9158 3.59058 19.996 3.57628C19.85 3.54534 19.7008 3.60909 19.6958 3.5448C19.6704 3.64974 19.3721 3.59042 19.283 3.59616C19.248 3.59847 19.2514 3.61609 19.2074 3.61836C19.0361 3.62736 18.6478 3.6266 18.5545 3.6388C18.152 3.69138 19.1869 3.72015 19.2673 3.72129C19.1057 3.72569 18.1856 3.78067 18.6106 3.81606C18.6763 3.82152 18.7906 3.77102 18.8272 3.76794C19.0751 3.74742 18.8813 3.79582 18.9009 3.79912C18.9342 3.80438 19.0962 3.75846 19.1394 3.76178C19.1538 3.76283 19.0626 3.80375 19.299 3.79642C19.1844 3.83699 18.5175 3.83008 18.4299 3.84171C18.3991 3.84584 18.596 3.91733 18.0259 3.86095C18.0327 3.86798 18.0395 3.87501 18.0464 3.88204C17.7302 3.89594 17.4133 3.90987 17.0957 3.92385C17.1297 3.90593 17.3068 3.86617 17.0825 3.88107C16.9532 3.88967 17.0502 3.92361 17.0385 3.9251C16.9243 3.93926 14.8748 3.99793 14.478 4.01596C14.343 4.022 13.9662 4.0651 13.9382 4.06663C13.7673 4.07559 13.1591 4.07729 13.0378 4.08577C12.9621 4.09112 13.0352 4.11975 12.9674 4.12065C12.9045 4.12145 12.9686 4.08907 12.9499 4.08847C12.7934 4.083 11.6222 4.16347 11.3411 4.14491C11.5125 4.14743 12.3608 4.05755 12.3427 4.03694C12.339 4.03416 12.1316 4.01848 12.0894 4.03114C12.0181 4.00754 11.779 4.09534 11.6467 4.08437C11.6317 4.08312 11.6889 4.03656 11.4535 4.03672C11.3725 4.03679 11.1608 4.07893 10.9467 4.04751C10.6399 4.07695 9.01314 4.07626 8.90413 4.12798C8.90092 4.13062 9.12999 4.13906 8.97631 4.16411C8.77196 4.19741 8.95325 4.10306 8.71368 4.1039C8.67777 4.104 8.01131 4.13634 7.99006 4.14254C7.79018 4.19894 8.37276 4.19846 8.36493 4.20447C8.34504 4.21962 7.86177 4.24537 7.84224 4.24265C7.82343 4.23976 8.21491 4.16057 7.74258 4.202C7.79707 4.2079 7.85156 4.2138 7.90603 4.2197C7.68403 4.24274 7.66118 4.19828 7.60716 4.19742C7.43916 4.19458 7.26012 4.26963 6.98817 4.19429C6.91625 4.17429 7.03345 4.14514 7.02442 4.14208C6.93792 4.1148 6.83176 4.19967 6.7011 4.14376C6.69132 4.13959 6.98892 4.09285 6.46647 4.11116C6.50259 4.11569 6.53865 4.12022 6.57484 4.12475C6.50172 4.14028 5.97358 4.16659 5.90227 4.16604C5.69415 4.16443 5.87392 4.11644 5.66519 4.12878C5.80124 4.18106 5.16603 4.21091 5.20081 4.16054C5.11386 4.22533 4.57329 4.19679 4.31946 4.20428C4.1594 4.20905 3.83377 4.24748 3.78278 4.24613C3.72066 4.24446 3.73801 4.20174 3.62576 4.19633C3.5936 4.1948 3.26198 4.23737 2.96816 4.20416C2.91122 4.19777 2.78974 4.13065 2.89439 4.10911C3.07353 4.07224 3.41635 4.11767 3.41051 4.07567C3.40383 4.03077 2.94572 4.07379 2.82189 4.07227C2.25029 4.06521 2.57811 4.00565 2.56292 3.99164C2.52363 3.95772 2.21181 3.96983 2.19868 3.96712C2.14425 3.95495 2.36426 3.91924 2.36683 3.8976C2.36988 3.86944 2.06747 3.8295 2.13548 3.81764C2.23285 3.80078 2.51058 3.83316 2.52802 3.83053C2.75503 3.7953 2.44027 3.74161 2.35301 3.71285C2.32655 3.70399 2.43002 3.68424 2.40827 3.68213C2.07627 3.65026 2.34182 3.77556 2.12169 3.77434C1.92528 3.77326 2.17613 3.72181 2.16855 3.71973C2.15877 3.7175 1.92421 3.72346 1.88701 3.7097C1.86857 3.70281 2.47517 3.59855 2.44838 3.56235C2.25426 3.57739 2.05996 3.59244 1.86593 3.60747C1.84897 3.55964 2.12986 3.58537 2.15863 3.57936C2.21652 3.5673 2.05325 3.54856 2.05968 3.53302C2.06308 3.52316 2.25246 3.48172 2.07976 3.4735C2.02037 3.47064 1.89746 3.50894 1.68079 3.48191C2.42903 3.41118 1.90843 3.40234 1.88575 3.38599C1.8635 3.36962 2.22 3.31665 1.78579 3.33913C1.76362 3.24566 1.7941 3.30904 1.91697 3.28814C2.06753 3.26246 1.71672 3.24382 2.27058 3.2478C2.23755 3.20484 1.79323 3.22366 1.76962 3.22097C1.74919 3.2185 1.84719 3.19334 1.81171 3.18723C1.39218 3.11679 1.67965 3.14557 1.55709 3.09545C1.54619 3.09097 1.15176 3.08472 1.45122 3.06621C1.99671 3.03253 2.22726 3.08692 2.31433 2.95016C1.90811 2.90644 1.422 3.0099 1.29921 3.0157C1.11134 3.02444 1.30507 2.99033 1.28164 2.98352C1.27351 2.98134 1.11163 2.98931 1.10938 2.98722C0.990326 2.88947 1.83025 2.96007 2.09302 2.93306C2.02186 2.9203 1.95072 2.90755 1.87961 2.89479C1.97532 2.8908 2.07113 2.8868 2.1669 2.88281C1.70942 2.86827 2.15041 2.87177 2.26129 2.7853C2.28618 2.76587 1.98749 2.80823 2.32768 2.74466C2.07502 2.74168 2.15484 2.72199 1.92729 2.7533C1.93197 2.72005 2.44464 2.66461 2.64667 2.6405C1.9294 2.62864 2.3418 2.73545 1.72073 2.69317C1.60742 2.73815 1.9025 2.71975 1.87865 2.72735C1.7931 2.75469 1.58917 2.72328 1.34774 2.81702C1.30844 2.83239 1.47837 2.86945 1.22908 2.87617C1.20151 2.87685 1.04141 2.84571 1.04351 2.84297C1.06355 2.81344 1.22108 2.81868 1.22714 2.80643C1.23283 2.79485 1.05775 2.80788 1.05703 2.80475C1.05037 2.76888 1.20283 2.7858 1.1804 2.77529C1.13196 2.75242 0.498589 2.6971 1.32242 2.69075C0.640249 2.75567 1.23632 2.73366 1.50195 2.70859C1.5697 2.70227 1.58613 2.68012 1.68259 2.66923C1.80668 2.65516 1.95261 2.66036 2.0169 2.65413C2.08602 2.64732 1.69062 2.61031 2.26042 2.6054C1.96881 2.56499 1.45937 2.63705 1.17357 2.61154C0.597039 2.55996 1.5707 2.51012 1.6719 2.49958C1.69887 2.49673 1.60721 2.47085 1.62517 2.46843C1.65452 2.46466 2.20789 2.45857 2.26162 2.43257C2.31515 2.4066 2.05909 2.44084 2.04112 2.41636C2.02896 2.39988 2.69503 2.34637 2.33348 2.34758C2.08423 2.34847 1.62797 2.43253 1.54814 2.36231C1.91379 2.34335 2.27976 2.32438 2.64553 2.30542C2.44423 2.28474 2.24289 2.26406 2.04153 2.24338C2.45213 2.22006 2.80838 2.23886 3.197 2.18535C2.25657 2.12951 3.49878 2.10363 3.51208 2.09233C3.5163 2.0857 3.145 2.02653 3.08514 2.01542C3.41073 1.97612 4.40456 1.92745 3.81984 1.85884C3.92611 1.87524 4.1799 1.81654 4.17639 1.81291C4.14259 1.77468 3.58602 1.81989 3.67567 1.78111C3.7796 1.73612 3.92923 1.7869 4.09112 1.77671C4.92185 1.72406 4.68585 1.52655 5.52138 1.52965C5.50453 1.52292 5.48768 1.51618 5.47083 1.50945C6.37715 1.48916 7.2845 1.46886 8.19073 1.44866C8.54416 1.37336 9.48423 1.30206 9.94949 1.29269C10.043 1.29076 10.5023 1.30764 10.537 1.31221C10.6014 1.32104 10.2496 1.3376 10.4094 1.35278C10.4432 1.35586 11.2185 1.34255 11.1624 1.30935C11.0749 1.30834 10.8037 1.33552 10.759 1.3288C10.4436 1.28068 12.8366 1.24417 12.9556 1.21623C12.9022 1.20668 12.8487 1.19712 12.7953 1.18757C12.9466 1.1879 13.0978 1.18824 13.2489 1.18859ZM6.41284 4.25285C6.32361 4.29128 6.09584 4.27281 5.96209 4.28743C5.77735 4.30781 5.46702 4.45463 5.59789 4.31383C5.8697 4.29349 6.14136 4.27317 6.41284 4.25285ZM10.392 4.16553C10.2089 4.153 10.3478 4.07206 10.4984 4.0984C10.5151 4.10141 10.6397 4.18235 10.392 4.16553ZM8.47768 4.19666C8.48533 4.19538 8.64317 4.19185 8.64872 4.19285C8.79128 4.21837 8.31538 4.22886 8.47768 4.19666ZM17.7173 3.83531C17.5163 3.84554 17.6644 3.90957 17.7883 3.87684C17.7961 3.87476 17.7305 3.8347 17.7173 3.83531ZM17.5742 3.83842C17.4159 3.78197 17.105 3.9182 17.3551 3.89693C17.3794 3.89481 17.5816 3.84118 17.5742 3.83842ZM9.74013 4.15817C9.75988 4.13374 9.94873 4.13857 10.0294 4.14142C10.0279 4.16314 9.81899 4.15275 9.74013 4.15817ZM14.5124 3.98471C14.5199 3.96579 13.8642 3.98965 13.8214 4.01574C13.9233 4.00175 14.5057 4.00171 14.5124 3.98471ZM16.1893 3.90026C16.1726 3.89761 15.9466 3.91035 15.9538 3.92657C16.065 3.9443 16.2645 3.91226 16.1893 3.90026ZM19.5234 3.78634C19.5354 3.78179 19.3632 3.68294 19.7654 3.7381C19.8244 3.74617 19.6157 3.78069 19.6367 3.78373C19.6806 3.78956 19.7153 3.79179 19.743 3.79145C19.5572 3.8065 19.3636 3.81723 19.3446 3.81153C19.2556 3.78458 19.5181 3.78825 19.5234 3.78634ZM21.2702 3.64852C21.308 3.63014 21.5552 3.63085 21.6114 3.63597C21.6211 3.63697 21.5806 3.68325 21.6914 3.67612C21.7803 3.67032 21.6459 3.6289 21.8194 3.63035C21.9947 3.63178 21.762 3.67248 21.7773 3.67429C21.798 3.67666 22.0679 3.64682 22.0603 3.67383C22.0548 3.69383 21.7644 3.69031 21.6927 3.69696C21.6009 3.7055 21.7135 3.73467 21.5595 3.73283C21.4627 3.7317 21.5143 3.67189 21.4938 3.66966C21.4764 3.66789 21.1402 3.71276 21.2707 3.64868C21.2705 3.64863 21.2703 3.64857 21.2702 3.64852ZM19.7933 3.78716C19.7793 3.7896 19.7629 3.7912 19.743 3.79145C19.7599 3.79008 19.7767 3.78859 19.7933 3.78716ZM6.93936 4.20884C7.0349 4.22338 6.75399 4.25623 6.6464 4.23656C6.64391 4.21774 6.92416 4.20659 6.93936 4.20884ZM19.965 3.734C20.244 3.73898 20.0394 3.76599 19.7933 3.78716C19.8708 3.77357 19.8714 3.73235 19.965 3.734ZM12.0894 4.03114C12.1012 4.03505 12.1089 4.04154 12.1102 4.05258C12.0791 4.04154 12.0761 4.03513 12.0894 4.03114ZM12.737 4.02829C12.9582 3.98678 12.5062 4.00393 12.5103 4.02797C12.5116 4.03705 12.7282 4.02994 12.737 4.02829ZM17.9751 3.82972C17.9547 3.82712 18.2661 3.71437 17.8114 3.8066C18.056 3.81018 17.7988 3.83016 17.8029 3.83896C17.8139 3.86425 18.2228 3.82547 18.3136 3.83344C18.383 3.78511 18.0424 3.83829 17.9756 3.8297C17.9754 3.82971 17.9752 3.82971 17.9751 3.82972ZM24.427 3.56628C24.3722 3.59504 24.1944 3.59237 24.0753 3.5948C24.1297 3.56605 24.3077 3.56871 24.427 3.56628ZM55.5576 2.74124C54.7471 2.77302 54.6401 2.66481 55.382 2.7013C55.3943 2.70208 55.6079 2.72973 55.5576 2.74124ZM48.5698 2.82435C48.4921 2.77829 48.7455 2.76506 48.9151 2.78116C48.9532 2.78478 49.0944 2.83015 48.9345 2.84302C48.9395 2.78502 48.6863 2.76834 48.5698 2.82435ZM20.1213 3.69805C20.2012 3.66345 20.4511 3.67757 20.5822 3.67788C20.5032 3.70681 20.2379 3.70403 20.1213 3.69805ZM52.8843 2.71512C52.7977 2.71279 52.7394 2.75522 52.7545 2.75845C52.8222 2.77328 52.9832 2.73731 52.8843 2.71512ZM19.3188 3.72062C19.3069 3.70199 19.635 3.6724 19.6594 3.71864C19.5892 3.71765 19.3274 3.73227 19.3188 3.72062ZM24.2012 3.55959C24.1495 3.55165 24.4149 3.52538 24.4954 3.53228C24.4897 3.55274 24.2351 3.56474 24.2012 3.55959ZM51.5036 2.75159C51.4268 2.74932 51.2326 2.75168 51.2112 2.76887C51.1851 2.79032 51.4695 2.77809 51.5036 2.75159ZM65.6425 2.96827C65.6512 2.97665 65.3669 2.99548 65.2439 2.96858C65.0113 2.91572 65.6341 2.95949 65.6425 2.96827ZM53.6967 2.68238C53.9396 2.71876 53.6701 2.68396 53.681 2.72543C53.8459 2.72473 54.2447 2.72197 53.9694 2.68441C53.9157 2.67716 53.7731 2.68407 53.6967 2.68238ZM53.4709 2.67146C53.4431 2.6853 53.2724 2.73014 53.4211 2.72506C53.4922 2.72261 53.6054 2.67389 53.4709 2.67146ZM63.8823 2.82158C63.6751 2.76932 64.6395 2.85863 64.6623 2.87048C64.6768 2.87518 64.6861 2.87923 64.6913 2.88243C64.729 2.87392 64.9053 2.88832 64.9252 2.92007C64.8689 2.91201 64.7261 2.90144 64.7078 2.89659C64.7005 2.89453 64.695 2.89273 64.6913 2.89107C64.6271 2.9091 63.925 2.82978 63.8823 2.82158ZM62.2676 2.70306C62.5183 2.65802 62.554 2.75231 62.5338 2.75438C62.2676 2.78168 62.4428 2.72044 62.4351 2.71692C62.4173 2.71084 62.2241 2.73526 62.2684 2.70309C62.2681 2.70308 62.2679 2.70307 62.2676 2.70306ZM63.5534 2.78596C63.5539 2.78593 63.5548 2.78593 63.5561 2.78597C63.5837 2.78669 63.7689 2.80067 63.776 2.80261C63.8871 2.83103 63.6565 2.81921 63.555 2.80472C63.511 2.79817 63.4952 2.79082 63.5534 2.78596ZM22.5878 3.53902C22.7371 3.54314 22.5922 3.58206 22.4926 3.57321C22.4844 3.57229 22.456 3.53537 22.5878 3.53902ZM53.3518 2.68224C53.3219 2.67602 52.4286 2.66509 52.4864 2.71569C52.5553 2.70828 53.5699 2.72013 53.3518 2.68224ZM46.7266 2.79926C46.8808 2.79597 46.714 2.84838 46.6308 2.83234C46.6 2.82637 46.6877 2.80012 46.7266 2.79926ZM18.8732 3.69197C18.7112 3.72415 18.7419 3.63382 18.8841 3.65953C18.8896 3.66054 18.8795 3.69071 18.8732 3.69197ZM47.9781 2.79795C47.4359 2.83967 47.5606 2.68313 48.2669 2.71913C48.2452 2.72645 48.2234 2.73377 48.2016 2.74109C49.0055 2.74637 48.2593 2.75056 48.0588 2.76371C47.9831 2.76868 48.0473 2.79286 47.9786 2.79812C47.9784 2.79806 47.9782 2.798 47.9781 2.79795ZM45.9029 2.81642C45.3811 2.72042 46.3804 2.76651 46.6602 2.74572C46.3883 2.79726 46.0278 2.79927 46.5169 2.83344C45.8031 2.85973 46.0976 2.80921 46.0698 2.80625C46.0357 2.80305 45.9255 2.82054 45.9029 2.81642ZM47.2766 2.78257C47.3068 2.77868 47.5327 2.79561 47.6129 2.79016C47.502 2.8299 47.0775 2.80885 47.2766 2.78257ZM60.5577 2.68265C60.5779 2.65388 60.619 2.63304 60.7997 2.64757C60.7435 2.66106 60.6309 2.67149 60.5577 2.68265ZM6.23566 4.10555C6.11258 4.1078 5.86714 4.10546 5.94337 4.13345C5.9517 4.13577 6.2359 4.12276 6.23566 4.10555ZM50.7799 2.70078C50.7545 2.69759 50.0745 2.70832 50.3089 2.73597C50.3801 2.74421 50.9981 2.72845 50.7799 2.70078ZM54.2779 2.65051C54.2199 2.65086 53.9906 2.65911 53.9866 2.66607C53.9706 2.69009 54.2523 2.6736 54.2779 2.65051ZM5.61375 4.09761C5.59745 4.09516 5.22145 4.11378 5.26329 4.12646C5.34277 4.15043 5.66971 4.10607 5.61375 4.09761ZM23.1311 3.45227C23.1626 3.45012 23.2053 3.48037 23.2162 3.48035C23.2421 3.47992 23.8163 3.44833 23.5982 3.49639C23.5626 3.50439 22.7319 3.51688 22.6244 3.51652C22.5807 3.4745 22.937 3.5038 23.0231 3.49641C23.0383 3.49505 23.0468 3.45837 23.1309 3.45246C23.1309 3.45239 23.131 3.45233 23.1311 3.45227ZM61.4777 2.67253C61.505 2.64498 62.1732 2.64755 62.163 2.68134C61.9348 2.67745 61.709 2.67464 61.4777 2.67253ZM61.1384 2.65938C60.9936 2.63641 61.3342 2.63793 61.4294 2.64925C61.4308 2.66781 61.1605 2.66266 61.1384 2.65938ZM52.9974 2.56402C52.9296 2.57177 53.1389 2.60907 53.0923 2.61759C53.0627 2.62289 52.9105 2.60999 52.8617 2.62334C52.848 2.62755 53.0043 2.66316 53.0488 2.66089C53.1122 2.65778 53.0503 2.62883 53.1194 2.62764C53.3467 2.62375 53.5533 2.64222 53.7695 2.63895C53.789 2.6386 53.6377 2.61947 53.8038 2.61764C53.8302 2.61731 53.9812 2.64675 54.1807 2.63974C54.6219 2.53741 54.9451 2.62936 55.4977 2.58973C55.4735 2.58071 55.0641 2.55977 55.0375 2.55918C54.57 2.54742 53.7393 2.55558 53.2495 2.56243C53.1254 2.5641 53.1859 2.58382 53.1323 2.58533C53.0898 2.5865 53.1401 2.54767 52.9974 2.56402ZM6.30025 4.08221C6.24029 4.04625 6.03545 4.07756 5.90394 4.08023C5.95142 4.1129 6.17161 4.0783 6.30025 4.08221ZM58.1278 2.59473C58.063 2.59602 57.858 2.58428 57.8405 2.59574C57.8192 2.61064 58.1148 2.6205 58.1278 2.59473ZM26.3753 3.35411C26.3817 3.35286 26.5398 3.34963 26.5458 3.35063C26.6881 3.37644 26.2137 3.38598 26.3753 3.35411ZM30.1672 3.23658C30.2873 3.22797 30.4079 3.21217 30.4491 3.24171C30.3727 3.23946 30.1538 3.25852 30.1672 3.23658ZM35.3976 3.06934C35.3717 3.0297 35.7331 3.04471 35.8007 3.04625C35.7764 3.06497 35.4169 3.09788 35.3976 3.06934ZM60.5344 2.55531C60.7507 2.56169 60.7074 2.49968 60.8469 2.53022C60.8692 2.5354 60.9419 2.6643 60.6986 2.61168C60.6556 2.60229 60.8242 2.57509 60.5344 2.55531ZM48.3806 2.71789C48.4369 2.68989 48.6069 2.69409 48.7289 2.6936C48.7001 2.71408 48.4649 2.71411 48.3806 2.71789ZM4.93334 4.09101C4.82838 4.05693 4.35021 4.10183 4.46965 4.12258C4.48665 4.12523 4.86612 4.09195 4.93334 4.09101ZM20.68 3.55691C20.876 3.52046 20.4676 3.5252 20.3394 3.55866C20.3978 3.55476 20.6668 3.55931 20.68 3.55691ZM34.1406 3.08658C34.15 3.08506 34.3587 3.08139 34.3679 3.08256C34.5398 3.10823 33.9495 3.1188 34.1406 3.08658ZM28.9188 3.22825C28.9939 3.2013 29.487 3.20491 29.5991 3.22577C29.4934 3.265 28.827 3.26182 28.9188 3.22825ZM59.6315 2.55972C59.7852 2.56015 59.9373 2.56962 60.0802 2.58225C60.0503 2.60227 59.6463 2.57513 59.6315 2.55972ZM34.9068 3.06004C34.9181 3.05986 34.9291 3.06185 34.9399 3.06176C34.9286 3.06124 34.9176 3.06058 34.9068 3.06004ZM56.1156 2.53993C55.982 2.53262 56.0118 2.57019 56.0192 2.57129C56.1173 2.58288 56.2673 2.54821 56.1156 2.53993ZM6.1473 4.03153C6.10029 3.99911 5.87889 4.03334 5.75065 4.02975C5.78872 4.05533 6.04443 4.03873 6.1473 4.03153ZM45.3481 2.76053C45.1832 2.72775 45.8498 2.66803 45.9963 2.68827C46.0028 2.71089 45.3747 2.76487 45.3481 2.76053ZM20.0652 3.52683C20.051 3.50061 19.7673 3.54256 19.8284 3.55308C19.8666 3.5598 20.0738 3.54312 20.0652 3.52683ZM46.3385 2.69545C46.4019 2.68575 46.5497 2.70852 46.4982 2.72582C46.4323 2.748 46.3221 2.69818 46.3385 2.69545ZM52.0272 2.55533C51.9958 2.55174 51.6299 2.58534 51.7822 2.60998C51.8882 2.6271 51.9041 2.58826 51.9288 2.58773C51.9583 2.58731 52.5618 2.62472 52.0272 2.55533ZM41.5618 2.83885C41.6997 2.82471 41.8731 2.83177 42.0213 2.8269C41.9613 2.84508 41.6202 2.85913 41.5618 2.83885ZM21.1591 3.48228C21.1252 3.47263 20.1935 3.49797 20.7238 3.51308C20.755 3.51389 21.2638 3.51141 21.1591 3.48228ZM60.5344 2.55531C60.5069 2.55452 60.4751 2.55268 60.438 2.54941C60.4748 2.55108 60.5067 2.55345 60.5344 2.55531ZM58.0395 2.52844C58.0911 2.50909 57.8321 2.50348 57.7575 2.51383C57.7319 2.53751 58.0336 2.53109 58.0395 2.52844ZM42.0318 2.7995C42.117 2.786 42.2718 2.79357 42.3766 2.78938C42.3596 2.80792 42.0695 2.8168 42.0318 2.7995ZM36.0654 2.95475C36.2358 2.96024 36.4435 2.94895 36.446 2.92676C36.4496 2.93011 36.458 2.93352 36.4717 2.93679C36.4856 2.94001 36.6659 2.92422 36.7443 2.92938C37.2176 2.95964 34.9255 3.01152 36.2523 2.90834C36.1901 2.9238 36.1278 2.93927 36.0654 2.95475ZM28.245 3.19836C28.1481 3.17464 27.8829 3.21711 27.9523 3.22542C28.0007 3.23107 28.3414 3.22227 28.245 3.19836ZM31.9298 3.06259C31.9013 3.0587 31.6409 3.08591 31.6345 3.10029C31.7854 3.11037 32.0602 3.08072 31.9298 3.06259ZM27.5098 3.19112C27.4496 3.18905 27.3743 3.23494 27.3814 3.2366C27.4431 3.25039 27.6116 3.21191 27.5098 3.19112ZM60.0819 2.43119C59.9939 2.41742 59.7075 2.44524 59.6476 2.47328C59.6363 2.46762 59.6057 2.46005 59.5489 2.45079C59.5491 2.45079 59.5493 2.45079 59.5494 2.45079C59.4734 2.43538 57.1806 2.41394 58.7179 2.4752C58.766 2.47724 58.6992 2.4511 58.8953 2.45683C58.9084 2.45725 58.9149 2.47827 58.9553 2.47957C59.0491 2.48222 59.5366 2.49972 59.6357 2.48414C59.6364 2.48804 59.6427 2.49181 59.6561 2.49535C59.772 2.52677 60.1522 2.4417 60.0819 2.43119ZM32.449 3.04213C32.3959 3.03605 32.2283 3.04879 32.2115 3.06786C32.2952 3.07426 32.5724 3.05635 32.449 3.04213ZM21.1277 3.40732C21.0202 3.39574 20.7496 3.43348 20.8322 3.4458C20.883 3.45338 21.2517 3.42058 21.1277 3.40732ZM30.7777 3.10575C31.3955 3.10769 30.9248 3.09922 31.0184 3.06902C30.938 3.08127 30.8568 3.09354 30.7777 3.10575ZM62.8951 2.58049C62.8011 2.56996 62.9118 2.52124 63.02 2.55557C63.0539 2.56644 62.9464 2.58622 62.8951 2.58049ZM67.0672 3.04927C67.0104 2.98338 67.342 3.107 67.2012 3.10036C67.1955 3.0995 67.0718 3.05206 67.0672 3.04927ZM64.2024 2.62104C64.1329 2.64845 64.0951 2.64928 63.9108 2.62894C64.1831 2.63836 63.9327 2.59218 64.2024 2.62104ZM36.4441 2.92334C36.4452 2.92462 36.4462 2.92555 36.446 2.92676C36.4448 2.92561 36.4442 2.9245 36.4441 2.92334ZM26.9297 3.21878C26.8504 3.19399 26.6369 3.2031 26.7015 3.22856C26.7078 3.23091 26.898 3.2401 26.9297 3.21878ZM59.6476 2.47328C59.6577 2.47831 59.6525 2.48142 59.6357 2.48414C59.6349 2.48047 59.6393 2.47706 59.6476 2.47328ZM28.0887 3.15808C28.0809 3.17879 28.4109 3.17588 28.4242 3.17304C28.613 3.13134 28.2224 3.15243 28.0887 3.15808ZM18.9542 3.45301C18.9373 3.45572 19.0486 3.50472 19.1149 3.48175C19.1662 3.46393 19.0175 3.4427 18.9542 3.45301ZM64.8196 2.65893C64.9168 2.66788 65.0615 2.68242 65.0827 2.70989C65.0185 2.69916 64.8146 2.6768 64.8196 2.65893ZM66.94 2.98083C66.8288 2.98271 66.5834 2.92847 66.4228 2.89425C66.4287 2.85401 66.8416 2.96266 66.94 2.98083ZM60.3612 2.44996C60.3511 2.44815 60.0945 2.43263 60.1293 2.45916C60.1785 2.49791 60.4346 2.46527 60.3612 2.44996ZM19.4618 3.4636C19.5777 3.44173 19.3078 3.39599 19.186 3.44266C19.1236 3.46656 19.4424 3.46727 19.4618 3.4636ZM26.2558 3.20529C26.1024 3.22544 26.4847 3.23949 26.5368 3.21059C26.466 3.21076 26.3103 3.19815 26.2558 3.20529ZM31.4957 3.006C31.0071 2.94337 31.2764 3.07766 31.3623 3.06232C31.3745 3.06014 31.5077 3.00746 31.4957 3.006ZM3.72344 3.97705C3.65507 3.99035 3.91278 4.0207 3.94502 3.99359C3.96494 3.97664 3.76717 3.96856 3.72344 3.97705ZM38.8055 2.83023C38.785 2.83109 38.7646 2.83195 38.7444 2.83277C38.7595 2.83105 38.7794 2.83004 38.8055 2.83023ZM24.8541 3.1472C25.1991 3.24628 25.1601 3.16231 25.1898 3.16177C25.254 3.16081 25.4027 3.18575 25.5238 3.17679C25.3855 3.19387 25.2488 3.21091 25.1109 3.22799C25.2184 3.23236 26.1734 3.24117 26.192 3.22262C26.2197 3.19614 25.9208 3.21414 25.9119 3.21218C25.8992 3.2094 25.85 3.14 25.8221 3.13823C25.7748 3.13548 24.9821 3.16055 24.8541 3.1472ZM30.4807 3.05107C30.5587 3.05698 30.5817 3.08438 30.6176 3.07649C30.6298 3.07379 30.6309 3.04691 30.6726 3.03862C30.6087 3.04276 30.5447 3.04691 30.4807 3.05107ZM24.2445 3.26719C24.1463 3.23768 24.5819 3.23548 24.5958 3.23869C24.6709 3.25841 24.3249 3.29128 24.2445 3.26719ZM27.9246 3.13967C27.9089 3.13827 27.5762 3.13902 27.5794 3.15713C27.6681 3.16806 28.1119 3.15746 27.9246 3.13967ZM30.7244 3.03511C30.8397 3.0345 31.0642 3.05429 31.0371 3.01474C31.0369 3.01474 31.0368 3.01475 31.0366 3.01475C30.9319 3.02155 30.8273 3.02836 30.7244 3.03511ZM19.8573 3.36465C19.6392 3.30775 19.7434 3.38553 19.9368 3.39967C19.9942 3.3688 19.8934 3.37389 19.8573 3.36465ZM19.1632 3.34047C19.1028 3.33096 18.4804 3.36507 18.5765 3.39583C18.6108 3.40679 18.9679 3.36388 18.9844 3.36568C19.0095 3.3683 18.8967 3.40987 19.0872 3.39585C19.0756 3.38348 19.184 3.34363 19.1632 3.34047ZM19.677 3.32961C19.4605 3.28807 19.4152 3.37994 19.5769 3.37464C19.6401 3.37263 19.7079 3.33562 19.677 3.32961ZM20.5583 3.30712C20.4805 3.30122 20.2734 3.29581 20.1317 3.3307C20.3228 3.32672 20.5135 3.32276 20.7039 3.31882C20.7253 3.30107 20.6264 3.31232 20.5578 3.30714C20.558 3.30714 20.5582 3.30713 20.5583 3.30712ZM68.0991 3.13272C67.9596 3.04482 68.3088 3.18478 68.3247 3.19931C68.3611 3.23814 68.1599 3.17102 68.0991 3.13272ZM2.35724 3.2048C2.30929 3.19628 2.277 3.16383 2.17288 3.18511C2.27911 3.20615 2.38533 3.2272 2.49155 3.24824C2.5714 3.1886 2.40964 3.21421 2.35724 3.2048ZM1.94763 3.01167C1.96247 3.00977 1.87806 2.92538 2.07239 2.97684C2.2036 3.01159 1.49884 3.07487 1.36999 3.04068C1.51021 3.01773 1.81998 3.02739 1.94763 3.01167ZM0.697304 2.67765C0.688915 2.67098 0.956877 2.6513 0.988106 2.6551C1.15209 2.6752 0.742681 2.71338 0.697304 2.67765ZM1.55384 2.66407C1.42743 2.65157 1.70577 2.6308 1.78917 2.63762C1.7978 2.65358 1.57337 2.66585 1.55384 2.66407ZM66.8508 1.4286C66.7235 1.34276 66.5748 1.44522 66.793 1.46062C66.8027 1.46127 66.8562 1.43263 66.8508 1.4286ZM0.956515 2.58036C1.08295 2.59286 0.80457 2.61363 0.721145 2.60682C0.712846 2.59087 0.937268 2.57856 0.956515 2.58036ZM66.7798 1.27061C66.5982 1.19297 66.6414 1.34726 66.662 1.35673C66.7543 1.39551 67.0928 1.40822 67.1632 1.4115C66.667 1.325 66.8634 1.30892 66.7798 1.27061ZM65.9093 1.21819C65.738 1.21061 66.1675 1.29777 66.2593 1.27299C66.1733 1.26127 65.9591 1.22006 65.9093 1.21819ZM64.8789 1.05875C64.7857 1.04488 64.5147 1.0103 64.4689 1.02962C64.5689 1.03297 64.8361 1.07792 64.8789 1.05875ZM64.6775 0.973474C64.5359 0.931072 64.4937 1.01728 64.6624 1.00437C64.6689 1.00388 64.6826 0.97561 64.6775 0.973474ZM63.8752 0.882915C63.7843 0.841639 63.6708 0.921465 63.8233 0.933071C63.8682 0.936386 63.8848 0.887598 63.8752 0.882915ZM66.5719 1.07599C66.4368 1.03733 66.2501 1.06981 66.5412 1.12497C66.4384 1.11693 66.3318 1.10944 66.229 1.10354C66.6058 1.19716 66.5939 1.11155 66.7023 1.13402C66.8587 1.16826 66.8307 1.23575 66.7963 1.25159C66.93 1.23063 67.4728 1.34754 67.7892 1.44048C67.5195 1.33608 67.0737 1.19869 66.807 1.13784C66.7292 1.1195 66.652 1.12526 66.5861 1.11154C66.4795 1.08949 66.5796 1.07835 66.5724 1.07608C66.5722 1.07605 66.5721 1.07602 66.5719 1.07599ZM62.8215 0.826158C62.5449 0.774164 62.7188 0.868265 62.8743 0.859644C62.881 0.858746 62.8283 0.827434 62.8215 0.826158ZM0.58667 2.3294C0.951199 2.35284 0.688889 2.41024 1.44616 2.3104C1.12876 2.37335 1.42982 2.34819 1.36825 2.37123C1.31884 2.38949 1.13106 2.38245 1.24111 2.41182C1.09673 2.38072 0.47572 2.41267 0.44781 2.40778C0.448071 2.40777 0.448331 2.40776 0.448592 2.40775C0.431831 2.40486 0.470348 2.32196 0.58667 2.3294ZM64.8979 0.832484C64.8117 0.719072 64.7654 0.882618 64.5883 0.780605C64.3352 0.886104 65.2599 0.837629 65.3597 0.95983C64.3679 0.846548 66.0048 1.13443 65.3277 0.901933C65.8952 1.02341 65.5183 0.903126 65.6092 0.892652C65.7068 0.881379 66.0276 0.947139 66.0186 0.906823C66.0184 0.906798 66.0182 0.906773 66.018 0.906748C65.819 0.882266 65.6158 0.860518 65.4193 0.841932C65.6032 0.947224 65.2039 0.877768 65.0703 0.796598C65.0136 0.808472 64.9561 0.820435 64.8979 0.832484ZM66.01 1.0365C65.9891 1.03048 65.5586 0.988757 65.5835 1.00967C65.6382 1.02458 66.2547 1.09475 66.01 1.0365ZM67.9458 1.43563C67.7878 1.3827 67.5456 1.29789 67.4503 1.30693C67.6097 1.34738 67.8489 1.43665 67.9458 1.43563ZM60.0199 0.679963C59.827 0.703406 60.4184 0.719708 60.248 0.686203C60.2401 0.684581 60.0299 0.678836 60.0199 0.679963ZM64.4507 0.811314C64.2536 0.764223 64.3416 0.873404 64.4893 0.858009C64.4979 0.857093 64.4598 0.813475 64.4507 0.811314ZM0.880594 2.30656C0.892775 2.281 1.42042 2.28001 1.51381 2.27649C1.46158 2.30169 0.866632 2.33585 0.880594 2.30656ZM68.2552 1.44373C67.9685 1.23812 67.4981 1.21943 67.4533 1.20713C67.407 1.19288 67.4904 1.17348 67.4799 1.16973C67.455 1.15751 66.9518 1.04672 66.9273 1.04763C66.9094 1.04623 66.9897 1.1189 66.8822 1.11519C67.0885 1.11054 68.0025 1.37902 68.0516 1.4033C68.0896 1.412 67.8324 1.25911 68.2547 1.44353C68.2548 1.4436 68.255 1.44367 68.2552 1.44373ZM67.3372 1.16571C67.4558 1.21805 67.1065 1.13723 67.0227 1.11266C66.839 1.05384 67.3218 1.15626 67.3372 1.16571ZM66.501 0.97517C66.4623 0.962314 66.1054 0.903272 66.0734 0.925882C66.235 0.981208 66.5888 1.00184 66.501 0.97517ZM62.613 0.639989C62.5256 0.639645 62.2746 0.610436 62.2624 0.63272C62.3499 0.632409 62.5998 0.662 62.613 0.639989ZM2.67183 2.04577C2.52398 2.03206 2.86472 2.01229 2.96449 2.01785C2.97043 2.03273 2.68442 2.04695 2.67183 2.04577ZM64.4335 0.593118C64.4018 0.586586 64.0294 0.562929 63.6867 0.549427C63.4366 0.539289 63.1993 0.533394 63.1339 0.534766C63.1979 0.545221 63.4357 0.561306 63.6851 0.577945C64.0217 0.599874 64.3834 0.624983 64.4135 0.622646C64.4281 0.621238 64.4402 0.594716 64.4335 0.593118ZM66.8451 0.878152C66.9543 0.865129 67.0181 0.919304 67.0304 0.922339C67.1592 0.953078 67.4331 1.01087 67.3657 1.0279C67.137 0.9559 66.624 0.903688 66.8451 0.878152ZM62.5425 0.486359C62.1737 0.484325 62.8777 0.547196 62.7881 0.509099C62.7812 0.506625 62.5803 0.486466 62.5425 0.486359ZM64.5554 0.592821C64.6398 0.567852 65.743 0.69848 65.9247 0.729287C65.7568 0.757535 65.631 0.704196 65.4189 0.683681C65.3606 0.678156 65.3739 0.700375 65.3676 0.699734C65.2661 0.690036 65.3444 0.674244 65.2833 0.667558C65.2433 0.660527 64.4378 0.619883 64.5554 0.592821ZM66.9089 0.867C66.9747 0.853822 67.7043 1.01846 67.7338 1.03971C67.9416 1.1295 66.9594 0.871166 66.9089 0.867ZM64.4594 0.541098C64.5802 0.491434 65.1259 0.577947 64.7492 0.574131C64.7146 0.573761 64.5612 0.536054 64.4594 0.541098ZM62.5838 0.433019C62.5666 0.430382 62.181 0.404592 62.1747 0.422971C62.2273 0.431381 62.7895 0.459768 62.5838 0.433019ZM62.7856 0.379231C62.7762 0.379294 62.866 0.418411 62.6837 0.406284C62.6685 0.405297 62.645 0.36422 62.4159 0.370079C62.3688 0.371302 62.2967 0.395025 62.3021 0.396858C62.5378 0.466877 63.2527 0.379355 62.7856 0.379231ZM66.928 0.837914C66.8923 0.81382 66.997 0.783351 67.0761 0.825806C67.1095 0.844077 67.0373 0.858921 66.928 0.837914ZM61.3678 0.377769C61.5911 0.352962 60.8927 0.330346 60.8562 0.337907C60.8796 0.356964 61.3442 0.379862 61.3678 0.377769ZM3.00819 1.80046C3.00802 1.80047 3.00784 1.80048 3.00767 1.80048C3.19313 1.80079 3.07929 1.82996 3.08799 1.83044C3.48379 1.85342 3.37712 1.80021 3.43857 1.79132C3.57042 1.77212 3.55158 1.84207 3.77386 1.8055C3.40623 1.8609 3.74161 1.83127 3.75293 1.85552C3.79781 1.95453 3.25988 1.82583 3.07681 1.85338C3.05129 1.8572 3.24161 1.88258 3.17628 1.89402C2.96391 1.93111 2.29644 1.79939 3.00819 1.80046ZM67.1425 0.835436C67.2405 0.818663 67.9532 1.03963 67.7556 1.01222C67.7221 0.999041 66.9961 0.843735 67.1425 0.835436ZM36.4354 0.702881C36.5915 0.67254 36.227 0.653632 36.1596 0.675606C36.1264 0.686537 36.367 0.716191 36.4354 0.702881ZM33.8844 0.672691C33.698 0.683747 33.5038 0.796499 33.7361 0.772627C33.7608 0.770039 33.9063 0.686792 33.8844 0.672691ZM46.1225 0.376703C45.9254 0.343449 45.9387 0.413911 46.0828 0.409364C46.1336 0.407775 46.1287 0.377756 46.1225 0.376703ZM38.695 0.589394C38.6755 0.587497 38.4495 0.598727 38.4582 0.614742C38.5424 0.621994 38.8217 0.602602 38.695 0.589394ZM46.1844 0.365113C46.0687 0.380704 46.2699 0.426962 46.409 0.373562C46.3379 0.379388 46.1963 0.363515 46.1844 0.365113ZM64.0575 0.35575C63.9863 0.370752 63.842 0.363815 63.698 0.356441C63.633 0.353119 63.5694 0.349717 63.5175 0.348479C63.5106 0.331222 63.5957 0.330373 63.6993 0.334923C63.834 0.340884 63.991 0.355087 64.0575 0.35575ZM34.6742 0.690806C34.4973 0.722874 34.8788 0.7327 34.8427 0.698745C34.8378 0.69699 34.6813 0.689455 34.6742 0.690806ZM52.4068 0.23308C52.2798 0.257519 52.6843 0.281422 52.5725 0.243688C52.5672 0.242155 52.4139 0.231713 52.4068 0.23308ZM54.1876 0.221494C54.0856 0.215057 53.6777 0.222515 53.8376 0.242416C53.863 0.245432 54.1781 0.242145 54.1876 0.221494ZM3.44855 1.76385C3.39477 1.72705 3.69928 1.72551 3.74304 1.73073C3.76025 1.73294 3.51867 1.81171 3.44855 1.76385ZM44.8551 0.402498C44.7543 0.40992 44.4967 0.407398 44.4509 0.428893C44.5743 0.421466 44.8868 0.442103 44.8551 0.402498ZM35.4803 0.665577C35.3261 0.628303 35.0634 0.640611 35.13 0.69347C35.4198 0.680799 35.0932 0.645232 35.4803 0.665577ZM46.8294 0.304303C46.7461 0.303077 46.6887 0.357197 46.6972 0.359477C46.7823 0.381076 46.9119 0.32286 46.8294 0.304303ZM40.7714 0.507876C40.7664 0.485473 40.5046 0.503204 40.5407 0.516681C40.5516 0.521234 40.776 0.525984 40.7714 0.507876ZM60.6152 0.21109C60.4963 0.188316 60.8611 0.174939 60.9702 0.201459C61.023 0.237064 60.6278 0.213517 60.6152 0.21109ZM49.0732 0.266939C49.0853 0.233215 48.6783 0.260834 48.8395 0.285105C48.8801 0.291164 49.0694 0.278198 49.0732 0.266939ZM52.951 0.156515C52.6804 0.200151 53.8202 0.212564 53.5202 0.167055C53.4945 0.163781 52.9766 0.152701 52.951 0.156515ZM54.8149 0.158253C54.7669 0.154353 54.7905 0.0417007 54.9869 0.0831347C55.0127 0.0885044 54.8926 0.119368 54.9137 0.12596C54.9274 0.129636 55.3491 0.141567 55.367 0.138857C55.3876 0.135705 55.363 0.0998973 55.3839 0.0956821C55.4061 0.0909598 55.6722 0.12045 55.8069 0.119878C56.0613 0.118708 56.0891 0.0886524 56.1108 0.0884035C56.1731 0.0878279 56.2776 0.1085 56.4017 0.10785C57.0288 0.104028 57.9901 0.0781054 58.4874 0.144159C58.0437 0.116852 57.6242 0.14366 57.1798 0.152873C57.3094 0.0898726 56.5332 0.202914 56.9879 0.129349C56.7735 0.144085 54.974 0.169134 54.8155 0.158248C54.8153 0.15825 54.8151 0.158251 54.8149 0.158253ZM33.1471 0.664466C33.26 0.622496 32.6751 0.649693 32.6261 0.695674C32.7042 0.699341 33.1334 0.669244 33.1471 0.664466ZM35.8516 0.486304C35.9063 0.477997 35.9568 0.401405 36.2451 0.430612C36.2454 0.430604 36.2457 0.430596 36.2459 0.430588C36.3302 0.439119 36.2351 0.460311 36.2507 0.466349C36.2565 0.46883 36.5188 0.498119 36.302 0.510759C35.9707 0.530125 36.2692 0.455948 36.0922 0.460586C36.0704 0.461188 35.7365 0.512078 35.7572 0.520357C35.7594 0.521328 35.858 0.509699 35.8753 0.512871C35.9389 0.524843 35.9089 0.549195 35.9178 0.550035C35.9475 0.551965 36.4757 0.495853 36.5527 0.528375C36.5799 0.538751 35.708 0.591437 35.6782 0.586548C35.6569 0.583522 35.6638 0.518275 35.6417 0.512563C35.6305 0.509717 35.2845 0.544793 35.2389 0.540234C35.2257 0.538914 35.2156 0.537362 35.2082 0.536056C35.2616 0.554516 34.9458 0.562877 34.9547 0.539904C34.96 0.530814 35.1776 0.529216 35.1853 0.530537C35.1887 0.531091 35.1917 0.531908 35.1945 0.53245C35.1497 0.509301 35.881 0.487799 35.7219 0.456229C35.9324 0.429747 35.6936 0.51063 35.8516 0.486304ZM36.8753 0.414855C36.8537 0.422351 36.832 0.429849 36.8104 0.437347C37.1772 0.409443 37.6182 0.429037 38.0429 0.416089C38.151 0.412842 38.0254 0.374769 38.1674 0.381956C38.2797 0.387762 38.4112 0.422648 38.3481 0.433176C38.3316 0.435821 38.0998 0.417467 37.984 0.423531C37.6415 0.441474 37.7288 0.474738 37.7089 0.476302C37.6868 0.477984 37.4692 0.459306 37.3502 0.464029C37.0493 0.476032 36.9181 0.502027 36.5112 0.485673C36.7445 0.454911 36.615 0.407499 36.8753 0.414855ZM50.7819 0.131415C50.7961 0.108569 51.0381 0.124128 51.126 0.119238C51.1118 0.142112 50.8709 0.126424 50.7819 0.131415ZM14.4313 1.2062C14.3578 1.24581 14.9194 1.23545 14.7704 1.2098C14.7375 1.2041 14.502 1.20401 14.4313 1.2062ZM16.9524 1.14127C17.0271 1.12844 16.7238 1.11225 16.7256 1.14087C16.7263 1.15004 16.9424 1.14294 16.9524 1.14127ZM41.6939 0.310129C41.7084 0.308559 41.9172 0.310973 41.9237 0.312682C42.0624 0.348131 41.3779 0.344558 41.6939 0.310129ZM20.0162 0.990176C19.7548 1.02341 20.5444 1.00691 20.3022 0.984233C20.2902 0.983135 20.0289 0.988562 20.0162 0.990176ZM21.1102 0.946C21.0478 0.949427 20.7696 0.946869 20.7662 0.958291C20.7614 0.976697 21.0798 0.97829 21.1102 0.946ZM46.8813 0.16313C46.8501 0.122122 47.2219 0.144943 47.3484 0.136769C47.38 0.177788 47.0114 0.154748 46.8813 0.16313ZM44.5601 0.190125C46.1116 0.117571 45.7711 0.215263 44.4689 0.212828C44.4663 0.186118 44.463 0.194718 44.5601 0.190125ZM46.5457 0.145332C46.4906 0.173397 46.3152 0.169713 46.1956 0.170498C46.2168 0.151382 46.461 0.152169 46.5457 0.145332ZM13.7606 1.17221C13.8557 1.13511 14.2885 1.16169 14.2123 1.17828C14.1944 1.18191 13.7253 1.19202 13.7606 1.17221ZM41.8241 0.270763C41.7871 0.231188 42.2552 0.234723 42.2903 0.242786C42.4352 0.275032 41.8629 0.260693 41.8241 0.270763ZM49.0844 0.0778724C49.167 0.0443262 49.3947 0.0559139 49.5481 0.053201C49.4761 0.0818515 49.2129 0.0757155 49.0844 0.0778724ZM47.9986 0.076658C48.0083 0.0752139 48.2182 0.0733919 48.2274 0.0746582C48.3999 0.101854 47.806 0.107186 47.9986 0.076658ZM2.74061 1.50447C2.74754 1.5032 2.90599 1.49964 2.91155 1.50064C3.05399 1.52614 2.57843 1.5367 2.74061 1.50447Z" fill="#57718C"/>
</svg>
