<svg width="38" height="6" viewBox="0 0 38 6" fill="none" xmlns="http://www.w3.org/2000/svg">
<path d="M3.89662 5.24857C3.91874 5.24328 4.00933 5.2465 4.04815 5.2423C4.00671 5.2854 3.81685 5.26775 3.89662 5.24857ZM7.69943 2.06684C7.66776 2.07891 7.63608 2.09098 7.60439 2.10304C7.69675 2.10341 7.8197 2.08796 7.90544 2.09176C7.91947 2.09243 7.88525 2.12356 7.91828 2.12266C7.95131 2.12176 7.94237 2.0829 7.98999 2.07554C8.04322 2.0674 8.29253 2.07843 8.37777 2.07215C8.69665 2.04846 9.0179 2.00479 9.33886 2.0001C9.01048 2.05086 9.34536 2.05856 9.43683 2.03992C9.45745 2.03564 9.4479 1.96291 9.78195 1.95949C9.99363 1.95735 9.80596 2.07448 10.1538 1.9992C9.87895 1.94382 10.1451 1.93155 10.3562 1.91533C10.3929 1.9125 10.6895 1.90417 10.8194 1.89247C10.8639 1.88845 10.9292 1.84578 10.9882 1.84094C11.0287 1.83763 11.0607 1.85656 11.121 1.85157C11.404 1.82845 11.6797 1.80895 11.9628 1.79776C11.8035 1.90677 12.0955 1.83126 12.109 1.83512C12.1782 1.85745 11.8735 1.88475 11.9953 1.89365C12.1638 1.87971 12.3318 1.86582 12.4992 1.85199C12.3609 1.84877 12.6757 1.75751 12.7377 1.78584C12.7072 1.70053 13.5079 1.8124 13.6282 1.77566C13.6529 1.76794 13.486 1.73544 13.8685 1.73082C13.9099 1.73039 13.8959 1.75759 13.9174 1.75377C13.9302 1.75148 14.0033 1.66319 14.0894 1.70395C14.1213 1.71881 13.9285 1.78594 14.358 1.73666C14.1822 1.66262 14.949 1.65321 15.0931 1.66556C15.0641 1.65594 15.0352 1.64632 15.0062 1.63671C15.1479 1.65866 15.1711 1.62826 15.2026 1.62786C15.33 1.62621 15.5033 1.64454 15.6226 1.63444C15.761 1.62275 15.7582 1.56998 15.9204 1.58049C15.8815 1.57122 15.8426 1.56196 15.8037 1.55271C15.9151 1.54858 16.0262 1.5445 16.137 1.54045C15.885 1.62615 16.1925 1.54034 16.2128 1.53758C16.2453 1.53302 16.1998 1.56452 16.2548 1.55755C16.2604 1.55661 16.2506 1.5302 16.3356 1.52191C16.513 1.50471 16.4868 1.54029 16.5613 1.53532C16.5681 1.53473 16.5428 1.51194 16.6707 1.49831C17.0761 1.45507 16.67 1.51699 16.6544 1.52133C16.634 1.52703 16.7806 1.61969 16.4312 1.60517C16.5486 1.6094 16.563 1.65353 16.5762 1.65383C16.588 1.65402 16.7888 1.63533 16.7997 1.63311C16.8974 1.61183 16.8087 1.58652 16.8276 1.57985C16.8424 1.57449 17.0887 1.59947 17.1403 1.50382C17.2622 1.58171 17.0774 1.58516 16.8832 1.61019C16.8555 1.6294 17.0713 1.6332 17.0827 1.63246C17.3597 1.61538 17.202 1.55483 17.2598 1.50643C17.2901 1.48111 17.4054 1.52197 17.2978 1.46559C17.5476 1.44374 17.398 1.48931 17.4146 1.4937C17.4394 1.50012 17.5256 1.47684 17.5367 1.47858C17.5529 1.48115 17.4985 1.50624 17.5621 1.51005C17.5727 1.51052 17.6721 1.467 17.5399 1.4571C17.7156 1.45177 17.7006 1.42071 17.7642 1.48129C17.8789 1.35246 17.857 1.54773 17.9054 1.55164C18.0338 1.5619 17.991 1.46878 17.9975 1.46372C18.0421 1.43111 18.3945 1.44283 18.4823 1.42381C18.4518 1.49455 18.202 1.44134 18.149 1.45791C17.9701 1.51314 18.4067 1.4769 18.2801 1.5711C18.334 1.54409 18.3891 1.517 18.4434 1.48997C18.5488 1.53936 18.4057 1.57217 18.6788 1.53554C18.7209 1.48497 18.4853 1.55467 18.531 1.51409C18.558 1.49025 18.7167 1.47603 18.719 1.46418C18.7214 1.44993 18.5788 1.47514 18.6001 1.45218C18.6475 1.40252 19.1709 1.41605 18.7758 1.46502C18.8868 1.45763 18.9479 1.5471 19.0441 1.51241C19.1056 1.48996 18.7456 1.38262 19.2757 1.37494C19.2897 1.41807 19.0654 1.40031 19.0596 1.404C19.0518 1.40933 19.098 1.5058 19.1052 1.51027C19.1326 1.52473 19.6626 1.44051 19.7823 1.48343C19.7344 1.42887 20.1886 1.44965 20.2354 1.42953C20.2481 1.42398 20.1976 1.39177 20.2113 1.38727C20.2968 1.36021 20.5391 1.40902 20.648 1.40446C20.7703 1.39934 20.753 1.37001 20.7598 1.36968C20.8135 1.36832 20.7719 1.39124 20.8046 1.38933C20.8521 1.38651 21.1993 1.37118 21.2152 1.36602C21.2201 1.36441 21.1623 1.333 21.2366 1.32228C21.2493 1.32043 21.2441 1.36176 21.4624 1.33188C21.7278 1.29581 21.2754 1.2912 21.3835 1.24218C21.5559 1.29383 21.5494 1.23353 21.5959 1.23572C21.6122 1.23655 21.7355 1.28132 21.8649 1.27097C21.7723 1.28442 21.6793 1.29792 21.5858 1.31147C21.6788 1.31536 21.8563 1.2944 21.9319 1.30049C21.9687 1.30345 21.941 1.34735 22.0203 1.34188C22.037 1.3405 22.0986 1.23386 21.8927 1.29145C21.874 1.2556 21.9746 1.27411 22.0199 1.26121C22.0269 1.25921 22.0503 1.19633 22.1117 1.23128C22.1261 1.23993 21.9814 1.42739 22.3746 1.27611C22.3873 1.27124 22.3414 1.2512 22.3537 1.24588C22.3622 1.24226 22.4643 1.24587 22.4753 1.2421C22.4865 1.23807 22.4362 1.2162 22.4496 1.21065C22.5183 1.18206 22.615 1.27431 22.4706 1.27462C22.5195 1.28404 22.5682 1.29348 22.6167 1.30293C22.5618 1.23243 22.6899 1.27837 22.7585 1.27248C23.1889 1.23532 22.8976 1.20293 22.9704 1.17439C23.0867 1.12862 23.0033 1.25863 23.1761 1.21186C23.193 1.20748 22.9754 1.16537 23.3945 1.1738C23.3332 1.17903 23.2695 1.1844 23.2097 1.18958C23.2471 1.25864 23.4329 1.17317 23.4466 1.17148C23.6096 1.15339 23.5012 1.1845 23.7401 1.13581C23.7541 1.13294 23.7795 1.13851 23.808 1.13952C23.8233 1.14002 23.8395 1.13929 23.8554 1.1355C23.9482 1.11349 23.8918 1.1106 23.8066 1.11043C23.7177 1.1101 23.5955 1.11293 23.5884 1.09841C23.5854 1.09186 23.6919 1.08372 23.8049 1.07775C23.9335 1.07095 24.0696 1.06685 24.0783 1.06992C24.15 1.096 23.8609 1.09381 23.9175 1.1278C23.9394 1.13962 24.621 1.07932 24.7578 1.08736C24.9136 1.09664 24.9933 1.18922 24.9885 1.08127C25.0385 1.18511 25.0747 1.111 25.095 1.11079C25.3405 1.10931 25.3375 1.11053 25.55 1.09084C25.5965 1.08655 25.6371 1.11697 25.6532 1.11082C25.6626 1.10712 25.6433 1.0735 25.6894 1.06083C25.7517 1.04345 26.1467 1.06193 26.1756 1.07985C26.2055 1.09763 26.0111 1.09507 26.0471 1.12488C26.1893 1.12199 26.3176 1.10888 26.463 1.10626C26.5223 1.10531 26.4927 1.12844 26.5183 1.12784C26.5295 1.12763 26.7308 1.10028 26.7216 1.09258C26.7024 1.07431 26.0747 1.11279 26.2386 1.06768C26.2699 1.05895 26.3827 1.10482 26.3629 1.0442C26.9231 1.03506 27.4846 1.02795 28.0458 1.02389C27.7273 1.07999 27.3584 1.05191 27.0254 1.06889C26.9795 1.07115 26.8214 1.07134 26.8417 1.10161C27.1312 1.09833 27.4855 1.06922 27.761 1.08018C27.7699 1.08054 27.7381 1.10951 27.7717 1.11279C27.8348 1.11887 28.0335 1.06739 28.0668 1.078C28.0727 1.08051 27.9606 1.12089 27.9958 1.14312C28.0861 1.20016 28.1038 1.06681 28.1821 1.06594C28.2431 1.06517 28.6425 1.11762 28.7418 1.07453C28.8473 1.02836 28.4441 1.0577 28.4739 1.02161C28.746 0.978159 29.0219 1.00893 29.2756 0.998777C29.2802 0.998561 29.2397 0.971776 29.2978 0.966591C29.3987 0.957599 29.4255 0.996346 29.4741 1.00161C29.5261 1.00717 29.7104 0.99798 29.7364 1.01187C29.7396 1.01369 29.7025 1.05334 29.6967 1.05454C29.6148 1.07214 29.5866 1.02215 29.5792 1.02164C29.552 1.02026 29.5255 1.04017 29.5005 1.03953C29.4593 1.03845 29.4362 1.02101 29.3812 1.02062C29.3432 1.02028 29.3806 1.05389 29.3439 1.05312C29.3299 1.05268 29.1848 0.977398 29.1737 1.05791C29.1698 1.08183 30.3465 1.09264 30.4654 1.07327C30.3634 1.06464 30.262 1.05621 30.1616 1.04793C30.3634 1.06855 30.6148 1.00233 30.6304 1.09707C31.395 1.09915 32.1578 1.11095 32.9384 1.14955C33.0765 1.16345 32.9977 1.22057 33.2278 1.21387C33.1702 1.19156 33.111 1.16936 33.052 1.14734C33.1705 1.16476 33.6906 1.22146 33.7784 1.21679C33.7899 1.21605 33.8082 1.16175 33.9416 1.16761C34.0613 1.1732 34.0737 1.21597 34.138 1.2297C34.1911 1.24109 34.2511 1.23608 34.2664 1.23989C34.278 1.24288 34.2808 1.26854 34.3099 1.27591C34.4011 1.29906 34.334 1.22046 34.4163 1.31142C34.3939 1.31212 34.3715 1.31286 34.3488 1.31362C34.3799 1.32022 34.4137 1.32924 34.4423 1.33882C34.5181 1.36363 34.5608 1.3915 34.44 1.39104C34.4388 1.39103 34.4376 1.39099 34.4365 1.39091C34.4142 1.38924 34.4375 1.36933 34.4177 1.36721C33.6852 1.30006 34.1288 1.37894 34.4363 1.39278C34.4737 1.39465 34.5087 1.39562 34.5395 1.39523C34.608 1.43776 35.0324 1.47562 35.0463 1.48704C35.064 1.50042 34.9875 1.51721 35.0777 1.55734C35.0956 1.56096 35.675 1.65835 35.4578 1.66277C35.4128 1.66207 35.1415 1.59986 35.0755 1.5915C35.2139 1.68983 35.6023 1.65952 35.6458 1.6751C35.8118 1.72693 35.3082 1.66374 35.684 1.76211C35.975 1.84517 35.7133 1.72322 35.8319 1.73216C35.9 1.73457 36.2226 1.89823 36.2397 1.8297C36.3617 1.86607 36.2783 1.87684 36.292 1.8848C36.3059 1.89095 36.5507 1.96676 36.6217 2.02037C36.6302 2.02654 36.5845 2.0469 36.5928 2.05429C36.6091 2.06547 36.8374 2.17626 36.8475 2.18078C36.8545 2.18207 36.8171 2.12288 36.843 2.12817C36.8752 2.13299 37.0824 2.2704 37.0974 2.27143C37.1234 2.26823 36.8561 2.11435 36.9181 2.10989C37.0385 2.18845 37.2428 2.29953 37.3306 2.32961C37.3089 2.32348 37.1988 2.24533 37.1602 2.21631C37.2127 2.18307 37.4444 2.35566 37.3395 2.33149C37.4021 2.34985 37.3764 2.31496 37.4168 2.31834C37.4278 2.31957 37.4945 2.37051 37.5122 2.37282C37.5155 2.37283 37.4606 2.30331 37.4808 2.30522C37.523 2.31148 37.7008 2.46356 37.7059 2.47513C37.7343 2.51817 37.5885 2.42018 37.5586 2.4259C37.5567 2.42853 37.6459 2.56092 37.643 2.56387C37.6242 2.60359 37.5132 2.47172 37.5028 2.51315C37.5316 2.54725 37.5587 2.58028 37.584 2.61195C37.4499 2.54686 37.1755 2.31021 37.0666 2.29624C37.3264 2.45351 37.5177 2.62602 37.4518 2.69874C37.4255 2.73132 37.3295 2.68418 37.3254 2.69476C37.3148 2.73507 37.4492 2.79268 37.4506 2.79656C37.4522 2.80096 37.4522 2.80389 37.4508 2.80558C37.4508 2.80558 37.4508 2.80559 37.4508 2.80559C37.4387 2.8244 37.2726 2.70779 37.2554 2.70787C37.2305 2.71102 37.2561 2.82784 37.2449 2.84018C37.2414 2.84107 37.1132 2.76103 37.1349 2.81527C37.1578 2.87034 37.2532 2.95007 37.254 2.95477C37.2623 2.98387 37.0823 2.85671 37.0685 2.86008C37.063 2.86203 37.1368 2.96238 37.1328 2.97135C37.1295 2.98042 37.047 2.93916 37.0004 2.93976C36.9661 2.94024 37.0166 3.0013 37.0038 2.99549C36.9964 2.99097 36.8269 2.86171 36.8146 2.85948C36.7986 2.85498 36.8243 2.90506 36.8146 2.90609C36.8011 2.90757 36.7498 2.86024 36.7516 2.87326C36.7568 2.88266 36.9113 3.11036 36.8922 3.12788C36.8655 3.15712 36.7106 2.92106 36.8089 3.1987C36.8095 3.20043 36.8631 3.2288 36.8637 3.23061C36.8733 3.27635 36.6987 3.19284 36.8822 3.33213C36.5168 3.10498 36.8034 3.34572 36.7111 3.35953C36.676 3.36409 36.5433 3.27729 36.54 3.28085C36.5331 3.31677 36.5882 3.32542 36.5921 3.34902C36.5938 3.36097 36.4614 3.30788 36.4734 3.34506C36.4796 3.36282 36.5984 3.44751 36.6018 3.45403C36.6344 3.50753 36.5635 3.48107 36.5641 3.50124C36.5642 3.51419 36.6335 3.57119 36.6343 3.57444C36.6344 3.5792 36.514 3.5357 36.4863 3.53343C36.4649 3.53104 36.5087 3.58755 36.4954 3.58351C36.4164 3.55771 36.3345 3.40701 36.3943 3.58075C36.3979 3.59131 36.4455 3.62471 36.4462 3.62704C36.4564 3.6727 36.3698 3.60856 36.3409 3.61816C36.2907 3.633 36.4224 3.70257 36.307 3.65299C36.3635 3.72926 36.4037 3.75997 36.503 3.83212C36.2348 3.64113 36.1024 3.68353 36.3601 3.87957C36.2751 3.80883 36.2486 3.86722 36.2239 3.84934C36.2083 3.83696 36.1338 3.70923 36.1048 3.8566C36.1004 3.87401 36.1793 3.90544 36.1377 3.91816C35.989 3.79993 36.1208 3.93245 36.1184 3.93734C36.0642 3.98501 35.755 3.72303 35.6601 3.70829C35.5703 3.68381 35.4664 3.71745 35.4468 3.71131C35.3796 3.69038 35.445 3.67693 35.4334 3.66089C35.4226 3.64368 35.2023 3.64781 35.1923 3.64319C35.1545 3.61999 35.2052 3.59289 35.2014 3.59C35.1587 3.55321 34.8518 3.5209 34.7654 3.49941C34.7655 3.52419 34.9349 3.55656 34.8218 3.57678C34.6886 3.60077 34.699 3.49251 34.6962 3.48701C34.5386 3.46225 34.3767 3.44135 34.2115 3.42333C33.7633 3.37458 33.2954 3.34636 32.8272 3.32863C32.8336 3.38639 33.2518 3.36209 33.262 3.37117C33.3137 3.41756 32.6116 3.3851 32.5209 3.36409C32.5881 3.37867 32.6543 3.39342 32.7189 3.40831C32.6057 3.47101 32.3551 3.3767 32.1911 3.40305C32.138 3.41153 32.2391 3.43947 32.2367 3.44121C32.1774 3.46588 32.0811 3.44403 32.1539 3.41054C32.0055 3.44116 32.0292 3.40474 31.9172 3.40027C31.9113 3.40007 31.9594 3.42774 31.87 3.4377C31.8263 3.44221 31.6075 3.44011 31.5759 3.46362C31.5637 3.47345 31.6761 3.57909 31.6905 3.48912C31.9294 3.53564 31.7677 3.44886 31.8617 3.45206C31.8759 3.45282 31.8434 3.50224 32.0779 3.48254C32.0322 3.57222 31.7595 3.50058 31.7149 3.51134C31.6187 3.53277 32.0135 3.5842 32.0866 3.51529C32.0509 3.58547 32.1153 3.52528 32.2025 3.53004C32.2978 3.53527 32.2545 3.55542 32.3073 3.55676C32.4504 3.56086 32.3929 3.50937 32.5069 3.55768C32.3976 3.41487 32.7079 3.54522 32.7969 3.58565C32.6491 3.58704 32.5004 3.58949 32.3518 3.59283C32.3602 3.60037 32.3686 3.60791 32.3769 3.61545C32.338 3.61341 32.2968 3.61137 32.2588 3.60948C32.2651 3.6026 32.2714 3.59572 32.2778 3.58885C32.0775 3.63 32.0246 3.57822 32.0097 3.57732C31.7979 3.5678 31.5479 3.56603 31.3329 3.56531C31.3006 3.56528 31.3207 3.61062 31.0853 3.57503C31.009 3.56378 31.0812 3.52811 30.9942 3.53365C30.886 3.63049 30.8894 3.55357 30.8572 3.55359C30.7658 3.55405 30.7087 3.5784 30.7001 3.5787C30.5865 3.58321 30.4201 3.58085 30.2947 3.58599C30.2924 3.58639 30.357 3.61524 30.2767 3.60746C30.2495 3.60463 29.9898 3.48151 29.7665 3.52697C29.8256 3.53443 29.884 3.54196 29.9419 3.54955C29.8742 3.5384 29.393 3.57994 29.5116 3.61148C29.5837 3.63063 29.7573 3.54571 29.7789 3.62381C29.6192 3.60223 28.7349 3.65889 28.6648 3.64341C28.6551 3.64108 28.7136 3.61397 28.7002 3.61109C28.6895 3.60887 28.4861 3.62076 28.4598 3.6118C28.4437 3.60646 28.5322 3.58824 28.5246 3.57929C28.5188 3.57287 28.265 3.56963 28.2506 3.60205C28.3137 3.58724 28.4885 3.59318 28.3977 3.62282C28.3861 3.62651 28.3241 3.60781 28.3097 3.61249C28.1781 3.65562 28.5737 3.63416 28.6363 3.63286C28.3891 3.68046 28.0011 3.64475 27.7106 3.68143C27.5938 3.6589 27.8811 3.6349 27.749 3.61744C27.4751 3.58135 27.6779 3.65665 27.6696 3.66031C27.6036 3.68938 27.3637 3.55437 27.3671 3.66364C27.2671 3.65086 27.2996 3.63585 27.1598 3.65541C27.1786 3.66228 27.1973 3.66915 27.216 3.67602C27.0627 3.74503 26.7243 3.59857 26.7493 3.58542C26.8141 3.55018 26.9878 3.5943 27.0034 3.59249C27.025 3.58987 27.0834 3.47652 27.3226 3.56688C27.4173 3.48887 26.9447 3.53084 27.1586 3.47203C27.0119 3.48564 26.4056 3.45819 26.323 3.49453C26.3128 3.49923 26.3642 3.57122 26.2141 3.5398C26.1428 3.52484 26.3129 3.51679 26.2799 3.50129C26.1753 3.45291 24.8255 3.54696 24.5686 3.56304C24.5518 3.56394 24.5569 3.54067 24.5403 3.54168C24.4874 3.54488 24.3096 3.58792 24.2183 3.58185C24.4069 3.61515 24.0451 3.63636 23.9501 3.6365C23.9444 3.6365 23.939 3.63644 23.9338 3.63631C23.8113 3.63318 23.8148 3.59532 23.7566 3.59C23.5214 3.5687 23.1653 3.68345 22.9786 3.60337C22.9926 3.6919 22.6621 3.57635 22.5154 3.58349C22.4001 3.58905 22.2343 3.65712 22.3931 3.68452C22.19 3.69138 21.987 3.71914 21.7985 3.73497C21.7675 3.73759 21.8088 3.70891 21.7559 3.71422C21.7511 3.71489 21.7459 3.74105 21.7004 3.74626C21.3288 3.78945 21.5075 3.72455 21.4368 3.71232C21.3974 3.70547 21.3683 3.70259 21.3471 3.7023C21.563 3.68513 21.815 3.66106 21.8822 3.65663C21.8209 3.60282 21.4002 3.69428 21.2748 3.68599C21.2704 3.68567 21.2837 3.65343 21.2793 3.65346C21.2793 3.65346 21.2792 3.65347 21.2791 3.65347C21.2326 3.65364 20.9331 3.68217 20.9974 3.7161C21.0138 3.72521 21.1529 3.71732 21.3149 3.70483C21.2713 3.71432 21.3061 3.74765 21.2984 3.74959C21.2057 3.77221 20.9708 3.75104 20.8907 3.75094C20.872 3.75098 20.8746 3.77344 20.8716 3.77367C20.7974 3.77275 20.8241 3.70668 20.7518 3.77736C20.6131 3.7048 21.0024 3.75117 20.9719 3.70067C20.951 3.66149 20.0908 3.73239 20.0983 3.79545C20.0949 3.78887 20.0826 3.78117 20.0579 3.77304C20.0033 3.75492 19.7624 3.7756 19.7223 3.78963C19.7155 3.79232 19.7219 3.85347 19.7133 3.85453C19.6923 3.85716 19.3984 3.82615 19.2906 3.86889C19.3503 3.87399 19.4098 3.87911 19.4692 3.88424C19.1128 3.90574 19.1682 3.92083 19.2888 3.9321C19.2947 3.93191 19.3007 3.9339 19.3064 3.93381C19.3995 3.94192 19.5178 3.94807 19.5199 3.9528C19.5286 3.97076 18.9226 4.01686 19.0364 3.95307C19.0508 3.9444 19.3342 3.95308 19.1924 3.92073C19.167 3.91509 18.9891 3.93725 18.9796 3.93333C18.9144 3.90734 19.3042 3.84462 19.254 3.80519C19.1605 3.85109 19.0373 3.83711 18.9296 3.85394C18.8804 3.86157 18.87 3.89303 18.864 3.89397C18.7731 3.90743 18.8224 3.87216 18.792 3.87478C18.7757 3.8763 18.599 3.95567 18.6275 3.85909C18.0363 3.96432 18.4667 3.93837 18.8317 3.9113C18.7192 3.95254 18.49 3.94953 18.39 3.96357C18.354 3.96863 18.3773 3.9989 18.3166 4.00888C18.1924 4.02931 17.5846 4.02973 17.428 4.03076C17.5238 4.01373 17.4936 3.98108 17.4192 3.988C17.3447 3.99494 17.4102 4.03698 17.3959 4.0428C17.3812 4.04881 17.0274 4.04873 16.9712 4.05816C17.2327 4.02545 17.1705 3.99486 16.9484 4.00489C16.9799 3.99305 17.0115 3.9812 17.043 3.96937C16.9139 3.99119 16.6353 3.95588 16.5601 3.97615C16.5483 3.97939 16.5929 4.00555 16.5863 4.00737C16.5203 4.02373 16.2919 4.00837 16.2826 4.01882C16.2742 4.02755 16.3716 4.04577 16.3367 4.05986C16.3295 4.06283 16.2347 4.02961 16.1439 4.04485C16.1102 4.05048 16.1323 4.07646 16.1239 4.07857C16.0535 4.0961 16.0928 4.0476 15.9628 4.06308C15.8676 4.07449 15.7987 4.12381 15.6655 4.11721C16.1044 4.14724 15.7354 4.14626 15.5572 4.17481C15.5284 4.17939 15.5565 4.22728 15.3818 4.21404C15.7444 4.10155 15.2741 4.17332 15.1763 4.1785C15.171 4.17853 15.1671 4.14603 15.1193 4.14851C15.1153 4.14879 15.1225 4.17047 15.0782 4.17495C14.6595 4.2173 14.9264 4.1755 14.8453 4.15878C14.811 4.15164 14.6094 4.19567 14.5543 4.19991C14.5417 4.20079 14.5461 4.17752 14.4972 4.18151C14.4106 4.18864 14.3344 4.21795 14.2771 4.22352C14.2705 4.22406 14.2676 4.18796 14.1607 4.20651C14.1306 4.21171 14.0974 4.2267 14.1411 4.23436C14.2851 4.25952 14.5559 4.18298 14.7192 4.20693C14.8687 4.22866 14.4035 4.261 14.3788 4.26277C14.3698 4.26345 14.46 4.23972 14.367 4.24204C14.2871 4.24414 14.1478 4.31565 14.0295 4.30952C14.0206 4.30908 13.9234 4.26212 13.9275 4.25876C13.9313 4.25626 14.0746 4.23561 14.0527 4.22163C14.0501 4.22004 13.9586 4.22621 13.9459 4.21557C13.9304 4.20263 13.8822 4.06893 13.8624 4.06676C13.8116 4.06153 13.8463 4.09051 13.8136 4.09042C13.7437 4.09029 13.4981 4.06552 13.4935 4.11323C13.5335 4.11348 13.574 4.11371 13.6143 4.11396C13.3913 4.13307 13.4883 4.14705 13.4572 4.15793C13.424 4.16967 13.4309 4.12756 13.356 4.12844C13.3399 4.1286 13.0271 4.15733 13.0338 4.1744C13.2055 4.13556 13.1444 4.19097 13.1525 4.19137C13.1831 4.19277 13.22 4.16152 13.2607 4.15949C13.5469 4.1457 13.2615 4.20955 13.3298 4.2169C13.3532 4.21935 13.3979 4.19183 13.4078 4.19246C13.4401 4.19448 13.4426 4.22661 13.4638 4.22265C13.5132 4.21343 13.4522 4.17164 13.456 4.16902C13.498 4.13774 13.6767 4.1619 13.5703 4.21841C13.6371 4.23206 13.641 4.1714 13.6945 4.19214C13.8009 4.23318 13.6453 4.23082 13.6038 4.24141C13.4544 4.2796 13.41 4.25924 13.198 4.28075C13.1217 4.28844 13.0328 4.32349 12.9973 4.32738C12.9751 4.32982 12.7562 4.24176 12.7606 4.4013C12.6779 4.39115 12.5427 4.29454 12.4584 4.30478C12.3828 4.31405 12.4105 4.3688 12.4036 4.37144C12.393 4.37556 12.3008 4.37705 12.2702 4.38702C12.2343 4.39877 12.2539 4.41909 12.1966 4.43158C12.0538 4.46263 12.0538 4.40492 12.0387 4.40215C11.8651 4.37002 11.9452 4.44693 11.9077 4.45595C11.8732 4.46422 11.3745 4.46494 11.2707 4.49248C11.3125 4.47821 11.3545 4.46391 11.3964 4.44963C11.3177 4.41875 11.2408 4.48246 11.2353 4.41826C11.2267 4.52305 11.0655 4.46386 11.0186 4.46961C11.0001 4.47192 11.0027 4.48951 10.9795 4.49179C10.8889 4.5008 10.6827 4.5001 10.6338 4.5123C10.4226 4.56485 10.9733 4.59343 11.016 4.59455C10.9305 4.59896 10.4446 4.654 10.6719 4.68928C10.707 4.69472 10.7653 4.64428 10.7846 4.64119C10.9153 4.62067 10.8146 4.66903 10.8252 4.67231C10.8431 4.67756 10.9269 4.63169 10.95 4.635C10.9577 4.63604 10.9113 4.67691 11.0364 4.66956C10.9775 4.71009 10.6231 4.70329 10.5772 4.71491C10.5611 4.71904 10.6685 4.79042 10.3633 4.7342C10.3673 4.74122 10.3712 4.74824 10.3752 4.75526C10.208 4.76918 10.0404 4.78315 9.87245 4.79715C9.88964 4.77925 9.98184 4.73953 9.86341 4.75444C9.79519 4.76304 9.8483 4.79692 9.84212 4.7984C9.7818 4.81259 8.69635 4.87151 8.48649 4.88957C8.41511 4.89563 8.21709 4.93872 8.20214 4.94027C8.1118 4.94923 7.78894 4.95104 7.72488 4.95952C7.68494 4.96488 7.72514 4.99345 7.6892 4.99436C7.65579 4.99517 7.68832 4.96284 7.67834 4.96223C7.59505 4.9568 6.97666 5.03736 6.82652 5.01887C6.91767 5.02136 7.36393 4.93147 7.35335 4.9109C7.35121 4.90812 7.24037 4.89251 7.21853 4.90515C7.17953 4.8816 7.05672 4.96931 6.98596 4.95838C6.97795 4.95713 7.00609 4.91064 6.88106 4.91083C6.83806 4.91092 6.72776 4.95303 6.61234 4.9217C6.45083 4.95114 5.58664 4.95076 5.53124 5.00242C5.52967 5.00505 5.65174 5.01343 5.57131 5.03847C5.46436 5.07175 5.55614 4.97753 5.42893 4.9784C5.40985 4.97851 5.05746 5.01092 5.04637 5.01711C4.94287 5.07347 5.2524 5.07287 5.2485 5.07888C5.23869 5.09401 4.98312 5.11981 4.97264 5.11709C4.96252 5.11422 5.16666 5.03508 4.91776 5.07653C4.94699 5.08241 4.97621 5.08829 5.00543 5.09417C4.88861 5.11721 4.87435 5.07283 4.84561 5.07198C4.75623 5.06917 4.66473 5.14413 4.51666 5.06897C4.4775 5.04901 4.53835 5.01989 4.53342 5.01683C4.48616 4.98961 4.43384 5.07437 4.36174 5.01857C4.35634 5.01441 4.51223 4.96769 4.23552 4.98607C4.25492 4.99059 4.2743 4.99511 4.29376 4.99962C4.2556 5.01514 3.97636 5.0415 3.93844 5.04097C3.8278 5.0394 3.921 4.99145 3.81071 5.00381C3.8855 5.05598 3.54949 5.0859 3.56554 5.03561C3.52248 5.1003 3.2339 5.07191 3.09943 5.07944C3.01462 5.08423 2.84348 5.12266 2.81633 5.12132C2.78325 5.11967 2.79041 5.07702 2.73052 5.07164C2.71336 5.07011 2.53922 5.11267 2.38153 5.07958C2.35098 5.07321 2.28321 5.00622 2.33777 4.98469C2.43117 4.94784 2.61548 4.99313 2.61036 4.95121C2.60465 4.90638 2.36334 4.94942 2.29749 4.94793C1.99348 4.94098 2.16477 4.88145 2.15603 4.86747C2.13352 4.83362 1.96845 4.84577 1.96134 4.84306C1.93184 4.83092 2.04701 4.79522 2.04734 4.77362C2.0476 4.74551 1.88502 4.70569 1.92058 4.69384C1.9715 4.67698 2.12061 4.70926 2.12974 4.70663C2.24865 4.67141 2.07885 4.61786 2.03111 4.58917C2.01663 4.58033 2.07065 4.56059 2.05899 4.55849C1.88107 4.52674 2.02818 4.65178 1.91117 4.6506C1.80677 4.64956 1.93757 4.59815 1.93344 4.59607C1.92814 4.59384 1.80381 4.59984 1.78338 4.58612C1.77326 4.57924 2.09051 4.47503 2.07454 4.43889C1.97213 4.45395 1.86963 4.46901 1.76727 4.48406C1.75596 4.43631 1.90643 4.46194 1.92143 4.45593C1.9516 4.44388 1.86396 4.4252 1.86663 4.40968C1.86796 4.39984 1.96658 4.35843 1.87443 4.35025C1.84274 4.34742 1.77928 4.38568 1.66287 4.35873C2.057 4.28796 1.77999 4.27924 1.76715 4.26292C1.75454 4.24658 1.9414 4.19363 1.71179 4.21616C1.69552 4.12285 1.71476 4.18612 1.77904 4.16522C1.85779 4.13956 1.67052 4.12101 1.96496 4.12488C1.94535 4.082 1.71019 4.10087 1.69752 4.09819C1.68655 4.09573 1.7374 4.07058 1.71826 4.0645C1.49199 3.99425 1.64609 4.02293 1.57857 3.97292C1.57256 3.96845 1.36271 3.96228 1.52092 3.94374C1.80911 3.91001 1.93421 3.96426 1.9739 3.82771C1.75598 3.78414 1.50269 3.88752 1.43773 3.89334C1.33834 3.9021 1.43963 3.86801 1.42685 3.86122C1.42243 3.85904 1.3368 3.86703 1.33551 3.86495C1.26756 3.76737 1.71719 3.8377 1.8555 3.81068C1.81708 3.79796 1.77867 3.78523 1.74028 3.77251C1.79093 3.76851 1.84165 3.7645 1.89234 3.7605C1.64858 3.74607 1.88304 3.74948 1.93779 3.66312C1.95009 3.64372 1.79343 3.68607 1.97111 3.62254C1.83673 3.61961 1.8782 3.59994 1.7588 3.63124C1.75969 3.59804 2.0294 3.5426 2.13558 3.51848C1.75393 3.50678 1.97817 3.61334 1.64617 3.57125C1.58813 3.61617 1.74402 3.59775 1.73172 3.60535C1.68758 3.63266 1.57772 3.60134 1.45396 3.69496C1.43382 3.71032 1.52588 3.74729 1.39376 3.75405C1.37915 3.75473 1.29259 3.72367 1.29358 3.72093C1.3028 3.69145 1.38675 3.69665 1.38938 3.68442C1.39184 3.67285 1.29945 3.6859 1.29892 3.68277C1.29366 3.64696 1.37547 3.66383 1.36305 3.65334C1.33621 3.63051 0.997054 3.5754 1.43444 3.56891C1.07513 3.63385 1.39076 3.61176 1.53068 3.58669C1.56637 3.58036 1.57403 3.55825 1.62476 3.54736C1.69001 3.53328 1.76779 3.53844 1.80165 3.53221C1.83804 3.5254 1.62619 3.48853 1.92868 3.48351C1.77181 3.44323 1.50461 3.51526 1.35155 3.48985C1.04277 3.43847 1.55766 3.38852 1.61092 3.37797C1.62511 3.37513 1.57517 3.3493 1.5846 3.34689C1.60001 3.34311 1.89372 3.33693 1.92101 3.31097C1.94821 3.28503 1.81381 3.31925 1.80308 3.29482C1.79583 3.27837 2.14713 3.22482 1.95511 3.2261C1.82273 3.22703 1.58436 3.31105 1.53857 3.24095C1.73192 3.22195 1.92545 3.20294 2.11887 3.18394C2.01092 3.16333 1.90296 3.14272 1.79499 3.12212C2.01201 3.09876 2.20219 3.11745 2.40609 3.06396C1.90376 3.00839 2.56249 2.98231 2.56903 2.97102C2.57094 2.9644 2.37083 2.9054 2.33849 2.89432C2.50958 2.85502 3.03529 2.80624 2.72132 2.73786C2.77857 2.75421 2.91059 2.69555 2.90855 2.69193C2.88876 2.65376 2.59522 2.69901 2.64099 2.66028C2.69405 2.61534 2.77598 2.66601 2.86151 2.6558C3.30035 2.60307 3.16551 2.40593 3.60958 2.40887C3.6003 2.40215 3.59103 2.39543 3.58175 2.3887C4.06232 2.36827 4.54343 2.34783 5.02405 2.32748C5.20819 2.25224 5.70441 2.18086 5.95112 2.17142C6.00073 2.16948 6.24556 2.18625 6.2642 2.1908C6.29884 2.1996 6.11274 2.2162 6.19835 2.23133C6.2164 2.2344 6.6279 2.22095 6.59643 2.18782C6.54998 2.18682 6.40696 2.21402 6.38296 2.20732C6.21313 2.15933 7.48306 2.12242 7.54489 2.0945C7.51606 2.08497 7.48721 2.07544 7.45836 2.06591C7.53878 2.06621 7.61914 2.06653 7.69943 2.06684ZM4.21382 5.12755C4.16827 5.16593 4.04639 5.14753 3.97604 5.16215C3.87888 5.18253 3.72108 5.32918 3.78384 5.18857C3.92726 5.16822 4.07059 5.14788 4.21382 5.12755ZM6.32337 5.03963C6.22551 5.02715 6.29541 4.94632 6.37665 4.97259C6.38567 4.97559 6.45571 5.05639 6.32337 5.03963ZM5.30801 5.07106C5.31202 5.06978 5.39569 5.06623 5.39868 5.06722C5.47563 5.09268 5.22335 5.10324 5.30801 5.07106ZM10.1983 4.70866C10.0921 4.71889 10.1737 4.7828 10.238 4.7501C10.242 4.74803 10.2053 4.70804 10.1983 4.70866ZM10.1225 4.71178C10.0358 4.65544 9.87714 4.79151 10.0089 4.77023C10.0217 4.76811 10.1265 4.71454 10.1225 4.71178ZM5.97679 5.0324C5.98611 5.00801 6.08665 5.0128 6.1296 5.01563C6.12989 5.03731 6.01842 5.02697 5.97679 5.0324ZM8.50329 4.85836C8.50647 4.83946 8.15911 4.86342 8.13771 4.88947C8.19103 4.87549 8.50063 4.87533 8.50329 4.85836ZM9.38987 4.77376C9.3809 4.77112 9.26151 4.78388 9.26607 4.80006C9.32596 4.81775 9.43036 4.78572 9.38987 4.77376ZM11.155 4.65946C11.1612 4.65492 11.0652 4.55625 11.2812 4.61126C11.3129 4.61931 11.2038 4.65381 11.215 4.65684C11.2386 4.66265 11.2571 4.66487 11.2718 4.66453C11.1739 4.67959 11.0716 4.69033 11.0613 4.68464C11.0128 4.65774 11.1523 4.66137 11.155 4.65946ZM12.0764 4.52155C12.0958 4.50319 12.2269 4.50387 12.257 4.50897C12.2621 4.50997 12.2428 4.55619 12.3013 4.54905C12.3482 4.54325 12.2749 4.50191 12.3671 4.50334C12.4602 4.50473 12.3386 4.5454 12.3468 4.54722C12.3579 4.54957 12.4997 4.51974 12.497 4.54671C12.495 4.56668 12.3407 4.56321 12.3029 4.56986C12.2546 4.5784 12.3157 4.60751 12.2339 4.60569C12.1825 4.60458 12.2071 4.54486 12.1961 4.54263C12.187 4.54085 12.01 4.58574 12.0767 4.52172C12.0766 4.52166 12.0765 4.52161 12.0764 4.52155ZM11.2983 4.66024C11.291 4.66268 11.2824 4.66428 11.2718 4.66453C11.2807 4.66316 11.2895 4.66167 11.2983 4.66024ZM4.49143 5.0835C4.54288 5.098 4.39523 5.13085 4.33714 5.11124C4.33491 5.09244 4.48325 5.08126 4.49143 5.0835ZM11.3873 4.60711C11.5355 4.61206 11.4286 4.63902 11.2983 4.66024C11.3393 4.64664 11.3375 4.60548 11.3873 4.60711ZM7.21853 4.90515C7.225 4.90906 7.22937 4.91553 7.2306 4.92656C7.21353 4.91554 7.21164 4.90914 7.21853 4.90515ZM7.56243 4.90219C7.67789 4.86071 7.43885 4.8779 7.44192 4.90191C7.44324 4.91096 7.55782 4.90384 7.56243 4.90219ZM10.3349 4.70303C10.3239 4.70043 10.4839 4.58781 10.2469 4.67997C10.3769 4.68351 10.2413 4.7035 10.2439 4.71228C10.2509 4.73753 10.4662 4.69875 10.5148 4.70669C10.5494 4.65842 10.371 4.71157 10.3351 4.70301C10.335 4.70302 10.335 4.70302 10.3349 4.70303ZM13.7487 4.43895C13.7209 4.46768 13.6267 4.46502 13.5633 4.46748C13.5911 4.43875 13.6855 4.4414 13.7487 4.43895ZM30.1984 3.6171C29.771 3.64831 29.7155 3.54001 30.1061 3.57702C30.114 3.5778 30.2242 3.60563 30.1984 3.6171ZM26.5181 3.69702C26.4751 3.651 26.6108 3.63774 26.6994 3.65394C26.7195 3.65757 26.7948 3.70296 26.7113 3.71577C26.7118 3.65782 26.5806 3.64097 26.5181 3.69702ZM11.4686 4.5712C11.5094 4.53663 11.6427 4.5507 11.7123 4.55099C11.6717 4.57989 11.5307 4.57715 11.4686 4.5712ZM28.7924 3.58932C28.7472 3.58693 28.7176 3.62931 28.7256 3.63255C28.7612 3.64742 28.8443 3.61156 28.7924 3.58932ZM11.0434 4.59388C11.0362 4.57527 11.209 4.54568 11.2241 4.59185C11.1867 4.59086 11.0485 4.60551 11.0434 4.59388ZM13.6286 4.4323C13.6008 4.42438 13.7404 4.39812 13.7835 4.405C13.7814 4.42542 13.6468 4.43744 13.6286 4.4323ZM28.0647 3.62519C28.0245 3.62288 27.9231 3.62513 27.9123 3.64231C27.8992 3.66373 28.0475 3.65167 28.0647 3.62519ZM35.2704 3.84601C35.2726 3.85414 35.1438 3.87609 35.0918 3.85038C34.9956 3.80044 35.2714 3.83862 35.2704 3.84601ZM29.219 3.55702C29.346 3.59357 29.2052 3.55858 29.2116 3.60006C29.2949 3.59952 29.5117 3.59684 29.3623 3.55922C29.3322 3.55197 29.2589 3.55876 29.219 3.55702ZM29.1013 3.54594C29.0879 3.55975 28.9963 3.60455 29.0763 3.5995C29.1132 3.59711 29.1713 3.54847 29.1013 3.54594ZM34.4688 3.70866C34.3744 3.65681 34.8316 3.74551 34.8381 3.75667C34.8442 3.76127 34.848 3.76525 34.85 3.76839C34.8688 3.75985 34.9502 3.77368 34.9539 3.80471C34.9297 3.79715 34.8634 3.78699 34.8558 3.78231C34.8526 3.7803 34.8503 3.77854 34.8488 3.77691C34.8174 3.79516 34.4907 3.71712 34.4688 3.70866ZM33.6744 3.58822C33.8021 3.54363 33.8164 3.63793 33.8055 3.63991C33.6683 3.66654 33.7612 3.60585 33.7575 3.60231C33.7481 3.59615 33.6508 3.62029 33.6748 3.58825C33.6746 3.58824 33.6745 3.58823 33.6744 3.58822ZM34.3116 3.67301C34.3156 3.67218 34.416 3.68777 34.419 3.68976C34.4956 3.73077 34.2179 3.68769 34.3116 3.67301ZM12.7706 4.41203C12.8506 4.4161 12.7748 4.45502 12.7217 4.44619C12.7173 4.44526 12.7005 4.40841 12.7706 4.41203ZM29.0383 3.55667C29.0168 3.55057 28.5543 3.53899 28.5811 3.58975C28.6237 3.58217 29.1513 3.59473 29.0383 3.55667ZM25.5423 3.67163C25.6261 3.66826 25.5368 3.72073 25.4917 3.70471C25.475 3.69875 25.521 3.67252 25.5423 3.67163ZM10.8055 4.56533C10.721 4.59749 10.733 4.50729 10.8097 4.53294C10.8127 4.53395 10.8088 4.56408 10.8055 4.56533ZM26.2048 3.6705C25.9187 3.71213 25.983 3.55557 26.354 3.59183C26.3429 3.59914 26.3317 3.60645 26.3204 3.61376C26.7468 3.61916 26.3496 3.6233 26.2462 3.63631C26.2066 3.64125 26.241 3.66544 26.2051 3.67067C26.205 3.67062 26.2049 3.67056 26.2048 3.6705ZM25.1084 3.68861C24.8257 3.59278 25.3593 3.6388 25.5046 3.61816C25.3627 3.66961 25.1736 3.67149 25.4318 3.70578C25.0574 3.73185 25.2105 3.68145 25.1958 3.67849C25.1777 3.67528 25.1204 3.69273 25.1084 3.68861ZM25.8326 3.65504C25.8486 3.65115 25.9666 3.6682 26.0103 3.6627C25.9516 3.70245 25.7291 3.68123 25.8326 3.65504ZM32.8012 3.56456C32.8118 3.53582 32.8373 3.5152 32.9266 3.52992C32.8984 3.54335 32.8401 3.55356 32.8012 3.56456ZM4.11264 4.98052C4.04737 4.98278 3.91687 4.98049 3.95871 5.00842C3.96324 5.01073 4.11359 4.9977 4.11264 4.98052ZM27.6813 3.57416C27.6688 3.57092 27.3097 3.58144 27.435 3.60912C27.474 3.61734 27.7959 3.60193 27.6813 3.57416ZM29.5249 3.52549C29.4955 3.52577 29.3739 3.53391 29.3713 3.54088C29.3638 3.56488 29.5127 3.54854 29.5249 3.52549ZM3.78189 4.9727C3.77311 4.97025 3.57426 4.98892 3.5971 5.00157C3.64047 5.02548 3.81202 4.98113 3.78189 4.9727ZM13.0554 4.32531C13.072 4.32316 13.096 4.35336 13.1018 4.35334C13.1155 4.35291 13.4188 4.32129 13.3052 4.3693C13.2866 4.37731 12.847 4.38985 12.7891 4.38956C12.7642 4.34759 12.9548 4.37679 13.0001 4.3694C13.0081 4.36804 13.0109 4.33141 13.0553 4.3255C13.0553 4.32543 13.0553 4.32537 13.0554 4.32531ZM33.2743 3.55618C33.2875 3.52859 33.6289 3.53254 33.6224 3.56631C33.5053 3.56185 33.3896 3.55858 33.2743 3.55618ZM33.101 3.54239C33.0294 3.51926 33.1995 3.52118 33.2502 3.53282C33.2499 3.55133 33.1106 3.54563 33.101 3.54239ZM28.8484 3.43833C28.8132 3.44603 28.9231 3.48346 28.8989 3.49194C28.8836 3.49722 28.804 3.48423 28.7788 3.49755C28.7718 3.50174 28.8539 3.53745 28.8771 3.5352C28.9101 3.53214 28.8772 3.50316 28.9133 3.50201C29.0339 3.4982 29.1445 3.51676 29.2561 3.51365C29.2663 3.51331 29.1872 3.49409 29.2736 3.49237C29.2862 3.49208 29.3693 3.52154 29.4742 3.51465C29.7012 3.41269 29.8731 3.50479 30.166 3.46555C30.155 3.45648 29.9342 3.43532 29.9225 3.43468C29.6755 3.42261 29.2406 3.43023 28.9808 3.43687C28.914 3.43851 28.9474 3.45823 28.9192 3.45972C28.897 3.46086 28.9225 3.42207 28.8484 3.43833ZM4.14583 4.95719C4.11225 4.92131 4.00494 4.95261 3.93521 4.9553C3.962 4.9879 4.07731 4.95332 4.14583 4.95719ZM31.5414 3.47309C31.5066 3.47429 31.4026 3.46233 31.3933 3.47377C31.3826 3.48865 31.533 3.49884 31.5414 3.47309ZM14.7732 4.22682C14.7765 4.22557 14.8603 4.22233 14.8635 4.22333C14.9401 4.24909 14.6889 4.25866 14.7732 4.22682ZM16.7809 4.10894C16.8442 4.10034 16.9074 4.08454 16.9306 4.11404C16.8899 4.1118 16.7748 4.13085 16.7809 4.10894ZM19.549 3.94137C19.5337 3.90177 19.7255 3.91676 19.7615 3.9183C19.7493 3.937 19.5605 3.96987 19.549 3.94137ZM32.7926 3.43724C32.9063 3.44409 32.8846 3.382 32.9541 3.41271C32.9657 3.41794 32.9972 3.54681 32.877 3.49392C32.8548 3.48446 32.9441 3.45763 32.7926 3.43724ZM26.4137 3.59063C26.4407 3.56274 26.5364 3.56675 26.5992 3.56635C26.5864 3.58674 26.4565 3.58694 26.4137 3.59063ZM3.4201 4.96624C3.36271 4.93224 3.11084 4.97715 3.17529 4.99784C3.18445 5.00049 3.38444 4.96719 3.4201 4.96624ZM11.7586 4.43018C11.8609 4.39376 11.6444 4.39856 11.5779 4.43199C11.6087 4.42808 11.7517 4.43259 11.7586 4.43018ZM18.8828 3.9587C18.8878 3.95719 18.9981 3.95351 19.0031 3.95468C19.0952 3.98031 18.783 3.99089 18.8828 3.9587ZM16.1178 4.10078C16.1566 4.07385 16.4175 4.07746 16.4792 4.0982C16.4232 4.13749 16.0709 4.1343 16.1178 4.10078ZM32.3248 3.44014C32.4078 3.44089 32.4818 3.45048 32.5569 3.46338C32.539 3.48328 32.3347 3.45563 32.3248 3.44014ZM19.2888 3.9321C19.2947 3.93191 19.3007 3.9339 19.3064 3.93381C19.3004 3.93329 19.2945 3.93264 19.2888 3.9321ZM30.49 3.41625C30.4205 3.40881 30.4352 3.44642 30.4395 3.44753C30.4921 3.45919 30.5682 3.42467 30.49 3.41625ZM4.06215 4.90663C4.03562 4.87426 3.91965 4.90849 3.85135 4.90493C3.87281 4.93045 4.00785 4.91383 4.06215 4.90663ZM24.8115 3.63277C24.7227 3.6 25.0745 3.54036 25.1532 3.56058C25.1591 3.5831 24.8239 3.63719 24.8115 3.63277ZM11.4308 4.40024C11.4221 4.37406 11.2734 4.416 11.3062 4.4265C11.3271 4.43318 11.4361 4.41651 11.4308 4.40024ZM25.3334 3.56784C25.3665 3.55817 25.4449 3.58097 25.4185 3.59824C25.3845 3.62038 25.3249 3.57057 25.3334 3.56784ZM28.3378 3.42917C28.3234 3.4255 28.1248 3.45913 28.2081 3.48375C28.2659 3.50087 28.2736 3.46204 28.287 3.46151C28.3026 3.46109 28.6185 3.49885 28.3378 3.42917ZM22.8079 3.71088C22.8826 3.69663 22.9742 3.70372 23.0522 3.69888C23.0215 3.71701 22.8411 3.73106 22.8079 3.71088ZM12.0094 4.3556C11.9909 4.34597 11.4976 4.3714 11.7798 4.38642C11.7964 4.38723 12.0663 4.38467 12.0094 4.3556ZM32.7926 3.43724C32.7783 3.43639 32.7614 3.43448 32.7423 3.43114C32.7613 3.43288 32.7782 3.43533 32.7926 3.43724ZM31.4957 3.4067C31.522 3.3874 31.3902 3.38151 31.3502 3.39177C31.3383 3.41543 31.4925 3.40934 31.4957 3.4067ZM23.0567 3.6715C23.1012 3.65803 23.1832 3.66561 23.2383 3.66144C23.23 3.67995 23.0773 3.68879 23.0567 3.6715ZM19.8991 3.82682C19.9895 3.83231 20.0991 3.82103 20.0994 3.79887C20.1015 3.80221 20.106 3.80562 20.1134 3.80888C20.1209 3.8121 20.2157 3.79633 20.2574 3.80148C20.5101 3.83165 19.2956 3.88369 19.9961 3.78047C19.9638 3.79592 19.9315 3.81137 19.8991 3.82682ZM15.7592 4.071C15.706 4.04737 15.5672 4.08981 15.6045 4.0981C15.63 4.10377 15.8118 4.09485 15.7592 4.071ZM17.7084 3.935C17.6931 3.93111 17.5563 3.9583 17.5535 3.97266C17.6339 3.98272 17.7783 3.95309 17.7084 3.935ZM15.3682 4.0639C15.3362 4.06184 15.2983 4.10767 15.3022 4.10932C15.3355 4.12309 15.4231 4.08465 15.3682 4.0639ZM32.5613 3.31237C32.5143 3.29841 32.3691 3.32586 32.335 3.35375C32.3292 3.34807 32.3127 3.34043 32.2833 3.33109C32.2834 3.33109 32.2835 3.33109 32.2836 3.33109C32.2466 3.31547 31.0481 3.29109 31.8511 3.35432C31.8763 3.35643 31.8426 3.3302 31.9446 3.33621C31.9514 3.33664 31.9544 3.35767 31.975 3.35901C32.0207 3.36174 32.2774 3.38 32.3284 3.36458C32.3288 3.36848 32.332 3.37226 32.3391 3.37583C32.4022 3.4075 32.5958 3.32295 32.5613 3.31237ZM17.9837 3.91447C17.9553 3.90839 17.867 3.92113 17.8589 3.94018C17.9036 3.94657 18.0497 3.92866 17.9837 3.91447ZM11.9892 4.28076C11.9317 4.26921 11.7898 4.30693 11.8342 4.31923C11.8615 4.32679 12.0556 4.29398 11.9892 4.28076ZM17.099 3.97822C17.428 3.98002 17.1771 3.97167 17.2256 3.94148C17.1835 3.95372 17.1413 3.96597 17.099 3.97822ZM33.9995 3.46728C33.9519 3.45649 34.0138 3.40842 34.0637 3.44265C34.0794 3.4535 34.0259 3.47319 33.9995 3.46728ZM35.8577 3.87782C35.857 3.82215 35.9599 3.91495 35.8977 3.916C35.895 3.91547 35.8588 3.88031 35.8577 3.87782ZM34.6477 3.51001C34.6102 3.53707 34.5921 3.53793 34.5029 3.51742C34.6366 3.5272 34.5182 3.48103 34.6477 3.51001ZM20.0983 3.79545C20.0989 3.79673 20.0995 3.79766 20.0994 3.79887C20.0987 3.79772 20.0984 3.79661 20.0983 3.79545ZM15.0618 4.09158C15.0189 4.06681 14.9047 4.07602 14.9405 4.10141C14.9436 4.10378 15.0463 4.11285 15.0618 4.09158ZM32.335 3.35375C32.3402 3.35879 32.3374 3.36189 32.3284 3.36458C32.3281 3.36091 32.3305 3.3575 32.335 3.35375ZM15.6737 4.03084C15.6708 4.05151 15.8463 4.04852 15.8531 4.0457C15.9511 4.00406 15.7459 4.02509 15.6737 4.03084ZM10.8373 4.32672C10.8285 4.32944 10.8898 4.37834 10.9239 4.35539C10.9504 4.33759 10.8704 4.31643 10.8373 4.32672ZM34.9432 3.54772C34.9898 3.5567 35.0554 3.57051 35.0611 3.59746C35.033 3.58721 34.9381 3.56532 34.9432 3.54772ZM35.8273 3.82243C35.7774 3.82918 35.6912 3.78902 35.6305 3.76039C35.6454 3.72309 35.7917 3.81187 35.8273 3.82243ZM32.7062 3.33164C32.7024 3.32985 32.5683 3.31385 32.5857 3.34043C32.612 3.3793 32.7432 3.34705 32.7062 3.33164ZM11.1073 4.33722C11.1677 4.31536 11.0223 4.26973 10.9599 4.31635C10.9279 4.34023 11.0971 4.34089 11.1073 4.33722ZM14.703 4.07823C14.6226 4.09837 14.826 4.11235 14.8523 4.08349C14.8148 4.08367 14.7316 4.07109 14.703 4.07823ZM17.4759 3.87851C17.2141 3.816 17.3628 3.95009 17.4076 3.93477C17.414 3.93259 17.4822 3.87997 17.4759 3.87851ZM2.77187 4.85268C2.73619 4.86598 2.87456 4.89623 2.89038 4.86916C2.90015 4.85223 2.7947 4.8442 2.77187 4.85268ZM21.3471 3.7023C21.3363 3.70315 21.3255 3.70401 21.3149 3.70483C21.3228 3.70311 21.3333 3.7021 21.3471 3.7023ZM13.9562 4.02043C14.1437 4.11932 14.1192 4.03547 14.1349 4.03494C14.1689 4.03398 14.2491 4.05885 14.3134 4.04985C14.2402 4.06697 14.1685 4.084 14.0961 4.10107C14.153 4.10544 14.6613 4.11404 14.67 4.09554C14.6835 4.0691 14.5257 4.0871 14.5209 4.08515C14.514 4.08237 14.4848 4.01308 14.4699 4.01132C14.445 4.00855 14.0243 4.03376 13.9562 4.02043ZM16.9388 3.92365C16.9805 3.92955 16.9939 3.95692 17.0126 3.94903C17.0189 3.94634 17.0183 3.91949 17.0401 3.9112C17.0064 3.91535 16.9726 3.9195 16.9388 3.92365ZM13.6382 4.14032C13.5848 4.11087 13.8158 4.10862 13.8233 4.11182C13.864 4.1315 13.6819 4.16436 13.6382 4.14032ZM15.5859 4.01248C15.5775 4.01108 15.4011 4.01187 15.4036 4.02994C15.4512 4.04085 15.686 4.03021 15.5859 4.01248ZM17.0674 3.9077C17.1297 3.90701 17.2492 3.92677 17.2332 3.88727C17.2331 3.88728 17.233 3.88728 17.2329 3.88729C17.1778 3.89408 17.1223 3.9009 17.0674 3.9077ZM11.3129 4.23834C11.1937 4.18161 11.2533 4.25921 11.3568 4.2733C11.3858 4.24246 11.3325 4.24757 11.3129 4.23834ZM10.943 4.21433C10.9105 4.20483 10.5816 4.23899 10.6341 4.26969C10.6528 4.28063 10.8404 4.23773 10.8492 4.23952C10.8627 4.24214 10.8047 4.28366 10.9052 4.26964C10.8985 4.25728 10.9542 4.21747 10.943 4.21433ZM11.2152 4.2034C11.0984 4.16196 11.0786 4.2537 11.1642 4.24838C11.1976 4.24636 11.2319 4.2094 11.2152 4.2034ZM11.6824 4.1808C11.6408 4.17491 11.5306 4.16954 11.457 4.2044C11.5582 4.2004 11.6593 4.19642 11.7602 4.19245C11.7707 4.17473 11.7188 4.18598 11.6821 4.18081C11.6822 4.18081 11.6823 4.1808 11.6824 4.1808ZM36.3641 3.91126C36.3164 3.83901 36.4705 3.95296 36.4758 3.96599C36.4822 3.99849 36.3842 3.94234 36.3641 3.91126ZM2.00893 4.08193C1.98305 4.07344 1.96434 4.04104 1.91004 4.06231C1.96749 4.0833 2.02494 4.10429 2.08238 4.12528C2.12194 4.06572 2.03723 4.09132 2.00893 4.08193ZM1.78203 3.88919C1.78982 3.88729 1.74092 3.80305 1.84664 3.8544C1.91802 3.88907 1.54663 3.95238 1.47653 3.91827C1.54993 3.89532 1.71497 3.90491 1.78203 3.88919ZM1.10169 3.55595C1.09692 3.54929 1.23833 3.52959 1.25511 3.53338C1.3432 3.55342 1.12752 3.59161 1.10169 3.55595ZM1.55611 3.54223C1.48834 3.52977 1.63522 3.50898 1.67986 3.51577C1.68522 3.5317 1.56657 3.544 1.55611 3.54223ZM36.2705 2.37957C36.2149 2.29199 36.1013 2.38493 36.227 2.40763C36.233 2.40878 36.2726 2.38358 36.2705 2.37957ZM1.23473 3.45877C1.3025 3.47122 1.1556 3.49201 1.11095 3.48522C1.10578 3.4693 1.22442 3.45697 1.23473 3.45877ZM36.2692 2.22609C36.18 2.1448 36.1653 2.29352 36.1761 2.30369C36.2196 2.34343 36.4223 2.3703 36.4668 2.37782C36.1847 2.27205 36.3115 2.26693 36.2692 2.22609ZM35.7625 2.14573C35.6628 2.13346 35.898 2.23032 35.9554 2.20875C35.9084 2.19501 35.7911 2.1488 35.7625 2.14573ZM35.1995 1.96882C35.1485 1.95363 35.0012 1.91591 34.9732 1.93449C35.0286 1.93898 35.1731 1.98714 35.1995 1.96882ZM35.0969 1.88158C35.0224 1.83768 34.9885 1.92255 35.0846 1.91196C35.0883 1.91156 35.0995 1.88376 35.0969 1.88158ZM34.6582 1.78253C34.6113 1.7406 34.541 1.81896 34.6246 1.8319C34.6492 1.83562 34.6631 1.78728 34.6582 1.78253ZM36.1906 2.03079C36.114 1.9869 35.9946 2.0116 36.1601 2.07663C36.0967 2.06376 36.0359 2.05328 35.9747 2.04379C36.1806 2.14765 36.1938 2.06535 36.2575 2.0925C36.3442 2.13192 36.3108 2.19567 36.2845 2.20878C36.3717 2.19406 36.6823 2.33617 36.8542 2.43945C36.717 2.32905 36.4744 2.17276 36.3209 2.10083C36.2786 2.08012 36.2263 2.08092 36.1905 2.06549C36.1313 2.04011 36.1946 2.03334 36.1909 2.0309C36.1908 2.03086 36.1907 2.03083 36.1906 2.03079ZM34.0817 1.71808C33.9363 1.66486 34.021 1.7593 34.1086 1.75181C34.1124 1.75095 34.0854 1.7194 34.0817 1.71808ZM1.02617 3.20828C1.22097 3.23161 1.08437 3.28897 1.48189 3.18914C1.31629 3.25206 1.47503 3.22687 1.44342 3.24989C1.41805 3.26813 1.31795 3.26114 1.37783 3.29044C1.29962 3.25942 0.971229 3.29144 0.956166 3.28656C0.956304 3.28655 0.956442 3.28654 0.95658 3.28653C0.947536 3.28365 0.964014 3.20087 1.02617 3.20828ZM35.2407 1.74553C35.2065 1.63204 35.1579 1.79284 35.0701 1.68937C34.9127 1.7899 35.4473 1.75627 35.4888 1.87983C34.9337 1.74897 35.8331 2.06444 35.4794 1.82223C35.7909 1.95443 35.5908 1.8278 35.6459 1.81963C35.7036 1.81042 35.8871 1.88533 35.8884 1.84553C35.8883 1.8455 35.8882 1.84547 35.8881 1.84544C35.7709 1.81456 35.656 1.78832 35.542 1.76515C35.6324 1.87274 35.4104 1.79549 35.3454 1.71324C35.3095 1.72361 35.2759 1.73463 35.2407 1.74553ZM35.8575 1.97156C35.8457 1.96467 35.5986 1.91221 35.6108 1.93377C35.6385 1.94885 35.9908 2.03542 35.8575 1.97156ZM36.9577 2.44436C36.8745 2.38794 36.7445 2.29364 36.6811 2.29663C36.7708 2.34407 36.8952 2.4405 36.9577 2.44436ZM32.568 1.56159C32.4631 1.58456 32.7846 1.60234 32.6926 1.56842C32.6884 1.56677 32.5727 1.56046 32.568 1.56159ZM34.9882 1.71788C34.882 1.66865 34.9196 1.77804 35.0047 1.76468C35.0096 1.76389 34.9931 1.72015 34.9882 1.71788ZM1.18123 3.18541C1.18647 3.1599 1.46676 3.15881 1.51621 3.15528C1.48966 3.18045 1.17522 3.21467 1.18123 3.18541ZM37.157 2.46863C37.0483 2.27327 36.7379 2.21682 36.7149 2.20418C36.6886 2.18757 36.7501 2.17561 36.7444 2.17139C36.7321 2.15821 36.4364 2.02129 36.4216 2.0216C36.4109 2.0194 36.4412 2.09238 36.3751 2.08352C36.5051 2.08852 37.0193 2.40135 37.0388 2.42165C37.0605 2.43136 36.949 2.28128 37.1568 2.46843C37.1569 2.4685 37.157 2.46857 37.157 2.46863ZM36.6524 2.15811C36.7143 2.21512 36.5099 2.11592 36.4648 2.08874C36.3623 2.02181 36.6446 2.14769 36.6524 2.15811ZM36.1698 1.9304C36.1489 1.91616 35.9414 1.84472 35.9174 1.86582C36.0048 1.92511 36.2173 1.95963 36.1698 1.9304ZM33.9799 1.53124C33.9302 1.53025 33.7971 1.50001 33.788 1.5221C33.8361 1.52224 33.9705 1.55305 33.9799 1.53124ZM2.12036 2.92471C2.04115 2.91104 2.22123 2.89124 2.27451 2.89677C2.27838 2.91163 2.12711 2.92588 2.12036 2.92471ZM35.0033 1.50131C34.98 1.49153 34.6406 1.44988 34.4314 1.43697C34.3574 1.43195 34.2974 1.42918 34.2744 1.42968C34.2964 1.4365 34.3558 1.44598 34.4292 1.45656C34.6343 1.48458 34.965 1.53189 34.9885 1.53031C34.997 1.52911 35.007 1.50299 35.0033 1.50131ZM36.4123 1.85499C36.4891 1.84998 36.5137 1.90453 36.5218 1.90856C36.598 1.94593 36.763 2.02009 36.7131 2.03122C36.5805 1.94563 36.264 1.86712 36.4123 1.85499ZM33.9499 1.37754C33.7446 1.37323 34.1325 1.4403 34.084 1.40169C34.0803 1.39918 33.9717 1.37792 33.9499 1.37754ZM35.0735 1.50281C35.1222 1.47789 35.7561 1.6305 35.8645 1.66894C35.7582 1.69136 35.6914 1.6353 35.567 1.60953C35.5334 1.60271 35.5378 1.6249 35.5342 1.62412C35.4757 1.61222 35.5243 1.59845 35.4885 1.59033C35.4651 1.5818 35.0016 1.52735 35.0735 1.50281ZM36.4574 1.84844C36.5025 1.83832 36.9433 2.04797 36.9559 2.07001C37.0668 2.16922 36.4895 1.8542 36.4574 1.84844ZM35.0241 1.4501C35.0991 1.40238 35.4083 1.49816 35.188 1.48745C35.168 1.48649 35.0834 1.44658 35.0241 1.4501ZM33.9763 1.32459C33.9655 1.32171 33.756 1.294 33.7504 1.31226C33.7804 1.32095 34.0885 1.35249 33.9763 1.32459ZM34.091 1.27216C34.0863 1.27221 34.1316 1.31162 34.0338 1.29859C34.0255 1.29752 34.0143 1.25629 33.8863 1.26075C33.8612 1.26178 33.8202 1.28508 33.8229 1.28693C33.9465 1.35773 34.3533 1.27569 34.091 1.27216ZM36.4777 1.82197C36.4606 1.79677 36.5364 1.77383 36.5786 1.8201C36.5965 1.84006 36.5425 1.84826 36.4777 1.82197ZM33.309 1.26353C33.4325 1.23959 33.0509 1.21443 33.031 1.22194C33.0423 1.241 33.2959 1.2655 33.309 1.26353ZM2.28728 2.67973C2.28719 2.67973 2.2871 2.67974 2.287 2.67974C2.38555 2.68001 2.32647 2.70916 2.33112 2.70964C2.54251 2.7325 2.48328 2.6794 2.5155 2.67051C2.58465 2.65132 2.57799 2.72116 2.69433 2.6846C2.50167 2.73999 2.67843 2.71035 2.68561 2.73456C2.71422 2.8334 2.42222 2.705 2.32628 2.73254C2.31291 2.73636 2.41524 2.76167 2.38108 2.7731C2.27003 2.81017 1.90907 2.67879 2.28728 2.67973ZM36.6204 1.83395C36.6911 1.82469 37.106 2.08834 36.9797 2.04641C36.9614 2.03127 36.5195 1.8305 36.6204 1.83395ZM20.0013 1.57766C20.0829 1.54735 19.8887 1.52849 19.8539 1.55044C19.8367 1.56136 19.9656 1.59096 20.0013 1.57766ZM18.6438 1.5479C18.5454 1.55896 18.4471 1.67159 18.5694 1.64772C18.5824 1.64514 18.656 1.56198 18.6438 1.5479ZM25.1429 1.25082C25.0374 1.21757 25.0468 1.28798 25.1229 1.28346C25.1498 1.28187 25.1462 1.25188 25.1429 1.25082ZM21.1983 1.46398C21.1879 1.46209 21.0685 1.47332 21.0738 1.48932C21.1187 1.49655 21.2661 1.47717 21.1983 1.46398ZM25.1752 1.23925C25.1145 1.25482 25.2225 1.30106 25.2944 1.24772C25.2569 1.25354 25.1815 1.23766 25.1752 1.23925ZM34.8121 1.26059C34.7524 1.28144 34.5949 1.25243 34.5046 1.24739C34.4991 1.20843 34.7463 1.25768 34.8121 1.26059ZM19.065 1.56584C18.9724 1.59788 19.1753 1.60766 19.1547 1.57375C19.152 1.572 19.0687 1.56449 19.065 1.56584ZM28.4878 1.10785C28.4197 1.13227 28.6396 1.15617 28.5782 1.11845C28.5754 1.11691 28.4906 1.10651 28.4878 1.10785ZM29.4415 1.0968C29.3891 1.09027 29.1655 1.09769 29.2525 1.11762C29.2655 1.12066 29.4386 1.1174 29.4415 1.0968ZM2.51949 2.64308C2.48915 2.60636 2.65086 2.60476 2.67437 2.60996C2.68362 2.61216 2.55905 2.69086 2.51949 2.64308ZM24.4698 1.27661C24.4154 1.28408 24.2766 1.28165 24.2537 1.30309C24.3171 1.29576 24.4896 1.3161 24.4698 1.27661ZM19.4916 1.54057C19.4082 1.50335 19.2694 1.51567 19.307 1.56846C19.4602 1.55577 19.2854 1.52028 19.4916 1.54057ZM25.5178 1.17843C25.4743 1.17716 25.4433 1.23134 25.4484 1.2336C25.4966 1.25508 25.5617 1.197 25.5178 1.17843ZM22.2999 1.38227C22.2963 1.3599 22.1585 1.3776 22.1777 1.39109C22.1841 1.39561 22.303 1.40037 22.2999 1.38227ZM32.9038 1.09448C32.8393 1.07136 33.039 1.05908 33.0976 1.08595C33.1236 1.12163 32.9128 1.09702 32.9038 1.09448ZM26.7107 1.1412C26.7161 1.1075 26.5016 1.13502 26.5876 1.15931C26.6093 1.16537 26.709 1.15246 26.7107 1.1412ZM28.7781 1.03142C28.6335 1.07498 29.2452 1.0877 29.0835 1.04212C29.0722 1.03877 28.7892 1.02768 28.7781 1.03142ZM29.7768 1.03385C29.7513 1.02992 29.7624 0.917299 29.8668 0.958853C29.8805 0.964239 29.8174 0.995023 29.8286 1.00163C29.8352 1.00532 30.0605 1.01749 30.0721 1.01477C30.0834 1.01162 30.0695 0.975809 30.0809 0.971602C30.094 0.966876 30.2341 0.996567 30.3056 0.996094C30.4455 0.995056 30.4594 0.965039 30.4709 0.964805C30.5039 0.96428 30.5593 0.985037 30.625 0.984492C30.9631 0.981125 31.4794 0.956233 31.7497 1.02307C31.5097 0.995099 31.281 1.02143 31.0456 1.03019C31.114 0.967311 30.6983 1.07963 30.9402 1.00649C30.8304 1.02088 29.8545 1.04485 29.777 1.03385C29.7769 1.03385 29.7769 1.03385 29.7768 1.03385ZM18.251 1.53983C18.3091 1.4979 17.9998 1.52513 17.9758 1.57106C18.0174 1.57471 18.2439 1.54461 18.251 1.53983ZM19.6825 1.3614C19.7112 1.35309 19.7348 1.27659 19.889 1.30574C19.8892 1.30573 19.8893 1.30572 19.8894 1.30571C19.9345 1.31423 19.8849 1.3354 19.8935 1.34143C19.8966 1.34391 20.0371 1.37314 19.9225 1.38578C19.7476 1.40515 19.9029 1.33104 19.8091 1.33569C19.7978 1.33628 19.6221 1.38717 19.6329 1.39547C19.634 1.39645 19.6872 1.38475 19.6962 1.38793C19.7304 1.39988 19.7155 1.42421 19.7203 1.42504C19.7362 1.42697 20.0141 1.37088 20.0563 1.40336C20.0709 1.41373 19.6116 1.46636 19.5933 1.46161C19.5819 1.45859 19.5828 1.39343 19.5708 1.38772C19.5648 1.38488 19.3826 1.41995 19.3582 1.4154C19.3512 1.41408 19.3458 1.41253 19.3418 1.41123C19.3709 1.42966 19.2037 1.43804 19.2074 1.4151C19.2098 1.40602 19.3253 1.4044 19.3294 1.40572C19.3313 1.40627 19.3329 1.40709 19.3344 1.40763C19.3096 1.38451 19.6967 1.36297 19.6111 1.33145C19.7239 1.30485 19.5981 1.3858 19.6825 1.3614ZM20.2227 1.28995C20.2116 1.29744 20.2004 1.30493 20.1892 1.31242C20.3859 1.28433 20.6185 1.304 20.8438 1.29101C20.9013 1.28774 20.832 1.24978 20.9092 1.25687C20.971 1.26254 21.0407 1.29746 21.008 1.30796C21.0004 1.31055 20.8731 1.29243 20.8128 1.29844C20.6319 1.31639 20.6795 1.34961 20.669 1.35117C20.6574 1.35285 20.5412 1.33421 20.4783 1.33894C20.32 1.3509 20.2482 1.37706 20.0325 1.36071C20.155 1.32997 20.0843 1.28262 20.2227 1.28995ZM27.6183 1.00591C27.6243 0.983112 27.7561 0.998622 27.8039 0.993714C27.7976 1.01655 27.6637 1.001 27.6183 1.00591ZM8.32863 2.0842C8.29144 2.12376 8.58931 2.11331 8.50894 2.08773C8.49117 2.08204 8.36605 2.08199 8.32863 2.0842ZM9.66538 2.01887C9.70459 2.00604 9.54223 1.98997 9.54465 2.01853C9.54533 2.0277 9.66028 2.02054 9.66538 2.01887ZM22.7835 1.1846C22.7911 1.18304 22.902 1.18545 22.9055 1.18715C22.9809 1.22254 22.6157 1.21909 22.7835 1.1846ZM11.2866 1.86743C11.1492 1.90066 11.5679 1.88404 11.4382 1.86144C11.4318 1.86035 11.2932 1.86581 11.2866 1.86743ZM11.8656 1.82313C11.8327 1.82656 11.6847 1.82405 11.6835 1.83546C11.6818 1.85384 11.851 1.85537 11.8656 1.82313ZM25.5408 1.03736C25.5229 0.996379 25.7205 1.01923 25.7872 1.01109C25.8053 1.05208 25.6094 1.029 25.5408 1.03736ZM24.3032 1.06454C25.1277 0.991911 24.9507 1.08949 24.2556 1.08721C24.2533 1.06053 24.2519 1.06912 24.3032 1.06454ZM25.3593 1.01968C25.331 1.04772 25.238 1.04401 25.1747 1.04479C25.1853 1.02569 25.3147 1.0265 25.3593 1.01968ZM7.97049 2.0504C8.01917 2.01334 8.25073 2.03978 8.21092 2.05636C8.20167 2.05999 7.95258 2.07019 7.97049 2.0504ZM22.8511 1.14528C22.83 1.10574 23.0783 1.10927 23.0972 1.11733C23.1752 1.14954 22.8713 1.13522 22.8511 1.14528ZM26.7113 0.952247C26.7526 0.918792 26.8788 0.930213 26.9597 0.92755C26.9243 0.95609 26.7772 0.950194 26.7113 0.952247ZM26.133 0.950972C26.1381 0.949531 26.2491 0.947745 26.254 0.949013C26.3462 0.976221 26.0319 0.981448 26.133 0.950972ZM2.13089 2.38426C2.13451 2.38299 2.21852 2.3794 2.22153 2.3804C2.29843 2.40584 2.04627 2.41646 2.13089 2.38426Z" fill="#57718C"/>
</svg>
