<svg width="371" height="6" viewBox="0 0 371 6" fill="none" xmlns="http://www.w3.org/2000/svg">
<path d="M4.06899 2.02993C6.1263 1.85677 8.85112 1.73681 10.9197 1.69303C11.5674 1.67877 11.2534 1.80337 11.6956 1.79884C12.5752 1.78918 13.3856 1.69152 14.2522 1.69346C14.5406 1.69459 14.1913 1.88174 14.4944 1.87908C16.1371 1.86408 17.6781 1.74396 19.3432 1.69963C19.3527 1.69939 19.3622 1.69915 19.3718 1.6989C27.5829 1.37658 35.6485 1.35881 43.998 1.2843C46.7068 1.26669 50.0536 1.3731 52.8989 1.27147C53.2395 1.25933 53.0346 1.11445 53.0993 1.1015C54.0698 0.903633 53.7438 1.20522 54.3804 1.23711C56.958 1.36237 59.834 1.34489 62.2334 1.26398C63.2807 1.22889 62.2235 0.946606 63.2879 1.10042C63.3622 1.1108 63.0945 1.26996 63.3857 1.2838C64.0622 1.31468 65.2774 1.27512 65.7725 1.28293C66.7357 1.29866 66.8976 1.29561 67.8307 1.28898C69.1526 1.28092 70.5391 1.34677 71.9241 1.29981C72.2158 1.28935 71.8277 1.1321 72.2937 1.10094C72.771 1.06972 73.9816 1.07355 74.3778 1.10826C74.7815 1.14291 74.6109 1.27039 74.6826 1.29873C75.2697 1.53806 76.6803 1.18929 76.8664 1.17955C79.2126 1.06308 81.1564 1.11153 83.3229 1.14413C84.218 1.159 85.1299 1.17094 86.0801 1.1646C88.4787 1.14818 90.9192 1.0696 93.1919 1.06487C95.8954 1.05991 98.0768 1.13458 100.723 1.10526C100.991 1.10242 100.675 0.915461 101.003 0.911605C104.501 0.870754 108.057 0.873217 111.585 0.983507C111.942 0.99472 111.482 1.16259 111.839 1.18369C114.044 1.30912 117.402 1.62061 118.718 0.8935C120.223 0.914846 121.946 0.936333 123.269 1.07598C124.116 1.16588 123.294 1.34989 124.335 1.2684C124.57 1.25024 124.264 1.09352 124.616 1.07823C126.11 1.01397 127.725 1.05856 129.177 0.970937C129.474 0.952738 129.392 0.81147 129.476 0.785625C130.182 0.576214 131.366 0.912788 131.625 0.936555C133.605 1.11357 135.02 1.03521 136.841 1.03271C137.264 1.03221 136.763 0.843928 137.17 0.836616C139.281 0.801244 141.498 0.809315 143.547 0.886258C144.007 0.90382 143.585 1.06737 143.805 1.08405C144.773 1.15565 144.987 0.848861 145.92 0.911647C146.117 0.924492 146.006 1.06359 146.042 1.07869C146.605 1.31581 147.093 0.975268 147.238 0.967277C149.083 0.85857 150.215 1.20838 151.98 1.1523C152.19 1.14524 151.715 0.971345 152.307 0.962226C156.274 0.900366 160.412 0.935307 164.333 1.06374C164.938 1.08348 164.507 1.21663 164.545 1.23277C165.166 1.48482 165.567 1.14336 165.764 1.12996C167.322 1.03303 168.783 1.31407 169.846 0.905725C176.452 1.02717 183.04 0.782149 189.597 1.1294C189.681 1.13341 189.532 1.30134 189.698 1.3086C191.701 1.39789 191.316 1.13839 192.64 0.816763C192.974 0.735998 193.991 1.1182 194.081 1.14619C194.409 1.24931 194.069 1.49939 194.179 1.51925C195.087 1.67514 194.937 0.851027 196.161 0.847999C196.199 0.849288 196.039 1.0014 196.141 1.01626C196.461 1.06291 196.777 1.0019 197.089 1.05344C197.804 1.17273 198.06 1.57277 199.15 1.33723C199.288 1.30668 199.077 0.839464 200.169 0.859201C200.605 0.867456 202.531 0.855361 203.073 0.884552C203.613 0.913701 203.242 1.06517 203.281 1.07162C204.737 1.26789 204.185 1.35163 204.915 1.64517C205.644 1.93761 205.44 1.237 205.737 1.15815C206.035 1.07953 207.101 1.24182 207.363 1.29846C207.624 1.35513 207.298 1.45154 207.531 1.48344C209.074 1.69183 208.207 1.13415 208.715 1.02189C209.911 0.756123 210.85 1.27422 211.949 1.32312C212.247 1.33633 212.004 1.21837 212.268 1.20681C213.317 1.16258 213.948 1.32365 215.138 1.17279C215.333 1.1482 216.295 0.833933 216.917 1.06224C217.006 1.09516 216.755 1.22515 217.201 1.2534C217.864 1.2958 219.074 1.32207 219.791 1.27758C220.321 1.24466 219.713 1.03219 220.381 1.0974C220.677 1.12653 220.128 1.25231 220.685 1.29661C221.239 1.34089 222.654 1.33314 223.191 1.32799C223.727 1.32274 223.433 1.16127 223.477 1.15029C223.739 1.08739 224.767 1.00772 224.858 1.00778C229.471 0.98097 233.698 1.24822 238.179 1.15264C238.529 1.14538 238.296 0.974893 238.349 0.972025C239.548 0.899101 238.604 1.35419 239.44 1.5052C239.32 1.15882 239.81 1.221 240.657 1.18207C241.068 1.16303 240.844 1.0291 240.881 1.01532C241.49 0.810866 241.914 1.07365 242.023 1.12738C242.426 1.32504 242.864 1.09054 243.137 1.22266C243.411 1.35379 242.782 1.54924 243.596 1.54593C243.824 1.42165 243.22 1.09811 243.837 1.04495C246.156 0.843839 250.512 1.09444 252.381 1.11956C254.248 1.1446 254.822 1.12137 255.931 1.1655C257.91 1.24536 257.185 1.0053 258.408 0.894543C259.632 0.783832 259.037 1.37589 259.213 1.50301C259.386 1.63008 259.574 1.49909 259.788 1.56889C260.002 1.63867 259.54 1.72538 260.041 1.75138C260.544 1.77735 261.91 1.55055 262.086 1.41748C262.461 1.13554 261.838 0.840011 263.185 0.943427C263.262 0.949567 263.011 1.10525 263.307 1.12087C265.671 1.23981 268.039 1.2467 270.395 1.35245C270.718 1.36723 270.429 1.54035 270.617 1.55092C272.571 1.66153 271.872 1.36971 272.937 1.04549C272.697 1.47696 273.29 1.74091 274.751 1.7436C275.628 1.74537 275.474 1.55692 276.043 1.42418C276.218 1.38417 276.853 1.51368 276.968 1.42508C277.346 1.13547 276.753 0.811017 278.282 0.940522C278.349 0.946677 278.136 1.1052 278.367 1.11486C279.86 1.17814 280.039 0.875177 281.632 0.839123C282.858 0.810817 285.172 0.99683 286.587 1.02788C286.558 1.51295 287.904 1.40282 288.444 1.06879C289.363 1.0832 290.408 1.0652 291.307 1.11229C291.618 1.12835 291.413 1.2686 291.452 1.28382C292.054 1.52246 292.457 1.19748 292.658 1.18493C294.795 1.06315 296.632 1.31205 298.698 1.07402C298.771 1.06545 298.891 0.728648 299.441 0.975513C299.476 0.992527 298.798 1.14481 299.764 1.15813C300.692 1.17141 302.622 1.35526 303.964 1.20168C304.292 1.1647 305.118 0.892746 305.77 1.10782C305.857 1.13702 305.762 1.23346 305.888 1.2875C306.057 1.35956 306.195 1.3419 306.332 1.31828C306.533 1.28547 306.734 1.24112 307.024 1.41002C307.522 1.70044 308.556 1.9194 309.913 1.72313C309.956 1.71743 310.278 1.44827 310.701 1.45363C311.357 1.46234 312.369 1.5213 313.095 1.52161C313.442 1.52167 313.22 1.35341 313.281 1.35051C315.594 1.26329 317.237 1.41798 319.716 1.49199C320.165 1.50587 321.439 1.28218 322.352 1.46671C323.322 1.66866 322.34 2.48722 324.537 2.30088C325.382 2.22629 326.6 1.18788 328.184 1.73705C331.281 1.61921 334.215 1.91404 337.301 1.74585C337.446 1.73846 337.903 1.45055 338.236 1.45713C338.73 1.46746 338.995 1.60581 339.34 1.61761C340.768 1.67038 342.174 1.56649 343.56 1.59836C344.111 1.61046 343.92 1.74932 344.565 1.76386C345.217 1.77843 345.59 1.59691 346.491 1.69669C347.164 1.77266 347.813 2.15939 348.654 2.21425C348.691 1.84089 349.327 1.85643 350.373 1.7723C350.574 1.75595 350.361 1.62284 350.456 1.6084C350.836 1.54667 351.198 1.65975 351.587 1.59255C351.68 1.5764 351.686 1.44881 351.762 1.42841C352.416 1.25011 353.394 1.55334 353.604 1.60699C354.302 1.80877 354.618 1.64841 355.123 1.73255C355.651 1.81723 354.844 1.89554 355.478 1.95289C356.777 2.07136 358.343 2.08465 359.674 2.12577C360.177 2.1407 359.839 1.96121 359.911 1.95939C360.982 1.94462 362.058 2.1606 362.643 1.84186C363.363 2.74715 363.274 1.77596 364.798 2.01975C364.917 2.03959 365.036 2.46047 364.595 2.50117C364.133 2.54097 363.464 2.38356 362.794 2.45458C362.654 2.47147 361.784 2.83127 361.651 2.85094C360.745 3.00673 360.618 2.38358 360.571 2.34793C360.003 1.96357 358.974 2.35651 358.666 2.37826C357.421 2.48097 356.347 2.37169 355.243 2.4456C354.566 2.49423 354.493 2.89938 353.942 2.87735C352.126 2.80549 351.456 2.22896 349.781 2.69735C349.41 2.79728 349.772 3.24584 348.441 2.87957C348.364 2.85653 347.413 2.52529 346.833 2.72071C346.76 2.74535 346.761 2.87479 346.665 2.88456C346.008 2.94734 345.622 2.83998 344.943 2.88214C344.281 2.92448 343.379 2.98902 342.649 2.9382C342.191 2.90758 341.591 2.66095 341.364 2.59988C340.726 2.42407 340.007 2.69679 339.642 2.48781C339.255 2.27763 340.021 1.96958 338.997 1.82747C338.956 2.16339 338.866 2.5078 338.801 2.84545C336.476 2.81495 334.244 2.69092 331.986 2.69205C331.704 2.69253 331.992 2.87503 331.689 2.88021C330.407 2.90125 329.25 2.76596 327.953 2.81056C326.947 2.84577 325.718 3.03121 324.701 3.07482C324.062 2.68711 322.468 2.81079 321.266 2.77091C320.854 2.75714 320.893 2.65453 320.608 2.6199C319.54 2.49182 320.038 2.83375 319.744 2.88615C318.468 3.10982 318.364 2.33981 316.815 2.35361C316.716 2.35401 315.766 2.76117 315.631 2.7863C314.787 2.95024 315.493 2.64307 314.963 2.61112C313.992 2.55276 313.309 2.45279 312.133 2.56972C311.775 2.60433 310.995 2.85794 310.354 2.65855C310.27 2.63244 310.317 2.49697 310.249 2.48886C309.015 2.35342 308.976 2.77943 308.259 2.92206C307.643 3.04433 306.726 2.84374 306.329 2.73034C306.266 2.71149 306.218 2.69505 306.187 2.6829C305.836 2.54768 306.081 2.54341 306.329 2.55538C306.495 2.56295 306.661 2.57698 306.674 2.56869C306.911 2.41069 306.687 2.36669 306.329 2.35067C306.122 2.34083 305.866 2.3416 305.637 2.33288C305.551 1.91495 304.704 1.93834 305.01 2.31087C305.045 2.35157 305.516 2.31355 305.637 2.33288C305.107 2.74168 304.176 2.79233 303.129 2.40741C302.637 2.22702 303.109 2.01849 301.603 2.09249C300.92 2.12591 301.17 2.41397 300.582 2.49145C299.257 2.66824 297.501 2.39739 296.08 2.43789C295.564 2.45259 296.067 2.61067 295.714 2.62615C294.756 2.66769 293.994 2.54868 293.069 2.60821C292.986 2.6138 293.189 2.77884 292.903 2.78064C290.742 2.79751 288.78 2.69026 286.548 2.68581C285.458 2.6837 283.467 2.77348 282.319 2.7547C280.378 2.72309 277.943 2.48271 276.229 2.54067C275.129 2.57776 275.377 2.74267 274.908 2.85494C274.009 3.07255 272.401 2.68252 272.183 2.62214C272.176 2.62013 273.123 2.58128 272.618 2.49665C272.324 2.32032 272.193 2.62137 272.183 2.62214C272.042 2.58311 270.139 2.54578 269.757 2.57736C269.55 2.5946 269.666 2.75078 269.558 2.75682C267.048 2.8969 264.517 2.93727 261.93 2.86529C261.886 2.86215 261.953 2.68741 261.848 2.68222C260.377 2.60515 259.429 2.81934 258.203 2.94689C256.976 3.07439 255.997 3.03251 255.265 2.73305C254.345 2.7714 253.031 2.63971 252.268 2.55982C251.506 2.47993 251.4 2.82011 251.333 2.82688C249.24 3.0437 248.004 2.8501 245.853 2.8218C244.825 2.80777 242.775 2.85914 241.65 2.89755C240.761 2.92846 240.227 2.84934 239.419 2.90121C239.31 2.90814 239.42 3.05945 239.387 3.06531C238.483 3.24751 238.917 2.87684 238.73 2.81094C238.052 2.57129 237.633 2.44373 236.47 2.55824C236.201 2.58446 235.419 3.11844 234.928 3.15023C234.29 3.19058 234.531 2.99922 233.862 3.04636C233.804 3.05022 233.817 3.16807 233.403 3.16341C231.497 3.14331 229.428 3.07757 227.438 3.09229C227.167 3.09385 227.515 3.2803 227.123 3.28563C225.273 3.3105 223.278 3.30667 221.487 3.22206C221.046 3.20065 221.322 3.0693 221.226 3.03059C220.639 2.79637 219.806 3.13944 219.668 3.14619C216.38 3.31588 213.894 3.01107 210.545 3.16462C210.361 3.17361 208.966 3.54258 208.342 3.22965C208.299 3.20883 207.681 2.88862 207.136 3.10946C207.102 3.12327 207.487 3.28798 206.816 3.27245C206.145 3.25695 205.064 3.36962 204.141 3.18972C203.848 3.13305 203.156 2.81385 202.284 3.07126C202.227 3.08921 200.884 3.66996 200.403 3.27227C200.325 3.20681 200.405 2.78468 199.366 3.00327C199.167 3.04564 199.528 3.13897 199.005 3.19888C198.203 3.2912 197.14 3.18054 196.154 3.37072C195.982 3.40438 195.25 3.69242 194.663 3.4764C194.57 3.44256 194.745 3.3013 194.435 3.28624C192.959 3.214 191.414 3.31185 189.917 3.21799C189.387 3.18502 189.657 2.95664 189.105 2.89695C188.552 2.83728 187.438 2.78132 186.861 2.88682C186.282 2.99237 186.916 3.35373 186.048 3.38494C182.272 3.5205 178.548 3.31741 174.778 3.29674C174.22 3.29364 174.683 3.42222 173.861 3.42699C170.845 3.44501 165.584 3.58231 162.965 3.31452C160.847 3.10005 163.511 2.92351 161.893 2.83859C161.113 2.79811 160.272 3.22272 160.085 3.2366C158.248 3.37736 156.99 3.19451 155.334 3.25731C154.992 3.27034 155.328 3.44025 155.037 3.44945C154.041 3.4824 152.997 3.40955 152.051 3.42672C151.627 3.43482 151.705 3.56517 151.315 3.55642C150.382 3.53698 149.558 3.48491 148.653 3.36564C148.57 3.35477 149.127 3.19034 148.438 3.1867C147.309 3.18132 145.913 3.06549 144.626 3.19486C144.244 3.23376 144.23 3.53234 143.41 3.32915C143.238 3.28672 143.455 2.92744 142.504 3.24067C142.344 3.29272 140.75 3.71638 139.948 3.45011C139.738 3.38002 139.202 3.08869 138.741 3.13654C138.679 3.14413 138.93 3.30353 138.548 3.32062C137.202 3.37806 135.799 3.36637 134.433 3.42197C134.068 3.43714 134.612 3.60093 134.068 3.61823C132.548 3.66617 130.651 3.63156 129.183 3.58568C128.641 3.56844 129.015 3.42945 128.975 3.41465C128.341 3.17397 127.969 3.50392 127.759 3.52394C126.473 3.64397 125.429 3.49413 124.222 3.54014C123.886 3.55244 124.125 3.708 124.058 3.72224C123.367 3.86165 123.881 3.57822 123.443 3.54912C122.216 3.46666 120.874 3.48516 119.636 3.51072C119.176 3.52036 119.694 3.6996 119.281 3.70616C116.824 3.7485 114.383 3.74249 111.992 3.65392C111.544 3.63691 111.826 3.49574 111.732 3.46426C111.087 3.24396 110.153 3.55327 109.938 3.58336C108.963 3.72071 108.586 3.59896 107.732 3.62632C103.5 3.7624 98.2646 3.70878 94.3429 3.68119C90.2455 3.65434 86.891 3.58326 83.3394 3.58561C82.2902 3.58663 81.2358 3.59345 80.1572 3.60875C79.8454 3.613 80.161 3.79674 79.8926 3.80279C76.4275 3.87252 72.939 3.82718 69.4645 3.91112C69.1836 3.91765 69.5896 4.09043 69.1396 4.10683C68.2037 4.14183 66.9551 4.1435 66.0153 4.09596C65.5533 4.07314 66.1708 3.91608 65.7064 3.8962C64.6559 3.8493 63.4257 3.84862 62.3104 3.88809C61.8346 3.90529 62.5537 4.07838 61.9363 4.08669C57.6949 4.14755 53.559 4.22564 49.2746 4.05003C48.9762 4.03805 48.708 3.67514 48.0901 3.75405C48.045 3.85641 48.0492 3.97601 48.0305 4.08499C41.882 4.23133 35.7654 4.20316 29.6143 4.35296C29.3499 4.35964 29.8098 4.54087 29.3021 4.55476C26.4015 4.63665 23.5869 4.78358 20.6255 4.77227C20.3285 4.77026 20.4669 4.42302 19.5795 4.52171C19.5609 4.52376 19.5256 4.52713 19.4773 4.53154C19.1195 4.56406 18.0712 4.65822 17.7761 4.73855C17.7312 4.75199 17.9753 4.89945 17.5581 4.92494C15.1051 5.07167 12.5246 5.1787 10.071 5.22893C9.67204 5.23689 10.0848 5.0419 9.80186 5.04605C7.80278 5.07542 5.62758 5.34725 3.69714 5.30176C2.39757 5.26763 2.86314 4.94863 2.16323 4.69139C2.0641 4.6563 1.25969 4.67665 1.21593 4.50749C1.10316 4.08739 1.47079 3.61538 1.30326 3.16886C1.26671 3.07685 0.25655 3.188 0.850436 2.94997C0.888112 2.9363 1.63066 2.84065 1.81424 2.75213C1.94105 2.6922 1.70098 2.53049 1.96333 2.44969C2.2185 2.36891 2.52248 2.49868 2.95555 2.3934C3.39187 2.28625 3.18664 2.1036 4.06899 2.02993ZM248.825 2.20294C248.113 2.04022 248.008 2.6385 248.778 2.49472C248.815 2.48706 248.861 2.21092 248.825 2.20294ZM334.286 2.2406C333.333 1.97042 332.724 2.35464 333.356 2.56242C334.029 2.77028 334.57 2.32249 334.286 2.2406ZM343.854 2.12648C342.739 1.90737 342.576 2.75411 343.754 2.59424C343.823 2.58524 343.919 2.1392 343.854 2.12648ZM5.32638 4.43602C5.31279 4.42895 4.74709 4.45538 4.73064 4.46417C4.43772 4.67217 5.58105 4.61856 5.32638 4.43602ZM353.341 2.03917C353.004 1.91869 352.06 2.03636 352.467 2.18546C352.79 2.30521 353.764 2.18895 353.341 2.03917ZM211.979 1.61506C211.968 1.60616 211.558 1.5989 211.566 1.64927C211.595 1.81151 212.165 1.76464 211.979 1.61506ZM369.447 2.68327C367.1 2.3975 365.684 1.63802 368.284 1.90682C368.748 1.96054 367.253 2.0451 367.841 2.15699C368.933 2.36124 369.702 2.01052 370.782 2.39529C370.977 2.46447 369.576 2.69764 369.443 2.68375C369.444 2.68359 369.446 2.68343 369.447 2.68327ZM248.414 1.48478C248.4 1.47688 247.827 1.46988 247.815 1.47774C247.506 1.66791 248.656 1.68213 248.414 1.48478ZM188.081 1.29666C188.05 1.27987 186.736 1.26735 186.693 1.28299C186.008 1.59523 188.665 1.62147 188.081 1.29666ZM286.609 1.04083C287.225 0.850201 287.957 0.82825 288.441 1.06854C287.837 1.05533 287.224 1.05301 286.609 1.04083Z" fill="#57718C"/>
</svg>
