<svg width="331" height="7" viewBox="0 0 331 7" fill="none" xmlns="http://www.w3.org/2000/svg">
<path d="M3.73224 3.24931C5.58213 3.18283 8.00669 3.2197 9.85076 3.28183C10.4288 3.30105 10.137 3.40934 10.536 3.42739C11.3164 3.46254 12.0427 3.40489 12.8138 3.448C13.0693 3.46281 12.7527 3.6332 13.0206 3.64488C14.4888 3.70768 15.8764 3.65411 17.3624 3.67824C24.6909 3.79732 31.8812 3.80429 39.2997 3.82268C41.7419 3.82863 44.7147 3.95771 47.2403 3.87119C47.5349 3.86094 47.3581 3.71493 47.414 3.70234C48.2919 3.50944 48.0018 3.80931 48.5761 3.84432C50.8519 3.98252 53.3901 3.97608 55.5837 3.90186C56.5166 3.86985 55.5789 3.58448 56.5194 3.74138C56.5847 3.75197 56.3493 3.91036 56.6052 3.92504C57.1856 3.958 58.285 3.92132 58.7339 3.93017C59.6001 3.948 59.7394 3.94532 60.5623 3.94058C61.6859 3.93548 63.0213 4.00269 64.2234 3.95767C64.4799 3.94759 64.1389 3.78984 64.548 3.75928C64.9575 3.72877 66.0404 3.73376 66.4054 3.76868C66.7706 3.80362 66.6163 3.93097 66.6811 3.95936C67.2147 4.19911 68.4608 3.85124 68.6236 3.84159C71.5725 3.67567 74.0947 3.848 76.8472 3.82536C78.9506 3.80765 81.1927 3.72604 83.1826 3.71868C85.5438 3.71062 87.5808 3.78107 89.8832 3.7474C90.1266 3.74403 89.8399 3.55769 90.1371 3.55319C93.2819 3.50567 96.4463 3.50037 99.5828 3.60195C99.8977 3.6123 99.4933 3.78128 99.808 3.80152C101.723 3.92193 104.808 4.22347 105.942 3.49283C107.251 3.51015 108.824 3.52618 110.002 3.66175C110.76 3.749 110.026 3.93558 110.955 3.85082C111.165 3.83192 110.891 3.67617 111.205 3.65977C112.528 3.59087 113.97 3.63017 115.272 3.5376C115.536 3.5184 115.463 3.37741 115.538 3.35128C116.167 3.13948 117.215 3.47204 117.446 3.4949C119.204 3.66508 120.482 3.58148 122.108 3.57221C122.486 3.57014 122.038 3.38372 122.401 3.37489C124.278 3.3317 126.232 3.3314 128.086 3.39992C128.497 3.41563 128.12 3.58088 128.317 3.59668C129.184 3.66435 129.373 3.35671 130.202 3.4157C130.376 3.42775 130.279 3.56729 130.311 3.58225C130.812 3.81708 131.241 3.47455 131.369 3.46596C132.98 3.34987 134.035 3.69447 135.607 3.63074C135.795 3.62276 135.369 3.45095 135.898 3.43925C139.407 3.36033 143.141 3.37578 146.612 3.48537C147.151 3.50217 146.767 3.63742 146.801 3.65337C147.356 3.90239 147.71 3.55899 147.885 3.54462C149.277 3.44 150.592 3.71358 151.533 3.29987C157.397 3.38795 163.307 3.10633 169.14 3.41479C169.213 3.4183 169.083 3.58711 169.23 3.59339C170.998 3.67091 170.675 3.41349 171.855 3.08384C172.153 3.00104 173.065 3.37699 173.145 3.40441C173.439 3.50552 173.138 3.75767 173.236 3.77686C174.047 3.92715 173.908 3.10399 174.996 3.09338C175.03 3.09443 174.889 3.24753 174.98 3.26175C175.264 3.30642 175.544 3.24344 175.821 3.29304C176.458 3.40783 176.676 3.80639 177.654 3.56384C177.778 3.53239 177.585 3.06657 178.566 3.07922C178.958 3.08467 180.682 3.06 181.162 3.08564C181.643 3.11124 181.314 3.26514 181.349 3.27133C182.644 3.45804 182.154 3.54539 182.803 3.83412C183.451 4.12173 183.265 3.42248 183.527 3.34168C183.785 3.26113 184.742 3.41618 184.98 3.471C185.216 3.52587 184.923 3.62451 185.133 3.65481C186.521 3.85258 185.738 3.30088 186.193 3.18513C187.264 2.91109 188.101 3.4227 189.076 3.46394C189.34 3.47507 189.124 3.35881 189.358 3.3454C190.288 3.29384 190.836 3.45058 191.913 3.291C192.088 3.265 192.951 2.94373 193.51 3.16746C193.589 3.19974 193.366 3.33155 193.766 3.35653C194.362 3.39405 195.432 3.41149 196.066 3.3617C196.534 3.32487 195.995 3.1169 196.585 3.17718C196.847 3.20411 196.364 3.33395 196.856 3.37412C197.335 3.41442 198.618 3.39572 199.099 3.38643C199.581 3.37704 199.316 3.21784 199.355 3.20653C199.59 3.14161 200.511 3.05396 200.592 3.0533C204.659 2.99121 208.459 3.22368 212.465 3.08942C212.78 3.07911 212.568 2.91066 212.616 2.90733C213.69 2.82398 212.848 3.28727 213.599 3.43097C213.487 3.08567 213.93 3.14354 214.681 3.09722C215.042 3.07462 214.843 2.94264 214.876 2.92854C215.41 2.71881 215.784 2.97788 215.88 3.03066C216.232 3.22482 216.624 2.98638 216.872 3.116C217.119 3.24465 216.556 3.4458 217.288 3.43508C217.492 3.30874 216.945 2.99071 217.5 2.93194C219.598 2.70972 223.436 2.91991 225.128 2.92635C226.795 2.93316 227.307 2.90412 228.283 2.9373C230.06 2.99704 229.406 2.76437 230.498 2.64106C231.588 2.51772 231.064 3.11587 231.223 3.24116C231.378 3.36643 231.544 3.23351 231.735 3.30107C231.926 3.36863 231.516 3.46014 231.962 3.48092C232.413 3.50163 233.608 3.26064 233.78 3.12547C234.118 2.83944 233.554 2.5507 234.759 2.6396C234.829 2.6449 234.606 2.80329 234.871 2.81571C236.205 2.87507 237.553 2.88874 238.871 2.91119C239.661 2.92369 240.439 2.93911 241.2 2.96781C241.486 2.97887 241.233 3.15531 241.399 3.1637C243.127 3.25163 242.505 2.96793 243.437 2.63125C243.239 3.0654 243.733 3.32288 245.08 3.30719C245.878 3.29803 245.737 3.11147 246.249 2.97165C246.402 2.92952 246.962 3.05123 247.061 2.96122C247.388 2.66697 246.865 2.34993 248.204 2.46046C248.263 2.46578 248.079 2.62693 248.281 2.63372C249.584 2.67836 249.782 2.37254 251.212 2.31542C252.334 2.27062 254.319 2.42647 255.62 2.43706C255.601 2.9225 256.807 2.79334 257.284 2.45157C258.086 2.4531 259.022 2.41982 259.825 2.45356C260.103 2.465 259.922 2.60827 259.958 2.6229C260.498 2.85257 260.851 2.52157 261.029 2.50601C262.91 2.35234 264.599 2.57162 266.393 2.30066C266.456 2.29092 266.558 1.95222 267.068 2.18973C267.1 2.20614 266.481 2.3699 267.367 2.36685C268.264 2.36365 269.865 2.51687 271.096 2.339C271.393 2.29618 272.137 2.00942 272.733 2.21248C272.812 2.24008 272.728 2.33826 272.843 2.38998C273.213 2.5547 273.407 2.21056 273.84 2.49209C274.255 2.77391 275.213 2.97319 276.42 2.75086C276.458 2.74433 276.741 2.46902 277.121 2.46611C277.712 2.46197 278.614 2.5009 279.253 2.48666C279.561 2.47973 279.361 2.31597 279.414 2.31187C281.445 2.17815 282.954 2.2972 285.149 2.31584C285.562 2.31938 286.724 2.06593 287.493 2.22981C288.358 2.40865 287.502 3.25097 289.48 3.01066C290.261 2.91462 291.268 1.84745 292.707 2.3545C295.499 2.15425 298.04 2.36727 300.847 2.09996C300.974 2.08805 301.344 1.7865 301.651 1.78202C302.096 1.77626 302.341 1.90569 302.654 1.90594C303.942 1.91099 305.168 1.75904 306.416 1.73994C306.901 1.73202 306.737 1.87785 307.31 1.86841C307.884 1.85875 308.24 1.66234 309.033 1.72725C309.629 1.77691 310.198 2.13813 310.992 2.1567C311.009 1.78208 311.552 1.7724 312.483 1.64285C312.661 1.61777 312.465 1.49409 312.549 1.47552C312.903 1.39668 313.234 1.4935 313.564 1.40931C313.644 1.38905 313.644 1.26132 313.709 1.23756C314.259 1.03089 315.201 1.28574 315.363 1.3301C315.983 1.49855 316.25 1.32297 316.727 1.38092C317.201 1.43888 316.499 1.55736 317.051 1.58313C318.186 1.63665 319.638 1.56283 320.79 1.52543C321.25 1.50971 320.93 1.35119 320.995 1.34498C321.938 1.26631 322.91 1.41041 323.419 1.05101C324.104 1.90291 323.993 0.943797 325.349 1.06653C325.456 1.07656 325.608 1.48602 325.202 1.56292C324.797 1.63972 324.165 1.53451 323.602 1.65135C323.47 1.6788 322.714 2.09713 322.608 2.12472C321.783 2.34054 321.651 1.72466 321.605 1.69236C321.102 1.34355 320.16 1.79808 319.921 1.83587C318.792 2.01051 317.826 1.95821 316.874 2.08683C316.245 2.17038 316.212 2.57807 315.722 2.58277C314.083 2.59861 313.512 2.05074 311.998 2.59244C311.674 2.7079 312.021 3.14113 310.824 2.83044C310.74 2.81114 309.875 2.51925 309.374 2.73707C309.312 2.76452 309.318 2.89382 309.234 2.90731C308.673 2.99522 308.29 2.90391 307.692 2.97159C307.095 3.0392 306.328 3.13584 305.653 3.11176C305.238 3.09773 304.691 2.87235 304.486 2.81918C303.901 2.66593 303.316 2.96142 302.959 2.7654C302.6 2.56839 303.284 2.23487 302.351 2.12711C302.326 2.46418 302.256 2.81138 302.209 3.15095C300.168 3.19561 298.183 3.13895 296.117 3.20547C295.868 3.21385 296.127 3.38822 295.86 3.40187C294.74 3.45845 293.686 3.35508 292.531 3.43366C291.622 3.49555 290.586 3.7109 289.649 3.78024C289.065 3.40862 287.601 3.57178 286.593 3.55826C286.231 3.55389 286.253 3.45063 285.994 3.42264C285.012 3.31954 285.477 3.6497 285.209 3.70892C284.037 3.96198 283.97 3.19367 282.61 3.24052C282.539 3.24273 281.663 3.67077 281.539 3.69878C280.77 3.88081 281.405 3.55866 280.931 3.53781C280.07 3.49953 279.464 3.41347 278.426 3.55367C278.116 3.59524 277.412 3.86447 276.835 3.67753C276.759 3.65307 276.798 3.51671 276.737 3.50992C275.627 3.39839 275.601 3.82492 274.961 3.98109C274.303 4.13753 273.345 3.86072 273.141 3.7796C272.618 3.5697 273.537 3.67874 273.564 3.65672C273.887 3.39472 273.183 3.45161 272.636 3.43976C272.55 3.02349 271.782 3.06224 272.067 3.42916C272.1 3.46921 272.526 3.42264 272.636 3.43976C272.165 3.85813 271.315 3.92579 270.365 3.55926C269.934 3.3872 270.341 3.1709 269.032 3.27004C268.435 3.31485 268.671 3.59849 268.142 3.68595C266.91 3.88588 265.364 3.64321 264.112 3.70585C263.657 3.72859 264.103 3.87882 263.792 3.89979C262.963 3.95595 262.222 3.84964 261.418 3.92289C261.344 3.92974 261.527 4.09169 261.274 4.0978C259.343 4.1474 257.623 4.06821 255.61 4.09533C254.621 4.10881 252.86 4.22552 251.86 4.22159C250.099 4.2163 247.918 4.00712 246.428 4.08575C245.445 4.13649 245.661 4.29838 245.239 4.41646C244.408 4.64553 242.987 4.27448 242.795 4.21662C242.79 4.21469 243.622 4.16473 243.176 4.08604C242.916 3.91317 242.805 4.21573 242.795 4.21662C242.672 4.17928 240.991 4.16405 240.651 4.19997C240.468 4.21958 240.572 4.37442 240.477 4.3817C239.952 4.42082 239.423 4.45461 238.891 4.48292C237.188 4.57631 235.446 4.60884 233.654 4.57489C233.613 4.57224 233.673 4.39678 233.576 4.39274C232.272 4.3312 231.432 4.55521 230.338 4.69538C229.248 4.83545 228.353 4.80368 227.712 4.51137C226.902 4.5588 225.725 4.4401 225.043 4.36763C224.361 4.29517 224.268 4.63635 224.208 4.64377C222.315 4.88104 221.264 4.69847 219.327 4.6902C218.416 4.68559 216.538 4.75604 215.571 4.80398C214.792 4.84262 214.319 4.76815 213.594 4.8271C213.496 4.83499 213.597 4.98531 213.567 4.99147C212.759 5.18156 213.144 4.80711 212.976 4.74284C212.365 4.50911 211.989 4.38519 210.941 4.50971C210.698 4.53827 210.002 5.07887 209.575 5.11466C209.014 5.16028 209.224 4.96695 208.635 5.01958C208.584 5.02391 208.596 5.14165 208.231 5.14038C206.548 5.13591 204.638 5.08761 202.899 5.11768C202.659 5.12136 202.968 5.30508 202.622 5.31347C200.997 5.35268 199.197 5.36444 197.58 5.29354C197.19 5.27542 197.433 5.14201 197.348 5.10402C196.829 4.87417 196.096 5.22338 195.974 5.23114C193.074 5.42494 190.793 5.13863 187.845 5.31512C187.684 5.32537 186.439 5.70402 185.875 5.39539C185.837 5.37486 185.28 5.05892 184.79 5.28349C184.76 5.29753 185.108 5.4596 184.503 5.44866C183.896 5.43779 182.953 5.55752 182.129 5.38372C181.869 5.32897 181.252 5.01433 180.477 5.27743C180.427 5.29576 179.23 5.88526 178.795 5.4907C178.724 5.42575 178.794 5.00312 177.861 5.22843C177.682 5.27208 178.008 5.36308 177.537 5.42637C176.818 5.52384 175.885 5.41975 175.009 5.61607C174.856 5.65079 174.208 5.94336 173.682 5.73097C173.6 5.69771 173.754 5.55537 173.477 5.54223C172.165 5.47904 170.759 5.58652 169.438 5.50143C168.968 5.47159 169.206 5.24163 168.715 5.18519C168.225 5.12877 167.234 5.07933 166.719 5.18819C166.203 5.29709 166.771 5.65477 165.997 5.69101C162.602 5.84867 159.329 5.66573 155.936 5.66532C155.434 5.66521 155.85 5.79132 155.121 5.80038C152.446 5.83428 147.731 5.99816 145.409 5.74269C143.528 5.53827 145.891 5.34911 144.454 5.27186C143.761 5.23507 143.012 5.66364 142.845 5.6784C141.202 5.8278 140.064 5.65084 138.601 5.72097C138.298 5.73551 138.597 5.90393 138.339 5.91442C137.458 5.95177 136.529 5.88351 135.683 5.90482C135.304 5.91477 135.375 6.04478 135.025 6.03773C134.19 6.02235 133.441 5.97392 132.632 5.85848C132.558 5.84796 133.053 5.68119 132.44 5.68044C131.447 5.67969 130.21 5.56956 129.062 5.70413C128.722 5.74457 128.711 6.04321 127.975 5.84333C127.821 5.80159 128.015 5.44145 127.161 5.7585C127.02 5.81118 125.577 6.2413 124.875 5.97797C124.69 5.90867 124.216 5.61935 123.808 5.66892C123.753 5.67675 123.976 5.83521 123.638 5.85373C122.446 5.9162 121.192 5.90972 119.96 5.97036C119.631 5.98687 120.123 6.14865 119.632 6.16796C118.281 6.22132 116.598 6.19323 115.289 6.15229C114.804 6.13689 115.138 5.99663 115.102 5.98197C114.534 5.74343 114.201 6.07463 114.013 6.09535C112.843 6.21982 111.948 6.07303 110.864 6.12289C110.565 6.13624 110.779 6.29105 110.719 6.30551C110.103 6.44707 110.56 6.16204 110.169 6.13431C109.067 6.05572 107.867 6.07828 106.762 6.10745C106.357 6.11839 106.814 6.29617 106.451 6.30389C104.305 6.35297 102.04 6.35429 99.9526 6.27136C99.5579 6.25543 99.805 6.11358 99.7225 6.08233C99.1539 5.86358 98.3245 6.17514 98.1332 6.20573C97.2634 6.34542 96.9237 6.22456 96.1533 6.25395C92.3724 6.39981 87.7587 6.35542 84.1962 6.33362C79.5828 6.30579 75.9788 6.20172 71.5745 6.27147C71.294 6.27573 71.5784 6.45945 71.3365 6.46551C68.2045 6.53538 65.1514 6.487 62.0181 6.56559C61.7612 6.5717 62.133 6.74508 61.7206 6.76082C60.8747 6.79436 59.8022 6.79327 58.9511 6.74371C58.5351 6.71988 59.0916 6.56417 58.6729 6.54327C57.698 6.49427 56.6524 6.48998 55.6498 6.52617C55.2231 6.54195 55.8685 6.71719 55.3137 6.72365C51.5267 6.77146 47.8314 6.83161 44.0033 6.62815C43.7414 6.61417 43.507 6.2495 42.9522 6.32414C42.9111 6.42617 42.9143 6.5458 42.8969 6.65466C37.4041 6.75633 31.9576 6.67185 26.4387 6.69526C26.2059 6.69628 26.6095 6.88733 26.1592 6.89031C23.5563 6.90774 21.0267 6.98125 18.3581 6.809C18.0935 6.79219 18.226 6.44952 17.4473 6.50725C17.3101 6.51774 16.1374 6.57243 15.8346 6.64895C15.7935 6.66046 16.0088 6.81825 15.6307 6.82584C13.4339 6.86715 11.1297 6.84866 8.93428 6.7683C8.58016 6.75502 8.95582 6.58229 8.70359 6.57136C6.91435 6.49512 4.96948 6.63933 3.25872 6.49844C2.11359 6.40353 2.53497 6.10671 1.92464 5.82252C1.83831 5.78242 1.12965 5.78147 1.09169 5.61365C0.994331 5.19167 1.33397 4.72614 1.18963 4.27667C1.15912 4.17986 0.210905 4.29176 0.770967 4.05287C0.810099 4.03687 1.49754 3.95368 1.66639 3.87281C1.78395 3.81689 1.57 3.64758 1.81019 3.5753C2.05035 3.50308 2.31597 3.64433 2.71442 3.5585C3.11268 3.47165 2.93577 3.27853 3.73224 3.24931ZM221.957 4.04387C221.333 3.88771 221.248 4.48692 221.919 4.33607C221.952 4.32807 221.989 4.05151 221.957 4.04387ZM298.167 2.68714C297.344 2.44448 296.781 2.84673 297.372 3.03556C297.96 3.22416 298.417 2.76067 298.167 2.68714ZM306.696 2.25697C305.712 2.07819 305.592 2.93035 306.626 2.72802C306.686 2.71652 306.753 2.26734 306.696 2.25697ZM4.74392 5.71832C4.73516 5.71045 4.22576 5.70667 4.21364 5.71463C3.9439 5.90672 4.9625 5.91415 4.74392 5.71832ZM315.157 1.77403C314.847 1.67001 313.993 1.83173 314.368 1.96168C314.666 2.06642 315.54 1.90358 315.157 1.77403ZM189.105 3.75565C189.095 3.74684 188.732 3.74243 188.74 3.79274C188.766 3.95478 189.271 3.90394 189.105 3.75565ZM329.543 1.21927C327.418 1.27221 326.097 0.623203 328.418 0.610104C328.837 0.607706 327.523 0.869349 328.059 0.911227C329.039 0.98738 329.67 0.521833 330.676 0.717547C330.858 0.753452 329.664 1.21781 329.539 1.2204C329.54 1.22003 329.542 1.21965 329.543 1.21927ZM221.591 3.32954C221.578 3.32177 221.078 3.32001 221.066 3.32799C220.797 3.521 221.805 3.52465 221.591 3.32954ZM167.795 3.59094C167.767 3.57434 166.596 3.56949 166.558 3.58537C165.949 3.9016 168.318 3.91234 167.795 3.59094ZM255.64 2.44969C256.19 2.25041 256.845 2.21806 257.281 2.45136C256.741 2.44683 256.192 2.4532 255.64 2.44969Z" fill="#57718C"/>
</svg>
