<svg width="157" height="5" viewBox="0 0 157 5" fill="none" xmlns="http://www.w3.org/2000/svg">
<path d="M1.49199 0.872634C2.3722 0.836126 3.50904 0.881233 4.38324 0.941139C4.66003 0.959736 4.52743 1.03886 4.71175 1.05526C5.06751 1.08721 5.42583 1.04926 5.78433 1.08714C5.90714 1.10009 5.75351 1.22559 5.88286 1.23629C6.57489 1.29398 7.22696 1.2638 7.94124 1.29266C11.3975 1.43485 14.8038 1.49208 18.3281 1.55976C19.4687 1.5819 20.8735 1.70031 22.0875 1.65387C22.2309 1.64834 22.1458 1.53754 22.1731 1.52851C22.591 1.39024 22.4467 1.613 22.7149 1.64344C23.7855 1.76364 24.986 1.77733 26.0313 1.73772C26.4817 1.72056 26.0296 1.49966 26.4851 1.62424C26.5168 1.63266 26.4012 1.74972 26.5258 1.7626C26.7985 1.79156 27.3061 1.77206 27.5198 1.78198C27.9288 1.8017 27.9972 1.80072 28.3909 1.80321C28.5652 1.80464 28.7512 1.8119 28.9439 1.82023C29.3244 1.83763 29.7321 1.85974 30.1172 1.84286C30.2388 1.83718 30.0781 1.71637 30.2722 1.69646C30.466 1.67658 30.9857 1.6883 31.1632 1.71719C31.3402 1.74609 31.2646 1.84046 31.2959 1.86223C31.5553 2.04598 32.1289 1.79421 32.2078 1.78817C33.6012 1.68544 34.7902 1.8333 36.104 1.83673C37.1331 1.83911 38.1368 1.79438 39.1045 1.80374C40.2543 1.81535 41.1626 1.88322 42.2789 1.87527C42.3959 1.87457 42.2591 1.73267 42.4021 1.73153C43.883 1.71939 45.4051 1.73926 46.8707 1.83907C47.0192 1.8492 46.8274 1.97288 46.9757 1.99043C47.8777 2.09517 49.3609 2.34476 49.884 1.80539C50.497 1.8283 51.2494 1.85232 51.8085 1.96299C52.1692 2.03422 51.8179 2.16853 52.2623 2.11208C52.3626 2.09951 52.2325 1.9806 52.383 1.97071C53.0098 1.92915 53.6783 1.96963 54.2988 1.9102C54.4246 1.89784 54.3906 1.79153 54.4263 1.77251C54.7263 1.61851 55.2274 1.876 55.3372 1.89493C56.1821 2.03613 56.7637 1.98323 57.536 1.98887C57.7145 1.99024 57.5038 1.84697 57.6757 1.84316C58.5622 1.82531 59.5186 1.84036 60.3723 1.90616C60.5652 1.92114 60.3874 2.04214 60.4796 2.05552C60.8864 2.11303 60.9776 1.88379 61.3699 1.93452C61.4526 1.94492 61.4057 2.04881 61.4208 2.06028C61.6566 2.24031 61.8635 1.9868 61.9245 1.98137C62.6939 1.90696 63.2052 2.17374 63.9341 2.1383C64.0223 2.1338 63.8238 2.00159 64.0718 1.99698C65.7244 1.96547 67.5072 2.00684 69.1431 2.1169C69.3996 2.13384 69.2161 2.23218 69.2322 2.24442C69.4949 2.43564 69.6664 2.18096 69.7504 2.17159C70.4112 2.10434 71.0397 2.32018 71.4792 2.01752C74.2607 2.13113 77.0464 1.96858 79.8181 2.24898C79.8531 2.25223 79.79 2.37773 79.8598 2.38368C80.7016 2.45671 80.5408 2.26091 81.1007 2.02366C81.2417 1.96408 81.6706 2.25375 81.7087 2.27501C81.8471 2.35332 81.7027 2.53987 81.7491 2.55509C82.1333 2.67469 82.0721 2.05618 82.5922 2.05749C82.6084 2.05857 82.5398 2.17219 82.5834 2.18363C82.7189 2.21955 82.8537 2.17472 82.9866 2.21429C83.2913 2.30583 83.3928 2.60659 83.8525 2.43306C83.9106 2.41054 83.8227 2.05954 84.2821 2.07745C84.4649 2.08488 85.2779 2.08125 85.5067 2.10464C85.7348 2.12801 85.5778 2.24058 85.5941 2.24553C86.209 2.39678 85.9756 2.45804 86.2837 2.68022C86.5921 2.90156 86.508 2.37554 86.6343 2.31723C86.7607 2.25908 87.2138 2.38372 87.3253 2.42691C87.4356 2.47012 87.2981 2.54154 87.3957 2.5661C88.0425 2.72655 87.6806 2.30595 87.8943 2.22313C88.3984 2.02701 88.7906 2.41807 89.2538 2.45763C89.3791 2.46832 89.2771 2.37921 89.3887 2.37123C89.8313 2.34081 90.0975 2.46325 90.6032 2.35318C90.6859 2.33524 91.0956 2.10201 91.3604 2.27482C91.3979 2.29974 91.2908 2.39659 91.4807 2.41891C91.7643 2.4524 92.2659 2.47511 92.5683 2.44351C92.7911 2.42013 92.5362 2.25928 92.8165 2.30984C92.9412 2.33241 92.7098 2.4254 92.944 2.45999C93.1767 2.49457 93.7738 2.4922 94.0016 2.48963C94.2288 2.48699 94.1048 2.36518 94.1232 2.35705C94.2343 2.31051 94.6712 2.25322 94.7099 2.25348C96.6676 2.24437 98.43 2.45423 100.339 2.39205C100.487 2.38734 100.389 2.25899 100.411 2.25695C100.916 2.20477 100.517 2.54411 100.87 2.65911C100.819 2.39907 101.028 2.44674 101.384 2.41928C101.556 2.40583 101.463 2.30493 101.479 2.29468C101.734 2.14258 101.911 2.34051 101.957 2.38103C102.125 2.53009 102.31 2.35509 102.425 2.45473C102.54 2.55362 102.274 2.69896 102.617 2.69809C102.714 2.60534 102.46 2.36148 102.721 2.32284C103.705 2.17668 105.544 2.3728 106.33 2.39491C107.117 2.41701 107.372 2.40059 107.833 2.43555C108.665 2.49878 108.36 2.31751 108.878 2.23646C109.398 2.15542 109.144 2.59849 109.218 2.69412C109.292 2.7897 109.371 2.69176 109.461 2.74445C109.551 2.79712 109.356 2.86142 109.568 2.88172C109.78 2.902 110.36 2.73404 110.436 2.6345C110.596 2.42362 110.334 2.20104 110.896 2.28062C110.929 2.28534 110.823 2.40173 110.947 2.41389C111.93 2.5066 112.957 2.51517 113.944 2.59751C114.079 2.60901 113.958 2.73848 114.036 2.74665C114.853 2.83207 114.562 2.61232 115.011 2.37046C114.909 2.69377 115.156 2.89248 115.778 2.8962C116.152 2.89856 116.088 2.75704 116.33 2.65813C116.403 2.62832 116.668 2.72613 116.716 2.65981C116.875 2.443 116.626 2.19905 117.268 2.29777C117.297 2.30246 117.206 2.42113 117.304 2.42862C117.934 2.4776 118.013 2.25057 118.691 2.22503C119.222 2.20498 120.167 2.34633 120.774 2.37064C120.76 2.73442 121.334 2.65279 121.567 2.40262C121.962 2.41404 122.388 2.4011 122.77 2.43689C122.901 2.4491 122.814 2.55418 122.831 2.56561C123.085 2.7449 123.256 2.50135 123.341 2.49203C124.259 2.4017 125.008 2.58886 125.888 2.41066C125.92 2.40424 125.971 2.15167 126.206 2.33688C126.221 2.34965 125.93 2.46378 126.344 2.47388C126.757 2.484 127.541 2.62177 128.114 2.50634C128.252 2.47855 128.603 2.27441 128.885 2.43553C128.922 2.45741 128.881 2.52977 128.935 2.57026C129.11 2.69929 129.206 2.44413 129.411 2.66174C129.616 2.87934 130.044 3.04311 130.624 2.89508C130.643 2.89078 130.78 2.68872 130.963 2.69246C131.254 2.69859 131.667 2.74197 131.971 2.74154C132.117 2.74127 132.024 2.61527 132.049 2.61305C133.029 2.54546 133.719 2.65956 134.766 2.71126C134.958 2.72098 135.51 2.55116 135.882 2.68778C136.29 2.83735 135.868 3.45332 136.808 3.30902C137.188 3.25132 137.667 2.46968 138.345 2.87735C139.661 2.78067 140.882 2.99187 142.205 2.85219C142.264 2.846 142.453 2.62802 142.592 2.6314C142.799 2.63684 142.913 2.73931 143.061 2.74647C143.681 2.77905 144.249 2.69332 144.847 2.70866C145.075 2.71427 144.995 2.81965 145.266 2.82634C145.537 2.83294 145.718 2.69439 146.085 2.76263C146.362 2.81464 146.64 3.09971 147.007 3.13392C147.022 2.85357 147.274 2.86008 147.723 2.78738C147.809 2.77327 147.717 2.67541 147.758 2.6637C147.924 2.61389 148.078 2.69522 148.236 2.64093C148.274 2.62789 148.276 2.53214 148.307 2.51607C148.575 2.37584 149.014 2.59251 149.089 2.63024C149.378 2.77351 149.514 2.64936 149.735 2.7061C149.957 2.76283 149.625 2.83196 149.884 2.86675C150.421 2.93871 151.111 2.92526 151.656 2.93125C151.873 2.93305 151.726 2.8048 151.757 2.80209C152.206 2.77099 152.66 2.90827 152.91 2.6544C153.22 3.31362 153.181 2.59134 153.823 2.725C153.874 2.73581 153.938 3.0473 153.743 3.09244C153.549 3.13753 153.254 3.03936 152.984 3.10982C152.921 3.12635 152.554 3.417 152.504 3.43452C152.113 3.57149 152.059 3.10611 152.038 3.0805C151.805 2.80407 151.357 3.11704 151.239 3.13841C150.7 3.23634 150.242 3.16957 149.791 3.23928C149.496 3.28432 149.467 3.58897 149.235 3.57897C148.466 3.54589 148.199 3.12001 147.474 3.48648C147.319 3.56464 147.472 3.89815 146.917 3.63463C146.882 3.61802 146.469 3.37722 146.229 3.52807C146.199 3.54709 146.2 3.64416 146.16 3.6522C145.895 3.70417 145.718 3.62632 145.429 3.66251C145.14 3.6987 144.792 3.7529 144.463 3.71902C144.264 3.69875 144.01 3.51716 143.915 3.4726C143.646 3.34427 143.358 3.55255 143.192 3.39762C143.025 3.2419 143.354 3.00711 142.914 2.90553C142.897 3.15767 142.859 3.4164 142.832 3.66994C141.871 3.65825 140.918 3.57392 139.951 3.58224C139.831 3.58352 139.953 3.71946 139.824 3.72433C139.282 3.74428 138.808 3.64625 138.246 3.6831C137.811 3.71213 137.336 3.85429 136.879 3.88912C136.601 3.59974 135.923 3.69572 135.432 3.66792C135.26 3.6583 135.272 3.58126 135.15 3.55576C134.689 3.46142 134.904 3.71706 134.778 3.75682C134.235 3.92651 134.19 3.34918 133.551 3.36158C133.517 3.36204 133.103 3.6685 133.046 3.68749C132.684 3.81137 132.986 3.58023 132.76 3.55684C132.348 3.51409 132.057 3.43976 131.57 3.52846C131.428 3.55474 131.087 3.74551 130.812 3.59637C130.776 3.57684 130.796 3.47521 130.767 3.46917C130.239 3.36835 130.225 3.68785 129.923 3.79519C129.621 3.90251 129.157 3.68057 129.062 3.61671C128.815 3.45153 129.252 3.54698 129.266 3.53088C129.424 3.33927 129.084 3.37135 128.825 3.35436C128.789 3.04094 128.427 3.05869 128.557 3.33802C128.572 3.36853 128.773 3.3399 128.825 3.35436C128.597 3.6611 128.199 3.69931 127.761 3.41076C127.554 3.27552 127.75 3.11911 127.122 3.1747C126.837 3.1998 126.946 3.41585 126.695 3.47393C126.12 3.60645 125.375 3.40303 124.785 3.43302C124.571 3.4439 124.779 3.5626 124.633 3.57411C124.244 3.60502 123.902 3.51542 123.513 3.55967C123.477 3.56383 123.563 3.6877 123.442 3.68892C122.522 3.70059 121.715 3.61905 120.754 3.61405C120.29 3.61169 119.46 3.67744 118.981 3.66234C118.152 3.63689 117.117 3.4541 116.405 3.49569C115.941 3.52229 116.042 3.64623 115.843 3.72989C115.458 3.89207 114.781 3.59758 114.69 3.55202C114.687 3.55051 115.086 3.52253 114.873 3.45844C114.75 3.32583 114.694 3.55146 114.69 3.55202C114.629 3.52258 113.836 3.4922 113.674 3.51536C113.588 3.52803 113.636 3.64531 113.591 3.6497C112.517 3.7514 111.446 3.77805 110.366 3.72012C110.347 3.71769 110.376 3.58674 110.331 3.58268C109.706 3.5226 109.308 3.68173 108.786 3.77538C108.266 3.86899 107.856 3.83592 107.55 3.61008C107.159 3.63726 106.599 3.53618 106.278 3.4749C105.957 3.41362 105.911 3.66855 105.883 3.67351C105.003 3.83233 104.491 3.68484 103.57 3.65943C103.132 3.64691 102.267 3.68138 101.796 3.7079C101.423 3.72928 101.199 3.66885 100.857 3.70607C100.811 3.71104 100.857 3.82474 100.843 3.82908C100.461 3.96384 100.645 3.68674 100.567 3.63692C100.283 3.45578 100.101 3.35921 99.6082 3.44259C99.4943 3.46169 99.1617 3.86048 98.9545 3.88325C98.6852 3.91213 98.7871 3.76913 98.5054 3.80302C98.4812 3.80579 98.486 3.8942 98.3123 3.8898C97.5053 3.87051 96.6326 3.81652 95.7969 3.82294C95.6817 3.82347 95.8289 3.96412 95.6626 3.9672C94.882 3.98154 94.03 3.97386 93.276 3.90603C93.0904 3.88889 93.2071 3.79106 93.1669 3.76179C92.92 3.58469 92.5691 3.83994 92.5114 3.84465C91.1422 3.96381 90.0594 3.72872 88.6574 3.83504C88.5807 3.8413 87.9915 4.11431 87.7306 3.87793C87.712 3.8622 87.4565 3.62039 87.2233 3.78453C87.2089 3.7948 87.3723 3.91938 87.0865 3.90589C86.8008 3.89244 86.3416 3.97397 85.9511 3.83647C85.8274 3.79316 85.5357 3.55184 85.1671 3.74245C85.143 3.75576 84.5741 4.18753 84.3731 3.88789C84.3405 3.83857 84.3754 3.52222 83.9378 3.68319C83.8542 3.7144 84.0055 3.78543 83.7855 3.82887C83.449 3.89581 83.003 3.80975 82.5812 3.94949C82.508 3.97424 82.1962 4.18812 81.9478 4.02436C81.9088 3.99872 81.9832 3.89329 81.8518 3.88108C81.2268 3.82254 80.5748 3.8913 79.9458 3.81637C79.7231 3.79003 79.8375 3.61957 79.6056 3.57312C79.3736 3.52669 78.908 3.48132 78.6588 3.55864C78.4122 3.636 78.6804 3.90899 78.3116 3.9297C76.7036 4.0196 75.1609 3.85541 73.5498 3.82735C73.3135 3.82317 73.509 3.92114 73.161 3.92197C71.8857 3.92549 69.6671 4.01034 68.5579 3.80013C67.6715 3.63177 68.7876 3.50882 68.1105 3.43938C67.784 3.40625 67.4312 3.72169 67.3528 3.73142C66.5795 3.83037 66.0302 3.68858 65.3341 3.72955C65.1901 3.73806 65.3309 3.86674 65.2084 3.87256C64.7899 3.89358 64.3522 3.83505 63.9557 3.84436C63.7779 3.84884 63.8103 3.9469 63.647 3.93886C63.2614 3.92077 62.899 3.87853 62.5135 3.78558C62.4782 3.77711 62.7169 3.65594 62.4226 3.65055C61.9464 3.64217 61.3587 3.54987 60.817 3.64183C60.6564 3.6695 60.6492 3.89338 60.3054 3.73775C60.2334 3.70525 60.3259 3.43666 59.9253 3.66779C59.8625 3.70621 59.1747 4.01753 58.8393 3.81458C58.7508 3.76117 58.5256 3.54051 58.3306 3.57451C58.3042 3.57995 58.4097 3.70052 58.2482 3.71178C57.6793 3.74937 57.0872 3.73481 56.5109 3.77079C56.357 3.78064 56.5857 3.90576 56.3565 3.91646C55.7264 3.94608 54.9105 3.91201 54.2907 3.87124C54.0611 3.85597 54.2201 3.75335 54.2034 3.74208C53.9353 3.55882 53.7765 3.80466 53.6876 3.81876C53.1317 3.90313 52.731 3.78626 52.2047 3.81534C52.0617 3.82306 52.1628 3.9408 52.1343 3.95118C51.8391 4.05264 52.0593 3.84238 51.8729 3.81859C51.3511 3.75123 50.7737 3.75899 50.2541 3.77247C50.0633 3.7776 50.2773 3.9144 50.1062 3.91743C49.1111 3.93799 48.0126 3.92175 47.029 3.8438C46.8428 3.82888 46.9603 3.72436 46.9216 3.7003C46.6544 3.53196 46.2643 3.75937 46.1749 3.78088C45.7729 3.87911 45.597 3.78587 45.2313 3.80211C43.4478 3.88307 41.235 3.8152 39.5774 3.77241C37.3638 3.71711 35.6736 3.61242 33.5922 3.63225C33.4574 3.63337 33.5929 3.77326 33.4767 3.77601C31.9964 3.80532 30.5236 3.74651 29.0721 3.78255C28.9545 3.78525 29.1216 3.91628 28.9377 3.92662C28.9364 3.92668 28.9352 3.92675 28.9338 3.9268C28.5214 3.94571 28.0081 3.93703 27.6057 3.89363C27.4094 3.87271 27.6729 3.76001 27.4755 3.74127C27.0147 3.69738 26.5416 3.68658 26.0473 3.70634C25.8422 3.71505 26.151 3.8512 25.8848 3.85198C24.118 3.86023 22.3334 3.87831 20.5387 3.69793C20.418 3.68555 20.315 3.41037 20.0419 3.46229C20.0213 3.53851 20.0222 3.62825 20.0131 3.70976C17.4063 3.74607 14.8179 3.64322 12.2234 3.62091C12.1098 3.61998 12.3053 3.7662 12.0861 3.76516C10.863 3.75943 9.6436 3.79622 8.38885 3.64779C8.26386 3.63327 8.32484 3.37722 7.96395 3.41492C7.91334 3.42184 7.33104 3.45431 7.19576 3.50954C7.17666 3.51787 7.27555 3.63776 7.10008 3.64073C6.05454 3.65584 4.97561 3.62538 3.93247 3.54926C3.76012 3.53674 3.94351 3.40991 3.82162 3.39989C2.9742 3.32981 2.05578 3.42394 1.25025 3.30595C0.704265 3.2265 0.907915 3.00694 0.622243 2.78941C0.577079 2.7587 0.248631 2.7529 0.228572 2.62676C0.184545 2.30959 0.34961 1.96291 0.283411 1.62478C0.267721 1.55195 -0.178959 1.62904 0.0864019 1.45392C0.105734 1.4422 0.430562 1.38477 0.509968 1.32533C0.56581 1.28424 0.464958 1.15572 0.580181 1.10325C0.694457 1.05082 0.815195 1.15866 1.00941 1.09718C1.19119 1.03489 1.11677 0.888806 1.49199 0.872634ZM104.834 3.20096C104.535 3.0776 104.489 3.52611 104.814 3.41972C104.829 3.41404 104.849 3.20702 104.834 3.20096ZM140.925 3.23554C140.536 3.03652 140.268 3.3267 140.543 3.48033C140.817 3.6338 141.044 3.29587 140.925 3.23554ZM144.97 3.10288C144.514 2.94553 144.441 3.58151 144.929 3.45433C144.958 3.44714 144.996 3.11202 144.97 3.10288ZM1.95322 2.73159C1.95013 2.72562 1.71063 2.71912 1.70269 2.725C1.57393 2.86711 2.05586 2.88003 1.95322 2.73159ZM148.984 2.95732C148.842 2.87085 148.432 2.96899 148.608 3.07652C148.75 3.16303 149.161 3.06489 148.984 2.95732ZM89.2656 2.67666C89.2609 2.66996 89.0882 2.66344 89.0916 2.70124C89.1029 2.82299 89.3435 2.78934 89.2656 2.67666ZM155.805 2.96993C154.797 2.94303 154.188 2.41572 155.285 2.47823C155.484 2.48954 154.856 2.64457 155.109 2.69268C155.572 2.78035 155.88 2.45129 156.353 2.62948C156.438 2.66209 155.863 2.97263 155.804 2.97065C155.804 2.97041 155.805 2.97017 155.805 2.96993ZM104.663 2.66158C104.657 2.65563 104.416 2.64931 104.41 2.65517C104.28 2.79722 104.765 2.81005 104.663 2.66158ZM79.1817 2.3698C79.1713 2.35713 78.6108 2.34366 78.5926 2.35526C78.3007 2.58732 79.4294 2.61521 79.1817 2.3698ZM120.784 2.38037C121.045 2.23785 121.358 2.22189 121.566 2.40243C121.306 2.39212 121.045 2.38995 120.784 2.38037Z" fill="white"/>
</svg>
