<svg width="206" height="3" viewBox="0 0 206 3" fill="none" xmlns="http://www.w3.org/2000/svg">
<path d="M2.41295 0.675952C3.57157 0.645565 5.06997 0.667707 6.22166 0.701538C6.57079 0.712061 6.39221 0.765753 6.63609 0.775392C7.1315 0.794106 7.564 0.766451 8.05434 0.789122C8.21802 0.79689 8.01421 0.881637 8.18653 0.887858C9.08533 0.921516 9.94092 0.896839 10.8894 0.911037C15.4169 0.981666 19.9153 0.995787 24.5101 1.01626C26.0355 1.02289 27.8725 1.09198 29.4489 1.05255C29.6287 1.04789 29.5212 0.974602 29.5554 0.968395C30.0941 0.873315 29.9156 1.02279 30.2712 1.04118C30.7359 1.065 31.2251 1.08105 31.7266 1.09064C32.6918 1.11051 33.7056 1.10337 34.6472 1.08061C35.22 1.06608 34.646 0.921914 35.2197 1.00185C35.2596 1.00725 35.1152 1.08608 35.2716 1.09382C35.6255 1.11122 36.3071 1.09458 36.5891 1.09969C37.1319 1.10993 37.2226 1.10879 37.7434 1.10766C38.4341 1.10687 39.2469 1.14262 40.0019 1.12195C40.1627 1.1173 39.9494 1.0379 40.2061 1.02325C40.4593 1.00864 41.1584 1.01272 41.3731 1.03079C41.5964 1.04885 41.5017 1.11228 41.5413 1.12658C41.8661 1.24731 42.64 1.07533 42.7408 1.07075C44.5939 0.992329 46.1204 1.08262 47.8653 1.07551C49.1672 1.07 50.5422 1.03283 51.8046 1.03222C53.2659 1.03197 54.5221 1.0705 55.9678 1.05731C56.1176 1.05603 55.9416 0.962388 56.1247 0.960624C58.0689 0.941964 60.0469 0.944404 61.9912 1.00035C62.1878 1.00603 61.9348 1.08986 62.1312 1.1005C63.3441 1.16374 65.2297 1.31971 65.9437 0.956251C66.7544 0.967088 67.7603 0.977603 68.4763 1.04742C68.9432 1.09232 68.49 1.18437 69.0638 1.14357C69.1933 1.13447 69.0245 1.05613 69.2188 1.04846C70.0368 1.01624 70.9353 1.03831 71.7521 0.994188C71.9183 0.985027 71.8726 0.91441 71.9196 0.90147C72.3118 0.796633 72.9626 0.964688 73.1054 0.976513C74.189 1.06462 74.9837 1.025 76.0008 1.02313C76.2369 1.02273 75.9574 0.928763 76.1846 0.924966C77.3514 0.906594 78.5639 0.909825 79.7153 0.947317C79.9714 0.955886 79.7362 1.03786 79.8586 1.0461C80.3985 1.08144 80.5182 0.927941 81.032 0.958895C81.1405 0.965224 81.0797 1.03482 81.0995 1.04236C81.4096 1.16065 81.6782 0.990138 81.7579 0.986071C82.7664 0.930826 83.4134 1.10502 84.3916 1.07595C84.5087 1.07229 84.2443 0.98563 84.5734 0.980715C86.755 0.947494 89.0741 0.961977 91.2352 1.02313C91.5717 1.03252 91.3318 1.09944 91.353 1.10748C91.6986 1.23301 91.9213 1.06195 92.031 1.05509C92.8965 1.00534 93.7064 1.14461 94.2934 0.939516C97.9597 0.994419 101.605 0.865123 105.245 1.03095C105.291 1.03285 105.209 1.11699 105.301 1.12043C106.41 1.16268 106.194 1.0334 106.93 0.870951C107.115 0.830156 107.681 1.01998 107.731 1.03386C107.913 1.08501 107.725 1.21047 107.785 1.22027C108.289 1.29706 108.206 0.8852 108.884 0.882112C108.905 0.882707 108.817 0.958969 108.874 0.966265C109.051 0.989179 109.226 0.958265 109.399 0.983629C109.795 1.04234 109.936 1.24203 110.539 1.12281C110.616 1.10734 110.496 0.874038 111.103 0.882424C111.346 0.885963 112.418 0.877245 112.717 0.891077C113.017 0.904892 112.811 0.981149 112.833 0.984318C113.639 1.0804 113.334 1.12304 113.738 1.26878C114.141 1.41395 114.028 1.06394 114.192 1.02409C114.356 0.984352 114.945 1.06395 115.09 1.09189C115.234 1.11984 115.054 1.16852 115.183 1.18413C116.044 1.28601 115.56 1.00847 115.843 0.951579C116.51 0.816883 117.03 1.07451 117.639 1.09726C117.803 1.1034 117.669 1.0448 117.815 1.03861C118.395 1.01487 118.743 1.09441 119.399 1.01709C119.508 1.00448 120.045 0.845776 120.393 0.958898C120.442 0.975214 120.303 1.04062 120.551 1.05401C120.923 1.07411 121.59 1.08524 121.986 1.06179C122.279 1.04444 121.943 0.939228 122.312 0.97071C122.475 0.984771 122.172 1.04859 122.48 1.0698C122.787 1.091 123.559 1.08473 123.866 1.08118C124.166 1.0776 124.001 0.997387 124.025 0.991821C124.172 0.959904 124.747 0.918228 124.797 0.918091C127.341 0.896527 129.705 1.02199 132.176 0.96511C132.372 0.960751 132.241 0.875993 132.271 0.874448C132.943 0.835489 132.414 1.065 132.883 1.13876C132.815 0.965821 133.092 0.995878 133.561 0.974635C133.788 0.964258 133.664 0.89776 133.685 0.890794C134.02 0.787296 134.253 0.917795 134.313 0.944431C134.534 1.04241 134.774 0.924237 134.924 0.989717C135.074 1.0547 134.73 1.15376 135.176 1.15037C135.301 1.08775 134.969 0.927267 135.307 0.899372C136.618 0.793723 138.995 0.909283 140.05 0.917258C141.095 0.925288 141.426 0.912184 142.026 0.9316C143.108 0.9667 142.696 0.848513 143.386 0.789993C144.073 0.731482 143.74 1.02904 143.839 1.09215C143.936 1.15523 144.042 1.08925 144.162 1.12359C144.281 1.15793 144.023 1.20249 144.304 1.21418C144.586 1.22586 145.347 1.10886 145.445 1.04185C145.651 0.89989 145.311 0.753763 146.042 0.801964C146.084 0.804832 145.948 0.88333 146.109 0.890366C147.398 0.943618 148.769 0.940162 150.031 0.986418C150.212 0.992857 150.051 1.08027 150.156 1.08499C151.252 1.1345 150.859 0.990667 151.452 0.825363C151.319 1.04181 151.652 1.17203 152.46 1.16891C152.944 1.16711 152.86 1.07334 153.17 1.00523C153.261 0.984714 153.622 1.04743 153.684 1.00277C153.894 0.856756 153.564 0.696442 154.415 0.756286C154.452 0.759147 154.334 0.839093 154.463 0.843179C155.29 0.869994 155.388 0.717935 156.261 0.694641C156.286 0.693955 156.312 0.693416 156.339 0.693013C157.075 0.682444 158.262 0.761708 159.006 0.771769C158.982 1.01447 159.747 0.954398 160.057 0.785301C160.581 0.78901 161.136 0.776191 161.624 0.796312C161.792 0.803163 161.682 0.874063 161.704 0.881521C162.022 0.998597 162.26 0.83442 162.373 0.827343C163.616 0.757613 164.541 0.875029 165.73 0.746716C165.771 0.742107 165.838 0.573189 166.144 0.694181C166.164 0.70253 165.788 0.781683 166.325 0.784053C166.838 0.786601 167.909 0.86969 168.643 0.786489C168.827 0.766421 169.26 0.626614 169.652 0.73069C169.703 0.744842 169.648 0.793555 169.721 0.819926C169.956 0.903931 170.082 0.732731 170.354 0.875449C170.636 1.01808 171.148 1.12274 171.944 1.01695C171.969 1.01387 172.151 0.877525 172.39 0.877849C172.777 0.878437 173.28 0.902682 173.705 0.898461C173.9 0.896461 173.774 0.813631 173.808 0.811832C175.089 0.754728 175.998 0.821994 177.379 0.842291C177.643 0.846087 178.325 0.725675 178.841 0.811194C179.382 0.904983 178.826 1.32191 180.057 1.2119C180.561 1.1677 181.183 0.639443 182.067 0.900265C183.789 0.814111 185.395 0.933429 187.13 0.807769C187.193 0.802447 187.465 0.651836 187.637 0.650499C187.901 0.648643 188.067 0.71328 188.249 0.713804C189.07 0.715041 189.794 0.64274 190.569 0.601059C190.577 0.600879 190.584 0.60076 190.591 0.600645C190.889 0.595373 190.787 0.66904 191.143 0.661511C191.498 0.653367 191.732 0.552209 192.215 0.576021C192.579 0.594021 192.952 0.765656 193.437 0.7609C193.445 0.573098 193.776 0.559276 194.362 0.473158C194.474 0.456495 194.349 0.39919 194.402 0.387955C194.617 0.340765 194.822 0.381437 195.026 0.331283C195.076 0.319184 195.074 0.25532 195.115 0.24182C195.457 0.124828 196.042 0.227733 196.143 0.245635C196.529 0.313534 196.699 0.218039 196.993 0.234451C197.047 0.237492 197.077 0.242633 197.091 0.249005C197.108 0.256984 197.103 0.265825 197.093 0.274657C197.071 0.294628 197.022 0.315643 197.096 0.323581C197.116 0.326873 197.147 0.3294 197.193 0.331087C197.898 0.35657 198.801 0.333429 199.518 0.329473C199.801 0.327555 199.607 0.244185 199.648 0.241931C200.238 0.214837 200.835 0.302424 201.162 0.131253C201.573 0.568487 201.517 0.0868952 202.361 0.172671C202.428 0.179637 202.513 0.386977 202.258 0.418023C202.003 0.449052 201.616 0.385291 201.262 0.434288C201.18 0.445706 200.699 0.642578 200.634 0.654813C200.123 0.749958 200.048 0.440731 200.021 0.423836C199.711 0.242184 199.126 0.45784 198.973 0.474454C198.276 0.548884 197.681 0.518039 197.103 0.580855L197.115 0.580236C197.108 0.581298 197.101 0.582372 197.093 0.583458C196.71 0.641715 196.686 0.847108 196.383 0.862442C195.373 0.912929 195.003 0.654882 194.066 0.958811C193.865 1.02307 194.082 1.23406 193.338 1.10082C193.291 1.09258 192.739 0.961868 192.43 1.07685C192.391 1.0914 192.395 1.15598 192.343 1.16377C191.995 1.21453 191.759 1.17256 191.379 1.21087C191.138 1.23505 190.867 1.26423 190.589 1.27923L190.608 1.27843C190.452 1.29172 190.288 1.30172 190.124 1.30154C189.862 1.30149 189.515 1.19247 189.391 1.16677C189.041 1.09286 188.647 1.24177 188.441 1.14348C188.217 1.04494 188.641 0.878536 188.066 0.824071C188.049 0.992597 188.003 1.16613 187.972 1.33589C186.71 1.35545 185.44 1.31874 184.182 1.34226C184.031 1.34526 184.187 1.43368 184.024 1.43923C183.308 1.46251 182.689 1.4052 181.951 1.43892C181.386 1.46527 180.756 1.56749 180.158 1.59752C179.759 1.40911 178.926 1.48242 178.251 1.47097C178.033 1.46688 178.046 1.41537 177.889 1.40002C177.289 1.3434 177.57 1.51089 177.404 1.53912C176.669 1.65975 176.633 1.27526 175.79 1.29187C175.747 1.29261 175.191 1.50233 175.113 1.51574C174.653 1.60278 175.037 1.44496 174.747 1.43216C174.217 1.40875 173.822 1.3629 173.18 1.42796C173.001 1.44715 172.565 1.57835 172.2 1.48221C172.152 1.46962 172.178 1.40162 172.139 1.39795C171.438 1.33702 171.407 1.55026 171.027 1.62521C170.644 1.70016 170.028 1.55753 169.901 1.51605C169.569 1.40877 170.153 1.46738 170.17 1.4565C170.377 1.32696 169.931 1.35222 169.581 1.34388C169.526 1.13539 169.046 1.15131 169.22 1.33606C169.233 1.35628 169.512 1.33483 169.581 1.34388C169.259 1.55111 168.774 1.58077 168.19 1.39328C167.917 1.30539 168.18 1.19896 167.342 1.24294C166.96 1.2628 167.102 1.40567 166.783 1.44702C166.061 1.54134 165.044 1.41383 164.28 1.43985C164.004 1.44929 164.273 1.5263 164.085 1.53546C163.584 1.56002 163.134 1.50378 162.612 1.53729C162.565 1.54043 162.681 1.62212 162.519 1.62418C161.3 1.64131 160.271 1.59476 158.99 1.60085C158.398 1.60368 157.309 1.65546 156.659 1.65002C156.557 1.64921 156.452 1.64753 156.345 1.64519C155.343 1.62152 154.147 1.53165 153.274 1.56289C152.675 1.58482 152.807 1.66651 152.55 1.72408C152.055 1.83566 151.158 1.64548 151.035 1.61594C151.032 1.61496 151.56 1.59269 151.278 1.55189C151.114 1.46461 151.041 1.61553 151.035 1.61594C150.962 1.59684 149.878 1.58392 149.689 1.60067C149.577 1.60987 149.64 1.68764 149.582 1.69096C148.214 1.7681 146.746 1.79559 145.361 1.76616C145.336 1.76471 145.373 1.67717 145.315 1.67485C144.495 1.6402 143.964 1.74976 143.275 1.81669C142.591 1.88356 142.069 1.86493 141.665 1.71698C141.156 1.73841 140.418 1.67577 139.989 1.63766C139.562 1.59954 139.502 1.76988 139.464 1.77343C138.313 1.88669 137.65 1.7926 136.437 1.78333C135.852 1.77867 134.729 1.80874 134.111 1.83029C133.623 1.84761 133.327 1.80917 132.874 1.8368C132.813 1.8405 132.875 1.91592 132.856 1.91892C132.35 2.01191 132.593 1.82566 132.488 1.79311C132.11 1.67468 131.861 1.61184 131.228 1.67138C131.081 1.68503 130.652 1.95356 130.381 1.97041C130.03 1.99184 130.162 1.89569 129.794 1.92056C129.762 1.9226 129.769 1.9815 129.541 1.97997C128.482 1.97364 127.318 1.94476 126.229 1.9557C126.079 1.95697 126.271 2.04956 126.055 2.05294C125.043 2.06869 123.905 2.07045 122.924 2.03116C122.681 2.0212 122.833 1.95506 122.781 1.93587C122.457 1.81976 121.997 1.9927 121.921 1.9963C120.104 2.08665 118.712 1.93829 116.863 2.02016C116.763 2.02493 115.986 2.21155 115.637 2.05602C115.614 2.04567 115.266 1.88651 114.967 1.99772C114.948 2.00467 115.161 2.08646 114.79 2.07968C114.42 2.0729 113.823 2.1308 113.311 2.04215C113.149 2.01423 112.766 1.85561 112.282 1.98553C112.251 1.99459 111.504 2.28682 111.235 2.08864C111.193 2.05601 111.234 1.84486 110.66 1.95554C110.55 1.97699 110.75 2.02317 110.46 2.05383C110.017 2.10105 109.429 2.04712 108.883 2.14348C108.787 2.16053 108.382 2.30549 108.056 2.19823C108.004 2.18143 108.101 2.11057 107.929 2.10344C107.109 2.06919 106.252 2.12002 105.424 2.07486C105.13 2.059 105.28 1.9445 104.973 1.9153C104.667 1.88612 104.049 1.85944 103.728 1.91285C103.407 1.96629 103.759 2.14625 103.278 2.16283C101.186 2.23488 99.1181 2.13724 97.0302 2.13049C96.7208 2.12948 96.9776 2.19333 96.5217 2.19649C94.8409 2.20843 91.9362 2.2815 90.4774 2.14959C89.3088 2.04395 90.7785 1.95369 89.8857 1.91244C89.455 1.89278 88.9898 2.10569 88.8852 2.11277C87.8673 2.18447 87.16 2.09394 86.2459 2.1264C86.0572 2.13313 86.2426 2.21788 86.082 2.22266C85.5326 2.23976 84.9598 2.20396 84.4316 2.21312C84.1956 2.21742 84.2393 2.28255 84.0222 2.2784C83.5026 2.26924 83.0436 2.24367 82.5381 2.18453C82.492 2.17914 82.8022 2.09663 82.4188 2.09518C81.7976 2.09307 81.0309 2.03583 80.3164 2.10111C80.1038 2.12074 80.0959 2.27004 79.6386 2.16883C79.5427 2.14769 79.664 1.96796 79.133 2.125C79.0435 2.1511 78.1523 2.36362 77.7153 2.23076C77.5999 2.19579 77.3053 2.05032 77.0514 2.0744C77.017 2.07822 77.1553 2.15783 76.9449 2.16651C76.2074 2.19568 75.4178 2.19033 74.6534 2.21854C74.449 2.22624 74.7538 2.30797 74.4492 2.31678C73.6102 2.34115 72.5737 2.32422 71.7542 2.30156C71.4506 2.29305 71.6602 2.22348 71.6381 2.21609C71.2824 2.09587 71.0736 2.26092 70.956 2.27096C70.225 2.33124 69.6698 2.25635 69.0004 2.27945C68.8158 2.28561 68.947 2.36338 68.9103 2.37051C68.5295 2.44025 68.8128 2.29851 68.5716 2.28398C67.9013 2.24279 67.1344 2.25215 66.4471 2.26491C66.1944 2.26971 66.4787 2.35936 66.252 2.36262C64.9093 2.38364 63.5341 2.38044 62.2139 2.33565C61.9672 2.32704 62.1221 2.25652 62.0707 2.24076C61.7159 2.13047 61.1996 2.28489 61.081 2.29987C60.5415 2.36829 60.3324 2.3073 59.8585 2.32072C57.5027 2.38752 54.6187 2.35797 52.4241 2.34131C49.5372 2.32012 47.2924 2.26241 44.581 2.29026C44.4034 2.29197 44.5827 2.38426 44.4298 2.38692C42.4616 2.41703 40.5699 2.38805 38.6278 2.42246C38.4704 2.42511 38.6975 2.51239 38.4451 2.51961C37.94 2.53498 37.249 2.53288 36.7167 2.50679C36.4561 2.49424 36.8052 2.41724 36.543 2.40615C35.9326 2.38016 35.2914 2.37637 34.6812 2.39287C34.4088 2.40013 34.8199 2.4887 34.4663 2.49111C33.5262 2.49825 32.6167 2.50628 31.7321 2.50693C30.2585 2.5083 28.9024 2.49152 27.423 2.42613C27.2612 2.41873 27.1181 2.23604 26.779 2.27249C26.7537 2.32345 26.7553 2.38326 26.7444 2.43767C23.3264 2.48019 19.9533 2.42971 16.5075 2.4332C16.363 2.43336 16.6127 2.5295 16.3336 2.53031C14.724 2.53509 13.1455 2.56808 11.4858 2.47796C11.3235 2.46915 11.4015 2.29803 10.9324 2.32567C10.8564 2.33068 10.097 2.35638 9.92001 2.39414C9.89504 2.39983 10.0254 2.47906 9.79551 2.48227C8.42271 2.49966 6.99367 2.48694 5.63313 2.44342C5.41938 2.43622 5.64606 2.35045 5.49473 2.34458C4.39123 2.30372 3.16636 2.37293 2.10765 2.29978C1.39847 2.2505 1.65644 2.10278 1.28588 1.95966C1.22583 1.9395 0.787897 1.93781 0.770047 1.85379C0.712127 1.64263 0.918436 1.41049 0.831895 1.18549C0.81087 1.13723 0.236533 1.19064 0.574878 1.07277C0.601961 1.06491 1.01977 1.02457 1.1301 0.984382C1.20035 0.956628 1.07082 0.871608 1.21839 0.835872C1.37313 0.800142 1.53947 0.871194 1.77917 0.828944C2.04427 0.786086 1.90978 0.689342 2.41295 0.675952ZM138.088 1.46719C137.698 1.38743 137.642 1.68681 138.063 1.61319C138.084 1.60927 138.108 1.4711 138.088 1.46719ZM185.463 1.09205C184.923 0.967768 184.614 1.1657 184.961 1.26297C185.312 1.36002 185.626 1.12972 185.463 1.09205ZM190.761 0.858477C190.693 0.848716 190.632 0.845441 190.577 0.847179C190.194 0.871435 190.169 1.14617 190.598 1.10851L190.584 1.10909C190.624 1.10683 190.668 1.10204 190.716 1.09426C190.753 1.08834 190.796 0.863487 190.761 0.858477ZM3.03182 1.91204C3.02075 1.90811 2.72739 1.90534 2.70819 1.90935C2.54319 2.00496 3.16378 2.0103 3.03182 1.91204ZM196.022 0.472985C195.831 0.428982 195.299 0.531881 195.536 0.587131C195.726 0.63171 196.258 0.527887 196.022 0.472985ZM117.656 1.24318C117.649 1.23875 117.423 1.23575 117.427 1.26092C117.443 1.342 117.759 1.31769 117.656 1.24318ZM204.963 0.329769C203.641 0.313965 202.838 -0.0354573 204.279 0.00313517C204.54 0.010176 203.717 0.115114 204.049 0.146544C204.656 0.203807 205.06 -0.0161505 205.68 0.10172C205.792 0.123293 205.039 0.331439 204.961 0.330258C204.962 0.330095 204.963 0.329932 204.963 0.329769ZM137.862 1.10904C137.854 1.10512 137.54 1.1029 137.533 1.10686C137.363 1.20264 137.995 1.20717 137.862 1.10904ZM104.405 1.11636C104.387 1.108 103.658 1.10326 103.634 1.11113C103.254 1.26804 104.729 1.27809 104.405 1.11636ZM159.018 0.778167C159.34 0.680745 159.783 0.666863 160.055 0.785189C159.715 0.780858 159.34 0.782148 159.018 0.778167Z" fill="#57718C"/>
</svg>
