<svg width="21" height="21" viewBox="0 0 21 21" fill="none" xmlns="http://www.w3.org/2000/svg">
<path d="M17.55 3.41005C16.6331 2.48416 15.5411 1.75002 14.3376 1.25042C13.134 0.750812 11.8431 0.495737 10.54 0.500054C5.08005 0.500054 0.630049 4.95005 0.630049 10.4101C0.630049 12.1601 1.09005 13.8601 1.95005 15.3601L0.550049 20.5001L5.80005 19.1201C7.25005 19.9101 8.88005 20.3301 10.54 20.3301C16 20.3301 20.4501 15.8801 20.4501 10.4201C20.4501 7.77005 19.42 5.28005 17.55 3.41005ZM10.54 18.6501C9.06005 18.6501 7.61005 18.2501 6.34005 17.5001L6.04005 17.3201L2.92005 18.1401L3.75005 15.1001L3.55005 14.7901C2.7276 13.4771 2.29097 11.9593 2.29005 10.4101C2.29005 5.87005 5.99005 2.17005 10.53 2.17005C12.73 2.17005 14.8 3.03005 16.35 4.59005C17.1177 5.35392 17.726 6.2626 18.1397 7.26338C18.5534 8.26417 18.7642 9.33714 18.76 10.4201C18.7801 14.9601 15.08 18.6501 10.54 18.6501ZM15.06 12.4901C14.81 12.3701 13.59 11.7701 13.37 11.6801C13.14 11.6001 12.98 11.5601 12.81 11.8001C12.64 12.0501 12.17 12.6101 12.03 12.7701C11.89 12.9401 11.74 12.9601 11.49 12.8301C11.24 12.7101 10.44 12.4401 9.50005 11.6001C8.76005 10.9401 8.27005 10.1301 8.12005 9.88005C7.98005 9.63005 8.10005 9.50005 8.23005 9.37005C8.34005 9.26005 8.48005 9.08005 8.60005 8.94005C8.72005 8.80005 8.77005 8.69005 8.85005 8.53005C8.93005 8.36005 8.89005 8.22005 8.83005 8.10005C8.77005 7.98005 8.27005 6.76005 8.07005 6.26005C7.87005 5.78005 7.66005 5.84005 7.51005 5.83005H7.03005C6.86005 5.83005 6.60005 5.89005 6.37005 6.14005C6.15005 6.39005 5.51005 6.99005 5.51005 8.21005C5.51005 9.43005 6.40005 10.6101 6.52005 10.7701C6.64005 10.9401 8.27005 13.4401 10.75 14.5101C11.34 14.7701 11.8 14.9201 12.16 15.0301C12.75 15.2201 13.29 15.1901 13.72 15.1301C14.2 15.0601 15.19 14.5301 15.39 13.9501C15.6 13.3701 15.6 12.8801 15.53 12.7701C15.46 12.6601 15.31 12.6101 15.06 12.4901Z" fill="white"/>
</svg>
