<svg width="125" height="8" viewBox="0 0 125 8" fill="none" xmlns="http://www.w3.org/2000/svg">
<path d="M2.90525 2.06798C4.08479 1.99416 5.61839 1.98131 6.7977 1.99051C7.15079 1.99375 6.97253 2.05112 7.22271 2.05568C7.738 2.06402 8.16335 2.02833 8.6731 2.04163C8.82934 2.0466 8.63656 2.13482 8.80095 2.13809C9.72586 2.15497 10.6254 2.11513 11.545 2.11486C14.9013 2.1128 18.1957 2.09113 21.5755 2.06505C22.8264 2.05579 24.1237 2.04547 25.4311 2.03587C26.9638 2.02474 28.8475 2.07252 30.4556 2.01533C30.6395 2.00864 30.5288 1.93657 30.5637 1.92998C31.113 1.82883 30.9322 1.98032 31.2945 1.99473C32.7552 2.05121 34.3442 2.03485 35.7315 1.98639C36.3188 1.96561 35.7268 1.82773 36.3213 1.90135C36.3626 1.90631 36.214 1.98672 36.376 1.99273C36.7419 2.00624 37.4489 1.98212 37.7318 1.98428C38.2747 1.98887 38.3651 1.98679 38.883 1.98031C39.592 1.97212 40.4452 1.99894 41.1978 1.97058C41.3597 1.96428 41.144 1.88709 41.4023 1.86979C41.6605 1.85252 42.3488 1.84964 42.5825 1.86527C42.8159 1.88092 42.7175 1.94537 42.759 1.95924C43.1 2.07646 43.8824 1.89653 43.9857 1.89091C45.853 1.79362 47.4437 1.86785 49.1914 1.84351C50.5155 1.82487 51.9355 1.77365 53.1968 1.76081C54.7057 1.74575 55.9734 1.77203 57.4365 1.74478C57.5904 1.74201 57.4088 1.65012 57.5967 1.64654C59.5958 1.60856 61.5826 1.59217 63.5753 1.62923C63.7751 1.63303 63.5188 1.71928 63.7185 1.72803C64.9405 1.77977 66.8769 1.91752 67.5971 1.54733C68.4227 1.55045 69.4306 1.55164 70.1714 1.61453C70.649 1.655 70.1871 1.75135 70.7721 1.70511C70.904 1.69478 70.7313 1.61804 70.9291 1.60854C71.7597 1.56863 72.6801 1.58217 73.5025 1.5305C73.67 1.51981 73.6233 1.44961 73.6706 1.43624C74.0672 1.32775 74.7366 1.48964 74.883 1.50012C75.9959 1.57797 76.7882 1.53117 77.8272 1.5198C78.067 1.51722 77.7823 1.42584 78.013 1.41994C79.2068 1.39066 80.4401 1.38269 81.6107 1.4096C81.8701 1.41583 81.6328 1.49994 81.7567 1.50707C82.3042 1.53747 82.4161 1.38299 82.946 1.40913C83.0576 1.41445 82.9957 1.48461 83.0161 1.49196C83.3361 1.60736 83.6092 1.43437 83.6907 1.42957C84.7217 1.36501 85.3667 1.53348 86.3707 1.49537C86.4898 1.49064 86.2201 1.40639 86.5548 1.39848C88.7622 1.34552 91.1463 1.33867 93.331 1.38054C93.678 1.38683 93.4312 1.45595 93.4532 1.4638C93.8104 1.58614 94.036 1.41308 94.1479 1.40522C95.0282 1.34769 95.8434 1.47981 96.4489 1.26931C99.0581 1.2847 101.649 1.21024 104.242 1.2097C105.388 1.20905 106.482 1.22271 107.591 1.26283C107.637 1.26433 107.555 1.34918 107.647 1.35182C108.777 1.38417 108.574 1.25659 109.304 1.08781C109.477 1.04558 110.075 1.23009 110.123 1.24356C110.31 1.29307 110.119 1.42022 110.181 1.42947C110.698 1.50174 110.597 1.0908 111.288 1.0817C111.31 1.0821 111.218 1.15918 111.277 1.16595C111.463 1.18723 111.644 1.15473 111.821 1.17856C112.231 1.2337 112.342 1.43257 112.983 1.30771C113.06 1.29159 112.944 1.05922 113.553 1.06242C113.773 1.06418 114.899 1.04575 115.185 1.05728C115.499 1.06842 115.285 1.1465 115.307 1.14948C116.139 1.23858 115.822 1.2839 116.224 1.42636C116.652 1.56796 116.528 1.21898 116.697 1.17774C116.866 1.13659 117.456 1.21151 117.614 1.23816C117.763 1.26492 117.578 1.31507 117.711 1.32963C118.566 1.42492 118.082 1.15111 118.373 1.09196C119.053 0.952055 119.566 1.20602 120.201 1.22452C120.366 1.22959 120.231 1.17185 120.377 1.16475C120.976 1.13725 121.32 1.21468 121.997 1.13479C122.088 1.1219 122.658 0.961333 123.002 1.07553C123.051 1.09201 122.915 1.15687 123.161 1.17118C123.314 1.17992 123.51 1.1874 123.72 1.19537C123.817 1.20034 123.93 1.20015 124.051 1.21651C124.056 1.21821 124.071 1.21715 124.104 1.23381C124.109 1.24202 124.192 1.26308 124.151 1.38524C124.11 1.4477 124.087 1.43738 124.087 1.44178C124.065 1.45039 124.043 1.45504 124.032 1.45761C124.003 1.46415 123.977 1.46876 123.95 1.47368C123.898 1.48301 123.848 1.49161 123.8 1.50072C123.701 1.51946 123.609 1.53815 123.528 1.55631C123.235 1.62144 123.591 1.67046 123.214 1.69933C123.046 1.71168 123.342 1.60021 123.029 1.62835C122.717 1.65706 121.926 1.78006 121.626 1.82401C121.327 1.86863 121.502 1.92555 121.478 1.9344C121.334 1.98689 120.763 2.10308 120.711 2.10935C118.132 2.45363 115.73 2.53095 113.222 2.79061C113.025 2.81065 113.164 2.88465 113.134 2.88859C112.456 2.9813 112.974 2.71015 112.496 2.67366C112.58 2.84055 112.294 2.83293 111.822 2.89034C111.591 2.9184 111.723 2.97504 111.702 2.98359C111.37 3.11274 111.124 3.00032 111.059 2.9785C110.822 2.89808 110.593 3.03361 110.431 2.97995C110.272 2.92661 110.619 2.80161 110.16 2.83893C110.038 2.91069 110.386 3.04597 110.045 3.09907C109.895 3.12236 109.728 3.14389 109.547 3.16393C108.199 3.31282 106.175 3.40529 105.242 3.4835C104.193 3.57163 103.857 3.61635 103.242 3.65383C102.133 3.72156 102.551 3.80162 101.871 3.92329C101.188 4.04514 101.493 3.71812 101.388 3.66445C101.285 3.6106 101.187 3.68593 101.063 3.66285C100.939 3.63974 101.195 3.57142 100.911 3.58583C100.625 3.6005 99.8617 3.78763 99.7694 3.86321C99.5709 4.02372 99.9347 4.13764 99.179 4.15749C99.1358 4.15849 99.2676 4.06781 99.1026 4.0756C97.7876 4.14043 96.4237 4.2626 95.1102 4.32456C94.9294 4.33297 95.083 4.23264 94.9776 4.23655C93.8819 4.27608 94.283 4.38762 93.6992 4.59989C93.8158 4.37339 93.4724 4.27073 92.6451 4.33696C92.1459 4.37655 92.2405 4.46334 91.9232 4.5552C91.8281 4.58287 91.4699 4.54601 91.4098 4.59507C91.2103 4.75563 91.5554 4.89232 90.6945 4.89283C90.6568 4.89259 90.7702 4.80456 90.6403 4.8095C89.7997 4.84039 89.7104 4.99897 88.8046 5.07993C88.4869 5.10809 88.0567 5.12182 87.606 5.13051C87.0489 5.14137 86.46 5.1448 86.0134 5.16243C86.0151 4.91953 85.2564 5.01874 84.9535 5.20268C84.4281 5.22483 83.8619 5.26427 83.351 5.26723C83.1756 5.26829 83.287 5.19229 83.2645 5.18584C82.9219 5.0841 82.7005 5.25795 82.5871 5.26996C81.3592 5.3926 80.3562 5.31492 79.1853 5.4871C79.1439 5.49326 79.0811 5.6647 78.7647 5.55534C78.7438 5.54776 79.1263 5.4544 78.5766 5.47237C78.0236 5.4905 76.9808 5.44437 76.2174 5.55545C76.0277 5.58244 75.564 5.73945 75.1887 5.64944C75.1365 5.63727 75.1906 5.58646 75.1152 5.56295C74.8731 5.4882 74.7603 5.66382 74.4744 5.53265C74.1951 5.40255 73.6126 5.31663 72.8437 5.47354C72.8197 5.4796 72.6512 5.62251 72.4109 5.65597C72.36 5.65835 72.2878 5.69843 72.3309 5.65876C72.3895 5.67649 72.4278 5.68203 72.5025 5.69363C72.8178 5.73978 73.206 5.77588 73.5027 5.79242C73.6966 5.8026 73.5767 5.71207 73.6103 5.71237C74.9115 5.73235 75.8381 5.83846 77.2372 5.91933C77.4899 5.93408 78.2361 5.84416 78.7257 5.94979C79.2695 6.06559 78.6943 6.45988 79.9515 6.39989C80.4569 6.37582 81.1135 5.87296 82.0131 6.16924C83.7744 6.15249 85.3986 6.33529 87.1677 6.28843C87.2471 6.28639 87.501 6.14766 87.689 6.15485C87.9673 6.16579 88.1132 6.23797 88.3134 6.24803C89.1386 6.29155 89.904 6.25484 90.7025 6.28711C91.0057 6.29925 90.8923 6.36635 91.2594 6.38111C91.607 6.39517 91.8548 6.31559 92.3056 6.36481C92.3208 6.36641 92.3361 6.36814 92.3516 6.37001C92.7263 6.41577 93.0874 6.61677 93.5761 6.65501C93.6025 6.4689 93.9401 6.48365 94.5377 6.45521C94.6558 6.44978 94.5318 6.38032 94.5878 6.3744C94.8157 6.34888 95.0113 6.40989 95.2279 6.38134C95.2793 6.37447 95.284 6.31076 95.3259 6.30154C95.6877 6.22074 96.2651 6.38725 96.3668 6.41651C96.7476 6.52704 96.9296 6.45173 97.2282 6.50226C97.5174 6.55254 97.0777 6.57972 97.4221 6.61783C98.1344 6.69653 99.0547 6.73341 99.7803 6.78157C100.069 6.80019 99.8773 6.70297 99.9186 6.70365C100.424 6.71705 100.927 6.81137 101.278 6.74754C101.345 6.73543 101.407 6.71775 101.461 6.69292C101.858 7.14997 101.824 6.66365 102.679 6.78916C102.746 6.79953 102.822 7.01062 102.562 7.02916C102.302 7.0477 101.912 6.96845 101.549 7.00054C101.511 7.00386 101.39 7.04012 101.262 7.07928C101.102 7.12799 100.931 7.1809 100.894 7.18525C100.364 7.24588 100.31 6.93058 100.284 6.91211C99.983 6.70843 99.3749 6.88146 99.2179 6.88738C98.4942 6.91264 97.8936 6.84027 97.2876 6.86058C96.8941 6.87387 96.8483 7.07539 96.5398 7.05632C95.5128 6.99406 95.1703 6.69829 94.1946 6.91012C93.9821 6.95537 94.1871 7.18416 93.4442 6.98482C93.4041 6.97244 92.8502 6.79466 92.5335 6.88592C92.4928 6.8974 92.4921 6.96212 92.4386 6.96589C92.386 6.9694 92.3357 6.97113 92.2869 6.97157C92.0178 6.97463 91.7859 6.93307 91.4632 6.94454C91.076 6.95769 90.6127 6.98099 90.1722 6.94639C89.9104 6.92573 89.5669 6.79537 89.4443 6.76237C89.089 6.66725 88.6992 6.79581 88.4805 6.6867C88.2587 6.57698 88.7024 6.43212 88.1149 6.34887C88.0886 6.51633 88.0341 6.68744 87.9946 6.85549C86.708 6.81383 85.4404 6.72479 84.1484 6.69631C83.9881 6.69294 84.1495 6.78785 83.9776 6.78656C83.2529 6.78075 82.6205 6.69854 81.8688 6.70269C81.2861 6.70621 80.6481 6.78338 80.0359 6.78919C79.6711 6.58586 78.7646 6.62363 78.1086 6.58483C77.8791 6.57135 77.8966 6.52049 77.7362 6.49848C77.1146 6.41592 77.4027 6.59549 77.2326 6.61659C76.5003 6.70579 76.454 6.31958 75.5971 6.29687C75.5552 6.2958 74.9864 6.47857 74.9138 6.48815C74.4231 6.55085 74.8351 6.41351 74.5313 6.38525C73.9763 6.3323 73.594 6.26769 72.9335 6.28338C72.8328 6.28535 72.6434 6.31429 72.4264 6.30959C72.3613 6.30588 72.3172 6.30386 72.2432 6.29125C72.2173 6.28642 72.1908 6.28079 72.1589 6.27189C72.1429 6.26738 72.1255 6.26203 72.1051 6.25468C72.0728 6.23924 72.1051 6.26645 71.9648 6.1846C71.9079 6.14375 71.8099 6.08236 71.7297 5.90143C71.6409 5.7208 71.6962 5.43076 71.791 5.31532C71.8936 5.17484 71.964 5.14628 72.0148 5.11529C72.1085 5.06583 72.1775 5.05302 72.1865 5.05008C72.3667 5.0112 72.4434 5.02051 72.5418 5.03161C72.5928 5.03943 72.5718 5.10968 72.6133 5.10963C73.3429 5.11536 73.3507 4.90979 73.7462 4.81391C74.1447 4.71992 74.7888 4.83726 74.9076 4.87431C75.2421 4.96875 74.6631 4.93241 74.6398 4.94443C74.434 5.08235 74.8832 5.0389 75.2364 5.03401C75.2907 5.24058 75.7815 5.20637 75.5952 5.02845C75.5728 5.00908 75.3032 5.04053 75.2364 5.03401C75.524 4.8159 76.0694 4.7658 76.6587 4.93227C76.9442 5.00989 76.6775 5.12605 77.5165 5.05185C77.8924 5.01845 77.7447 4.88083 78.0762 4.82734C78.8378 4.7051 79.8372 4.79554 80.6242 4.73816C80.9087 4.71739 80.6279 4.65151 80.8216 4.63461C81.339 4.58929 81.7995 4.62659 82.3185 4.57089C82.3654 4.56575 82.2464 4.48908 82.4078 4.4801C83.6343 4.41001 84.7061 4.40651 85.9866 4.33361C86.3878 4.31073 86.9956 4.25514 87.5476 4.20916C87.8436 4.18455 88.1237 4.1627 88.3475 4.15096C89.4572 4.09282 90.8308 4.11102 91.776 4.00687C92.3926 3.93931 92.2496 3.86776 92.5104 3.79041C93.0121 3.64083 93.9312 3.75904 94.0564 3.77847C94.0597 3.77927 93.5305 3.84355 93.8172 3.86176C93.9892 3.93568 94.0505 3.77935 94.0564 3.77847C94.1382 3.79141 95.2023 3.71792 95.4104 3.68331C95.5241 3.6646 95.4533 3.59247 95.5129 3.58416C96.9271 3.38848 98.3466 3.23587 99.7888 3.13416C99.8141 3.13331 99.7845 3.22391 99.844 3.22083C100.683 3.17923 101.204 3.02105 101.886 2.89079C102.57 2.76033 103.114 2.72835 103.538 2.83766C104.05 2.76859 104.81 2.76126 105.237 2.76059C105.674 2.75895 105.714 2.58448 105.751 2.57747C106.923 2.35831 107.605 2.39128 108.838 2.30267C109.006 2.29099 109.239 2.27138 109.476 2.25052C110.063 2.19925 110.751 2.12872 111.199 2.07957C111.689 2.02516 111.993 2.04046 112.451 1.97698C112.513 1.96847 112.444 1.89819 112.463 1.89372C112.961 1.76143 112.733 1.96603 112.842 1.99018C113.237 2.07765 113.477 2.12194 114.124 2.00888C114.274 1.98292 114.691 1.67863 114.96 1.63864C115.317 1.58649 115.191 1.6939 115.56 1.63672C115.592 1.63185 115.581 1.57374 115.811 1.55484C116.88 1.46616 118.044 1.38356 119.148 1.24972C119.298 1.2316 119.095 1.16124 119.311 1.13353C120.329 1.00344 121.444 0.857988 122.435 0.747179C122.68 0.720028 122.537 0.808547 122.593 0.819464C122.936 0.884887 123.367 0.639593 123.442 0.623392C123.509 0.608844 123.576 0.59465 123.642 0.580776C123.701 0.568665 123.755 0.558131 123.797 0.549003C123.815 0.545233 123.839 0.539062 123.819 0.542957C123.811 0.545032 123.797 0.547951 123.761 0.56046C123.752 0.563686 123.741 0.567645 123.728 0.572941C123.718 0.57798 123.698 0.582 123.621 0.626894C123.557 0.677636 123.407 0.725977 123.271 1.05938C123.208 1.2237 123.209 1.47061 123.284 1.6433C123.373 1.8363 123.397 1.8379 123.452 1.90469C123.653 2.09626 123.739 2.09442 123.795 2.11987C123.85 2.13703 123.876 2.14061 123.88 2.14166C123.897 2.14513 123.907 2.14654 123.913 2.14747C123.921 2.14999 123.772 2.14546 123.689 2.14589C123.496 2.14507 123.281 2.14477 123.091 2.14327C122.695 2.14047 122.289 2.13387 121.908 2.1277C121.118 2.11577 120.322 2.10702 119.419 2.15281C119.305 2.1584 118.54 2.35056 118.168 2.19803C118.145 2.18785 117.809 2.03121 117.493 2.14498C117.473 2.15211 117.699 2.23206 117.307 2.22846C116.951 2.22443 116.301 2.28782 115.807 2.20316C115.653 2.17648 115.222 2.02161 114.759 2.15532C114.737 2.16452 113.955 2.46352 113.695 2.26749C113.65 2.23525 113.7 2.02361 113.114 2.13933C113.001 2.16176 113.208 2.20615 112.909 2.2394C112.429 2.29089 111.878 2.24151 111.297 2.34304C111.187 2.36111 110.799 2.50935 110.465 2.40499C110.413 2.38864 110.51 2.31694 110.335 2.31133C109.473 2.28471 108.646 2.34259 107.778 2.30516C107.485 2.29183 107.634 2.17603 107.326 2.14952C107.021 2.12298 106.374 2.10206 106.049 2.15832C105.731 2.21451 106.083 2.39142 105.603 2.41219C105.164 2.43108 104.716 2.44267 104.259 2.44936C102.615 2.47352 100.908 2.42646 99.2454 2.43569C98.9312 2.43744 99.1936 2.49898 98.728 2.50625C97.0112 2.53332 94.0653 2.63238 92.5729 2.51375C91.3882 2.4186 92.8776 2.31513 91.9711 2.28191C91.5329 2.26614 91.0564 2.48333 90.9492 2.49136C89.9133 2.57228 89.2066 2.488 88.2633 2.52894C88.0689 2.53742 88.2608 2.62044 88.0952 2.62671C87.5415 2.64874 86.9575 2.61817 86.4215 2.63213C86.1811 2.63858 86.2263 2.70331 86.0044 2.70116C85.4692 2.69682 85.0096 2.67535 84.4958 2.62083C84.449 2.61586 84.7631 2.53052 84.3739 2.53257C83.7468 2.53608 82.9446 2.48616 82.2284 2.55788C82.014 2.57944 82.008 2.72879 81.5439 2.63176C81.4464 2.61151 81.5686 2.43066 81.03 2.59258C80.9419 2.61947 80.0247 2.84037 79.5852 2.71147C79.468 2.67756 79.1677 2.53481 78.9091 2.56125C78.874 2.56539 79.0157 2.64371 78.8013 2.65434C78.0468 2.6904 77.2415 2.69241 76.4712 2.72764C76.264 2.73722 76.5738 2.81613 76.265 2.82777C75.4171 2.85987 74.3435 2.85287 73.5165 2.8378C73.2099 2.83211 73.4209 2.7606 73.3985 2.75341C73.0382 2.6365 72.8278 2.80349 72.7086 2.81464C71.9674 2.88175 71.3984 2.81213 70.7179 2.84154C70.5296 2.84945 70.6642 2.92597 70.6268 2.93345C70.2387 3.0068 70.5267 2.86238 70.2801 2.85014C69.5902 2.81538 68.8157 2.83193 68.12 2.85117C67.8639 2.85836 68.153 2.94531 67.9231 2.95072C66.562 2.98443 65.1437 2.99463 63.8139 2.96234C63.5634 2.9561 63.72 2.88409 63.6676 2.86883C63.3064 2.76194 62.7813 2.92134 62.6601 2.93748C62.1093 3.01113 61.8943 2.95219 61.4074 2.97026C59.0309 3.05957 56.0878 3.05837 53.8458 3.06361C50.9195 3.07091 48.643 3.03568 45.8582 3.09162C45.6822 3.09508 45.861 3.18559 45.7093 3.18977C43.7246 3.23978 41.7851 3.23064 39.8112 3.28549C39.6478 3.28985 39.8846 3.37465 39.6224 3.38461C39.0847 3.40565 38.4089 3.41048 37.8741 3.38998C37.6133 3.38014 37.9617 3.2995 37.6993 3.29115C37.076 3.27169 36.4083 3.275 35.7789 3.29822C35.511 3.30829 35.9165 3.39261 35.5684 3.39868C33.1618 3.44239 30.853 3.49179 28.4127 3.41175C28.247 3.40622 28.1091 3.22503 27.7529 3.26556C27.7266 3.31682 27.729 3.37662 27.718 3.43115C25.6636 3.47949 23.6178 3.49624 21.5988 3.51153C20.1394 3.52302 18.7465 3.53292 17.2979 3.55376C17.1502 3.5559 17.4067 3.6486 17.1215 3.65324C15.4745 3.68023 13.8921 3.73549 12.1964 3.67167C12.0353 3.66536 12.1142 3.49293 11.6131 3.52859C11.515 3.53519 10.8107 3.57201 10.5971 3.61349C10.5708 3.61962 10.7102 3.69652 10.4666 3.70382C9.08196 3.74428 7.61702 3.75808 6.23758 3.74473C6.02069 3.74231 6.24867 3.65149 6.09506 3.64902C4.96075 3.63372 3.73422 3.73268 2.66 3.7025C1.94051 3.68459 2.19809 3.52542 1.81331 3.40371C1.75338 3.38555 1.32342 3.41798 1.29251 3.34071C1.20465 3.13803 1.4009 2.8828 1.28714 2.66878C1.27009 2.64844 1.12795 2.65424 0.929087 2.69831C0.864824 2.72265 0.80472 2.70742 0.631998 2.86052C0.552384 2.92951 0.480449 3.10023 0.475201 3.16643C0.463307 3.24312 0.464801 3.25057 0.460813 3.25457C0.466995 3.23503 0.404835 3.34732 0.481659 3.02247C0.540632 2.85369 0.693578 2.73696 0.752273 2.70212C0.845289 2.64806 0.869469 2.63785 0.926007 2.61352C1.02749 2.56824 1.4789 2.48742 1.59174 2.44098C1.6632 2.40821 1.52193 2.33261 1.67381 2.28654C1.83854 2.24004 2.00716 2.30179 2.26095 2.2476C2.51461 2.19353 2.40396 2.10047 2.90525 2.06798ZM107.187 2.75714C107.591 2.80224 107.622 2.49917 107.2 2.60946C107.18 2.61517 107.166 2.75504 107.187 2.75714ZM85.4546 6.49934C84.9366 6.35307 84.5756 6.53712 84.94 6.64913C85.3044 6.76102 85.6124 6.5437 85.4546 6.49934ZM90.8589 6.55436C90.2539 6.4327 90.1436 6.85384 90.7999 6.78711C90.8377 6.78336 90.894 6.56142 90.8589 6.55436ZM3.58786 3.28152C3.57994 3.27773 3.25118 3.28585 3.24771 3.29002C3.07766 3.3913 3.73012 3.3751 3.58786 3.28152ZM96.2179 6.62896C96.0335 6.56402 95.4827 6.60924 95.7157 6.68956C95.901 6.75395 96.4486 6.70962 96.2179 6.62896ZM120.219 1.37033C120.214 1.36592 119.98 1.36449 119.984 1.38964C120.003 1.47057 120.324 1.44414 120.219 1.37033ZM105.291 7.20755C103.981 6.98214 103.174 6.59334 104.649 6.78068C104.913 6.81994 104.062 6.82371 104.397 6.89459C105.003 7.02433 105.452 6.87228 106.051 7.12867C106.157 7.17115 105.364 7.21598 105.289 7.20762C105.289 7.2076 105.29 7.20757 105.291 7.20755ZM107.448 3.09407C107.454 3.09742 107.776 3.07213 107.783 3.06762C107.948 2.95743 107.303 3.00795 107.448 3.09407ZM106.74 1.35569C106.725 1.34745 105.96 1.34952 105.949 1.35743C105.559 1.51779 107.075 1.51448 106.74 1.35569ZM86.0003 5.15672C85.6551 5.27252 85.2417 5.30707 84.9551 5.20271C85.3044 5.18982 85.6494 5.17123 86.0003 5.15672Z" fill="#57718C"/>
</svg>
