<svg width="21" height="13" viewBox="0 0 21 13" fill="none" xmlns="http://www.w3.org/2000/svg">
<path d="M20.079 1.35507C20.219 0.890072 20.079 0.549072 19.417 0.549072H17.224C16.666 0.549072 16.411 0.844073 16.271 1.16807C16.271 1.16807 15.156 3.88707 13.576 5.65007C13.066 6.16307 12.833 6.32507 12.555 6.32507C12.416 6.32507 12.214 6.16307 12.214 5.69807V1.35507C12.214 0.797072 12.053 0.549072 11.588 0.549072H8.142C7.794 0.549072 7.584 0.807072 7.584 1.05307C7.584 1.58107 8.374 1.70307 8.455 3.19107V6.41907C8.455 7.12607 8.328 7.25507 8.048 7.25507C7.305 7.25507 5.497 4.52607 4.424 1.40207C4.215 0.795072 4.004 0.550073 3.444 0.550073H1.252C0.625 0.550073 0.5 0.845073 0.5 1.16907C0.5 1.75107 1.243 4.63107 3.961 8.44007C5.773 11.0411 8.324 12.4511 10.648 12.4511C12.041 12.4511 12.213 12.1381 12.213 11.5981V9.63207C12.213 9.00607 12.346 8.88007 12.787 8.88007C13.111 8.88007 13.669 9.04407 14.97 10.2971C16.456 11.7831 16.702 12.4501 17.537 12.4501H19.729C20.355 12.4501 20.668 12.1371 20.488 11.5191C20.291 10.9041 19.581 10.0091 18.639 8.95007C18.127 8.34607 17.362 7.69607 17.129 7.37107C16.804 6.95207 16.898 6.76707 17.129 6.39507C17.13 6.39607 19.801 2.63407 20.079 1.35507Z" fill="white"/>
</svg>
