<svg width="25" height="24" viewBox="0 0 25 24" fill="none" xmlns="http://www.w3.org/2000/svg">
<path d="M22.079 6.85507C22.219 6.39007 22.079 6.04907 21.417 6.04907H19.224C18.666 6.04907 18.411 6.34407 18.271 6.66807C18.271 6.66807 17.156 9.38707 15.576 11.1501C15.066 11.6631 14.833 11.8251 14.555 11.8251C14.416 11.8251 14.214 11.6631 14.214 11.1981V6.85507C14.214 6.29707 14.053 6.04907 13.588 6.04907H10.142C9.794 6.04907 9.584 6.30707 9.584 6.55307C9.584 7.08107 10.374 7.20307 10.455 8.69107V11.9191C10.455 12.6261 10.328 12.7551 10.048 12.7551C9.305 12.7551 7.497 10.0261 6.424 6.90207C6.215 6.29507 6.004 6.05007 5.444 6.05007H3.252C2.625 6.05007 2.5 6.34507 2.5 6.66907C2.5 7.25107 3.243 10.1311 5.961 13.9401C7.773 16.5411 10.324 17.9511 12.648 17.9511C14.041 17.9511 14.213 17.6381 14.213 17.0981V15.1321C14.213 14.5061 14.346 14.3801 14.787 14.3801C15.111 14.3801 15.669 14.5441 16.97 15.7971C18.456 17.2831 18.702 17.9501 19.537 17.9501H21.729C22.355 17.9501 22.668 17.6371 22.488 17.0191C22.291 16.4041 21.581 15.5091 20.639 14.4501C20.127 13.8461 19.362 13.1961 19.129 12.8711C18.804 12.4521 18.898 12.2671 19.129 11.8951C19.13 11.8961 21.801 8.13407 22.079 6.85507Z" fill="#666666"/>
</svg>
