<svg width="437" height="5" viewBox="0 0 437 5" fill="none" xmlns="http://www.w3.org/2000/svg">
<path d="M4.99127 0.487381C7.45958 0.435275 10.6209 0.490988 13.0721 0.567459C13.8301 0.591176 13.4383 0.697192 13.9568 0.718337C14.9987 0.759558 15.9343 0.707563 16.9656 0.756667C17.3118 0.773459 16.88 0.941389 17.2445 0.955153C19.1645 1.02937 20.968 0.986594 22.9934 1.02229C32.6323 1.19841 42.1139 1.26145 51.9367 1.33796C55.1343 1.36305 59.0203 1.51545 62.4396 1.4488C62.8172 1.44087 62.5921 1.29347 62.664 1.28132C63.7957 1.09534 63.4196 1.39291 64.1659 1.43245C67.1813 1.58855 70.4963 1.60213 73.423 1.54524C74.6795 1.52061 73.4164 1.22783 74.6881 1.39216C74.7767 1.40327 74.4551 1.55979 74.8028 1.57649C74.8656 1.57948 74.9331 1.58206 75.0042 1.58427C75.776 1.60983 77.0306 1.58705 77.5747 1.59846C78.7135 1.62315 78.904 1.62158 79.9986 1.62336C81.5271 1.62716 83.2422 1.70497 84.8199 1.66951C85.1572 1.66147 84.7102 1.50101 85.2489 1.47371C85.7866 1.44644 87.2279 1.46005 87.7199 1.49788C88.2104 1.53572 88.0017 1.66184 88.0886 1.69075C88.8227 1.93474 90.4506 1.59681 90.6584 1.58845C94.4881 1.44605 97.8992 1.63856 101.501 1.63801C104.31 1.63719 107.229 1.57363 109.863 1.58235C113.045 1.59335 115.658 1.6803 118.71 1.66536C119.032 1.66396 118.654 1.4753 119.048 1.47322C123.328 1.45126 127.3 1.47183 131.562 1.59919C131.982 1.61213 131.447 1.77778 131.858 1.80061C134.358 1.93674 138.401 2.26376 139.94 1.54255C141.718 1.57071 143.734 1.59981 145.289 1.74519C146.284 1.83876 145.317 2.01921 146.541 1.94221C146.817 1.92505 146.458 1.76702 146.873 1.75325C148.607 1.69539 150.587 1.74676 152.265 1.66511C152.611 1.64813 152.517 1.50653 152.615 1.48103C153.441 1.27452 154.824 1.61589 155.127 1.6407C157.428 1.82567 159.13 1.75288 161.303 1.7574C161.795 1.75852 161.214 1.56832 161.687 1.56257C164.145 1.53531 166.719 1.55166 169.174 1.63606C169.721 1.65529 169.218 1.81731 169.479 1.83479C170.629 1.90989 170.9 1.60388 171.989 1.66999C172.217 1.68354 172.089 1.82224 172.13 1.83747C172.782 2.0766 173.35 1.73778 173.519 1.7303C175.648 1.62809 177.018 1.9818 179.1 1.93171C179.349 1.92536 178.787 1.74986 179.488 1.74275C184.189 1.6943 189.001 1.74251 193.662 1.88288C194.37 1.90447 193.865 2.03631 193.909 2.05256C194.635 2.3065 195.106 1.96625 195.337 1.95344C197.162 1.8612 198.879 2.14654 200.131 1.74128C207.947 1.88192 215.692 1.65435 223.392 2.01741C223.49 2.02161 223.314 2.18918 223.51 2.19685C225.877 2.29094 225.423 2.0305 226.995 1.71199C227.397 1.632 228.584 2.01656 228.689 2.04475C229.071 2.14862 228.675 2.39792 228.803 2.41804C229.864 2.57601 229.69 1.75156 231.125 1.75129C231.17 1.75267 230.981 1.90442 231.101 1.91951C231.476 1.96687 231.847 1.90657 232.214 1.95881C233.054 2.07968 233.353 2.48029 234.64 2.24714C234.803 2.21688 234.553 1.74922 235.843 1.77131C236.357 1.78052 238.64 1.7725 239.283 1.80281C239.924 1.83308 239.484 1.98378 239.529 1.99031C241.233 2.18958 240.586 2.27218 241.439 2.56721C242.292 2.86113 242.055 2.1601 242.403 2.08186C242.752 2.00384 244.003 2.16825 244.311 2.22541C244.619 2.28259 244.235 2.37836 244.509 2.41071C246.325 2.62213 245.306 2.06275 245.905 1.95149C247.318 1.68804 248.421 2.20792 249.721 2.25886C250.073 2.27262 249.786 2.15421 250.099 2.14314C251.342 2.10085 252.087 2.26307 253.48 2.11433C253.708 2.09009 254.837 1.77752 255.569 2.00691C255.673 2.03998 255.378 2.16954 255.903 2.19856C256.686 2.24211 258.1 2.27043 258.946 2.22712C259.57 2.19508 258.855 1.98161 259.641 2.04792C259.99 2.07753 259.342 2.20242 259.999 2.24763C260.652 2.29283 262.326 2.28734 262.964 2.28303C263.601 2.27862 263.252 2.11669 263.304 2.10578C263.618 2.04329 264.831 1.96521 264.936 1.9654C270.3 1.94564 275.384 2.21858 280.602 2.12824C281.015 2.12139 280.74 1.95063 280.803 1.94783C282.216 1.87628 281.102 2.33029 282.09 2.48225C281.947 2.13573 282.53 2.19847 283.528 2.16047C284.009 2.14188 283.747 2.0077 283.791 1.99397C284.505 1.79017 285.002 2.0534 285.13 2.10725C285.603 2.30533 286.119 2.07128 286.441 2.20368C286.763 2.33509 286.022 2.52991 286.982 2.52741C287.252 2.40337 286.538 2.07922 287.268 2.02668C290.038 1.82796 295.103 2.08229 297.321 2.10871C299.524 2.13511 300.239 2.11222 301.527 2.15705C303.845 2.23811 302.99 1.99761 304.424 1.88752C305.861 1.77745 305.163 2.3692 305.369 2.49641C305.572 2.62356 305.794 2.49267 306.046 2.56257C306.298 2.63245 305.753 2.71895 306.345 2.74519C306.937 2.7714 308.558 2.54519 308.769 2.41218C309.214 2.13038 308.482 1.83463 310.054 1.93855C310.144 1.94472 309.851 2.10031 310.197 2.11604C312.947 2.23582 315.818 2.24325 318.545 2.34919C318.922 2.364 318.585 2.5371 318.804 2.54768C321.087 2.65839 320.271 2.36653 321.523 2.04231C321.242 2.47378 321.934 2.73776 323.672 2.7403C324.717 2.74199 324.537 2.55354 325.213 2.42072C325.416 2.38069 326.157 2.51008 326.291 2.42146C326.734 2.13176 326.035 1.80746 327.832 1.93659C327.911 1.94273 327.66 2.10131 327.932 2.11091C329.686 2.17377 329.889 1.87075 331.781 1.83406C333.263 1.80526 335.905 1.99004 337.6 2.02009C337.564 2.50519 339.165 2.39411 339.816 2.05964C340.918 2.07333 342.106 2.05443 343.161 2.10066C343.526 2.11642 343.286 2.25687 343.332 2.27204C344.036 2.5101 344.513 2.1847 344.749 2.17195C347.312 2.04794 349.405 2.29456 351.861 2.05354C351.948 2.04486 352.089 1.70789 352.746 1.95393C352.789 1.97089 351.977 2.1242 353.133 2.13606C354.293 2.14794 356.461 2.32858 358.059 2.17243C358.445 2.13484 359.424 1.8613 360.21 2.07502C360.314 2.10404 360.2 2.20069 360.351 2.25446C360.84 2.42582 361.106 2.08524 361.681 2.37458C362.256 2.66392 363.451 2.88061 365.068 2.68098C365.12 2.67517 365.503 2.40523 366.012 2.40949C366.823 2.41654 367.98 2.47278 368.825 2.47102C369.229 2.47008 368.97 2.30245 369.04 2.29939C371.758 2.20546 373.694 2.35489 376.615 2.41975C377.15 2.43197 378.689 2.20339 379.727 2.3841C380.866 2.58193 379.697 3.40487 382.315 3.20881C383.367 3.13039 384.699 2.08635 386.592 2.62727C390.262 2.49323 393.676 2.77007 397.355 2.57868C397.521 2.5702 398.044 2.27882 398.433 2.28279C399.011 2.28924 399.328 2.42542 399.741 2.4344C401.47 2.47542 403.054 2.3589 404.723 2.37702C405.357 2.38361 405.136 2.52443 405.892 2.5323C406.648 2.54004 407.152 2.35461 408.177 2.44416C408.951 2.51242 409.724 2.89144 410.748 2.93562C410.787 2.56176 411.49 2.56946 412.742 2.47077C412.982 2.45162 412.724 2.3215 412.838 2.30573C413.301 2.23867 413.73 2.34651 414.169 2.27351C414.276 2.25597 414.281 2.1283 414.369 2.10676C415.113 1.91874 416.338 2.20593 416.549 2.25593C417.356 2.44583 417.733 2.27978 418.352 2.35456C418.971 2.42934 418.046 2.52281 418.768 2.56818C420.265 2.66204 422.192 2.64142 423.71 2.64729C424.316 2.64884 423.902 2.47841 423.989 2.47468C425.241 2.43145 426.508 2.61274 427.203 2.27326C428.072 3.15102 427.959 2.18813 429.751 2.36384C429.892 2.37805 430.071 2.79313 429.529 2.85407C428.988 2.91495 428.166 2.7852 427.414 2.8802C427.236 2.90249 426.217 3.29145 426.078 3.31501C424.989 3.49915 424.834 2.87886 424.777 2.8448C424.123 2.47713 422.879 2.89616 422.549 2.92512C421.046 3.05779 419.769 2.97055 418.512 3.06525C417.69 3.12646 417.61 3.53277 416.965 3.52033C414.82 3.47922 414.072 2.91242 412.054 3.40388C411.621 3.50869 412.051 3.95278 410.5 3.60358C410.403 3.58157 409.254 3.26212 408.585 3.46418C408.501 3.48965 408.504 3.61908 408.393 3.62995C407.653 3.70027 407.159 3.59717 406.353 3.64655C405.547 3.69593 404.578 3.76955 403.658 3.72565C403.104 3.6994 402.393 3.45827 402.128 3.39924C401.379 3.22917 400.577 3.50801 400.113 3.30207C399.646 3.0951 400.559 2.78077 399.334 2.64704C399.288 2.98329 399.184 3.32841 399.111 3.66657C396.428 3.65473 393.778 3.546 391.078 3.56086C390.743 3.56304 391.085 3.7438 390.726 3.7508C389.213 3.77952 387.892 3.65065 386.324 3.70197C385.111 3.74238 383.782 3.93378 382.515 3.982C381.743 3.59724 379.85 3.72785 378.481 3.69269C378.001 3.68054 378.033 3.57778 377.692 3.54426C376.404 3.42027 377.007 3.76028 376.655 3.81379C375.141 4.04215 375.011 3.27256 373.229 3.29157C373.134 3.29232 371.981 3.70255 371.822 3.72809C370.813 3.89468 371.655 3.58531 371.023 3.555C369.869 3.49961 369.075 3.40164 367.714 3.52179C367.318 3.55738 366.367 3.81308 365.598 3.6153C365.497 3.5894 365.553 3.45381 365.472 3.44587C363.998 3.3135 363.96 3.73956 363.119 3.88385C362.277 4.02812 360.979 3.734 360.715 3.64924C360.024 3.42995 361.244 3.55552 361.282 3.534C361.722 3.27791 360.775 3.322 360.052 3.30036C359.947 2.8826 358.936 2.90768 359.302 3.27961C359.344 3.32023 359.907 3.28127 360.052 3.30036C359.417 3.71024 358.306 3.76273 357.081 3.37971C356.508 3.20019 357.049 2.99088 355.308 3.06745C354.518 3.10202 354.822 3.38966 354.121 3.46808C352.517 3.64701 350.437 3.37869 348.789 3.42097C348.191 3.43631 348.773 3.59377 348.365 3.60969C347.28 3.65241 346.324 3.53427 345.237 3.59479C345.139 3.60048 345.379 3.7653 345.041 3.7674C342.483 3.78654 340.243 3.68097 337.555 3.67804C336.257 3.67671 333.941 3.76761 332.602 3.74933C330.281 3.71863 327.429 3.47895 325.43 3.53718C324.131 3.57445 324.416 3.7393 323.86 3.85163C322.787 4.06936 320.891 3.67935 320.636 3.61896C320.628 3.61696 321.742 3.5781 321.148 3.49347C320.802 3.31714 320.648 3.6182 320.636 3.61896C320.468 3.57995 318.244 3.54253 317.804 3.57404C317.564 3.59126 317.698 3.74746 317.573 3.75348C314.622 3.89326 311.596 3.93296 308.583 3.85993C308.53 3.85677 308.61 3.68206 308.485 3.67682C306.736 3.59914 305.619 3.81287 304.182 3.93976C302.748 4.0666 301.604 4.02412 300.744 3.72419C299.651 3.76195 298.086 3.62935 297.186 3.54889C296.287 3.46844 296.162 3.80853 296.083 3.81525C293.618 4.03044 292.196 3.83578 289.652 3.80549C288.435 3.7905 286.007 3.83983 284.69 3.87702C283.648 3.90698 283.021 3.82728 282.063 3.87824C281.934 3.88504 282.064 4.03647 282.025 4.0423C280.956 4.22347 281.47 3.85329 281.249 3.78717C280.45 3.54675 279.956 3.4187 278.592 3.5318C278.277 3.55771 277.361 4.09072 276.789 4.12189C276.038 4.16144 276.32 3.97039 275.532 4.01667C275.464 4.02045 275.478 4.13832 274.992 4.13312C272.733 4.11055 270.28 4.04196 267.951 4.05378C267.633 4.05494 268.041 4.24189 267.581 4.24665C265.431 4.26881 263.063 4.26189 260.942 4.17438C260.421 4.15225 260.748 4.02135 260.635 3.98249C259.941 3.74732 258.96 4.08901 258.798 4.09552C254.932 4.25973 252.028 3.9505 248.059 4.09772C247.844 4.10636 246.193 4.47267 245.459 4.15851C245.409 4.13761 244.682 3.8162 244.041 4.03595C244.001 4.0497 244.453 4.21517 243.664 4.19831C242.876 4.18148 241.609 4.29198 240.53 4.11017C240.19 4.0529 239.379 3.73228 238.342 3.98786C238.275 4.0057 236.681 4.5836 236.114 4.18488C236.022 4.11925 236.117 3.6973 234.89 3.91364C234.655 3.95558 235.081 4.04969 234.463 4.10846C233.517 4.19904 232.267 4.08603 231.11 4.27399C230.908 4.30727 230.05 4.59365 229.363 4.37628C229.255 4.34224 229.459 4.20138 229.097 4.18561C227.391 4.10999 225.525 4.20422 223.764 4.10675C223.137 4.07251 223.457 3.84478 222.805 3.78376C222.152 3.72275 220.841 3.66407 220.162 3.76813C219.483 3.87224 220.225 4.23518 219.208 4.26422C214.835 4.39036 210.326 4.17745 205.95 4.1463C205.298 4.14165 205.838 4.27152 204.879 4.27399C201.263 4.28365 195.139 4.40542 192.033 4.12946C189.53 3.90843 192.679 3.74016 190.768 3.65021C189.846 3.60731 188.853 4.02926 188.631 4.04255C186.469 4.17749 184.976 3.99057 183.052 4.04792C182.655 4.05982 183.044 4.23084 182.707 4.23908C181.544 4.26874 180.293 4.1924 179.175 4.20636C178.673 4.21302 178.765 4.34364 178.303 4.33356C177.199 4.31094 176.225 4.25604 175.156 4.13361C175.059 4.12245 175.716 3.95997 174.905 3.95392C173.582 3.9446 172.005 3.82383 170.448 3.94855C169.994 3.98607 169.975 4.2846 169 4.07843C168.796 4.03537 169.056 3.6769 167.923 3.98664C167.732 4.03811 165.835 4.45588 164.911 4.18659C164.666 4.11571 164.044 3.82237 163.507 3.86847C163.434 3.87583 163.726 4.03618 163.281 4.05182C161.725 4.10416 160.051 4.08705 158.413 4.13727C157.977 4.151 158.627 4.31693 157.977 4.3321C156.188 4.37404 153.976 4.33179 152.258 4.27985C151.625 4.26039 152.063 4.12293 152.016 4.10797C151.277 3.86467 150.836 4.19307 150.581 4.21222C149.012 4.32688 147.825 4.17262 146.396 4.21344C146.002 4.22429 146.281 4.38088 146.203 4.39484C145.39 4.53126 145.996 4.25006 145.482 4.21906C144.041 4.13129 142.458 4.14387 141.012 4.16388C140.468 4.17146 141.079 4.35303 140.591 4.35773C137.705 4.38902 134.751 4.37164 132.02 4.27155C131.506 4.25237 131.829 4.11256 131.722 4.08063C130.959 3.85722 129.845 4.16195 129.59 4.19098C128.428 4.32352 127.979 4.19989 126.963 4.22296C122.066 4.33786 115.886 4.25598 111.185 4.20539C105.092 4.14028 100.352 4.00728 94.5081 4.04181C94.1349 4.04383 94.5111 4.22982 94.1897 4.23395C90.113 4.27879 85.9468 4.20611 81.9295 4.25983C81.5813 4.26391 82.0829 4.44023 81.5246 4.4527C80.3795 4.47952 78.9517 4.46994 77.8309 4.41364C77.2843 4.38651 78.0171 4.23521 77.4674 4.211C76.6614 4.17525 75.8276 4.15704 75.0042 4.15554C74.491 4.15467 73.9816 4.15954 73.4838 4.16999C72.9115 4.1824 73.7744 4.36273 73.0315 4.36481C68.0683 4.3827 63.1995 4.41376 58.1063 4.18024C57.7664 4.1642 57.4673 3.7977 56.7545 3.86799C56.7009 3.9697 56.7038 4.08935 56.6804 4.19806C49.4369 4.25663 42.1906 4.12957 34.9111 4.10993C34.6063 4.10914 35.1322 4.30333 34.5436 4.3028C31.0995 4.29993 27.7859 4.35372 24.2444 4.16071C23.9017 4.14183 24.0676 3.8002 23.077 3.85187C22.8841 3.8613 21.3 3.90686 20.921 3.98102C20.8682 3.99221 21.1429 4.15167 20.6573 4.15631C17.7365 4.18053 14.7011 4.14412 11.8139 4.0467C11.3627 4.03067 11.842 3.86086 11.5225 3.84797C9.18121 3.75782 6.577 3.88691 4.32606 3.73273C2.82295 3.62892 3.37517 3.33539 2.57534 3.04645C2.47265 3.00569 1.53783 2.99923 1.48266 2.83112C1.35824 2.4084 1.81244 1.94553 1.63231 1.49495C1.58564 1.39789 0.343583 1.50242 1.08101 1.2679C1.12804 1.2522 2.03594 1.17436 2.26159 1.0948C2.42268 1.03979 2.15048 0.868829 2.44874 0.798415C2.77069 0.728067 3.1306 0.871379 3.63814 0.788649C4.18737 0.704895 3.91554 0.510404 4.99127 0.487381ZM293.144 3.18928C292.314 3.02595 292.192 3.62414 293.089 3.48102C293.133 3.4734 293.187 3.19729 293.144 3.18928ZM393.794 3.09479C392.704 2.83095 391.96 3.21891 392.728 3.42267C393.496 3.62622 394.126 3.17478 393.794 3.09479ZM405.068 2.90217C403.796 2.69414 403.596 3.5424 404.958 3.37092C405.037 3.36123 405.142 2.91425 405.068 2.90217ZM6.29102 2.96418C6.27535 2.95624 5.63218 2.94849 5.59781 2.95637C5.24293 3.14635 6.57511 3.1617 6.29102 2.96418ZM416.258 2.69245C415.861 2.57771 414.719 2.71017 415.212 2.85285C415.609 2.96764 416.752 2.83519 416.258 2.69245ZM249.756 2.55085C249.743 2.54194 249.258 2.53391 249.268 2.5843C249.301 2.74659 249.976 2.70078 249.756 2.55085ZM435.28 2.68269C432.468 2.65076 430.764 1.95006 433.825 2.02912C434.38 2.04343 432.63 2.25257 433.336 2.31574C434.627 2.43083 435.485 1.99088 436.803 2.22663C437.042 2.26978 435.44 2.68606 435.275 2.68366C435.276 2.68334 435.278 2.68301 435.28 2.68269ZM292.666 2.47077C292.649 2.46286 291.984 2.45536 291.968 2.4632C291.608 2.65311 292.948 2.66833 292.666 2.47077ZM221.604 2.18098C221.566 2.16412 220.02 2.14836 219.97 2.16389C219.163 2.47444 222.289 2.50723 221.604 2.18098ZM337.627 2.03303C338.356 1.84198 339.23 1.81949 339.812 2.0594C339.086 2.04666 338.356 2.04479 337.627 2.03303Z" fill="#57718C"/>
</svg>
