<svg width="298" height="15" viewBox="0 0 298 15" fill="none" xmlns="http://www.w3.org/2000/svg">
<path d="M4.50214 7.45739C6.6287 7.33828 9.41835 7.30616 11.542 7.31578C12.2073 7.31856 11.8741 7.43512 12.3335 7.44181C13.2319 7.45475 14.0659 7.37647 14.9536 7.39763C15.2478 7.40517 14.8876 7.58453 15.1959 7.58859C16.8854 7.60963 18.4808 7.51658 20.193 7.49837C28.6161 7.40929 36.9055 7.21127 45.4307 7.01932C48.2463 6.95574 51.658 7.00076 54.5669 6.84246C54.9058 6.82386 54.699 6.6829 54.7631 6.66872C55.769 6.45097 55.442 6.75898 56.1035 6.77771C58.7243 6.85134 61.6453 6.77293 64.1659 6.63663C65.2377 6.57822 64.1533 6.31946 65.2381 6.44971C65.3134 6.45844 65.0463 6.62346 65.3408 6.63089C66.0088 6.64742 67.2714 6.57966 67.7873 6.57582C68.787 6.56904 68.9531 6.56223 69.8977 6.53427C71.1891 6.4974 72.7249 6.52688 74.1042 6.44795C74.3985 6.43064 74.0035 6.28255 74.4724 6.24046C74.9427 6.19837 76.1825 6.17294 76.6086 6.19736C77.0315 6.22191 76.8559 6.35362 76.9314 6.38016C77.5533 6.60469 78.9869 6.22144 79.1721 6.20725C82.5501 5.95839 85.454 6.05954 88.6336 5.95885C91.0395 5.88226 93.6158 5.73754 95.9143 5.67387C98.6469 5.59882 100.957 5.61306 103.621 5.51422C103.901 5.504 103.566 5.32577 103.909 5.31291C107.532 5.17684 111.164 5.08303 114.774 5.09678C115.136 5.09832 114.675 5.27856 115.037 5.29001C117.256 5.35634 120.8 5.57191 122.085 4.80988C123.577 4.79108 125.42 4.76214 126.771 4.86505C127.642 4.93122 126.805 5.13813 127.868 5.0276C128.108 5.00289 127.791 4.85477 128.151 4.82966C129.669 4.72396 131.303 4.72389 132.82 4.59443C133.127 4.5678 133.038 4.4289 133.124 4.40068C133.849 4.17127 135.071 4.47431 135.336 4.4908C137.354 4.61231 138.792 4.49418 140.685 4.43911C141.121 4.4265 140.6 4.25262 141.019 4.23366C143.2 4.1377 145.413 4.08438 147.555 4.10138C148.03 4.10565 147.599 4.28133 147.826 4.29166C148.828 4.33525 149.04 4.02242 149.997 4.05844C150.199 4.06564 150.09 4.20784 150.127 4.22191C150.709 4.44283 151.196 4.08851 151.343 4.07639C153.198 3.91573 154.405 4.23158 156.218 4.12438C156.435 4.11122 155.941 3.95118 156.549 3.92491C160.576 3.74966 164.882 3.6623 168.872 3.67713C169.499 3.67897 169.056 3.82483 169.096 3.83983C169.747 4.0734 170.15 3.72028 170.354 3.70106C171.957 3.55829 173.454 3.79663 174.519 3.35765C181.327 3.28402 188.068 2.84411 194.781 2.99603C194.868 2.99751 194.718 3.16988 194.891 3.17211C196.97 3.2008 196.561 2.95309 197.913 2.59186C198.254 2.50112 199.303 2.85283 199.395 2.87814C199.732 2.97147 199.394 3.23153 199.506 3.24812C200.438 3.37682 200.244 2.55808 201.51 2.51798C201.549 2.51811 201.387 2.67503 201.494 2.68676C201.827 2.72368 202.153 2.65309 202.477 2.69515C203.219 2.79274 203.495 3.18486 204.605 2.91664C204.745 2.88196 204.517 2.42125 205.631 2.40828C206.07 2.40367 208.044 2.33352 208.611 2.34601C209.169 2.35872 208.791 2.52139 208.831 2.52667C210.336 2.67868 209.77 2.77913 210.526 3.0505C211.28 3.32082 211.051 2.62666 211.352 2.53892C211.654 2.45136 212.74 2.58166 213.006 2.63048C213.275 2.67923 212.942 2.78552 213.184 2.81026C214.796 2.97106 213.878 2.44031 214.402 2.3125C215.634 2.01013 216.607 2.49965 217.724 2.51546C218.026 2.51972 217.776 2.40911 218.044 2.3896C219.088 2.31443 219.781 2.45493 220.998 2.26781C221.199 2.23725 222.179 1.8937 222.82 2.10301C222.911 2.13325 222.66 2.27077 223.115 2.28548C223.788 2.30786 225.022 2.29736 225.769 2.23054C226.315 2.18129 225.682 1.98764 226.372 2.03228C226.678 2.05227 226.116 2.19488 226.691 2.22205C227.263 2.24925 228.706 2.19837 229.248 2.17701C229.79 2.15554 229.488 2.00303 229.531 1.99075C229.786 1.92022 230.871 1.80794 230.962 1.80529C232.331 1.75653 233.649 1.73354 234.932 1.72027C238.231 1.68371 241.383 1.70476 244.604 1.53954C244.972 1.52115 244.721 1.35816 244.778 1.35359C246.032 1.24277 245.057 1.72748 245.935 1.85208C245.798 1.50969 246.318 1.55622 247.183 1.49122C247.599 1.45964 247.368 1.33261 247.405 1.31769C248.016 1.09476 248.448 1.34469 248.559 1.3951C248.963 1.58072 249.412 1.33262 249.702 1.45608C249.991 1.57861 249.343 1.7936 250.189 1.76487C250.421 1.63356 249.785 1.32896 250.424 1.25662C252.809 0.983686 257.215 1.10334 259.192 1.07076C261.096 1.04012 261.711 0.999164 262.844 1.01071C264.864 1.03276 264.081 0.815019 265.351 0.668224C266.626 0.521583 266.02 1.13097 266.207 1.25286C266.389 1.37487 266.58 1.23851 266.802 1.30216C267.022 1.36582 266.551 1.46567 267.066 1.47736C267.575 1.4891 268.971 1.22394 269.165 1.08562C269.548 0.793238 268.905 0.514838 270.276 0.581446C270.354 0.585494 270.105 0.747903 270.404 0.755521C272.778 0.811047 275.311 0.753507 277.666 0.805714C278.004 0.812833 277.707 0.992746 277.903 0.998872C279.922 1.06473 279.157 0.789907 280.259 0.442558C280.008 0.879505 280.672 1.12872 282.14 1.10439C283.049 1.08989 282.906 0.904087 283.491 0.761653C283.669 0.718655 284.3 0.838478 284.409 0.748368C284.771 0.453837 284.187 0.136176 285.758 0.24582C285.826 0.251172 285.612 0.412233 285.846 0.419133C287.352 0.466499 287.532 0.160329 289.213 0.12022C290.494 0.0899162 292.814 0.287689 294.306 0.403102C294.251 0.887975 295.607 0.8352 296.287 0.661824C296.354 0.678551 296.416 0.696285 296.475 0.715912C296.548 0.739777 296.655 0.780742 296.74 0.834063C296.792 0.8711 296.801 0.863757 296.899 0.968938C296.981 1.05806 297.048 1.23613 297.014 1.39008C296.95 1.64065 296.841 1.69724 296.741 1.78044C296.609 1.87421 296.468 1.93843 296.333 1.9952C296.223 2.04056 296.101 2.08573 295.963 2.13153C295.717 2.21327 295.491 2.27688 295.23 2.34391C295.012 2.39864 294.775 2.45193 294.526 2.50144C294.219 2.55994 294.385 2.37484 294.343 2.3695C294.007 2.31796 293.737 2.41711 293.524 2.52904C293.37 2.61758 293.253 2.71623 293.163 2.74179C290.985 3.33608 289.133 3.42064 287.076 4.0337C286.999 4.05615 286.937 4.40967 286.341 4.26463C286.301 4.25431 286.965 3.98226 285.979 4.14305C284.959 4.30981 283.096 4.44391 281.729 4.82863C281.389 4.92326 280.618 5.32796 279.893 5.22985C279.797 5.21614 279.882 5.10442 279.741 5.07291C279.282 4.97431 279.124 5.34507 278.582 5.13983C278.039 4.93468 276.981 4.88623 275.617 5.30518C275.574 5.31787 275.28 5.63801 274.849 5.70187C274.161 5.80387 273.139 5.90763 272.424 6.02125C272.076 6.07655 272.325 6.20737 272.265 6.21983C269.924 6.68028 268.242 6.78833 265.713 7.10885C265.253 7.16669 263.956 7.59523 263.04 7.55095C262.03 7.50337 262.913 6.53818 260.69 7.0714C259.794 7.28552 258.797 8.49113 257.084 8.19984C253.937 8.80521 250.965 8.96499 247.816 9.62227C247.678 9.65125 247.264 10.0067 246.926 10.0524C246.425 10.1197 246.132 10.0251 245.777 10.0682C244.275 10.2475 242.927 10.5631 241.487 10.7561C240.945 10.829 241.117 10.6614 240.457 10.7503C239.795 10.8396 239.411 11.0834 238.503 11.1262C237.811 11.1586 237.127 10.8759 236.211 10.9659C236.225 11.3417 235.637 11.4202 234.559 11.6788C234.352 11.7286 234.596 11.8242 234.499 11.8544C234.105 11.9802 233.723 11.9275 233.363 12.0543C233.276 12.0849 233.29 12.212 233.215 12.2447C232.572 12.5297 231.522 12.3947 231.309 12.3759C230.678 12.3053 230.375 12.4494 229.972 12.4943C229.898 12.5027 229.822 12.5082 229.74 12.5094C229.185 12.5167 229.983 12.303 229.344 12.3526C228.062 12.4491 226.389 12.7223 225.08 12.9181C224.573 12.9947 224.944 13.1098 224.872 13.1247C223.786 13.3358 222.672 13.3286 222.137 13.7593C221.227 13.0199 221.508 13.9409 219.929 14.0407C219.816 14.0471 219.574 13.6686 220.036 13.5235C220.482 13.3818 221.228 13.388 221.855 13.19C222 13.1435 222.84 12.6152 222.936 12.5765C223.861 12.2441 224.07 12.8403 224.128 12.8655C224.768 13.1377 225.766 12.5608 226.041 12.4897C227.331 12.159 228.423 12.0833 229.495 11.8275C229.638 11.7937 229.754 11.7499 229.853 11.7009C230.218 11.51 230.311 11.2357 230.759 11.1792C232.621 10.9447 233.332 11.4129 235.024 10.6672C235.378 10.5091 234.934 10.1256 236.33 10.2733C236.426 10.2814 237.453 10.4535 238 10.1689C238.069 10.1331 238.048 10.0054 238.142 9.98056C238.783 9.81544 239.207 9.85749 239.896 9.70644C240.592 9.55445 241.406 9.36066 242.208 9.28732C242.694 9.24247 243.341 9.39114 243.576 9.4164C244.241 9.49063 244.903 9.11154 245.332 9.25665C245.762 9.40257 245.024 9.82884 246.095 9.80644C246.085 9.46803 246.125 9.11337 246.139 8.76956C248.463 8.43966 250.756 8.21137 253.079 7.85181C253.367 7.80691 253.046 7.67183 253.354 7.61905C254.659 7.39639 255.81 7.35542 257.156 7.10249C258.196 6.90638 259.316 6.54504 260.402 6.33289C261.126 6.6132 262.733 6.23873 263.914 6.09486C264.33 6.04399 264.318 6.14979 264.617 6.13823C265.744 6.09218 265.173 5.83508 265.468 5.73597C266.732 5.31205 266.97 6.05425 268.495 5.80049C268.578 5.78706 269.513 5.2276 269.645 5.18127C270.487 4.88228 269.811 5.30009 270.358 5.24603C271.361 5.14634 272.069 5.13517 273.214 4.83377C273.552 4.74466 274.33 4.36323 275.012 4.45524C275.102 4.46717 275.075 4.60882 275.147 4.60541C276.446 4.53295 276.406 4.10745 277.098 3.85034C277.809 3.59024 278.966 3.70039 279.2 3.74799C279.831 3.86735 278.764 3.91404 278.737 3.94C278.408 4.25286 279.189 4.08168 279.833 3.99812C279.993 4.39533 280.857 4.22779 280.483 3.91251C280.441 3.87824 279.963 3.99626 279.833 3.99812C280.321 3.50288 281.248 3.29735 282.378 3.49647C282.905 3.58973 282.446 3.88052 283.956 3.54661C284.63 3.39648 284.321 3.15761 284.895 2.9792C286.263 2.56203 288.046 2.51837 289.461 2.20882C289.953 2.10035 289.432 2.03855 289.784 1.95584C290.719 1.73434 291.544 1.69263 292.445 1.44051C292.53 1.4168 292.288 1.29976 292.579 1.23566C292.799 1.18653 293.007 1.14039 293.203 1.09687C294.139 0.886095 295.133 0.67652 295.743 0.444659C295.777 0.430882 295.797 0.421501 295.797 0.422953C295.795 0.430659 295.792 0.411753 295.661 0.544586C295.6 0.611583 295.509 0.722345 295.438 0.919464C295.328 1.1708 295.376 1.66977 295.546 1.9018C295.62 2.02218 295.715 2.11368 295.755 2.1467C295.79 2.17657 295.82 2.19872 295.846 2.21596C295.898 2.25022 295.932 2.26565 295.952 2.27414C296.039 2.29544 295.75 2.21465 295.586 2.19296C295.365 2.15748 295.153 2.13286 294.913 2.11019C294.649 2.086 294.434 2.07087 294.177 2.05648C293.084 1.99143 291.102 2.05588 289.909 2.03627C287.884 1.99908 285.422 1.78929 283.696 1.87498C282.569 1.93046 282.804 2.0919 282.318 2.2127C281.449 2.44547 279.702 2.09119 279.522 2.03488C279.509 2.03306 280.478 1.97411 279.951 1.90037C279.657 1.7301 279.532 2.0339 279.522 2.03488C279.401 1.99799 277.413 2.00468 277.048 2.04519C276.844 2.06718 276.962 2.22066 276.855 2.22918C274.253 2.43027 271.674 2.53777 269.04 2.53737C268.993 2.53552 269.059 2.35891 268.948 2.35675C267.407 2.32173 266.487 2.56172 265.194 2.72585C263.953 2.88846 262.973 2.87473 262.205 2.59729C261.211 2.66435 259.92 2.57021 259.118 2.51382C258.328 2.45705 258.224 2.80049 258.155 2.80929C256.022 3.08902 254.759 2.93288 252.542 2.97082C251.52 2.98726 249.333 3.1044 248.238 3.17572C247.345 3.2335 246.797 3.17086 245.956 3.24812C245.842 3.25849 245.962 3.40624 245.927 3.41315C244.988 3.62375 245.43 3.23958 245.233 3.17961C244.499 2.962 244.103 2.84629 242.917 2.99663C242.645 3.03107 241.86 3.58896 241.354 3.63605C240.695 3.6963 240.939 3.49749 240.244 3.5656C240.187 3.57118 240.193 3.68893 239.777 3.69679C238.282 3.72615 236.646 3.73193 234.997 3.77025C234.553 3.78039 234.109 3.79309 233.667 3.80958C233.392 3.8194 233.751 3.99515 233.353 4.01243C231.484 4.0934 229.378 4.15275 227.57 4.12209C227.118 4.11415 227.397 3.97443 227.298 3.93866C226.69 3.72251 225.84 4.09111 225.698 4.10211C222.356 4.37155 219.717 4.14522 216.349 4.39851C216.164 4.41296 214.738 4.82435 214.079 4.53077C214.037 4.51116 213.372 4.21053 212.83 4.44745C212.796 4.46227 213.191 4.6154 212.511 4.61994C211.83 4.62452 210.733 4.76962 209.778 4.61778C209.476 4.56999 208.755 4.27188 207.859 4.55581C207.793 4.57571 206.438 5.19655 205.94 4.81332C205.858 4.75023 205.93 4.32582 204.874 4.57549C204.672 4.62381 205.044 4.70625 204.51 4.78186C203.692 4.89824 202.594 4.81975 201.576 5.03985C201.394 5.07887 200.657 5.38858 200.055 5.19006C199.96 5.15898 200.134 5.01259 199.818 5.00676C198.315 4.97841 196.731 5.12255 195.174 5.07405C194.622 5.05715 194.895 4.82073 194.331 4.77741C193.769 4.73408 192.632 4.71116 192.042 4.83384C191.453 4.95656 192.112 5.29891 191.224 5.35595C187.319 5.60507 183.517 5.51174 179.661 5.60198C179.09 5.61529 179.568 5.73019 178.726 5.75916C175.592 5.86749 170.262 6.15716 167.528 5.96711C165.374 5.81381 168.072 5.5605 166.427 5.52231C165.633 5.50439 164.784 5.95328 164.592 5.97262C162.721 6.16652 161.37 6.02207 159.704 6.13188C159.357 6.15472 159.704 6.31491 159.408 6.33247C158.398 6.39394 157.329 6.35124 156.355 6.39585C155.919 6.41626 156.003 6.54428 155.601 6.54688C154.638 6.55457 153.774 6.52683 152.847 6.43352C152.762 6.42504 153.328 6.24465 152.623 6.26081C151.481 6.28745 150.054 6.21154 148.732 6.37795C148.34 6.42784 148.334 6.72669 147.48 6.54731C147.301 6.50988 147.517 6.14442 146.538 6.48515C146.375 6.54178 144.751 7.0109 143.934 6.7672C143.719 6.70306 143.165 6.427 142.695 6.48792C142.632 6.49729 142.893 6.6495 142.503 6.67743C141.131 6.77299 139.662 6.80211 138.262 6.89645C137.887 6.922 138.452 7.07023 137.892 7.10302C136.354 7.19343 134.42 7.21206 132.897 7.20805C132.336 7.20626 132.719 7.05667 132.678 7.043C132.014 6.82047 131.633 7.16103 131.419 7.18694C130.083 7.34372 129.055 7.22176 127.814 7.30168C127.471 7.32332 127.719 7.47217 127.652 7.48828C126.948 7.64693 127.466 7.34925 127.017 7.33239C125.761 7.28413 124.34 7.34146 123.083 7.40106C122.62 7.42325 123.147 7.5883 122.731 7.60612C120.269 7.71493 117.674 7.77928 115.258 7.75523C114.804 7.75033 115.085 7.60161 114.989 7.57267C114.331 7.36987 113.385 7.70456 113.165 7.74052C112.168 7.90453 111.774 7.79322 110.888 7.84422C106.56 8.09547 101.205 8.18219 97.141 8.25957C91.8067 8.36243 87.6891 8.35904 82.612 8.55349C82.2904 8.56564 82.6206 8.74132 82.3435 8.75418C78.7628 8.91181 75.2168 8.95077 71.6294 9.1175C71.3343 9.13088 71.7654 9.29371 71.292 9.3211C70.3209 9.37851 69.0877 9.40776 68.1006 9.38252C67.6204 9.37051 68.2575 9.19907 67.7757 9.19002C66.6545 9.16858 65.4526 9.19387 64.3007 9.25843C63.8104 9.28629 64.5564 9.44322 63.9187 9.46538C59.5639 9.62044 55.313 9.78539 50.9045 9.6906C50.6036 9.68404 50.3284 9.32602 49.6915 9.4164C49.6465 9.51958 49.6529 9.63908 49.6353 9.74841C43.3134 10.0061 37.0423 10.0765 30.7033 10.2565C30.4359 10.2641 30.9042 10.4437 30.3864 10.4595C27.3877 10.551 24.4802 10.6964 21.409 10.6C21.1042 10.5908 21.2495 10.2444 20.3546 10.3243C20.1968 10.3387 18.8475 10.4267 18.5005 10.5119C18.4534 10.5245 18.7049 10.6762 18.2697 10.6945C15.7432 10.7983 13.094 10.8453 10.5662 10.8275C10.1583 10.8243 10.5868 10.6409 10.2962 10.6372C8.23507 10.6119 6.00206 10.8114 4.03066 10.7192C2.7112 10.6569 3.18925 10.3482 2.48073 10.0814C2.38052 10.0438 1.56526 10.063 1.51782 9.89629C1.3963 9.47719 1.77652 9.00211 1.60035 8.55685C1.56307 8.46093 0.474782 8.59979 1.11368 8.34502C1.15834 8.32791 1.94728 8.22518 2.1397 8.13952C2.27368 8.08027 2.02374 7.91709 2.29841 7.83799C2.57307 7.75896 2.88182 7.89262 3.33824 7.79547C3.79443 7.69731 3.58657 7.50926 4.50214 7.45739ZM255.585 2.261C254.855 2.11988 254.766 2.72108 255.546 2.55406C255.584 2.54528 255.623 2.26787 255.585 2.261ZM250.809 8.65909C251.785 8.78155 252.375 8.30187 251.68 8.19877C250.986 8.09569 250.512 8.6221 250.809 8.65909ZM241.117 10.2796C242.234 10.326 242.284 9.46131 241.143 9.80211C241.077 9.8216 241.052 10.2769 241.117 10.2796ZM5.72157 9.89701C5.71132 9.88939 5.12525 9.9001 5.11149 9.90841C4.80553 10.1081 5.97744 10.0866 5.72157 9.89701ZM231.503 11.9058C231.847 11.9708 232.815 11.6938 232.369 11.6156C232.009 11.5526 231.054 11.828 231.503 11.9058ZM217.763 2.80636C217.752 2.7978 217.335 2.80288 217.345 2.85298C217.379 3.01429 217.956 2.95029 217.763 2.80636ZM222.318 14.1882C219.865 14.3878 218.347 13.7874 220.997 13.6532C221.476 13.6257 219.985 13.9651 220.598 13.9757C221.73 13.993 222.43 13.4828 223.596 13.609C223.807 13.6323 222.458 14.1789 222.314 14.1896C222.316 14.1891 222.317 14.1887 222.318 14.1882ZM255.146 1.55558C255.131 1.54809 254.545 1.55852 254.531 1.56681C254.219 1.76634 255.401 1.74543 255.146 1.55558ZM193.244 3.20806C193.213 3.19219 191.868 3.21874 191.824 3.23567C191.133 3.56814 193.851 3.51536 193.244 3.20806ZM294.329 0.417317C294.938 0.260492 295.785 0.297485 296.284 0.660818C295.617 0.502237 294.927 0.466674 294.329 0.417317Z" fill="#57718C"/>
</svg>
