<svg width="308" height="13" viewBox="0 0 308 13" fill="none" xmlns="http://www.w3.org/2000/svg">
<path d="M3.97524 2.32125C6.09776 2.23752 8.88149 2.25177 10.9968 2.29677C11.6598 2.31062 11.3258 2.42162 11.7835 2.43595C12.679 2.46385 13.5131 2.39943 14.3985 2.43537C14.692 2.4478 14.3295 2.62114 14.6372 2.63033C16.3232 2.67947 17.9161 2.61301 19.6221 2.62336C28.0259 2.67464 36.2923 2.61529 44.7965 2.56696C47.5882 2.55105 51.0221 2.65321 53.9126 2.54442C54.2505 2.53156 54.0469 2.38711 54.111 2.37403C55.1167 2.17337 54.7857 2.47579 55.4444 2.50574C58.0523 2.62388 60.9715 2.59511 63.4889 2.50184C64.5597 2.46173 63.4816 2.1845 64.5622 2.33324C64.6372 2.34326 64.3679 2.5037 64.6617 2.51615C65.3282 2.54408 66.5899 2.49791 67.1051 2.5029C68.0983 2.5133 68.2623 2.50937 69.2003 2.49768C70.4763 2.48315 72.0238 2.53878 73.4031 2.4836C73.6981 2.47135 73.3051 2.31649 73.7753 2.28246C74.246 2.24847 75.4909 2.24431 75.9106 2.27617C76.3305 2.30803 76.1537 2.43668 76.2283 2.46453C76.8425 2.69979 78.2744 2.34147 78.4588 2.3305C81.8111 2.14048 84.7386 2.29171 87.9009 2.24684C90.308 2.21228 92.8528 2.11327 95.1616 2.09002C97.8972 2.06315 100.208 2.11834 102.844 2.06738C103.122 2.06219 102.794 1.878 103.134 1.87128C106.764 1.79978 110.388 1.77143 113.978 1.85093C114.338 1.85907 113.876 2.03089 114.236 2.04892C116.45 2.15551 119.985 2.43594 121.284 1.6977C122.784 1.70621 124.598 1.71171 125.933 1.83985C126.806 1.92213 125.962 2.1135 127.031 2.02269C127.273 2.00242 126.957 1.84845 127.318 1.83001C128.841 1.75252 130.501 1.78266 131.996 1.682C132.3 1.66115 132.215 1.52062 132.301 1.49403C133.023 1.27832 134.231 1.60446 134.493 1.62597C136.48 1.78591 137.963 1.69457 139.838 1.67586C140.273 1.6716 139.756 1.48777 140.174 1.47684C142.344 1.42273 144.579 1.41174 146.681 1.47076C147.148 1.48434 146.72 1.65154 146.944 1.66632C147.939 1.72942 148.163 1.4207 149.121 1.47535C149.323 1.48648 149.211 1.62653 149.248 1.64132C149.827 1.87353 150.323 1.52878 150.471 1.51954C152.34 1.3951 153.535 1.73477 155.326 1.66378C155.54 1.65494 155.055 1.48508 155.657 1.47095C159.673 1.37573 163.993 1.3751 167.945 1.47229C168.573 1.48702 168.127 1.62374 168.166 1.63956C168.813 1.88645 169.224 1.54173 169.428 1.5267C171.037 1.41701 172.534 1.68641 173.612 1.26974C180.348 1.33919 187.104 1.04475 193.825 1.34737C193.91 1.35081 193.76 1.51974 193.929 1.52589C195.967 1.60175 195.552 1.34505 196.917 1.01457C197.263 0.931553 198.317 1.30704 198.41 1.33445C198.748 1.43543 198.4 1.68772 198.513 1.70687C199.45 1.85686 199.292 1.03369 200.547 1.0229C200.587 1.02395 200.423 1.17707 200.528 1.19128C200.856 1.23591 201.179 1.17292 201.499 1.22253C202.229 1.33739 202.493 1.73582 203.598 1.49375C203.738 1.46238 203.522 0.996395 204.627 1.0097C205.049 1.0155 207.058 0.99185 207.613 1.018C208.171 1.04404 207.789 1.19764 207.829 1.20387C209.329 1.39185 208.761 1.47874 209.511 1.7682C210.259 2.05662 210.047 1.35715 210.35 1.27669C210.654 1.19643 211.741 1.35305 212.007 1.40834C212.273 1.46364 211.942 1.56175 212.179 1.59244C213.744 1.79287 212.862 1.23967 213.376 1.12483C214.563 0.853167 215.578 1.36627 216.703 1.40991C217.009 1.42168 216.758 1.3049 217.031 1.29206C218.109 1.24285 218.756 1.401 219.969 1.24492C220.167 1.21947 221.144 0.901063 221.774 1.12683C221.863 1.15939 221.611 1.2904 222.061 1.31683C222.714 1.35661 223.989 1.37784 224.725 1.33065C225.272 1.2957 224.644 1.08554 225.332 1.14823C225.638 1.17625 225.073 1.30408 225.646 1.34631C226.218 1.3885 227.666 1.3758 228.212 1.36893C228.758 1.36193 228.458 1.20142 228.502 1.1903C228.769 1.12652 229.812 1.04367 229.903 1.04347C234.658 1.00253 238.928 1.26144 243.553 1.163C243.91 1.15554 243.672 0.985188 243.726 0.98229C244.945 0.908798 243.986 1.3643 244.835 1.51501C244.711 1.16868 245.213 1.23063 246.06 1.19169C246.473 1.17265 246.25 1.03872 246.287 1.02495C246.922 0.820492 247.361 1.08341 247.474 1.13717C247.892 1.33494 248.344 1.10066 248.625 1.23294C248.907 1.36424 248.26 1.55929 249.097 1.5565C249.331 1.43239 248.711 1.10841 249.345 1.0557C251.699 0.855661 256.193 1.11527 258.083 1.14733C259.952 1.17866 260.59 1.15827 261.725 1.20744C263.757 1.29694 263.012 1.05337 264.256 0.949257C265.492 0.845573 264.887 1.43425 265.064 1.56237C265.237 1.69046 265.427 1.56061 265.64 1.63173C265.853 1.70283 265.391 1.78667 265.893 1.81579C266.37 1.84462 267.859 1.62801 268.033 1.49633C268.426 1.21731 267.79 0.916838 269.162 1.03078C269.241 1.03753 268.985 1.19121 269.286 1.2092C271.614 1.34643 274.19 1.37838 276.52 1.51306C276.839 1.53182 276.551 1.70137 276.737 1.71425C278.654 1.84955 278.026 1.54975 279.124 1.24089C278.864 1.66886 279.494 1.94096 280.985 1.96749C281.875 1.98381 281.723 1.79293 282.292 1.66997C282.448 1.63261 283.108 1.77401 283.233 1.68777C283.633 1.40574 283.029 1.06906 284.609 1.22965C284.678 1.23719 284.456 1.39126 284.693 1.40572C286.242 1.50119 286.309 1.19904 288.034 1.20505C288.912 1.20839 290.186 1.31578 291.3 1.41239C291.978 1.46635 292.605 1.51724 293.115 1.54646C293.079 2.03008 294.424 1.97007 294.98 1.66005C296.008 1.71762 297.035 1.74922 297.883 1.84308C298.206 1.87705 297.986 2.00533 298.026 2.02274C298.677 2.29821 299.11 2.00027 299.317 2.0009C301.49 2.03066 303.365 2.39117 305.484 2.55517C305.528 2.56015 305.549 2.47541 305.715 2.45734C305.862 2.43615 306.088 2.46522 306.322 2.67383C306.362 2.71362 305.596 2.58288 306.618 2.99251C306.696 3.03343 306.77 3.07968 306.839 3.13799C306.905 3.20358 306.98 3.2362 307.057 3.45856C307.13 3.65268 306.974 3.92512 306.924 3.95831C306.854 4.03533 306.771 4.09732 306.673 4.15651C306.428 4.29767 306.334 4.32012 306.14 4.39255C305.973 4.45182 305.694 4.53749 305.558 4.57205C305.237 4.65994 304.743 4.78171 304.407 4.86652C304.057 4.95593 303.681 5.05728 303.314 5.17343C302.992 5.27974 302.255 5.70361 301.476 5.62368C301.387 5.61 301.463 5.49854 301.332 5.46708C300.906 5.36776 300.741 5.74176 300.192 5.53938C299.595 5.34436 298.645 5.27893 297.212 5.68976C297.153 5.70429 296.893 6.01507 296.462 6.072C295.8 6.15946 294.698 6.25367 294.03 6.3439C293.689 6.39017 293.93 6.52733 293.871 6.53824C291.521 6.9428 289.81 7.00264 287.317 7.23262C286.868 7.27364 285.505 7.6625 284.631 7.58001C283.63 7.49436 284.564 6.56193 282.298 7.01297C281.388 7.19312 280.393 8.35347 278.66 7.99632C275.532 8.46789 272.534 8.50084 269.375 9.01409C269.233 9.03698 268.811 9.37264 268.473 9.40279C267.972 9.44699 267.681 9.33934 267.32 9.36666C265.8 9.47815 264.48 9.72664 263.014 9.85316C262.463 9.90097 262.632 9.74285 261.985 9.79859C261.338 9.85452 260.923 10.0815 260.029 10.079C259.355 10.0763 258.641 9.76513 257.747 9.80754C257.749 10.1829 257.146 10.2338 256.074 10.4366C255.868 10.4758 256.104 10.5837 256.007 10.609C255.613 10.7144 255.231 10.6429 254.856 10.7524C254.764 10.7788 254.772 10.9063 254.698 10.9351C254.067 11.1848 252.979 11.0008 252.795 10.9682C252.082 10.8458 251.772 11.0422 251.229 11.019C250.687 10.9957 251.478 10.8262 250.849 10.8408C249.538 10.8717 247.883 11.05 246.568 11.1688C246.043 11.2171 246.417 11.3528 246.342 11.3636C245.26 11.5097 244.14 11.4335 243.575 11.8279C242.742 11.025 242.932 11.9743 241.363 11.9458C241.239 11.9432 241.045 11.5446 241.509 11.4397C241.972 11.3348 242.696 11.3968 243.336 11.2409C243.488 11.2042 244.33 10.7338 244.449 10.6989C245.379 10.4259 245.571 11.0308 245.624 11.0599C246.227 11.3722 247.265 10.8527 247.545 10.797C248.824 10.5422 249.945 10.5229 251.023 10.3248C251.728 10.1959 251.759 9.78478 252.316 9.74388C254.156 9.60873 254.889 10.1076 256.578 9.45039C256.941 9.30994 256.529 8.9038 257.895 9.12202C257.983 9.13564 259.02 9.35574 259.577 9.09829C259.647 9.06586 259.632 8.93727 259.727 8.91712C260.36 8.78458 260.795 8.84555 261.481 8.72851C262.158 8.61237 263.008 8.45458 263.808 8.41947C264.291 8.39796 264.928 8.57695 265.161 8.61297C265.824 8.71784 266.473 8.37271 266.907 8.53604C267.337 8.70091 266.57 9.09392 267.654 9.11933C267.66 8.78079 267.716 8.42826 267.746 8.08541C270.06 7.86412 272.389 7.73494 274.685 7.47954C274.978 7.44656 274.659 7.29828 274.973 7.25831C276.303 7.08979 277.421 7.1006 278.78 6.9024C279.845 6.7468 280.959 6.4324 282.035 6.2643C282.77 6.56994 284.379 6.25762 285.541 6.15835C285.967 6.12136 285.95 6.22674 286.253 6.22525C287.387 6.21745 286.821 5.94118 287.12 5.85222C288.384 5.47238 288.576 6.22519 290.135 6.01491C290.219 6.00397 291.151 5.47455 291.277 5.43261C292.103 5.16023 291.428 5.55765 291.986 5.51712C293.026 5.43976 293.681 5.45327 294.84 5.17465C295.188 5.09143 295.977 4.72423 296.635 4.82918C296.722 4.84285 296.696 4.98367 296.764 4.9819C298.057 4.92767 298.045 4.4963 298.718 4.24692C299.353 4.00387 300.598 4.09453 300.797 4.14461C301.395 4.26336 300.382 4.31158 300.345 4.33847C300.017 4.65288 300.806 4.47785 301.402 4.39228C301.581 4.78603 302.454 4.59714 302.068 4.29106C302.027 4.25772 301.541 4.38717 301.402 4.39228C301.936 3.8787 302.755 3.67876 303.904 3.8084C304.15 3.8431 304.177 3.93625 304.308 3.97139C304.41 4.01134 304.8 3.95986 305.391 3.73317C305.724 3.60572 305.777 3.49086 305.812 3.38407C305.845 3.27548 305.871 3.17063 305.972 3.06221C305.977 3.04733 305.939 3.04904 305.859 3.1499C305.795 3.23336 305.706 3.42348 305.718 3.64813C305.723 3.86928 305.843 4.06797 305.891 4.12394C306.077 4.32118 305.961 4.20381 305.859 4.18193C305.67 4.10871 305.202 3.98361 304.907 3.91063C304.101 3.7238 303.457 3.59206 302.656 3.52715C302.141 3.48978 302.611 3.6958 302.285 3.67913C301.466 3.64058 300.463 3.44341 299.638 3.44827C299.555 3.44836 299.746 3.62642 299.462 3.60939C298.925 3.57821 298.356 3.5406 297.798 3.50215C297.311 3.46766 296.809 3.43007 296.283 3.3924C295.19 3.31532 294.162 3.24549 293.016 3.20187C292.555 3.18441 291.929 3.17755 291.244 3.17231C290.382 3.16853 289.415 3.16809 288.716 3.13876C286.56 3.05026 284.295 2.76387 282.452 2.78943C281.369 2.80771 281.6 2.97685 281.127 3.08129C280.217 3.28373 278.543 2.86959 278.31 2.80622C278.304 2.80406 279.298 2.77926 278.769 2.68713C278.464 2.50646 278.321 2.80561 278.31 2.80622C278.121 2.76424 276.257 2.70285 275.871 2.73019C275.664 2.74499 275.778 2.90253 275.67 2.9073C273.058 3.01676 270.512 3.03402 267.859 2.94292C267.812 2.93944 267.884 2.76522 267.773 2.75923C266.191 2.67102 265.286 2.87982 264.037 3.00043C262.794 3.12113 261.786 3.07466 261.03 2.77194C260.031 2.80598 258.745 2.66958 257.964 2.58721C257.192 2.50486 257.08 2.84479 257.012 2.85135C254.886 3.06213 253.549 2.86589 251.4 2.83464C250.36 2.81913 248.258 2.86893 247.087 2.90725C246.15 2.93802 245.637 2.85893 244.814 2.91103C244.703 2.91799 244.815 3.06926 244.781 3.07514C243.864 3.25766 244.304 2.88684 244.115 2.82101C243.425 2.58171 242.999 2.45433 241.804 2.56992C241.529 2.5964 240.724 3.13122 240.215 3.16367C239.554 3.20489 239.804 3.01318 239.108 3.06132C239.051 3.06527 239.056 3.18311 238.637 3.17908C236.727 3.16187 234.609 3.10052 232.553 3.1206C232.272 3.12289 232.633 3.30839 232.227 3.31479C230.287 3.34484 228.329 3.34696 226.476 3.26883C226.024 3.249 226.307 3.11666 226.208 3.0783C225.605 2.84618 224.747 3.19243 224.605 3.19972C221.194 3.38235 218.743 3.08798 215.26 3.2583C215.066 3.26822 213.635 3.64422 213.009 3.33445C212.966 3.31385 212.339 2.99679 211.786 3.2205C211.751 3.23449 212.144 3.39717 211.461 3.38517C210.778 3.37322 209.676 3.49174 208.725 3.31705C208.424 3.26203 207.711 2.94674 206.811 3.20925C206.756 3.2275 205.35 3.81632 204.877 3.42136C204.798 3.35636 204.878 2.93373 203.827 3.15847C203.625 3.20203 203.992 3.2932 203.462 3.35624C202.649 3.45336 201.565 3.34921 200.555 3.54562C200.38 3.58036 199.631 3.87304 199.024 3.66083C198.929 3.62759 199.108 3.4852 198.788 3.47216C197.259 3.40957 195.677 3.51766 194.164 3.43376C193.625 3.40435 193.898 3.17416 193.335 3.11821C192.772 3.06228 191.633 3.014 191.04 3.12357C190.447 3.23317 191.1 3.59007 190.209 3.62739C186.276 3.79019 182.577 3.61355 178.665 3.62236C178.087 3.62362 178.568 3.74856 177.716 3.75978C174.656 3.80068 169.263 3.98019 166.568 3.73411C164.425 3.53675 167.118 3.33869 165.48 3.26686C164.69 3.23272 163.836 3.66424 163.645 3.67968C161.774 3.83559 160.463 3.66355 158.761 3.7404C158.41 3.75633 158.757 3.92339 158.458 3.93506C157.425 3.97659 156.383 3.91231 155.417 3.93753C154.985 3.94922 155.066 4.0789 154.668 4.07347C153.715 4.062 152.87 4.01703 151.935 3.90565C151.85 3.8955 152.422 3.72624 151.713 3.72858C150.566 3.73284 149.136 3.62912 147.807 3.76983C147.415 3.81208 147.395 4.11087 146.561 3.91475C146.385 3.87382 146.605 3.51265 145.636 3.83415C145.474 3.88759 143.842 4.32524 143.032 4.06587C142.819 3.9976 142.272 3.71094 141.803 3.76283C141.739 3.77097 141.996 3.92816 141.607 3.9486C140.233 4.01786 138.787 4.01868 137.366 4.08667C136.986 4.10515 137.554 4.26399 136.988 4.28624C135.446 4.34746 133.535 4.32932 132.023 4.2966C131.467 4.28421 131.85 4.14188 131.809 4.12744C131.155 3.89244 130.773 4.22574 130.557 4.24765C129.212 4.3795 128.181 4.23845 126.934 4.29537C126.59 4.31066 126.836 4.46408 126.768 4.47893C126.058 4.62452 126.584 4.33649 126.134 4.31132C124.884 4.2397 123.499 4.27029 122.235 4.30682C121.771 4.32047 122.295 4.4952 121.878 4.50535C119.416 4.56884 116.824 4.5857 114.411 4.51775C113.96 4.50459 114.242 4.36101 114.147 4.33033C113.496 4.11558 112.548 4.43302 112.329 4.46498C111.334 4.61086 110.944 4.49245 110.062 4.52739C105.736 4.70044 100.424 4.69112 96.3429 4.69697C90.9992 4.70575 86.9374 4.62963 81.8418 4.73617C81.5187 4.74276 81.8468 4.92412 81.5689 4.93218C78.0057 5.02742 74.4805 5.00496 70.8807 5.1103C70.5852 5.11861 71.0137 5.28881 70.5396 5.30808C69.5693 5.34882 68.349 5.35677 67.3693 5.31457C66.8918 5.29431 67.5295 5.13382 67.049 5.11652C65.9299 5.0759 64.7297 5.08066 63.5788 5.12556C63.0891 5.14505 63.8309 5.31468 63.1941 5.32596C58.8433 5.40676 54.6079 5.49944 50.2149 5.33014C49.9139 5.3185 49.6447 4.9559 49.0059 5.03554C48.9592 5.13795 48.9636 5.25754 48.9441 5.36656C42.6394 5.51742 36.3765 5.48267 30.0579 5.55655C29.7911 5.55971 30.2551 5.74706 29.7385 5.75417C26.7493 5.79555 23.8389 5.89253 20.7826 5.74489C20.479 5.73052 20.6296 5.38661 19.7364 5.45156C19.5789 5.46332 18.2329 5.52889 17.8857 5.60822C17.8386 5.62011 18.0867 5.7759 17.6528 5.787C15.1315 5.8487 12.4832 5.8517 9.96646 5.79173C9.55998 5.78175 9.99007 5.60552 9.70053 5.59693C7.64671 5.53736 5.41548 5.6997 3.4512 5.57476C2.13636 5.49053 2.6182 5.18979 1.91602 4.91128C1.8167 4.87199 1.00335 4.87765 0.958791 4.71019C0.844523 4.28912 1.23154 3.82043 1.0632 3.37231C1.0276 3.27577 -0.0600027 3.39652 0.581359 3.15241C0.626175 3.13604 1.41466 3.04645 1.60797 2.964C1.74256 2.90698 1.496 2.73967 1.77123 2.66515C2.04644 2.59069 2.35214 2.72947 2.80893 2.63992C3.26549 2.54936 3.0613 2.35789 3.97524 2.32125ZM254.436 2.22093C253.698 2.05669 253.588 2.65477 254.387 2.51261C254.425 2.50503 254.474 2.22899 254.436 2.22093ZM272.404 8.18525C273.372 8.35052 273.965 7.89858 273.287 7.76415C272.608 7.62999 272.108 8.13531 272.404 8.18525ZM262.662 9.36024C263.792 9.45773 263.882 8.5964 262.712 8.88429C262.644 8.90075 262.596 9.35462 262.662 9.36024ZM5.15108 4.7808C5.14099 4.77301 4.55633 4.77398 4.54247 4.78206C4.23404 4.97666 5.40313 4.97459 5.15108 4.7808ZM253.004 10.5096C253.351 10.5916 254.336 10.3638 253.893 10.2631C253.53 10.1827 252.567 10.4082 253.004 10.5096ZM216.735 1.7017C216.724 1.69285 216.301 1.68758 216.309 1.73792C216.339 1.90001 216.927 1.85039 216.735 1.7017ZM236.55 12.0788C238.986 11.8818 240.521 12.4409 237.869 12.6112C237.389 12.642 238.881 12.2915 238.265 12.286C237.138 12.2765 236.437 12.7843 235.274 12.6569C235.063 12.6334 236.411 12.0885 236.554 12.0775C236.553 12.0779 236.551 12.0784 236.55 12.0788ZM254.011 1.5019C253.997 1.49396 253.402 1.48583 253.387 1.49367C253.065 1.68324 254.264 1.69972 254.011 1.5019ZM192.28 1.52495C192.249 1.50836 190.902 1.50498 190.857 1.52095C190.157 1.83795 192.881 1.84568 192.28 1.52495ZM293.138 1.56025C293.785 1.3928 294.49 1.39858 294.977 1.65968C294.364 1.62068 293.776 1.59551 293.138 1.56025Z" fill="#57718C"/>
</svg>
